<?xml version="1.0" standalone="no"?>
<!DOCTYPE svg PUBLIC "-//W3C//DTD SVG 1.1//EN" "http://www.w3.org/Graphics/SVG/1.1/DTD/svg11.dtd" >
<svg>
<metadata>
Created by FontForge 20100429 at Tue Aug 20 10:32:28 2013
 By www-data
Copyright (c) Frantisek Storm, www.stormtype.com, 2001. All rights reserved.
</metadata>
<defs>
<font id="JohnSansTextPro" horiz-adv-x="241" >
  <font-face 
    font-family="JohnSans Text Pro"
    font-weight="400"
    font-stretch="normal"
    units-per-em="1000"
    panose-1="2 0 5 3 7 0 0 2 0 3"
    ascent="800"
    descent="-200"
    x-height="482"
    cap-height="706"
    bbox="-55.1429 -244 1215 926"
    underline-thickness="0"
    underline-position="0"
    unicode-range="U+0020-FB04"
  />
<missing-glyph horiz-adv-x="500" 
 />
    <glyph glyph-name="ff" unicode="ff" horiz-adv-x="595" 
d="M287 416q-59 0 -112 3q5 -73 5 -111v-299q0 -3 -3 -6t-6 -3h-72q-9 0 -9 9v296q0 43 5 111q-30 -3 -65 -3q-6 0 -6 8v52q0 9 6 9q40 0 65 -4q-5 50 -5 77q0 73 47 116.5t142 43.5q14 0 14 -14v-54q0 -11 -11 -11q-60 0 -82 -20t-22 -72q0 -18 -5 -66q49 4 113 4
q71 0 96 -4q-5 50 -5 77q0 73 47 116.5t142 43.5q14 0 14 -14v-54q0 -11 -11 -11q-60 0 -82 -20t-22 -72q0 -18 -5 -66q49 4 113 4q7 0 7 -9v-52q0 -8 -7 -8q-59 0 -111 3q5 -70 5 -111v-296q0 -3 -3 -6t-6 -3h-72q-9 0 -9 9v299q0 41 5 111q-30 -3 -95 -3z" />
    <glyph glyph-name="fi" unicode="fi" horiz-adv-x="543" 
d="M278 416q-50 0 -103 3q5 -73 5 -111v-299q0 -3 -3 -6t-6 -3h-72q-9 0 -9 9v296q0 43 5 111q-30 -3 -65 -3q-6 0 -6 8v52q0 9 6 9q40 0 65 -4q-5 50 -5 77q0 76 45.5 118t132.5 42q14 0 14 -14v-50q0 -11 -12 -11q-53 0 -72.5 -20t-19.5 -75q0 -19 -5 -67q52 4 113 4h173
q9 0 9 -10v-463q0 -3 -3 -6t-6 -3h-73q-9 0 -9 9v300q0 72 4 111q-40 -4 -103 -4zM423 710q23 0 39 -16.5t16 -39.5q0 -22 -16 -37.5t-39 -15.5t-39.5 15.5t-16.5 37.5q0 23 16.5 39.5t39.5 16.5z" />
    <glyph glyph-name="fl" unicode="fl" horiz-adv-x="543" 
d="M278 416q-50 0 -103 3q5 -73 5 -111v-299q0 -3 -3 -6t-6 -3h-72q-9 0 -9 9v296q0 43 5 111q-30 -3 -65 -3q-6 0 -6 8v52q0 9 6 9q40 0 65 -4q-5 50 -5 77q0 76 45.5 118t132.5 42q14 0 14 -14v-50q0 -11 -12 -11q-53 0 -72.5 -20t-19.5 -75q0 -19 -5 -67q58 4 101 4
q70 0 108 -4q-5 52 -5 70v148q0 10 9 10h73q9 0 9 -10v-687q0 -3 -3 -6t-6 -3h-73q-9 0 -9 9v300q0 53 6 111q-40 -4 -105 -4z" />
    <glyph glyph-name="ffi" unicode="ffi" horiz-adv-x="829" 
d="M279 416q-51 0 -104 3q5 -73 5 -111v-299q0 -3 -3 -6t-6 -3h-72q-9 0 -9 9v296q0 43 5 111q-30 -3 -65 -3q-6 0 -6 8v52q0 9 6 9q40 0 65 -4q-5 50 -5 77q0 73 47 116.5t142 43.5q14 0 14 -14v-54q0 -11 -11 -11q-60 0 -82 -20t-22 -72q0 -18 -5 -66q49 4 103 4
q81 0 106 -4q-5 50 -5 77q0 76 45.5 118t132.5 42q14 0 14 -14v-50q0 -11 -12 -11q-53 0 -72.5 -20t-19.5 -75q0 -19 -5 -67q52 4 112 4h174q9 0 9 -10v-463q0 -3 -3 -6t-6 -3h-73q-9 0 -9 9v300q0 63 5 111q-40 -4 -105 -4q-50 0 -102 3q5 -73 5 -111v-299q0 -3 -3 -6
t-6 -3h-72q-9 0 -9 9v299q0 41 5 111q-30 -3 -103 -3zM709 710q23 0 39.5 -16.5t16.5 -39.5q0 -22 -16.5 -37.5t-39.5 -15.5t-39.5 15.5t-16.5 37.5q0 23 16.5 39.5t39.5 16.5z" />
    <glyph glyph-name="ffl" unicode="ffl" horiz-adv-x="830" 
d="M670 420q-38 -4 -106 -4q-50 0 -102 3q5 -73 5 -111v-299q0 -3 -3 -6t-6 -3h-72q-9 0 -9 9v299q0 41 5 111q-30 -3 -103 -3q-51 0 -104 3q5 -73 5 -111v-299q0 -3 -3 -6t-6 -3h-72q-9 0 -9 9v296q0 43 5 111q-30 -3 -65 -3q-6 0 -6 8v52q0 9 6 9q40 0 65 -4q-5 50 -5 77
q0 73 47 116.5t142 43.5q14 0 14 -14v-54q0 -11 -11 -11q-60 0 -82 -20t-22 -72q0 -18 -5 -66q49 4 103 4q81 0 106 -4q-5 50 -5 77q0 76 45.5 118t132.5 42q14 0 14 -14v-50q0 -11 -12 -11q-53 0 -72.5 -20t-19.5 -75q0 -19 -5 -67q49 4 105 4q68 0 104 -4q-6 63 -6 70v148
q0 10 9 10h73q9 0 9 -10v-687q0 -3 -3 -6t-6 -3h-73q-9 0 -9 9v300q0 43 7 111z" />
    <glyph glyph-name="fj" unicode="fj" horiz-adv-x="543" 
d="M468 -74q0 -142 -125 -142q-37 0 -63 14q-7 4 -7 16v49q0 10 7 10q5 0 10 -4q15 -10 35 -10q52 0 52 58v392q0 63 5 111q-40 -4 -105 -4q-49 0 -102 3q5 -73 5 -111v-299q0 -3 -3 -6t-6 -3h-72q-9 0 -9 9v296q0 43 5 111q-30 -3 -65 -3q-6 0 -6 8v52q0 9 6 9q40 0 65 -4
q-5 50 -5 77q0 76 45.5 118t132.5 42q14 0 14 -14v-50q0 -11 -12 -11q-53 0 -72.5 -20t-19.5 -75q0 -19 -5 -67q52 4 112 4h174q9 0 9 -10v-546zM423 710q23 0 39 -16.5t16 -39.5q0 -22 -16 -37.5t-39 -15.5t-39.5 15.5t-16.5 37.5q0 23 16.5 39.5t39.5 16.5z" />
    <glyph glyph-name=".notdef" horiz-adv-x="500" 
 />
    <glyph glyph-name=".null" horiz-adv-x="0" 
 />
    <glyph glyph-name="nonmarkingreturn" horiz-adv-x="333" 
 />
    <glyph glyph-name="space" unicode=" " horiz-adv-x="252" 
 />
    <glyph glyph-name="space" unicode="&#xa0;" horiz-adv-x="252" 
 />
    <glyph glyph-name="exclam" unicode="!" horiz-adv-x="331" 
d="M223 696l-23 -502q0 -3 -3 -6t-6 -3h-48q-9 0 -9 9l-23 502q0 10 9 10h94q9 0 9 -10zM167 111q25 0 42 -16.5t17 -41.5q0 -24 -17 -40.5t-42 -16.5q-24 0 -40.5 16.5t-16.5 40.5q0 25 16.5 41.5t40.5 16.5z" />
    <glyph glyph-name="quotedbl" unicode="&#x22;" horiz-adv-x="353" 
d="M146 696l-19 -190q0 -3 -3 -6t-6 -3h-40q-9 0 -9 9l-19 190q-2 10 8 10h80q3 0 6 -3t2 -7zM303 696l-19 -190q0 -3 -3.5 -6t-6.5 -3h-39q-10 0 -10 9l-19 190q0 10 9 10h79q4 0 7 -3t2 -7z" />
    <glyph glyph-name="numbersign" unicode="#" horiz-adv-x="662" 
d="M464 436h139q10 0 10 -9v-42q0 -9 -10 -9h-139v-129h139q10 0 10 -9v-42q0 -9 -10 -9h-139v-178q0 -3 -3 -6t-6 -3h-52q-9 0 -9 9v178h-125v-178q0 -3 -3 -6t-6 -3h-52q-9 0 -9 9v178h-141q-3 0 -6 3t-3 6v42q0 9 9 9h141v129h-141q-3 0 -6 3t-3 6v42q0 9 9 9h141v174
q0 10 9 10h52q9 0 9 -10v-174h125v174q0 10 9 10h52q9 0 9 -10v-174zM269 247h125v129h-125v-129z" />
    <glyph glyph-name="dollar" unicode="$" horiz-adv-x="553" 
d="M251 37q-101 5 -165 62q-9 9 -9 23v48q0 14 7 14q8 0 12 -5q62 -69 155 -73v214q-89 31 -127 72.5t-38 107.5q0 62 43 111.5t122 60.5v104q0 10 9 10h43q3 0 6.5 -3t3.5 -7v-103q101 -5 148 -60q15 -15 15 -33q0 -19 -11 -30.5t-29 -11.5t-33 15q-32 42 -90 50v-216
q102 -36 140.5 -76.5t38.5 -106.5q0 -69 -49.5 -114t-127.5 -53v-122q0 -3 -3.5 -6.5t-6.5 -3.5h-45q-9 0 -9 10v122zM309 105q45 5 74 30t29 64t-24.5 64t-78.5 42v-200zM257 405v198q-42 -6 -66 -32t-24 -62q0 -41 20.5 -64.5t69.5 -39.5z" />
    <glyph glyph-name="percent" unicode="%" horiz-adv-x="868" 
d="M763 694l-583 -685q-6 -9 -14 -9h-71q-5 0 -6.5 4t1.5 8l584 684q8 10 16 10h69q3 0 4.5 -2t1.5 -4.5t-2 -5.5zM636 -8q-79 0 -123 52.5t-44 124.5t45 125t124 53q80 0 124 -53t44 -125t-45.5 -124.5t-124.5 -52.5zM637 286q-46 0 -66 -28.5t-20 -91.5q0 -120 86 -120
q44 0 66 28t22 92q0 62 -21 91t-67 29zM223 366q-79 0 -123 52.5t-44 124.5t44.5 125t123.5 53q81 0 125 -53t44 -125t-45.5 -124.5t-124.5 -52.5zM224 660q-46 0 -66 -28.5t-20 -91.5t21 -91t65 -28q88 0 88 119q0 62 -21 91t-67 29z" />
    <glyph glyph-name="ampersand" unicode="&#x26;" horiz-adv-x="814" 
d="M273 341q-72 -35 -100.5 -74t-28.5 -88q0 -52 34 -87t88 -35q59 0 99.5 23t70.5 82q-77 70 -163 179zM350 378q68 -83 133 -145q64 151 110.5 208t118.5 57t72 -59q0 -51 -40 -51q-14 0 -28.5 12t-31.5 12q-34 0 -65.5 -44.5t-94.5 -172.5q124 -124 200 -124q15 0 26 4
q14 4 14 -9v-49q0 -24 -57 -24q-89 0 -224 130q-42 -76 -96.5 -106t-140.5 -30q-95 0 -149.5 45t-54.5 124q0 75 49.5 129t153.5 96q-77 94 -77 178q0 72 53.5 121t136.5 49q80 0 127.5 -41t47.5 -107q0 -64 -48.5 -116.5t-134.5 -86.5zM321 415q69 32 98.5 70t29.5 89
q0 41 -23 65t-68 24q-52 0 -77.5 -26t-25.5 -71q0 -37 15.5 -70.5t50.5 -80.5z" />
    <glyph glyph-name="quotesingle" unicode="'" horiz-adv-x="196" 
d="M146 696l-19 -190q0 -3 -3 -6t-6 -3h-40q-9 0 -9 9l-19 190q-2 10 8 10h80q3 0 6 -3t2 -7z" />
    <glyph glyph-name="parenleft" unicode="(" horiz-adv-x="420" 
d="M93 255q0 110 30.5 202t78 148.5t102 87.5t105.5 31q9 0 9 -10v-40q0 -3 -3 -6t-6 -3q-81 0 -148.5 -110t-67.5 -300t67.5 -300t148.5 -110q3 0 6 -3t3 -6v-40q0 -10 -9 -10q-51 0 -105.5 31t-102 87.5t-78 149t-30.5 201.5z" />
    <glyph glyph-name="parenright" unicode=")" horiz-adv-x="422" 
d="M326 255q0 -109 -30.5 -201.5t-78 -149t-102 -87.5t-105.5 -31q-9 0 -9 10v40q0 3 3 6t6 3q82 0 149.5 110t67.5 300t-67.5 300t-149.5 110q-3 0 -6 3t-3 6v40q0 10 9 10q51 0 105.5 -31t102 -87.5t78 -148.5t30.5 -202z" />
    <glyph glyph-name="asterisk" unicode="*" horiz-adv-x="461" 
d="M184 510l-147 27q-5 1 -8 6t-1 9l21 66q6 10 16 4l137 -58l-17 148q-1 5 2 9.5t8 4.5h70q10 0 10 -13l-13 -150l136 62q9 6 16 -5l21 -67q2 -11 -9 -13l-148 -33l103 -109q3 -4 3 -9.5t-4 -7.5l-56 -41q-9 -5 -17 5l-76 129l-73 -131q-7 -14 -17 -4l-54 39q-11 11 -1 19z
" />
    <glyph glyph-name="plus" unicode="+" horiz-adv-x="499" 
d="M131 234h-78q-9 0 -9 9v57q0 10 9 10h81q52 0 79 -3q-5 33 -5 86v71q0 9 10 9h65q3 0 6 -3t3 -6v-70q0 -61 -3 -87q30 3 78 3h79q9 0 9 -10v-57q0 -3 -3 -6t-6 -3h-80q-50 0 -77 3q3 -24 3 -77v-82q0 -9 -9 -9h-65q-10 0 -10 9v83q0 48 5 76q-31 -3 -82 -3z" />
    <glyph glyph-name="comma" unicode="," horiz-adv-x="268" 
d="M204 102l-104 -230q-4 -11 -12 -11h-47q-11 0 -9 11l63 231q4 11 11 11h90q4 0 7 -4t1 -8z" />
    <glyph glyph-name="hyphen" unicode="-" horiz-adv-x="300" 
d="M258 305v-67q0 -3 -3 -6t-6 -3h-199q-9 0 -9 9v67q0 10 9 10h199q9 0 9 -10z" />
    <glyph glyph-name="hyphen" unicode="&#xad;" horiz-adv-x="300" 
d="M258 305v-67q0 -3 -3 -6t-6 -3h-199q-9 0 -9 9v67q0 10 9 10h199q9 0 9 -10z" />
    <glyph glyph-name="period" unicode="." horiz-adv-x="265" 
d="M132 119q27 0 45 -18.5t18 -44.5t-18 -44.5t-45 -18.5q-26 0 -44.5 18.5t-18.5 44.5t18.5 44.5t44.5 18.5z" />
    <glyph glyph-name="slash" unicode="/" horiz-adv-x="481" 
d="M523 696l-465 -892q-6 -9 -12 -9h-79q-4 0 -6 3.5t0 5.5l465 892q5 10 14 10h79q3 0 4.5 -3.5t-0.5 -6.5z" />
    <glyph glyph-name="zero" unicode="0" horiz-adv-x="556" 
d="M281 729q115 0 176.5 -104t61.5 -269q0 -164 -63 -266.5t-182 -102.5q-112 0 -174.5 102t-62.5 267q0 164 67 268.5t177 104.5zM278 57q138 0 138 297q0 299 -137 299q-140 0 -140 -299q0 -141 35 -219t104 -78z" />
    <glyph glyph-name="one" unicode="1" horiz-adv-x="556" 
d="M257 617q-28 -14 -76 -32l-74 -27q-13 -5 -13 5v57q0 10 10 14l226 85q7 2 13 -0.5t6 -7.5v-551q0 -48 -3 -95q22 2 68 2h53q11 0 11 -9l5 -49q1 -4 -2 -6.5t-9 -2.5h-343q-6 0 -9 2.5t-2 6.5l5 49q0 9 11 9h58q45 0 65 -2q-3 46 -3 93v364q0 47 3 95z" />
    <glyph glyph-name="two" unicode="2" horiz-adv-x="556" 
d="M176 70q57 5 191 7q32 0 61.5 1t48 2t22.5 1q13 0 10 -11l-7 -61q-2 -9 -12 -9h-424q-6 0 -11 8t-5 20q0 17 6 21q188 158 266 258t78 204q0 65 -32.5 101.5t-90.5 36.5t-89 -31.5t-31 -75.5q0 -20 -13.5 -30.5t-35.5 -10.5q-49 0 -49 49q0 24 11.5 52t36 58t71.5 49.5
t108 19.5q98 0 156 -58t58 -155q0 -206 -324 -446z" />
    <glyph glyph-name="three" unicode="3" horiz-adv-x="556" 
d="M253 -13q-116 0 -190 57q-9 6 -9 19v49q0 12 8 12q5 0 13 -6q71 -59 170 -59q69 0 112 35.5t43 98.5q0 77 -49.5 105.5t-167.5 28.5q-10 0 -10 10v44q0 12 10 12q109 0 155.5 34.5t46.5 111.5q0 115 -120 115q-86 0 -118 -69q-12 -22 -40 -22q-18 0 -30.5 10.5
t-12.5 32.5q0 16 10 35t32 39.5t65 34.5t100 14q103 0 160 -47.5t57 -123.5q0 -81 -52 -132t-139 -59q98 -3 152.5 -50.5t54.5 -132.5q0 -86 -67.5 -141.5t-183.5 -55.5z" />
    <glyph glyph-name="four" unicode="4" horiz-adv-x="556" 
d="M409 195q2 -26 2 -84v-102q0 -9 -10 -9h-68q-10 0 -10 9v104q0 57 2 82q-30 -2 -87 -2h-208q-13 0 -13 10v32q0 9 7 21q119 211 303 450h74q10 0 10 -10v-347q0 -60 -2 -88q40 2 124 2q11 0 11 -9l-6 -52q-2 -9 -11 -9q-81 0 -118 2zM325 261q-2 28 -2 89v124q0 79 4 124
q-162 -234 -222 -338q54 3 137 3q54 0 83 -2z" />
    <glyph glyph-name="five" unicode="5" horiz-adv-x="556" 
d="M236 59q71 0 115 43.5t44 120.5q0 71 -40.5 113.5t-123.5 42.5q-36 0 -64 -4.5t-43 -9.5t-19 -5q-12 0 -12 8v324q0 14 16 14h328q11 0 12 -8l5 -57q1 -5 -2.5 -8t-9.5 -3q-14 0 -57 1.5t-77 1.5q-85 0 -129 2q2 -62 2 -95q0 -34 -2 -98q26 6 72 6q122 0 183.5 -59.5
t61.5 -159.5q0 -103 -70 -172.5t-195 -69.5q-51 0 -89.5 9.5t-57.5 24.5t-27.5 29.5t-8.5 28.5q0 22 13 34.5t32 12.5q12 0 18.5 -4t13.5 -13.5t11 -12.5q36 -37 100 -37z" />
    <glyph glyph-name="six" unicode="6" horiz-adv-x="556" 
d="M345 656q-84 0 -140.5 -78t-70.5 -234q20 51 66.5 83.5t115.5 32.5q93 0 147.5 -62t54.5 -163q0 -109 -65 -178.5t-171 -69.5q-111 0 -174.5 82.5t-63.5 231.5q0 205 91 316.5t229 111.5q71 0 103 -19t32 -48q0 -18 -11 -30t-29 -12q-13 0 -42.5 18t-71.5 18zM289 394
q-69 0 -106 -43.5t-37 -110.5q0 -87 38.5 -137t104.5 -50q63 0 95 44.5t32 123.5q0 173 -127 173z" />
    <glyph glyph-name="seven" unicode="7" horiz-adv-x="556" 
d="M534 678q-115 -211 -176.5 -363.5t-61.5 -282.5q0 -20 -16 -32t-40 -12q-26 0 -42.5 12.5t-16.5 35.5q0 77 60 233t182 361q-68 -5 -160 -5q-56 0 -127 -1.5t-77 -1.5q-11 0 -9 9l10 67q1 8 10 8h456q12 0 12 -16q0 -7 -4 -12z" />
    <glyph glyph-name="eight" unicode="8" horiz-adv-x="556" 
d="M279 -12q-112 0 -176.5 47.5t-64.5 128.5q0 112 171 198q-68 36 -106.5 80t-38.5 109q0 72 60.5 125t156.5 53q100 0 157 -46.5t57 -114.5q0 -104 -153 -184q96 -48 135.5 -95.5t39.5 -110.5q0 -87 -67 -138.5t-171 -51.5zM279 665q-58 0 -88.5 -28.5t-30.5 -74.5
q0 -44 31.5 -79t99.5 -70q108 62 108 149q0 47 -31 75t-89 28zM258 336q-65 -40 -91 -78.5t-26 -89.5q0 -55 38.5 -86.5t100.5 -31.5q65 0 101.5 32.5t36.5 83.5t-34 86.5t-126 83.5z" />
    <glyph glyph-name="nine" unicode="9" horiz-adv-x="556" 
d="M217 -13q-90 0 -146 42q-8 6 -8 16v54q0 12 8 12q3 0 11 -5q59 -46 138 -46q96 0 148.5 81.5t61.5 218.5q-21 -57 -70 -87.5t-110 -30.5q-89 0 -146.5 63t-57.5 173t67 180.5t170 70.5q116 0 175 -86.5t59 -234.5q0 -208 -82.5 -314.5t-217.5 -106.5zM274 308
q71 0 106.5 47.5t35.5 121.5q0 88 -36.5 137.5t-95.5 49.5q-71 0 -104 -48t-33 -129q0 -92 34.5 -135.5t92.5 -43.5z" />
    <glyph glyph-name="colon" unicode=":" horiz-adv-x="265" 
d="M132 119q27 0 45 -18.5t18 -44.5t-18 -44.5t-45 -18.5q-26 0 -44.5 18.5t-18.5 44.5t18.5 44.5t44.5 18.5zM132 494q27 0 45 -18t18 -45q0 -26 -18 -44.5t-45 -18.5q-26 0 -44.5 18.5t-18.5 44.5q0 27 18.5 45t44.5 18z" />
    <glyph glyph-name="semicolon" unicode=";" horiz-adv-x="267" 
d="M203 102l-104 -230q-4 -10 -12 -10h-47q-4 0 -7 3t-1 7l63 231q2 11 11 11h89q5 0 7.5 -3.5t0.5 -8.5zM142 494q26 0 44.5 -18t18.5 -45q0 -26 -18.5 -44.5t-44.5 -18.5t-45 18.5t-19 44.5q0 27 18.5 45t45.5 18z" />
    <glyph glyph-name="less" unicode="&#x3c;" horiz-adv-x="484" 
d="M422 31l-363 191q-10 6 -10 26q0 21 10 26l361 189q16 9 16 -5v-28q0 -11 -11 -18l-244 -158l246 -170q9 -7 9 -16v-32q0 -5 -5 -6.5t-9 1.5z" />
    <glyph glyph-name="equal" unicode="=" horiz-adv-x="491" 
d="M450 384v-55q0 -3 -3 -6t-6 -3h-391q-9 0 -9 9v55q0 10 9 10h391q9 0 9 -10zM450 192v-54q0 -3 -3 -6t-6 -3h-391q-9 0 -9 9v54q0 10 9 10h391q9 0 9 -10z" />
    <glyph glyph-name="greater" unicode="&#x3e;" horiz-adv-x="484" 
d="M63 465l363 -191q10 -6 10 -26q0 -21 -10 -26l-361 -189q-16 -9 -16 5v28q0 11 11 18l244 158l-246 170q-9 6 -9 16v32q0 5 4.5 6.5t9.5 -1.5z" />
    <glyph glyph-name="question" unicode="?" horiz-adv-x="481" 
d="M285 315q-43 0 -66 13q4 -98 4 -136q0 -3 -3 -6t-6 -3h-54q-9 0 -9 9v204q0 9 8 9q4 0 11 -5q37 -20 81 -20q52 0 79.5 31.5t27.5 90.5q0 63 -37.5 100t-98.5 37q-59 0 -92 -42q-21 -29 -44 -29q-40 0 -40 43q0 36 41.5 71.5t128.5 35.5q108 0 172.5 -59t64.5 -159
q0 -86 -45 -135.5t-123 -49.5zM192 111q25 0 42 -16.5t17 -41.5q0 -24 -17 -40.5t-42 -16.5q-24 0 -40.5 16.5t-16.5 40.5q0 25 16.5 41.5t40.5 16.5z" />
    <glyph glyph-name="at" unicode="@" horiz-adv-x="947" 
d="M478 556q-78 0 -143.5 -31t-107 -81.5t-64.5 -111.5t-23 -124q0 -128 82 -213t232 -85q167 0 273 91.5t106 257.5q0 109 -54 203q-3 6 -3 11q0 9 9 9h38q11 0 17 -11q61 -110 61 -231q0 -185 -130 -294.5t-331 -109.5q-180 0 -285.5 105t-105.5 257q0 122 60.5 222.5
t159.5 156t213 55.5q94 0 138 -43t44 -113q0 -34 -3.5 -139.5t-3.5 -133.5q0 -91 27 -115q6 -11 6 -14q0 -11 -10 -11h-37q-26 0 -37 23q-14 36 -15 77q-18 -47 -62.5 -80t-105.5 -33q-64 0 -103 35.5t-39 91.5q0 80 74.5 134t219.5 63v82q0 52 -22 76t-75 24zM376 194
q0 -35 21.5 -54.5t53.5 -19.5q49 0 86.5 37.5t37.5 89.5v81q-102 -8 -150.5 -44.5t-48.5 -89.5z" />
    <glyph glyph-name="A" unicode="A" horiz-adv-x="631" 
d="M371 428q-42 118 -59 197q-20 -85 -59 -193q-36 -101 -52 -138q56 3 113 3q75 0 108 -2q-23 55 -51 133zM445 230q-64 -3 -133 -3q-68 0 -133 3q-26 -89 -78 -220q-4 -10 -11 -10h-79q-15 0 -9 16l257 681q2 9 10 9h91q8 0 12 -9l257 -681q6 -16 -9 -16h-86q-8 0 -12 10
q-60 160 -77 220z" />
    <glyph glyph-name="B" unicode="B" horiz-adv-x="644" 
d="M346 75q143 0 143 124q0 65 -44.5 101.5t-136.5 36.5q-62 0 -118 3q3 -64 3 -132q0 -67 -3 -136q75 3 156 3zM361 0h-260q-9 0 -9 9v687q0 10 9 10h214q124 0 177.5 -49t53.5 -117q0 -60 -44 -102t-108 -57q80 -6 140 -59.5t60 -134.5q0 -86 -62 -136.5t-171 -50.5z
M281 406q81 0 120.5 31t39.5 83q0 112 -141 112q-76 0 -110 2q3 -58 3 -114q0 -62 -3 -117q44 3 91 3z" />
    <glyph glyph-name="C" unicode="C" horiz-adv-x="667" 
d="M404 -13q-152 0 -248.5 101.5t-96.5 261.5q0 161 101.5 270t269.5 109q121 0 198 -54q11 -9 11 -26v-67q0 -16 -13 -16q-5 0 -13 6q-73 70 -183 70q-125 0 -194 -79t-69 -209t71.5 -207.5t184.5 -77.5t192 65q8 5 12 5q12 0 12 -14v-53q0 -14 -11 -22q-85 -63 -224 -63z
" />
    <glyph glyph-name="D" unicode="D" horiz-adv-x="751" 
d="M330 0h-229q-9 0 -9 9v687q0 10 9 10h221q171 0 270.5 -94.5t99.5 -263.5q0 -168 -98.5 -258t-263.5 -90zM328 79q114 0 184.5 66t70.5 207q0 124 -66.5 199.5t-202.5 75.5q-70 0 -124 3q3 -60 3 -123v-275q0 -86 -3 -156q78 3 138 3z" />
    <glyph glyph-name="E" unicode="E" horiz-adv-x="568" 
d="M350 77q33 0 98.5 1t95.5 1q7 0 7 -9l-8 -62q-2 -8 -7 -8h-435q-9 0 -9 9v687q0 10 9 10h420q7 0 8 -9l7 -62q0 -8 -7 -8q-30 0 -109.5 1t-108.5 1q-70 0 -121 3q3 -59 3 -113q0 -57 -3 -115q41 4 116 4q29 0 66 0.5t46 0.5q7 0 7 -9v-60q0 -8 -7 -8q-9 0 -47 0.5
t-67 0.5q-59 0 -114 5q3 -66 3 -127q0 -69 -3 -137q47 3 160 3z" />
    <glyph glyph-name="F" unicode="F" horiz-adv-x="517" 
d="M193 9q0 -3 -3 -6t-6 -3h-83q-9 0 -9 9v687q0 10 9 10h421q6 0 7 -9l7 -62q0 -8 -7 -8q-30 0 -109.5 1t-108.5 1q-85 0 -121 3q3 -59 3 -120t-3 -116q60 4 117 4q36 0 75 0.5t41 0.5q7 0 7 -9v-61q0 -8 -7 -8q-3 0 -41.5 1t-73.5 1q-61 0 -118 3q3 -64 3 -142v-177z" />
    <glyph glyph-name="G" unicode="G" horiz-adv-x="753" 
d="M436 647q-127 0 -198 -81t-71 -212q0 -130 70 -208.5t184 -78.5q84 0 154 38v207q0 10 9 10h77q9 0 9 -10v-251q-119 -74 -264 -74q-152 0 -249.5 101t-97.5 262q0 158 103.5 268.5t277.5 110.5q136 0 219 -56q11 -5 11 -22v-71q0 -16 -14 -16q-6 0 -12 6
q-35 33 -90.5 55t-117.5 22z" />
    <glyph glyph-name="H" unicode="H" horiz-adv-x="767" 
d="M473 418q55 0 101 -3q-3 61 -3 126v155q0 10 9 10h84q9 0 9 -10v-687q0 -3 -3 -6t-6 -3h-84q-9 0 -9 9v187q0 72 3 141q-40 -2 -99 -2h-186q-59 0 -99 2q3 -69 3 -141v-187q0 -3 -3 -6t-6 -3h-83q-9 0 -9 9v687q0 10 9 10h83q9 0 9 -10v-155q0 -65 -3 -126q46 3 101 3
h182z" />
    <glyph glyph-name="I" unicode="I" horiz-adv-x="285" 
d="M193 696v-687q0 -3 -3 -6t-6 -3h-83q-9 0 -9 9v687q0 10 9 10h83q9 0 9 -10z" />
    <glyph glyph-name="J" unicode="J" horiz-adv-x="296" 
d="M103 -59v755q0 10 9 10h83q9 0 9 -10v-752q2 -81 -43.5 -120.5t-118.5 -39.5q-46 0 -76 14q-9 5 -9 17v58q0 10 9 10q4 0 11 -3q19 -12 51 -12q34 0 54.5 18t20.5 55z" />
    <glyph glyph-name="K" unicode="K" horiz-adv-x="684" 
d="M193 203v-194q0 -3 -3 -6t-6 -3h-83q-9 0 -9 9v687q0 10 9 10h83q9 0 9 -10v-164q0 -85 -3 -124h16q24 0 150 139q92 103 141 151q8 8 17 8h100q8 0 8 -10q0 -8 -6 -11q-32 -17 -192 -182q-99 -101 -129 -118q23 -9 151 -144q178 -188 223 -212q8 -4 8 -14q0 -15 -8 -15
h-106q-10 0 -20 8q-85 79 -175 184q-128 149 -161 149h-18q4 -55 4 -138z" />
    <glyph glyph-name="L" unicode="L" horiz-adv-x="560" 
d="M189 75q98 5 179 5q31 0 92 0.5t91 0.5q8 0 8 -8l-7 -64q0 -9 -8 -9h-443q-9 0 -9 9v687q0 10 9 10h83q9 0 9 -10v-476q0 -76 -4 -145z" />
    <glyph glyph-name="M" unicode="M" horiz-adv-x="897" 
d="M721 619l-216 -610q-2 -9 -10 -9h-86q-8 0 -12 9l-217 610q4 -92 4 -157v-453q0 -3 -3 -6t-6 -3h-75q-8 0 -8 9v687q0 10 8 10h127q9 0 12 -10l169 -448q35 -104 48 -163q19 83 47 165l165 446q5 10 12 10h117q9 0 9 -10v-687q0 -3 -3 -6t-6 -3h-73q-9 0 -9 9v435
q0 110 6 175z" />
    <glyph glyph-name="N" unicode="N" horiz-adv-x="772" 
d="M561 8l-314 487q-42 64 -69 134q6 -76 6 -154v-466q0 -9 -8 -9h-75q-9 0 -9 9v687q0 10 9 10h113q9 0 15 -10l288 -446q52 -80 79 -157q-8 79 -8 183v420q0 10 9 10h74q9 0 9 -10v-687q0 -3 -3 -6t-6 -3h-98q-8 0 -12 8z" />
    <glyph glyph-name="O" unicode="O" horiz-adv-x="829" 
d="M414 68q117 0 180.5 80.5t63.5 215.5q0 138 -67.5 210.5t-175.5 72.5t-176 -72t-68 -211q0 -132 64.5 -214t178.5 -82zM414 729q95 0 175.5 -42t131 -127t50.5 -196q0 -169 -100 -273t-257 -104q-150 0 -252.5 104t-102.5 273q0 164 104 264.5t251 100.5z" />
    <glyph glyph-name="P" unicode="P" horiz-adv-x="587" 
d="M287 270q-59 0 -97 3q3 -60 3 -135v-129q0 -3 -3 -6t-6 -3h-83q-9 0 -9 9v684q0 13 9 13h197q124 0 187.5 -62.5t63.5 -157.5q0 -100 -67 -158t-195 -58zM280 345q162 0 162 142q0 65 -35.5 104t-111.5 39q-71 0 -105 3q3 -55 3 -142q0 -111 -3 -148q29 2 90 2z" />
    <glyph glyph-name="Q" unicode="Q" horiz-adv-x="832" 
d="M834 -180q-55 0 -115 25t-104.5 56t-102.5 57.5t-110 29.5q-148 6 -245.5 108.5t-97.5 268.5q0 163 104.5 263.5t252.5 100.5t251.5 -99t103.5 -264q0 -135 -74 -229.5t-189 -114.5q50 -11 109 -40.5t112 -51t105 -21.5q35 0 58 10l18 5q11 0 11 -15v-52q0 -16 -24 -26.5
t-63 -10.5zM414 68q117 0 180.5 80.5t63.5 215.5q0 138 -67.5 210.5t-175.5 72.5t-176 -72t-68 -211q0 -132 64.5 -214t178.5 -82z" />
    <glyph glyph-name="R" unicode="R" horiz-adv-x="650" 
d="M246 290q-21 0 -57 2q4 -57 4 -135v-148q0 -3 -3 -6t-6 -3h-83q-9 0 -9 9v684q0 13 9 13h204q117 0 177 -55t60 -142q0 -79 -60 -134t-141 -61q64 -14 197 -165q99 -110 117 -119q6 -2 6 -14q0 -16 -13 -16h-92q-19 0 -45 36l-53.5 64.5l-59 70.5l-53 58t-54.5 46t-45 15
zM293 630q-52 0 -103 3q3 -55 3 -152q0 -62 -3 -122q54 3 74 3q172 0 172 144q0 59 -36 91.5t-107 32.5z" />
    <glyph glyph-name="S" unicode="S" horiz-adv-x="559" 
d="M271 64q67 0 106 31.5t39 81.5q0 53 -34 79.5t-119 61.5q-12 4 -18 7q-84 33 -131.5 79.5t-47.5 124.5q0 82 63 141t172 59q103 0 176 -49q10 -8 10 -25v-68q0 -14 -12 -14q-7 0 -13 6q-70 69 -168 69q-59 0 -93 -31.5t-34 -78.5q0 -22 9 -41t20 -30.5t35.5 -25t39 -20
t47.5 -19.5q104 -39 151.5 -87.5t47.5 -126.5q0 -93 -68 -147.5t-174 -54.5q-70 0 -114.5 14t-93.5 49q-10 10 -10 23v55q0 16 10 16q6 0 13 -7q89 -72 191 -72z" />
    <glyph glyph-name="T" unicode="T" horiz-adv-x="609" 
d="M605 706q7 0 7 -8v-68q0 -7 -7 -7q-19 0 -59 1t-59 1q-68 0 -134 3q3 -56 3 -111v-508q0 -3 -3 -6t-6 -3h-83q-9 0 -9 9v510q0 57 3 109q-60 -3 -121 -3q-23 0 -66.5 -1t-66.5 -1q-9 0 -7 8l9 66q2 9 7 9h592z" />
    <glyph glyph-name="U" unicode="U" horiz-adv-x="753" 
d="M83 241v455q0 10 9 10h84q9 0 9 -10v-442q0 -84 50.5 -131t140.5 -47q94 0 144.5 43.5t50.5 129.5v447q0 10 9 10h81q9 0 9 -10v-458q0 -114 -81.5 -182.5t-213.5 -68.5q-131 0 -211.5 69.5t-80.5 184.5z" />
    <glyph glyph-name="V" unicode="V" horiz-adv-x="631" 
d="M362 0h-91q-10 0 -12 9l-257 681q-6 16 9 16h86q10 0 12 -10l159 -440q37 -103 52 -176q19 86 51 176l158 440q4 10 12 10h79q15 0 9 -16l-257 -681q-2 -9 -10 -9z" />
    <glyph glyph-name="W" unicode="W" horiz-adv-x="1009" 
d="M506 596q-17 -99 -38 -166l-130 -421q-2 -9 -9 -9h-92q-8 0 -10 9l-221 681q-6 16 8 16h88q7 0 11 -10l132 -417q27 -86 45 -191q16 95 45 189l126 420q3 9 11 9h74q10 0 11 -9l125 -408q31 -102 48 -201q11 65 53 213l124 395q2 10 11 10h78q12 0 8 -16l-222 -681
q-2 -9 -9 -9h-88q-8 0 -10 9l-131 424q-20 65 -38 163z" />
    <glyph glyph-name="X" unicode="X" horiz-adv-x="714" 
d="M408 354q67 -76 278 -342q4 -4 2 -8t-9 -4h-99q-11 0 -19 11q-129 168 -207 281q-79 -112 -213 -283q-7 -9 -15 -9h-90q-7 0 -8 5.5t3 10.5q204 254 276 333l-277 341q-5 6 -3 11t10 5h97q10 0 17 -11q144 -188 210 -285q69 99 214 285q9 11 19 11h91q14 0 4 -15
q-209 -257 -281 -337z" />
    <glyph glyph-name="Y" unicode="Y" horiz-adv-x="678" 
d="M387 308v-299q0 -3 -3 -6t-6 -3h-83q-9 0 -9 9v299l-286 382q-12 16 5 16h93q12 0 17 -11l163 -217q40 -53 61 -101q26 50 63 100l164 218q7 11 21 11h84q17 0 5 -16z" />
    <glyph glyph-name="Z" unicode="Z" horiz-adv-x="669" 
d="M619 679l-323 -459q-66 -92 -112 -147q91 4 215 4q32 0 103.5 1t103.5 1q9 0 8 -10l-8 -61q-2 -8 -9 -8h-541q-4 0 -8 6t-4 13q0 6 4 11l331 465q69 97 105 134q-101 -3 -202 -3q-32 0 -100 -1t-99 -1q-10 0 -8 8l8 65q1 9 8 9h518q13 0 13 -15q0 -6 -3 -12z" />
    <glyph glyph-name="bracketleft" unicode="[" horiz-adv-x="398" 
d="M113 -212q-9 0 -9 9v912q0 10 9 10h274q9 0 9 -10v-41q0 -3 -3 -6t-6 -3h-102q-65 0 -96 2q3 -26 3 -81v-645q0 -61 -3 -89q31 2 93 2h105q3 0 6 -3t3 -6v-41q0 -10 -9 -10h-274z" />
    <glyph glyph-name="backslash" unicode="\" horiz-adv-x="463" 
d="M-54 696q-2 3 -0.5 6.5t4.5 3.5h79q9 0 14 -10l465 -892q2 -2 0 -5.5t-6 -3.5h-79q-6 0 -12 9z" />
    <glyph glyph-name="bracketright" unicode="]" horiz-adv-x="398" 
d="M285 719q9 0 9 -9v-912q0 -10 -9 -10h-274q-9 0 -9 10v41q0 3 3 6t6 3h102q65 0 96 -2q-3 26 -3 81v645q0 61 3 89q-31 -2 -93 -2h-105q-9 0 -9 10v41q0 3 3 6t6 3h274z" />
    <glyph glyph-name="asciicircum" unicode="^" horiz-adv-x="515" 
d="M476 360q2 -4 0.5 -9t-6.5 -5h-33q-10 0 -17 9l-165 244l-156 -242q-7 -11 -19 -11h-29q-16 0 -7 16l190 362q4 10 25 10q20 0 26 -10z" />
    <glyph glyph-name="underscore" unicode="_" horiz-adv-x="252" 
d="M0 -142v81h252v-81h-252z" />
    <glyph glyph-name="grave" unicode="`" horiz-adv-x="372" 
d="M85 695q-3 3 -2 7t4 4h75q8 0 16 -10l112 -142q4 -4 2 -7.5t-7 -3.5h-37q-8 0 -20 10z" />
    <glyph glyph-name="a" unicode="a" horiz-adv-x="513" 
d="M139 130q0 -35 23.5 -55t58.5 -20q57 0 93 40.5t36 99.5v65q-109 -8 -160 -43t-51 -87zM76 408q0 31 46 61t134 30q183 0 183 -149q0 -31 -2.5 -106t-2.5 -102q0 -98 29 -119q5 -5 5 -12q0 -4 -3.5 -7.5t-7.5 -3.5h-44q-19 0 -27 18q-18 32 -20 83q-46 -114 -170 -114
q-67 0 -106.5 35.5t-39.5 91.5q0 79 77 133.5t223 63.5v34q0 90 -101 90q-61 0 -89 -34q-10 -13 -13.5 -17t-12.5 -9.5t-19 -5.5q-17 0 -28 10.5t-11 28.5z" />
    <glyph glyph-name="b" unicode="b" horiz-adv-x="586" 
d="M71 9q0 2 2.5 18.5t4.5 45.5t2 61v562q0 10 9 10h72q9 0 9 -10q0 -173 -5 -289q15 40 55 66t97 26q100 0 162.5 -72.5t62.5 -182.5q0 -112 -63.5 -184.5t-159.5 -72.5q-63 0 -106.5 28.5t-58.5 80.5q0 -55 -6 -87q-2 -9 -9 -9h-59q-9 0 -9 9zM170 186q0 -59 32.5 -96.5
t91.5 -37.5q69 0 109 48t40 142q0 87 -40 138t-110 51q-59 0 -91 -35t-32 -86v-124z" />
    <glyph glyph-name="c" unicode="c" horiz-adv-x="471" 
d="M414 378q-16 0 -36 18q-32 28 -79 28q-73 0 -116.5 -55t-43.5 -129q0 -85 45.5 -132.5t115.5 -47.5q72 0 117 38q8 6 11 6q9 0 9 -12v-43q0 -11 -7 -17q-57 -45 -142 -45q-110 0 -176.5 68t-66.5 180q0 107 72.5 185.5t189.5 78.5q77 0 120 -36q24 -17 24 -43
q0 -17 -10.5 -29.5t-26.5 -12.5z" />
    <glyph glyph-name="d" unicode="d" horiz-adv-x="584" 
d="M516 9q0 -9 -9 -9h-59q-7 0 -9 9q-6 32 -6 86q-18 -51 -61.5 -79.5t-103.5 -28.5q-96 0 -159.5 73t-63.5 185q0 110 62 182t162 72q57 0 97 -26t56 -65q-5 115 -5 288q0 10 9 10h72q9 0 9 -10v-562q0 -32 2.5 -61t4.5 -45.5t2 -18.5zM417 186v127q0 51 -32 85.5t-91 34.5
q-70 0 -110 -50.5t-40 -137.5q0 -94 40 -143t109 -49q59 0 91.5 37t32.5 96z" />
    <glyph glyph-name="e" unicode="e" horiz-adv-x="510" 
d="M285 -13q-111 0 -175.5 70t-64.5 179q0 105 66.5 184t178.5 79q91 0 138.5 -50.5t47.5 -138.5q0 -30 -27 -30h-306q-5 -23 -5 -54q0 -71 43 -118.5t118 -47.5t126 40q5 5 11 5q7 0 7 -10v-46q0 -11 -8 -17q-58 -45 -150 -45zM396 334q0 46 -28 74.5t-79 28.5
q-102 0 -137 -103h244z" />
    <glyph glyph-name="f" unicode="f" horiz-adv-x="309" 
d="M178 544q0 -18 -5 -66q49 4 112 4q7 0 7 -9v-52q0 -8 -7 -8q-57 0 -110 3q5 -70 5 -111v-296q0 -3 -3 -6t-6 -3h-72q-9 0 -9 9v296q0 43 5 111q-30 -3 -65 -3q-6 0 -6 8v52q0 9 6 9q40 0 65 -4q-5 50 -5 77q0 73 47 116.5t142 43.5q14 0 14 -14v-54q0 -11 -11 -11
q-60 0 -82 -20t-22 -72z" />
    <glyph glyph-name="g" unicode="g" horiz-adv-x="550" 
d="M516 402q-15 0 -28.5 11t-23.5 11q-14 0 -22.5 -10.5t-8.5 -27.5q0 -10 3.5 -31.5t3.5 -39.5q0 -74 -50.5 -118.5t-156.5 -44.5q-96 0 -96 -49q0 -38 58 -38q22 0 73 5t95 5q70 0 103.5 -31.5t33.5 -84.5q0 -78 -69.5 -126.5t-189.5 -48.5q-104 0 -157 33.5t-53 92.5
q0 29 14.5 48t28.5 19h53q7 0 7 -7q0 -3 -3 -6q-13 -13 -13 -36q0 -80 126 -80q75 0 119 27.5t44 74.5q0 31 -17 46t-57 15q-26 0 -72.5 -3.5t-77.5 -3.5q-56 0 -86.5 21t-30.5 59q0 36 27 62.5t72 30.5q-47 15 -73.5 54.5t-26.5 94.5q0 77 54 125t133 48q110 0 157 -81
q10 39 35.5 61.5t62.5 22.5q24 0 36.5 -15t12.5 -38q0 -47 -40 -47zM254 438q-46 0 -71.5 -29t-25.5 -84q0 -61 26.5 -90t71.5 -29q102 0 102 115q0 57 -27 87t-76 30z" />
    <glyph glyph-name="h" unicode="h" horiz-adv-x="570" 
d="M154 379q21 54 72.5 87t118.5 33q68 0 112 -40.5t44 -114.5v-335q0 -3 -3 -6t-6 -3h-73q-9 0 -9 9v314q0 103 -99 103q-59 0 -102 -41t-43 -111v-265q0 -3 -3 -6t-6 -3h-73q-9 0 -9 9v687q0 10 9 10h68q9 0 9 -10q0 -179 -7 -317z" />
    <glyph glyph-name="i" unicode="i" 
d="M166 472v-463q0 -3 -3 -6t-6 -3h-73q-9 0 -9 9v463q0 10 9 10h73q9 0 9 -10zM121 710q23 0 39.5 -16.5t16.5 -39.5q0 -22 -16.5 -37.5t-39.5 -15.5t-39.5 15.5t-16.5 37.5q0 23 16.5 39.5t39.5 16.5z" />
    <glyph glyph-name="j" unicode="j" horiz-adv-x="242" 
d="M-21 -202q-7 4 -7 16v54q0 10 7 10q2 0 10 -4q15 -10 38 -10q22 0 37.5 15t15.5 44v549q0 10 9 10h73q9 0 9 -10v-532q0 -82 -37 -119t-92 -37q-35 0 -63 14zM125 710q23 0 39.5 -16.5t16.5 -39.5q0 -22 -16.5 -37.5t-39.5 -15.5t-39.5 15.5t-16.5 37.5q0 23 16.5 39.5
t39.5 16.5z" />
    <glyph glyph-name="k" unicode="k" horiz-adv-x="488" 
d="M158 229q6 -78 6 -166v-54q0 -3 -3 -6t-6 -3h-71q-9 0 -9 9v687q0 10 9 10h71q9 0 9 -10v-257q0 -86 -6 -154h18q10 0 75 69.5t107 119.5q7 8 15 8h83q7 0 7 -8q0 -5 -4 -9q-26 -24 -74.5 -76l-83.5 -88t-47 -40q14 -6 109.5 -115.5t114.5 -121.5q7 -5 7 -13
q0 -11 -8 -11h-95q-8 0 -15 6q-18 20 -64.5 80t-82 101.5t-45.5 41.5h-17z" />
    <glyph glyph-name="l" unicode="l" 
d="M166 696v-687q0 -3 -3 -6t-6 -3h-73q-9 0 -9 9v687q0 10 9 10h73q9 0 9 -10z" />
    <glyph glyph-name="m" unicode="m" horiz-adv-x="855" 
d="M478 286v-277q0 -3 -3 -6t-6 -3h-73q-9 0 -9 9v320q0 97 -90 97q-52 0 -90 -40.5t-38 -111.5v-265q0 -3 -3 -6t-6 -3h-73q-9 0 -9 9v384q0 23 -2 41t-3.5 27.5t-1.5 11.5q0 9 8 9h64q7 0 9 -9q6 -39 6 -90q25 53 73 84t104 31q48 0 84.5 -28t48.5 -80q22 47 69 78t107 31
q64 0 103.5 -40.5t39.5 -111.5v-338q0 -3 -3 -6t-6 -3h-73q-9 0 -9 9v317q0 100 -90 100q-52 0 -90 -38t-38 -102z" />
    <glyph glyph-name="n" unicode="n" horiz-adv-x="571" 
d="M155 379q21 54 72.5 87t119.5 33t111.5 -41t43.5 -115v-334q0 -3 -3 -6t-6 -3h-73q-9 0 -9 9v313q0 104 -98 104q-60 0 -103 -41t-43 -111v-265q0 -3 -3 -6t-6 -3h-73q-9 0 -9 9v384q0 23 -2 41t-3.5 27.5t-1.5 11.5q0 9 8 9h63q7 0 9 -9q6 -42 6 -94z" />
    <glyph glyph-name="o" unicode="o" horiz-adv-x="572" 
d="M286 499q79 0 135 -37.5t81 -93t25 -122.5q0 -106 -62.5 -182.5t-178.5 -76.5q-78 0 -134.5 38.5t-82 96t-25.5 124.5q0 104 63 178.5t179 74.5zM286 53q72 0 108 53.5t36 137.5t-36 135.5t-108 51.5q-73 0 -108.5 -51.5t-35.5 -135.5t36 -137.5t108 -53.5z" />
    <glyph glyph-name="p" unicode="p" horiz-adv-x="587" 
d="M71 473q0 9 9 9h58q7 0 9 -9q7 -37 7 -86q39 112 165 112q96 0 159.5 -72t63.5 -183q0 -109 -62.5 -183t-162.5 -74q-115 0 -152 88q5 -119 5 -270q0 -10 -9 -10h-72q-9 0 -9 10v543q0 32 -2 61t-4.5 45.5t-2.5 18.5zM170 298v-129q0 -50 32 -83.5t91 -33.5
q70 0 110 51.5t40 139.5q0 93 -40 141t-109 48q-59 0 -91.5 -37.5t-32.5 -96.5z" />
    <glyph glyph-name="q" unicode="q" horiz-adv-x="586" 
d="M515 473q0 -2 -2 -18.5t-4.5 -45.5t-2.5 -61v-543q0 -10 -9 -10h-72q-9 0 -9 10q0 150 5 270q-19 -40 -58.5 -64t-92.5 -24q-100 0 -163 74t-63 183q0 111 63 183t159 72q60 0 104 -30t62 -82q0 49 7 86q2 9 9 9h58q9 0 9 -9zM416 300q0 59 -32.5 96.5t-91.5 37.5
q-69 0 -109 -47.5t-40 -141.5q0 -88 40 -139.5t110 -51.5q60 0 91.5 33.5t31.5 83.5v129z" />
    <glyph glyph-name="r" unicode="r" horiz-adv-x="390" 
d="M357 381q-15 0 -35 17t-49 17q-49 0 -76.5 -42t-27.5 -102v-262q0 -3 -3 -6t-6 -3h-73q-9 0 -9 9v384q0 23 -2 41t-3.5 27.5t-1.5 11.5q0 9 8 9h63q7 0 9 -9q6 -39 6 -99q19 57 58 91t92 34q45 0 67.5 -19.5t22.5 -48.5q0 -22 -11 -36t-29 -14z" />
    <glyph glyph-name="s" unicode="s" horiz-adv-x="426" 
d="M200 -13q-85 0 -141 40q-8 7 -8 17v46q0 13 7 13q8 0 14 -6q53 -43 127 -43q46 0 72 20t26 50q0 9 -1.5 16t-5.5 13l-7.5 11t-11.5 9.5l-13 7.5t-16.5 7.5t-17.5 6.5t-21 7.5t-22 7.5q-59 20 -94 53t-35 94q0 59 49 100.5t129 41.5q82 0 126 -37q17 -14 17 -34
q0 -18 -10.5 -30t-23.5 -12q-14 0 -28 11q-39 32 -86 32q-41 0 -63 -20t-22 -49q0 -8 1 -15t5 -13.5l6.5 -10.5t10 -9t10.5 -7.5t14 -7t14 -5.5t17 -6t17 -6q79 -28 114.5 -59.5t35.5 -90.5q0 -64 -51.5 -103.5t-133.5 -39.5z" />
    <glyph glyph-name="t" unicode="t" horiz-adv-x="321" 
d="M27 452q74 46 129 144q4 8 12 8q12 0 12 -12v-23q0 -43 -9 -90q40 3 111 3q7 0 7 -9v-52q0 -8 -7 -8q-76 0 -111 3q5 -48 5 -111v-154q0 -46 16.5 -65t49.5 -19q22 0 36 7q11 5 11 -6v-60q0 -8 -9 -10q-27 -6 -51 -6q-64 0 -103.5 40t-39.5 117v156q0 46 7 111
q-20 -3 -63 -3q-10 0 -10 19q0 16 7 20z" />
    <glyph glyph-name="u" unicode="u" horiz-adv-x="571" 
d="M416 105q-21 -53 -72 -85.5t-120 -32.5q-68 0 -111.5 41t-43.5 115v330q0 3 3 6t6 3h73q9 0 9 -9v-309q0 -104 99 -104q60 0 102.5 40.5t42.5 109.5v263q0 3 3 6t6 3h73q9 0 9 -9v-384q0 -23 2 -41.5t4 -27.5t2 -11q0 -9 -8 -9h-64q-7 0 -9 9q-6 42 -6 96z" />
    <glyph glyph-name="v" unicode="v" horiz-adv-x="474" 
d="M286 3q-3 -9 -11 -9h-77q-7 0 -10 9l-183 465q-6 14 6 14h77q8 0 13 -10l93 -261q32 -90 45 -143q21 78 44 142l96 262q5 10 13 10h70q12 0 7 -15z" />
    <glyph glyph-name="w" unicode="w" horiz-adv-x="759" 
d="M349 482h70q9 0 12 -10l78 -253q26 -82 37 -146q13 68 36 143l79 256q3 10 11 10h71q11 0 5 -13l-158 -466q-4 -9 -10 -9h-76q-6 0 -9 9l-85 270q-18 59 -29 127q-9 -59 -31 -129l-86 -268q-3 -9 -9 -9h-77q-8 0 -9 9l-159 466q-4 13 6 13h77q8 0 11 -10l80 -255
q25 -77 37 -144q12 68 36 142l81 257q3 10 11 10z" />
    <glyph glyph-name="x" unicode="x" horiz-adv-x="500" 
d="M110 482q8 0 16 -10q89 -121 126 -177q23 36 131 177q8 10 18 10h77q4 0 5.5 -4t-3.5 -9q-134 -166 -187 -222q45 -44 192 -234q5 -6 3.5 -9.5t-5.5 -3.5h-91q-9 0 -17 11q-83 110 -129 179q-16 -24 -133 -180q-8 -10 -15 -10h-79q-5 0 -7 3.5t2 9.5q108 136 191 225
q-55 59 -189 231q-4 6 -2.5 9.5t6.5 3.5h90z" />
    <glyph glyph-name="y" unicode="y" horiz-adv-x="474" 
d="M62 -214q-34 0 -52 8q-6 3 -6 15v56q0 10 8 10q4 0 8 -3q17 -10 38 -10q86 0 136 135l-189 471q-6 14 6 14h77q10 0 13 -10l94 -260q36 -112 45 -144q20 77 44 143l96 261q3 10 13 10h70q12 0 7 -13l-190 -483q-43 -108 -96 -154t-122 -46z" />
    <glyph glyph-name="z" unicode="z" horiz-adv-x="459" 
d="M425 69q6 0 8.5 -2.5t1.5 -6.5l-6 -52q-1 -8 -11 -8h-376q-16 0 -16 20q0 10 7 18l227 298q38 50 64 80q-46 -2 -137 -2q-26 0 -70 -1t-65 -1q-5 0 -7.5 2t-1.5 6l6 53q1 9 9 9h371q16 0 16 -21q0 -7 -5 -14l-224 -296q-45 -59 -69 -86q33 2 147 2q23 0 67.5 1t63.5 1z
" />
    <glyph glyph-name="braceleft" unicode="{" horiz-adv-x="425" 
d="M416 -213q-142 0 -200 53.5t-58 146.5q0 26 3 69t3 60q0 55 -20.5 83t-72.5 28q-8 0 -10 5t-2 20q0 25 12 25q54 0 74 27.5t20 83.5q0 19 -3.5 62t-3.5 67q0 93 58 147t200 54q9 0 9 -10v-40q0 -3 -3 -6t-6 -3q-102 0 -136.5 -35.5t-34.5 -106.5q0 -26 3.5 -71t3.5 -66
q0 -107 -83 -127q84 -24 84 -130q0 -22 -3.5 -64t-3.5 -65q0 -75 34 -111.5t136 -36.5q9 0 9 -10v-40q0 -3 -3 -6t-6 -3z" />
    <glyph glyph-name="bar" unicode="|" horiz-adv-x="349" 
d="M220 756v-952q0 -3 -3 -6t-6 -3h-73q-9 0 -9 9v952q0 10 9 10h73q9 0 9 -10z" />
    <glyph glyph-name="braceright" unicode="}" horiz-adv-x="424" 
d="M8 718q142 0 200.5 -53.5t58.5 -146.5q0 -25 -3.5 -68t-3.5 -60q0 -55 20.5 -83.5t72.5 -28.5q8 0 10 -5t2 -20q0 -25 -12 -25q-53 0 -73.5 -28t-20.5 -83q0 -19 4 -62t4 -66q0 -202 -259 -202q-9 0 -9 10v40q0 3 3 6t6 3q102 0 137 36t35 106q0 26 -3.5 71.5t-3.5 66.5
q0 107 83 127q-84 23 -84 129q0 22 3.5 64t3.5 66q0 74 -34 111t-137 37q-9 0 -9 10v39q0 3 3 6t6 3z" />
    <glyph glyph-name="asciitilde" unicode="~" horiz-adv-x="499" 
d="M341 345q-39 0 -99.5 39t-88.5 39q-26 0 -42 -17.5t-16 -39.5q0 -13 -15 -13q-33 0 -33 13q0 50 32 83t89 33q41 0 74 -17t59.5 -34.5t49.5 -17.5t39.5 15t16.5 40q0 11 12 11q33 0 33 -13q0 -53 -30.5 -87t-80.5 -34z" />
    <glyph glyph-name="exclamdown" unicode="&#xa1;" horiz-adv-x="331" 
d="M105 -195l23 502q0 3 3 6t6 3h48q9 0 9 -9l23 -502q0 -10 -9 -10h-94q-9 0 -9 10zM163 390q-25 0 -42 16.5t-17 41.5q0 24 17 40.5t42 16.5q24 0 40.5 -16.5t16.5 -40.5q0 -25 -16.5 -41.5t-40.5 -16.5z" />
    <glyph glyph-name="cent" unicode="&#xa2;" horiz-adv-x="479" 
d="M328 656q68 -4 105 -38q19 -16 19 -37q0 -19 -12 -34.5t-30 -15.5q-13 0 -34 18q-30 27 -78 27q-73 0 -115 -53t-42 -126q0 -86 44.5 -133t115.5 -47q69 0 118 38q6 6 10 6q9 0 9 -12v-44q0 -12 -7 -18q-43 -33 -103 -42v-136q0 -3 -3 -6t-6 -3h-44q-9 0 -9 9v134
q-101 7 -161 74.5t-60 173.5q0 98 60 173t161 90v123q0 10 9 10h44q9 0 9 -10v-121z" />
    <glyph glyph-name="sterling" unicode="&#xa3;" horiz-adv-x="582" 
d="M196 76q126 3 159 3q27 0 81 0.5t84 0.5q6 0 7 -9l-8 -63q0 -8 -7 -8h-399q-9 0 -9 9v207q0 76 4 111q-30 -3 -67 -3q-6 0 -6 8v50q0 9 6 9q48 0 70 -3q-4 31 -4 69v51q0 99 62 159t169 60q127 0 182 -71q14 -17 14 -39q0 -20 -13 -33.5t-33 -13.5t-32 17
q-23 33 -47 47.5t-72 14.5q-67 0 -103 -40.5t-36 -115.5v-40q0 -37 -3 -65q31 3 146 3q7 0 7 -9v-50q0 -8 -7 -8q-99 0 -147 3q4 -35 4 -123q0 -78 -2 -128z" />
    <glyph glyph-name="currency" unicode="&#xa4;" horiz-adv-x="549" 
d="M447 214l75 -75l-50 -50l-75 75q-52 -38 -118 -38q-61 0 -117 36l-75 -74l-51 51l74 74q-37 52 -37 118q0 64 37 120l-74 74l51 49l74 -74q52 37 118 37q67 0 118 -37l74 74l51 -51l-74 -74q37 -51 37 -118q0 -65 -38 -117zM279 470q-57 0 -96.5 -41t-39.5 -98
t39.5 -97.5t96.5 -40.5t96.5 40.5t39.5 97.5t-39.5 98t-96.5 41z" />
    <glyph glyph-name="yen" unicode="&#xa5;" horiz-adv-x="645" 
d="M95 706q8 0 17 -11l114 -159q53 -76 99 -164q46 87 99 163l116 162q7 9 19 9h77q16 0 4 -16l-196 -274q27 2 89 2q9 0 9 -8v-53q0 -7 -9 -7q-91 0 -132 2l-31 -44v-41q43 2 129 2q3 0 6 -3t3 -5v-52q0 -8 -9 -8q-87 0 -131 2q2 -31 2 -96v-98q0 -3 -3 -6t-6 -3h-79
q-8 0 -8 9v103q0 63 2 91q-46 -2 -139 -2q-9 0 -9 8v52q0 8 9 8q92 0 137 -2v41l-29 44q-45 -2 -144 -2q-10 0 -10 7v53q0 8 10 8q69 0 99 -2l-196 274q-4 7 -2 11.5t8 4.5h85z" />
    <glyph glyph-name="brokenbar" unicode="&#xa6;" horiz-adv-x="349" 
d="M129 158h91v-354q0 -3 -3 -6t-6 -3h-73q-9 0 -9 9v354zM220 428h-91v328q0 10 9 10h73q9 0 9 -10v-328z" />
    <glyph glyph-name="section" unicode="&#xa7;" horiz-adv-x="616" 
d="M299 -212q-84 0 -137 38q-9 6 -9 20v49q0 13 9 13q4 0 11 -5q55 -45 133 -45q45 0 74 27.5t29 70.5q0 26 -12 48.5t-40.5 45t-49.5 36t-64 38.5q-8 5 -12 7q-45 26 -73 45.5t-59.5 48.5t-47 63t-15.5 73q0 96 89 142q-11 20 -11 44q0 78 56 130t153 52q53 0 93.5 -12
t61 -29.5t30.5 -34t10 -29.5q0 -24 -14 -37t-35 -13q-27 0 -37 20q-32 64 -113 64q-53 0 -82 -27t-29 -72q0 -26 12 -49t40.5 -45.5t49.5 -36t64 -38.5q101 -55 154.5 -109t53.5 -130q0 -93 -90 -138q10 -20 10 -45q0 -74 -51 -127t-152 -53zM473 50q33 26 33 71
q0 55 -45.5 98.5t-134.5 93.5q-69 41 -113 75.5t-69 78.5q-34 -25 -34 -75q0 -51 40.5 -91t119.5 -85q173 -100 203 -166z" />
    <glyph glyph-name="dieresis" unicode="&#xa8;" horiz-adv-x="449" 
d="M131 668q21 0 36 -15t15 -36q0 -20 -15 -35.5t-36 -15.5t-36 15.5t-15 35.5q0 21 15 36t36 15zM318 668q21 0 36 -15t15 -36q0 -20 -15 -35.5t-36 -15.5t-36 15.5t-15 35.5q0 21 15 36t36 15z" />
    <glyph glyph-name="copyright" unicode="&#xa9;" horiz-adv-x="861" 
d="M434 668q-125 0 -213.5 -92t-88.5 -220q0 -127 88.5 -218.5t213.5 -91.5t212.5 91t87.5 219t-87.5 220t-212.5 92zM434 -14q-153 0 -262 108.5t-109 261.5q0 154 109 263.5t262 109.5q154 0 259.5 -109t105.5 -264q0 -154 -105.5 -262t-259.5 -108zM553 481q-16 0 -32 16
q-29 25 -71 25q-65 0 -104 -49t-39 -116q0 -76 40.5 -118t103.5 -42q65 0 105 33q6 6 9 6q9 0 9 -11v-38q0 -10 -7 -16q-50 -40 -127 -40q-98 0 -157.5 61t-59.5 161q0 96 64.5 166t169.5 70q69 0 108 -32q21 -15 21 -39q0 -15 -9.5 -26t-23.5 -11z" />
    <glyph glyph-name="ordfeminine" unicode="&#xaa;" horiz-adv-x="351" 
d="M104 470q0 -45 47 -45q33 0 57 24t24 58v49q-65 -6 -96.5 -29t-31.5 -57zM52 651q0 23 30.5 45.5t91.5 22.5q127 0 127 -101q0 -21 -1.5 -71.5t-1.5 -68.5q0 -59 19 -80q4 -5 4 -10q0 -7 -8 -7h-32q-16 0 -24 16q-11 22 -11 52q-36 -77 -114 -77q-44 0 -70.5 24.5
t-26.5 63.5q0 51 50.5 86.5t146.5 42.5v21q0 29 -14 43t-49 14q-34 0 -52 -20q-3 -2 -8.5 -9t-11.5 -11t-15 -4q-12 0 -21 7.5t-9 20.5z" />
    <glyph glyph-name="guillemotleft" unicode="&#xab;" horiz-adv-x="637" 
d="M340 31l-291 191q-8 8 -8 26q0 20 8 26l290 189q12 9 12 -6v-29q0 -12 -8 -20l-196 -153l197 -168q7 -6 7 -17v-33q0 -5 -3.5 -6.5t-7.5 0.5zM585 31l-290 191q-9 8 -9 26q0 20 9 26l289 189q5 4 9 2t4 -8v-29q0 -12 -9 -20l-195 -153l196 -168q8 -6 8 -17v-33
q0 -5 -4 -6.5t-8 0.5z" />
    <glyph glyph-name="logicalnot" unicode="&#xac;" horiz-adv-x="516" 
d="M369 -46v254h-323v76h407v-330h-84z" />
    <glyph glyph-name="registered" unicode="&#xae;" horiz-adv-x="454" 
d="M228 730q83 0 138 -55.5t55 -136.5t-55.5 -136.5t-137.5 -55.5t-138 55.5t-56 136.5t56.5 136.5t137.5 55.5zM331 420h-25q-8 0 -12 6q-13 9 -31 33t-33.5 41t-25.5 17h-11v-94q0 -3 -3 -3h-36q-8 0 -8 8v232q0 4 3 4h69q43 0 67.5 -20t24.5 -47t-21.5 -45.5t-62.5 -19.5
q26 -4 50 -25t42.5 -42t28.5 -25q25 44 25 98q0 66 -40.5 109t-106.5 43t-104 -42.5t-38 -109.5q0 -66 39 -108.5t103 -42.5t106 33zM193 549h21q23 0 34 12.5t11 31.5q0 42 -42 42h-24v-86z" />
    <glyph glyph-name="macron" unicode="&#xaf;" horiz-adv-x="406" 
d="M326 635v-51q0 -7 -6 -7h-234q-6 0 -6 7v51q0 8 6 8h234q6 0 6 -8z" />
    <glyph glyph-name="macron" unicode="&#x2c9;" horiz-adv-x="406" 
d="M326 635v-51q0 -7 -6 -7h-234q-6 0 -6 7v51q0 8 6 8h234q6 0 6 -8z" />
    <glyph glyph-name="degree" unicode="&#xb0;" horiz-adv-x="449" 
d="M229 721q82 0 129.5 -55t47.5 -132t-50 -132t-129 -55q-80 0 -131 54t-51 133q0 75 50 131t134 56zM229 400q49 0 72 32t23 100q0 129 -95 129q-101 0 -101 -129q0 -64 26 -98t75 -34z" />
    <glyph glyph-name="plusminus" unicode="&#xb1;" horiz-adv-x="500" 
d="M132 310h-78q-9 0 -9 9v52q0 10 9 10h81q51 0 81 -3q-5 34 -5 87v72q0 9 10 9h58q3 0 6 -3t3 -6v-71q0 -61 -3 -88q31 3 79 3h80q9 0 9 -10v-52q0 -3 -3 -6t-6 -3h-81q-24 0 -78 3q3 -22 3 -76v-83q0 -9 -9 -9h-58q-10 0 -10 9v84q0 48 5 75q-31 -3 -84 -3zM452 66v-57
q0 -3 -3 -6t-6 -3h-388q-9 0 -9 9v57q0 10 9 10h388q9 0 9 -10z" />
    <glyph glyph-name="twosuperior" unicode="&#xb2;" horiz-adv-x="401" 
d="M157 417q60 6 103 6q28 0 54 1t27 1q7 0 7 -7l-5 -45q0 -5 -8 -5h-268q-10 0 -10 23q0 13 5 15q200 85 200 185q0 74 -68 74q-29 0 -46 -14t-18 -37q-2 -27 -33 -27t-31 31q0 33 33 69.5t100 36.5q60 0 97 -34t37 -86q0 -125 -176 -187z" />
    <glyph glyph-name="threesuperior" unicode="&#xb3;" horiz-adv-x="401" 
d="M187 671q-52 0 -65 -46q-3 -17 -27 -17q-13 0 -22 7.5t-9 22.5q0 30 33.5 56.5t98.5 26.5q60 0 91 -24.5t31 -66.5q0 -80 -98 -110q55 0 84.5 -27t29.5 -76q0 -55 -44.5 -88t-105.5 -33q-66 0 -111 30q-6 4 -6 15v32q0 12 8 12q5 0 10 -4q34 -28 91 -28q85 0 85 70
q0 66 -78 66q-24 0 -38.5 -5t-15.5 -5q-5 0 -7 6l-5 28q-1 6 4 8q66 14 96.5 37t30.5 62q0 51 -61 51z" />
    <glyph glyph-name="acute" unicode="&#xb4;" horiz-adv-x="371" 
d="M294 695l-143 -142q-12 -10 -20 -10h-37q-5 0 -7 3.5t2 7.5l112 142q7 10 16 10h75q3 0 4 -4t-2 -7z" />
    <glyph glyph-name="mu" unicode="&#xb5;" horiz-adv-x="557" 
d="M67 132v341q0 3 3 6t6 3h73q9 0 9 -9v-309q0 -103 91 -103q57 0 98 39.5t41 107.5v265q0 3 3 6t6 3h73q9 0 9 -9v-384q0 -23 2 -41.5t4 -27.5t2 -11q0 -9 -8 -9h-64q-7 0 -9 9q-7 45 -7 93q-23 -52 -69.5 -82t-109.5 -30q-62 0 -90 36q2 -35 5.5 -81.5t5.5 -76.5t2 -39
q0 -20 -14 -31.5t-33 -11.5q-21 0 -35.5 10.5t-14.5 30.5q0 7 5 53t10.5 116t5.5 136z" />
    <glyph glyph-name="mu" unicode="&#x3bc;" horiz-adv-x="557" 
d="M67 132v341q0 3 3 6t6 3h73q9 0 9 -9v-309q0 -103 91 -103q57 0 98 39.5t41 107.5v265q0 3 3 6t6 3h73q9 0 9 -9v-384q0 -23 2 -41.5t4 -27.5t2 -11q0 -9 -8 -9h-64q-7 0 -9 9q-7 45 -7 93q-23 -52 -69.5 -82t-109.5 -30q-62 0 -90 36q2 -35 5.5 -81.5t5.5 -76.5t2 -39
q0 -20 -14 -31.5t-33 -11.5q-21 0 -35.5 10.5t-14.5 30.5q0 7 5 53t10.5 116t5.5 136z" />
    <glyph glyph-name="paragraph" unicode="&#xb6;" horiz-adv-x="572" 
d="M298 273q-129 0 -198 57t-69 158q0 93 66 155.5t190 62.5h198q9 0 9 -13v-684q0 -9 -9 -9h-86q-3 0 -6 3t-3 6v264h-92z" />
    <glyph glyph-name="periodcentered" unicode="&#xb7;" horiz-adv-x="244" 
d="M122 333q27 0 45 -18t18 -44q0 -27 -18 -45.5t-45 -18.5q-26 0 -44.5 18.5t-18.5 45.5q0 26 18.5 44t44.5 18z" />
    <glyph glyph-name="periodcentered" unicode="&#x2219;" horiz-adv-x="244" 
d="M122 333q27 0 45 -18t18 -44q0 -27 -18 -45.5t-45 -18.5q-26 0 -44.5 18.5t-18.5 45.5q0 26 18.5 44t44.5 18z" />
    <glyph glyph-name="cedilla" unicode="&#xb8;" horiz-adv-x="364" 
d="M86 -233q-6 1 -6 9v29q0 8 7 5q26 -9 54 -9q37 0 53 13t16 40q0 53 -64 53q-5 0 -9.5 -1t-10.5 -2.5t-9 -2.5q-4 0 -7.5 6t-3.5 12q0 2 2 6l81 75h45l-65 -58h10q50 0 77.5 -25.5t27.5 -61.5q0 -39 -32.5 -69t-90.5 -30q-38 0 -75 11z" />
    <glyph glyph-name="onesuperior" unicode="&#xb9;" horiz-adv-x="401" 
d="M181 651q-16 -9 -40 -16l-31 -10q-7 -1 -8 5l-3 38q-1 5 6 8l132 43q12 4 12 -6v-215q0 -28 -2 -82q12 2 36 2h29q7 0 7 -7l2 -36q0 -6 -8 -6h-200q-8 0 -8 6l2 36q0 7 9 7h27q14 0 38 -2q-2 58 -2 86v66q0 37 2 83z" />
    <glyph glyph-name="ordmasculine" unicode="&#xba;" horiz-adv-x="398" 
d="M201 719q79 0 122.5 -51t43.5 -122q0 -72 -43.5 -124t-122.5 -52q-80 0 -123 52t-43 124q0 71 43 122t123 51zM201 421q91 0 91 124t-91 124q-93 0 -93 -124t93 -124z" />
    <glyph glyph-name="guillemotright" unicode="&#xbb;" horiz-adv-x="637" 
d="M299 465l290 -191q8 -7 8 -26q0 -20 -8 -26l-290 -189q-5 -4 -8.5 -2t-3.5 8v29q0 12 8 20l196 153l-196 168q-8 6 -8 17v33q0 5 4 6.5t8 -0.5zM53 465l290 -191q9 -7 9 -26q0 -20 -9 -26l-289 -189q-12 -9 -12 6v29q0 12 8 20l195 153l-196 168q-7 6 -7 17v33
q0 5 3.5 6.5t7.5 -0.5z" />
    <glyph glyph-name="onequarter" unicode="&#xbc;" horiz-adv-x="843" 
d="M756 694l-577 -685q-6 -9 -14 -9h-66q-5 0 -6.5 4t1.5 8l579 684q7 10 16 10h64q5 0 6 -4t-3 -8zM670 2q1 -17 1 -57v-42q0 -6 -7 -6h-51q-7 0 -7 6v44q0 38 2 55q-20 -2 -70 -2h-131q-8 0 -8 8v21q0 7 4 12q92 155 205 296h56q7 0 7 -6v-221q0 -40 -1 -59q31 1 88 1
q9 0 7 -7l-3 -34q0 -11 -8 -11q-55 0 -84 2zM608 51q-3 24 -3 100q0 31 4 105l-138 -206q27 2 69 2q49 0 68 -1zM185 651q-15 -8 -41 -16l-31 -10q-7 -2 -7 5l-4 38q-1 5 6 8l133 43q11 4 11 -6v-215q0 -28 -2 -82q12 2 36 2h29q8 0 8 -7l1 -36q0 -6 -8 -6h-200q-8 0 -8 6
l2 36q2 7 9 7h27q14 0 38 -2q-2 58 -2 86v66q0 48 3 83z" />
    <glyph glyph-name="onehalf" unicode="&#xbd;" horiz-adv-x="843" 
d="M748 694l-577 -685q-6 -9 -14 -9h-67q-5 0 -6 4t2 8l579 684q7 10 16 10h64q4 0 5 -4t-2 -8zM579 49q60 6 103 6q27 0 53.5 1t27.5 1q7 0 7 -7l-5 -44q0 -6 -8 -6h-268q-10 0 -10 23q0 13 5 16q200 84 200 185q0 74 -68 74q-29 0 -46 -14t-18 -38q-2 -27 -33 -27t-31 32
q0 13 7 29.5t21 34t42 29.5t63 12q60 0 97 -34t37 -86q0 -123 -176 -187zM178 651q-18 -9 -41 -16l-31 -10q-7 -1 -8 5l-3 38q-1 5 6 8l133 43q11 4 11 -6v-215q0 -28 -2 -82q12 2 36 2h29q8 0 8 -7l1 -36q0 -6 -8 -6h-200q-8 0 -8 6l2 36q0 7 9 7h27q14 0 38 -2
q-2 58 -2 86v66q0 48 3 83z" />
    <glyph glyph-name="threequarters" unicode="&#xbe;" horiz-adv-x="843" 
d="M763 694l-578 -685q-6 -9 -14 -9h-66q-5 0 -6.5 4t1.5 8l579 684q7 10 16 10h64q4 0 5.5 -4t-1.5 -8zM662 2q2 -17 2 -57v-42q0 -6 -7 -6h-52q-7 0 -7 6v44q0 38 2 55q-19 -2 -69 -2h-131q-8 0 -8 8v21q0 6 3 12q88 149 205 296h57q7 0 7 -6v-221q0 -40 -2 -59q32 1 89 1
q9 0 7 -7l-3 -34q0 -11 -8 -11q-55 0 -85 2zM600 51q-2 16 -2 100q0 49 3 105l-137 -206q26 2 69 2q49 0 67 -1zM187 671q-51 0 -66 -46q-3 -17 -27 -17q-13 0 -22 7.5t-9 22.5q0 30 33.5 56.5t98.5 26.5q61 0 92 -24.5t31 -66.5q0 -80 -98 -110q55 0 84 -26.5t29 -76.5
q0 -55 -44.5 -88t-105.5 -33q-65 0 -110 30q-7 5 -7 15v32q0 12 8 12q6 0 10 -4q34 -28 91 -28q85 0 85 70q0 66 -78 66q-23 0 -37.5 -5t-15.5 -5q-5 0 -7 6l-5 28q-1 6 3 8q67 14 97.5 37t30.5 62q0 51 -61 51z" />
    <glyph glyph-name="questiondown" unicode="&#xbf;" horiz-adv-x="481" 
d="M216 191q42 0 66 -14q0 23 -2 70t-2 62q0 3 3 6t6 3h54q9 0 9 -9v-201q0 -9 -8 -9q-3 0 -11 5q-36 22 -82 22q-50 0 -78.5 -32.5t-28.5 -94.5q0 -65 37.5 -102t101.5 -37q57 0 90 42q23 29 44 29q19 0 30 -11.5t11 -31.5q0 -36 -41.5 -70.5t-126.5 -34.5q-107 0 -173 58
t-66 159q0 91 45.5 141t121.5 50zM309 391q-25 0 -41.5 16.5t-16.5 40.5t16.5 41t41.5 17q24 0 41 -17t17 -41t-17 -40.5t-41 -16.5z" />
    <glyph glyph-name="Agrave" unicode="&#xc0;" horiz-adv-x="631" 
d="M371 428q-42 118 -59 197q-20 -85 -59 -193q-36 -101 -52 -138q56 3 113 3q75 0 108 -2q-23 55 -51 133zM445 230q-64 -3 -133 -3q-68 0 -133 3q-26 -89 -78 -220q-4 -10 -11 -10h-79q-15 0 -9 16l257 681q2 9 10 9h91q8 0 12 -9l257 -681q6 -16 -9 -16h-86q-8 0 -12 10
q-60 160 -77 220zM164 901q-4 3 -3 7t5 4h76q8 0 16 -10l125 -140q3 -3 1.5 -6t-5.5 -3h-41q-7 0 -15 8z" />
    <glyph glyph-name="Aacute" unicode="&#xc1;" horiz-adv-x="631" 
d="M371 428q-42 118 -59 197q-20 -85 -59 -193q-36 -101 -52 -138q56 3 113 3q75 0 108 -2q-23 55 -51 133zM445 230q-64 -3 -133 -3q-68 0 -133 3q-26 -89 -78 -220q-4 -10 -11 -10h-79q-15 0 -9 16l257 681q2 9 10 9h91q8 0 12 -9l257 -681q6 -16 -9 -16h-86q-8 0 -12 10
q-60 160 -77 220zM461 901l-160 -140q-8 -8 -15 -8h-40q-4 0 -5.5 3t0.5 6l126 140q7 10 15 10h76q4 0 5 -4t-2 -7z" />
    <glyph glyph-name="Acircumflex" unicode="&#xc2;" horiz-adv-x="631" 
d="M371 428q-42 118 -59 197q-20 -85 -59 -193q-36 -101 -52 -138q56 3 113 3q75 0 108 -2q-23 55 -51 133zM445 230q-64 -3 -133 -3q-68 0 -133 3q-26 -89 -78 -220q-4 -10 -11 -10h-79q-15 0 -9 16l257 681q2 9 10 9h91q8 0 12 -9l257 -681q6 -16 -9 -16h-86q-8 0 -12 10
q-60 160 -77 220zM310 854l-97 -92q-11 -9 -16 -9h-38q-3 0 -4.5 1.5t-1.5 3.5t2 4l122 141q9 9 15 9h42q8 0 16 -9l120 -141q1 -3 -0.5 -6t-4.5 -3h-42q-5 0 -16 9z" />
    <glyph glyph-name="Atilde" unicode="&#xc3;" horiz-adv-x="631" 
d="M371 428q-42 118 -59 197q-20 -85 -59 -193q-36 -101 -52 -138q56 3 113 3q75 0 108 -2q-23 55 -51 133zM445 230q-64 -3 -133 -3q-68 0 -133 3q-26 -89 -78 -220q-4 -10 -11 -10h-79q-15 0 -9 16l257 681q2 9 10 9h91q8 0 12 -9l257 -681q6 -16 -9 -16h-86q-8 0 -12 10
q-60 160 -77 220zM383 755q-28 0 -74 35t-68 35q-20 0 -32.5 -14.5t-12.5 -35.5q0 -12 -12 -12q-25 0 -25 12q0 53 27.5 81.5t68.5 28.5q30 0 55.5 -15.5t45.5 -31t38 -15.5t30.5 12t12.5 35q0 11 9 11q26 0 26 -13q0 -51 -25.5 -82t-63.5 -31z" />
    <glyph glyph-name="Adieresis" unicode="&#xc4;" horiz-adv-x="631" 
d="M371 428q-42 118 -59 197q-20 -85 -59 -193q-36 -101 -52 -138q56 3 113 3q75 0 108 -2q-23 55 -51 133zM445 230q-64 -3 -133 -3q-68 0 -133 3q-26 -89 -78 -220q-4 -10 -11 -10h-79q-15 0 -9 16l257 681q2 9 10 9h91q8 0 12 -9l257 -681q6 -16 -9 -16h-86q-8 0 -12 10
q-60 160 -77 220zM218 860q21 0 36 -15t15 -36q0 -20 -15 -35t-36 -15t-36 15t-15 35q0 21 15 36t36 15zM412 860q21 0 36 -15t15 -36q0 -20 -15 -35t-36 -15q-20 0 -35.5 15t-15.5 35q0 21 15.5 36t35.5 15z" />
    <glyph glyph-name="Aring" unicode="&#xc5;" horiz-adv-x="631" 
d="M371 428q-42 118 -59 197q-20 -85 -59 -193q-36 -101 -52 -138q56 3 113 3q75 0 108 -2q-23 55 -51 133zM445 230q-64 -3 -133 -3q-68 0 -133 3q-26 -89 -78 -220q-4 -10 -11 -10h-79q-15 0 -9 16l257 681q2 9 10 9h91q8 0 12 -9l257 -681q6 -16 -9 -16h-86q-8 0 -12 10
q-60 160 -77 220zM315 732q-50 0 -82.5 27t-32.5 70q0 42 32.5 69.5t82.5 27.5t82.5 -27.5t32.5 -69.5q0 -43 -32.5 -70t-82.5 -27zM315 883q-61 0 -61 -56q0 -27 17.5 -42t43.5 -15q60 0 60 57q0 56 -60 56z" />
    <glyph glyph-name="AE" unicode="&#xc6;" horiz-adv-x="984" 
d="M607 632q3 -55 3 -111q0 -60 -3 -117q74 4 115 4q19 0 56.5 0.5t56.5 0.5q7 0 7 -9v-60q0 -8 -7 -8q-19 0 -55.5 0.5t-55.5 0.5q-71 0 -117 5q3 -59 3 -129q0 -71 -3 -135q57 3 167 3q32 0 94 1t92 1q8 0 7 -9l-7 -62q0 -8 -7 -8h-436q-9 0 -9 9q0 174 2 220
q-63 -3 -130 -3q-68 0 -135 3q-16 -34 -151 -219q-8 -10 -16 -10h-100q-15 0 -3 16l500 681q7 9 14 9h449q6 0 7 -9l8 -62q0 -8 -7 -8q-30 0 -96 1t-94 1q-74 0 -149 3zM394 434q-65 -97 -102 -139q54 3 109 3q56 0 110 -3q-3 48 -3 147q0 133 7 187q-16 -41 -121 -195z" />
    <glyph glyph-name="Ccedilla" unicode="&#xc7;" horiz-adv-x="667" 
d="M306 -233q-6 1 -6 9v29q0 8 7 5q25 -9 54 -9q37 0 53 13t16 40q0 53 -64 53q-5 0 -9.5 -1t-10.5 -2.5t-9 -2.5q-4 0 -7.5 6t-3.5 12q0 2 2 6l67 63q-148 3 -242 103.5t-94 258.5q0 161 101.5 270t269.5 109q121 0 198 -54q11 -9 11 -26v-67q0 -16 -13 -16q-5 0 -13 6
q-73 70 -183 70q-125 0 -194 -79t-69 -209t71.5 -207.5t184.5 -77.5t192 65q8 5 12 5q12 0 12 -14v-53q0 -14 -11 -22q-74 -55 -188 -62l-51 -46h10q50 0 77.5 -25.5t27.5 -61.5q0 -39 -32.5 -69t-90.5 -30q-38 0 -75 11z" />
    <glyph glyph-name="Egrave" unicode="&#xc8;" horiz-adv-x="568" 
d="M350 77q33 0 98.5 1t95.5 1q7 0 7 -9l-8 -62q-2 -8 -7 -8h-435q-9 0 -9 9v687q0 10 9 10h420q7 0 8 -9l7 -62q0 -8 -7 -8q-30 0 -109.5 1t-108.5 1q-70 0 -121 3q3 -59 3 -113q0 -57 -3 -115q41 4 116 4q29 0 66 0.5t46 0.5q7 0 7 -9v-60q0 -8 -7 -8q-9 0 -47 0.5
t-67 0.5q-59 0 -114 5q3 -66 3 -127q0 -69 -3 -137q47 3 160 3zM195 901q-4 3 -3 7t5 4h76q9 0 16 -10l125 -140q3 -3 1.5 -6t-5.5 -3h-41q-7 0 -15 8z" />
    <glyph glyph-name="Eacute" unicode="&#xc9;" horiz-adv-x="568" 
d="M350 77q33 0 98.5 1t95.5 1q7 0 7 -9l-8 -62q-2 -8 -7 -8h-435q-9 0 -9 9v687q0 10 9 10h420q7 0 8 -9l7 -62q0 -8 -7 -8q-30 0 -109.5 1t-108.5 1q-70 0 -121 3q3 -59 3 -113q0 -57 -3 -115q41 4 116 4q29 0 66 0.5t46 0.5q7 0 7 -9v-60q0 -8 -7 -8q-9 0 -47 0.5
t-67 0.5q-59 0 -114 5q3 -66 3 -127q0 -69 -3 -137q47 3 160 3zM469 901l-160 -140q-8 -8 -15 -8h-40q-4 0 -5.5 3t0.5 6l126 140q7 10 15 10h76q4 0 5 -4t-2 -7z" />
    <glyph glyph-name="Ecircumflex" unicode="&#xca;" horiz-adv-x="568" 
d="M350 77q33 0 98.5 1t95.5 1q7 0 7 -9l-8 -62q-2 -8 -7 -8h-435q-9 0 -9 9v687q0 10 9 10h420q7 0 8 -9l7 -62q0 -8 -7 -8q-30 0 -109.5 1t-108.5 1q-70 0 -121 3q3 -59 3 -113q0 -57 -3 -115q41 4 116 4q29 0 66 0.5t46 0.5q7 0 7 -9v-60q0 -8 -7 -8q-9 0 -47 0.5
t-67 0.5q-59 0 -114 5q3 -66 3 -127q0 -69 -3 -137q47 3 160 3zM318 854l-97 -92q-10 -9 -16 -9h-38q-3 0 -4.5 1.5t-1.5 3.5t2 4l122 141q9 9 15 9h42q8 0 16 -9l120 -141q1 -3 -0.5 -6t-4.5 -3h-42q-5 0 -16 9z" />
    <glyph glyph-name="Edieresis" unicode="&#xcb;" horiz-adv-x="568" 
d="M350 77q33 0 98.5 1t95.5 1q7 0 7 -9l-8 -62q-2 -8 -7 -8h-435q-9 0 -9 9v687q0 10 9 10h420q7 0 8 -9l7 -62q0 -8 -7 -8q-30 0 -109.5 1t-108.5 1q-70 0 -121 3q3 -59 3 -113q0 -57 -3 -115q41 4 116 4q29 0 66 0.5t46 0.5q7 0 7 -9v-60q0 -8 -7 -8q-9 0 -47 0.5
t-67 0.5q-59 0 -114 5q3 -66 3 -127q0 -69 -3 -137q47 3 160 3zM224 860q21 0 36 -15t15 -36q0 -20 -15 -35t-36 -15t-36 15t-15 35q0 21 15 36t36 15zM418 860q21 0 36 -15t15 -36q0 -20 -15 -35t-36 -15q-20 0 -35.5 15t-15.5 35q0 21 15.5 36t35.5 15z" />
    <glyph glyph-name="Igrave" unicode="&#xcc;" horiz-adv-x="285" 
d="M193 696v-687q0 -3 -3 -6t-6 -3h-83q-9 0 -9 9v687q0 10 9 10h83q9 0 9 -10zM-13 901q-4 3 -3 7t5 4h76q9 0 16 -10l125 -140q3 -3 1.5 -6t-5.5 -3h-41q-7 0 -15 8z" />
    <glyph glyph-name="Iacute" unicode="&#xcd;" horiz-adv-x="285" 
d="M193 696v-687q0 -3 -3 -6t-6 -3h-83q-9 0 -9 9v687q0 10 9 10h83q9 0 9 -10zM290 901l-160 -140q-8 -8 -15 -8h-40q-4 0 -5.5 3t0.5 6l126 140q8 10 15 10h76q4 0 5 -4t-2 -7z" />
    <glyph glyph-name="Icircumflex" unicode="&#xce;" horiz-adv-x="285" 
d="M193 696v-687q0 -3 -3 -6t-6 -3h-83q-9 0 -9 9v687q0 10 9 10h83q9 0 9 -10zM140 854l-97 -92q-11 -9 -16 -9h-38q-3 0 -4.5 1.5t-1.5 3.5t2 4l122 141q9 9 15 9h42q8 0 16 -9l120 -141q1 -3 -0.5 -6t-4.5 -3h-42q-5 0 -16 9z" />
    <glyph glyph-name="Idieresis" unicode="&#xcf;" horiz-adv-x="285" 
d="M193 696v-687q0 -3 -3 -6t-6 -3h-83q-9 0 -9 9v687q0 10 9 10h83q9 0 9 -10zM45 860q21 0 36 -15t15 -36q0 -20 -15 -35t-36 -15t-36 15t-15 35q0 21 15 36t36 15zM239 860q21 0 36 -15t15 -36q0 -20 -15 -35t-36 -15q-20 0 -35.5 15t-15.5 35q0 21 15.5 36t35.5 15z" />
    <glyph glyph-name="Eth" unicode="&#xd0;" horiz-adv-x="761" 
d="M106 255q0 45 5 72q-31 -3 -67 -3h-35q-9 0 -9 8v48q0 9 9 9h35q38 0 67 -3q-5 32 -5 83v227q0 10 9 10h220q171 0 271 -95t100 -263q0 -167 -99 -257.5t-263 -90.5h-229q-9 0 -9 9v246zM206 255v-52q0 -85 -2 -127q76 3 137 3q114 0 185 66t71 207q0 124 -67 199.5
t-203 75.5q-70 0 -124 3q3 -35 3 -109v-56q0 -53 -3 -79q30 3 79 3h69q9 0 9 -9v-48q0 -2 -3 -5t-6 -3h-70q-51 0 -78 3q3 -26 3 -72z" />
    <glyph glyph-name="Ntilde" unicode="&#xd1;" horiz-adv-x="772" 
d="M561 8l-314 487q-42 64 -69 134q6 -76 6 -154v-466q0 -9 -8 -9h-75q-9 0 -9 9v687q0 10 9 10h113q9 0 15 -10l288 -446q52 -80 79 -157q-8 79 -8 183v420q0 10 9 10h74q9 0 9 -10v-687q0 -3 -3 -6t-6 -3h-98q-8 0 -12 8zM468 755q-28 0 -74 35t-68 35q-20 0 -32.5 -14.5
t-12.5 -35.5q0 -12 -12 -12q-25 0 -25 12q0 53 27.5 81.5t68.5 28.5q30 0 55.5 -15.5t45.5 -31t38 -15.5t30.5 12t12.5 35q0 11 9 11q26 0 26 -13q0 -51 -25.5 -82t-63.5 -31z" />
    <glyph glyph-name="Ograve" unicode="&#xd2;" horiz-adv-x="829" 
d="M414 68q117 0 180.5 80.5t63.5 215.5q0 138 -67.5 210.5t-175.5 72.5t-176 -72t-68 -211q0 -132 64.5 -214t178.5 -82zM414 729q95 0 175.5 -42t131 -127t50.5 -196q0 -169 -100 -273t-257 -104q-150 0 -252.5 104t-102.5 273q0 164 104 264.5t251 100.5zM304 901
q-4 3 -3 7t5 4h76q8 0 16 -10l125 -140q3 -3 1.5 -6t-5.5 -3h-41q-7 0 -15 8z" />
    <glyph glyph-name="Oacute" unicode="&#xd3;" horiz-adv-x="829" 
d="M414 68q117 0 180.5 80.5t63.5 215.5q0 138 -67.5 210.5t-175.5 72.5t-176 -72t-68 -211q0 -132 64.5 -214t178.5 -82zM414 729q95 0 175.5 -42t131 -127t50.5 -196q0 -169 -100 -273t-257 -104q-150 0 -252.5 104t-102.5 273q0 164 104 264.5t251 100.5zM532 901
l-160 -140q-8 -8 -15 -8h-40q-4 0 -5.5 3t0.5 6l126 140q8 10 15 10h76q4 0 5 -4t-2 -7z" />
    <glyph glyph-name="Ocircumflex" unicode="&#xd4;" horiz-adv-x="829" 
d="M414 68q117 0 180.5 80.5t63.5 215.5q0 138 -67.5 210.5t-175.5 72.5t-176 -72t-68 -211q0 -132 64.5 -214t178.5 -82zM414 729q95 0 175.5 -42t131 -127t50.5 -196q0 -169 -100 -273t-257 -104q-150 0 -252.5 104t-102.5 273q0 164 104 264.5t251 100.5zM413 854
l-97 -92q-10 -9 -16 -9h-38q-3 0 -4.5 1.5t-1.5 3.5t2 4l122 141q9 9 15 9h42q9 0 16 -9l120 -141q1 -3 -0.5 -6t-4.5 -3h-42q-6 0 -16 9z" />
    <glyph glyph-name="Otilde" unicode="&#xd5;" horiz-adv-x="829" 
d="M414 68q117 0 180.5 80.5t63.5 215.5q0 138 -67.5 210.5t-175.5 72.5t-176 -72t-68 -211q0 -132 64.5 -214t178.5 -82zM414 729q95 0 175.5 -42t131 -127t50.5 -196q0 -169 -100 -273t-257 -104q-150 0 -252.5 104t-102.5 273q0 164 104 264.5t251 100.5zM483 755
q-28 0 -74 35t-68 35q-20 0 -32.5 -14.5t-12.5 -35.5q0 -12 -12 -12q-25 0 -25 12q0 53 27.5 81.5t68.5 28.5q30 0 55.5 -15.5t45.5 -31t38 -15.5t30.5 12t12.5 35q0 11 9 11q26 0 26 -13q0 -51 -25.5 -82t-63.5 -31z" />
    <glyph glyph-name="Odieresis" unicode="&#xd6;" horiz-adv-x="829" 
d="M414 68q117 0 180.5 80.5t63.5 215.5q0 138 -67.5 210.5t-175.5 72.5t-176 -72t-68 -211q0 -132 64.5 -214t178.5 -82zM414 729q95 0 175.5 -42t131 -127t50.5 -196q0 -169 -100 -273t-257 -104q-150 0 -252.5 104t-102.5 273q0 164 104 264.5t251 100.5zM318 860
q21 0 36 -15t15 -36q0 -20 -15 -35t-36 -15t-36 15t-15 35q0 21 15 36t36 15zM512 860q21 0 36 -15t15 -36q0 -20 -15 -35t-36 -15q-20 0 -35.5 15t-15.5 35q0 21 15.5 36t35.5 15z" />
    <glyph glyph-name="multiply" unicode="&#xd7;" horiz-adv-x="500" 
d="M194 160l-56 -55q-5 -7 -12 0l-41 41q-8 8 -1 13l57 58q49 46 58 53q-15 11 -65 58l-49 51q-2 1 -2 5.5t2 7.5l46 45q1 2 6 2t6 -2l49 -49q29 -26 60 -64q21 24 54 57l56 56q2 2 6.5 2t6.5 -2l41 -41q6 -6 0 -13l-57 -56q-31 -32 -57 -53q20 -15 56 -51l59 -59
q7 -6 0 -13l-46 -45q-7 -8 -14 -1l-59 59q-39 42 -49 56q-22 -27 -55 -60z" />
    <glyph glyph-name="Oslash" unicode="&#xd8;" horiz-adv-x="829" 
d="M616 521l-358 -395q61 -58 156 -58q118 0 181.5 80.5t63.5 217.5q0 90 -43 155zM199 59l-46 -50q-6 -9 -15 -9h-75q-4 0 -5.5 3.5t0.5 5.5l90 98q-89 100 -89 257q0 164 104.5 264.5t250.5 100.5q129 0 227 -80l43 47q12 10 17 10h74q5 0 6.5 -3.5t-2.5 -7.5l-87 -95
q79 -97 79 -236q0 -169 -100.5 -273t-256.5 -104q-123 0 -215 72zM222 183l361 400q-65 65 -168 65q-109 0 -176.5 -74t-67.5 -214q0 -104 51 -177z" />
    <glyph glyph-name="Ugrave" unicode="&#xd9;" horiz-adv-x="753" 
d="M83 241v455q0 10 9 10h84q9 0 9 -10v-442q0 -84 50.5 -131t140.5 -47q94 0 144.5 43.5t50.5 129.5v447q0 10 9 10h81q9 0 9 -10v-458q0 -114 -81.5 -182.5t-213.5 -68.5q-131 0 -211.5 69.5t-80.5 184.5zM254 901q-4 3 -3 7t5 4h76q8 0 16 -10l125 -140q3 -3 1.5 -6
t-5.5 -3h-41q-7 0 -15 8z" />
    <glyph glyph-name="Uacute" unicode="&#xda;" horiz-adv-x="753" 
d="M83 241v455q0 10 9 10h84q9 0 9 -10v-442q0 -84 50.5 -131t140.5 -47q94 0 144.5 43.5t50.5 129.5v447q0 10 9 10h81q9 0 9 -10v-458q0 -114 -81.5 -182.5t-213.5 -68.5q-131 0 -211.5 69.5t-80.5 184.5zM519 901l-160 -140q-8 -8 -15 -8h-40q-4 0 -5.5 3t0.5 6l126 140
q7 10 15 10h76q4 0 5 -4t-2 -7z" />
    <glyph glyph-name="Ucircumflex" unicode="&#xdb;" horiz-adv-x="753" 
d="M83 241v455q0 10 9 10h84q9 0 9 -10v-442q0 -84 50.5 -131t140.5 -47q94 0 144.5 43.5t50.5 129.5v447q0 10 9 10h81q9 0 9 -10v-458q0 -114 -81.5 -182.5t-213.5 -68.5q-131 0 -211.5 69.5t-80.5 184.5zM374 854l-97 -92q-10 -9 -16 -9h-38q-3 0 -4.5 1.5t-1.5 3.5t2 4
l122 141q9 9 15 9h42q8 0 16 -9l120 -141q1 -3 -0.5 -6t-4.5 -3h-42q-5 0 -16 9z" />
    <glyph glyph-name="Udieresis" unicode="&#xdc;" horiz-adv-x="753" 
d="M83 241v455q0 10 9 10h84q9 0 9 -10v-442q0 -84 50.5 -131t140.5 -47q94 0 144.5 43.5t50.5 129.5v447q0 10 9 10h81q9 0 9 -10v-458q0 -114 -81.5 -182.5t-213.5 -68.5q-131 0 -211.5 69.5t-80.5 184.5zM279 860q21 0 36 -15t15 -36q0 -20 -15 -35t-36 -15t-36 15
t-15 35q0 21 15 36t36 15zM473 860q21 0 36 -15t15 -36q0 -20 -15 -35t-36 -15q-20 0 -35.5 15t-15.5 35q0 21 15.5 36t35.5 15z" />
    <glyph glyph-name="Yacute" unicode="&#xdd;" horiz-adv-x="678" 
d="M387 308v-299q0 -3 -3 -6t-6 -3h-83q-9 0 -9 9v299l-286 382q-12 16 5 16h93q12 0 17 -11l163 -217q40 -53 61 -101q26 50 63 100l164 218q7 11 21 11h84q17 0 5 -16zM471 901l-160 -140q-8 -8 -15 -8h-40q-4 0 -5.5 3t0.5 6l126 140q7 10 15 10h76q4 0 5 -4t-2 -7z" />
    <glyph glyph-name="Thorn" unicode="&#xde;" horiz-adv-x="582" 
d="M191 590h107q122 0 186.5 -62t64.5 -155q0 -102 -67.5 -160.5t-196.5 -58.5q-17 0 -95 3q3 -60 3 -148q0 -3 -3 -6t-6 -3h-83q-9 0 -9 9v687q0 10 9 10h83q9 0 9 -10q0 -70 -2 -106zM278 230q164 0 164 141q0 65 -36.5 104.5t-110.5 39.5q-69 0 -104 2q2 -37 2 -141
q0 -110 -2 -149q42 3 87 3z" />
    <glyph glyph-name="germandbls" unicode="&#xdf;" horiz-adv-x="550" 
d="M303 643q-122 0 -122 -139v-495q0 -3 -3 -6t-6 -3h-73q-9 0 -9 9v333q0 48 3 77q-27 -4 -63 -4q-6 0 -6 8v50q0 9 6 9q39 0 64 -4q-3 16 -3 38q0 83 55.5 140t165.5 57q86 0 135 -41t49 -104q0 -41 -21 -73.5t-46 -50t-46 -40.5t-21 -46q0 -13 8.5 -27t19 -24l29.5 -27
q5 -4 7 -6q50 -41 70.5 -74.5t20.5 -76.5q0 -68 -45 -101.5t-110 -33.5q-59 0 -91.5 20.5t-32.5 51.5q0 17 9.5 28.5t27.5 11.5q13 0 22 -7.5t14 -17t19 -17t37 -7.5q29 0 47.5 17.5t18.5 47.5q0 26 -16 50t-57 56q-2 2 -11.5 9.5l-12.5 10l-11.5 10t-11.5 11t-9.5 10.5
t-9 12t-7 12.5t-6 14.5t-3 15t-1.5 17q0 32 19.5 60.5t42.5 47t42.5 45.5t19.5 56q0 90 -98 90z" />
    <glyph glyph-name="agrave" unicode="&#xe0;" horiz-adv-x="513" 
d="M126 695q-3 3 -2 7t4 4h75q9 0 16 -10l112 -142q4 -4 2 -7.5t-7 -3.5h-37q-8 0 -20 10zM139 130q0 -35 23.5 -55t58.5 -20q57 0 93 40.5t36 99.5v65q-109 -8 -160 -43t-51 -87zM76 408q0 31 46 61t134 30q183 0 183 -149q0 -31 -2.5 -106t-2.5 -102q0 -98 29 -119
q5 -5 5 -12q0 -4 -3.5 -7.5t-7.5 -3.5h-44q-19 0 -27 18q-18 32 -20 83q-46 -114 -170 -114q-67 0 -106.5 35.5t-39.5 91.5q0 79 77 133.5t223 63.5v34q0 90 -101 90q-61 0 -89 -34q-10 -13 -13.5 -17t-12.5 -9.5t-19 -5.5q-17 0 -28 10.5t-11 28.5z" />
    <glyph glyph-name="aacute" unicode="&#xe1;" horiz-adv-x="513" 
d="M389 695l-143 -142q-12 -10 -20 -10h-37q-5 0 -7 3.5t2 7.5l112 142q8 10 16 10h75q3 0 4 -4t-2 -7zM139 130q0 -35 23.5 -55t58.5 -20q57 0 93 40.5t36 99.5v65q-109 -8 -160 -43t-51 -87zM76 408q0 31 46 61t134 30q183 0 183 -149q0 -31 -2.5 -106t-2.5 -102
q0 -98 29 -119q5 -5 5 -12q0 -4 -3.5 -7.5t-7.5 -3.5h-44q-19 0 -27 18q-18 32 -20 83q-46 -114 -170 -114q-67 0 -106.5 35.5t-39.5 91.5q0 79 77 133.5t223 63.5v34q0 90 -101 90q-61 0 -89 -34q-10 -13 -13.5 -17t-12.5 -9.5t-19 -5.5q-17 0 -28 10.5t-11 28.5z" />
    <glyph glyph-name="acircumflex" unicode="&#xe2;" horiz-adv-x="513" 
d="M251 647l-86 -95q-9 -9 -16 -9h-40q-8 0 -3 9l109 144q8 10 15 10h49q7 0 15 -10l109 -144q1 -3 -0.5 -6t-4.5 -3h-43q-7 0 -16 9zM139 130q0 -35 23.5 -55t58.5 -20q57 0 93 40.5t36 99.5v65q-109 -8 -160 -43t-51 -87zM76 408q0 31 46 61t134 30q183 0 183 -149
q0 -31 -2.5 -106t-2.5 -102q0 -98 29 -119q5 -5 5 -12q0 -4 -3.5 -7.5t-7.5 -3.5h-44q-19 0 -27 18q-18 32 -20 83q-46 -114 -170 -114q-67 0 -106.5 35.5t-39.5 91.5q0 79 77 133.5t223 63.5v34q0 90 -101 90q-61 0 -89 -34q-10 -13 -13.5 -17t-12.5 -9.5t-19 -5.5
q-17 0 -28 10.5t-11 28.5z" />
    <glyph glyph-name="atilde" unicode="&#xe3;" horiz-adv-x="513" 
d="M327 554q-28 0 -74 36.5t-68 36.5q-20 0 -32.5 -15.5t-12.5 -36.5q0 -13 -12 -13q-25 0 -25 13q0 55 27.5 85t68.5 30q24 0 45.5 -10t34 -22.5t28.5 -22.5t31 -10q18 0 30.5 12.5t12.5 37.5q0 11 9 11q26 0 26 -13q0 -55 -25 -87t-64 -32zM139 130q0 -35 23.5 -55
t58.5 -20q57 0 93 40.5t36 99.5v65q-109 -8 -160 -43t-51 -87zM76 408q0 31 46 61t134 30q183 0 183 -149q0 -31 -2.5 -106t-2.5 -102q0 -98 29 -119q5 -5 5 -12q0 -4 -3.5 -7.5t-7.5 -3.5h-44q-19 0 -27 18q-18 32 -20 83q-46 -114 -170 -114q-67 0 -106.5 35.5t-39.5 91.5
q0 79 77 133.5t223 63.5v34q0 90 -101 90q-61 0 -89 -34q-10 -13 -13.5 -17t-12.5 -9.5t-19 -5.5q-17 0 -28 10.5t-11 28.5z" />
    <glyph glyph-name="adieresis" unicode="&#xe4;" horiz-adv-x="513" 
d="M160 668q21 0 36 -15t15 -36q0 -20 -15 -35.5t-36 -15.5t-36 15.5t-15 35.5q0 21 15 36t36 15zM347 668q21 0 36 -15t15 -36q0 -20 -15 -35.5t-36 -15.5t-36 15.5t-15 35.5q0 21 15 36t36 15zM139 130q0 -35 23.5 -55t58.5 -20q57 0 93 40.5t36 99.5v65q-109 -8 -160 -43
t-51 -87zM76 408q0 31 46 61t134 30q183 0 183 -149q0 -31 -2.5 -106t-2.5 -102q0 -98 29 -119q5 -5 5 -12q0 -4 -3.5 -7.5t-7.5 -3.5h-44q-19 0 -27 18q-18 32 -20 83q-46 -114 -170 -114q-67 0 -106.5 35.5t-39.5 91.5q0 79 77 133.5t223 63.5v34q0 90 -101 90
q-61 0 -89 -34q-10 -13 -13.5 -17t-12.5 -9.5t-19 -5.5q-17 0 -28 10.5t-11 28.5z" />
    <glyph glyph-name="aring" unicode="&#xe5;" horiz-adv-x="513" 
d="M259 728q46 0 79 -29t33 -73t-32.5 -72.5t-79.5 -28.5q-46 0 -78.5 29t-32.5 72q0 44 32.5 73t78.5 29zM259 684q-25 0 -40 -16.5t-15 -42.5q0 -25 15.5 -42.5t39.5 -17.5q25 0 40.5 17.5t15.5 42.5q0 26 -15.5 42.5t-40.5 16.5zM139 130q0 -35 23.5 -55t58.5 -20
q57 0 93 40.5t36 99.5v65q-109 -8 -160 -43t-51 -87zM76 408q0 31 46 61t134 30q183 0 183 -149q0 -31 -2.5 -106t-2.5 -102q0 -98 29 -119q5 -5 5 -12q0 -4 -3.5 -7.5t-7.5 -3.5h-44q-19 0 -27 18q-18 32 -20 83q-46 -114 -170 -114q-67 0 -106.5 35.5t-39.5 91.5
q0 79 77 133.5t223 63.5v34q0 90 -101 90q-61 0 -89 -34q-10 -13 -13.5 -17t-12.5 -9.5t-19 -5.5q-17 0 -28 10.5t-11 28.5z" />
    <glyph glyph-name="ae" unicode="&#xe6;" horiz-adv-x="805" 
d="M139 130q0 -35 23.5 -55t58.5 -20q57 0 93 40.5t36 99.5v65q-109 -8 -160 -43t-51 -87zM411 410q23 38 72.5 63.5t101.5 25.5q91 0 138.5 -50.5t47.5 -138.5q0 -30 -27 -30h-306q-5 -23 -5 -54q0 -71 43 -118.5t118 -47.5t126 40q5 5 11 5q7 0 7 -10v-46q0 -11 -8 -17
q-58 -45 -150 -45q-150 0 -200 134q-26 -63 -74 -98.5t-110 -35.5q-67 0 -106.5 35.5t-39.5 91.5q0 79 77 134t223 64v33q0 90 -101 90q-61 0 -89 -34q-10 -13 -13.5 -17t-12.5 -9.5t-19 -5.5q-17 0 -28 10.5t-11 28.5q0 32 44.5 61.5t131.5 29.5q116 0 159 -89zM691 334
q0 46 -28 74.5t-79 28.5q-102 0 -137 -103h244z" />
    <glyph glyph-name="ccedilla" unicode="&#xe7;" horiz-adv-x="471" 
d="M175 -233q-6 1 -6 9v29q0 8 7 5q25 -9 54 -9q37 0 53 13t16 40q0 53 -64 53q-5 0 -9.5 -1t-10.5 -2.5t-9 -2.5q-4 0 -7.5 6t-3.5 12q0 2 2 6l67 63q-100 7 -159.5 74.5t-59.5 172.5q0 107 72.5 185.5t189.5 78.5q77 0 120 -36q24 -17 24 -43q0 -17 -10.5 -29.5
t-26.5 -12.5t-36 18q-32 28 -79 28q-73 0 -116.5 -55t-43.5 -129q0 -85 45.5 -132.5t115.5 -47.5q72 0 117 38q8 6 11 6q9 0 9 -12v-43q0 -11 -7 -17q-50 -40 -121 -44l-51 -46h10q50 0 77.5 -25.5t27.5 -61.5q0 -39 -32.5 -69t-90.5 -30q-38 0 -75 11z" />
    <glyph glyph-name="egrave" unicode="&#xe8;" horiz-adv-x="510" 
d="M285 -13q-111 0 -175.5 70t-64.5 179q0 105 66.5 184t178.5 79q91 0 138.5 -50.5t47.5 -138.5q0 -30 -27 -30h-306q-5 -23 -5 -54q0 -71 43 -118.5t118 -47.5t126 40q5 5 11 5q7 0 7 -10v-46q0 -11 -8 -17q-58 -45 -150 -45zM396 334q0 46 -28 74.5t-79 28.5
q-102 0 -137 -103h244zM157 695q-3 3 -2 7t4 4h75q8 0 16 -10l112 -142q4 -4 2 -7.5t-7 -3.5h-37q-8 0 -20 10z" />
    <glyph glyph-name="eacute" unicode="&#xe9;" horiz-adv-x="510" 
d="M285 -13q-111 0 -175.5 70t-64.5 179q0 105 66.5 184t178.5 79q91 0 138.5 -50.5t47.5 -138.5q0 -30 -27 -30h-306q-5 -23 -5 -54q0 -71 43 -118.5t118 -47.5t126 40q5 5 11 5q7 0 7 -10v-46q0 -11 -8 -17q-58 -45 -150 -45zM396 334q0 46 -28 74.5t-79 28.5
q-102 0 -137 -103h244zM404 695l-143 -142q-12 -10 -20 -10h-37q-5 0 -7 3.5t2 7.5l112 142q7 10 16 10h75q3 0 4 -4t-2 -7z" />
    <glyph glyph-name="ecircumflex" unicode="&#xea;" horiz-adv-x="510" 
d="M285 -13q-111 0 -175.5 70t-64.5 179q0 105 66.5 184t178.5 79q91 0 138.5 -50.5t47.5 -138.5q0 -30 -27 -30h-306q-5 -23 -5 -54q0 -71 43 -118.5t118 -47.5t126 40q5 5 11 5q7 0 7 -10v-46q0 -11 -8 -17q-58 -45 -150 -45zM396 334q0 46 -28 74.5t-79 28.5
q-102 0 -137 -103h244zM279 647l-86 -95q-9 -9 -16 -9h-40q-8 0 -3 9l109 144q7 10 15 10h49q7 0 15 -10l109 -144q1 -3 -0.5 -6t-4.5 -3h-43q-7 0 -16 9z" />
    <glyph glyph-name="edieresis" unicode="&#xeb;" horiz-adv-x="510" 
d="M285 -13q-111 0 -175.5 70t-64.5 179q0 105 66.5 184t178.5 79q91 0 138.5 -50.5t47.5 -138.5q0 -30 -27 -30h-306q-5 -23 -5 -54q0 -71 43 -118.5t118 -47.5t126 40q5 5 11 5q7 0 7 -10v-46q0 -11 -8 -17q-58 -45 -150 -45zM396 334q0 46 -28 74.5t-79 28.5
q-102 0 -137 -103h244zM183 668q21 0 36 -15t15 -36q0 -20 -15 -35.5t-36 -15.5t-36 15.5t-15 35.5q0 21 15 36t36 15zM370 668q21 0 36 -15t15 -36q0 -20 -15 -35.5t-36 -15.5t-36 15.5t-15 35.5q0 21 15 36t36 15z" />
    <glyph glyph-name="igrave" unicode="&#xec;" 
d="M166 472v-463q0 -3 -3 -6t-6 -3h-73q-9 0 -9 9v463q0 10 9 10h73q9 0 9 -10zM-15 695q-3 3 -2 7t4 4h75q8 0 16 -10l112 -142q4 -4 2 -7.5t-7 -3.5h-37q-8 0 -20 10z" />
    <glyph glyph-name="iacute" unicode="&#xed;" 
d="M166 472v-463q0 -3 -3 -6t-6 -3h-73q-9 0 -9 9v463q0 10 9 10h73q9 0 9 -10zM249 695l-143 -142q-12 -10 -20 -10h-37q-5 0 -7 3.5t2 7.5l112 142q8 10 16 10h75q3 0 4 -4t-2 -7z" />
    <glyph glyph-name="icircumflex" unicode="&#xee;" 
d="M166 472v-463q0 -3 -3 -6t-6 -3h-73q-9 0 -9 9v463q0 10 9 10h73q9 0 9 -10zM117 647l-86 -95q-9 -9 -16 -9h-40q-8 0 -3 9l109 144q7 10 15 10h49q7 0 15 -10l109 -144q1 -3 -0.5 -6t-4.5 -3h-43q-7 0 -16 9z" />
    <glyph glyph-name="idieresis" unicode="&#xef;" 
d="M166 472v-463q0 -3 -3 -6t-6 -3h-73q-9 0 -9 9v463q0 10 9 10h73q9 0 9 -10zM27 668q21 0 36 -15t15 -36q0 -20 -15 -35.5t-36 -15.5t-36 15.5t-15 35.5q0 21 15 36t36 15zM214 668q21 0 36 -15t15 -36q0 -20 -15 -35.5t-36 -15.5t-36 15.5t-15 35.5q0 21 15 36t36 15z
" />
    <glyph glyph-name="eth" unicode="&#xf0;" horiz-adv-x="560" 
d="M354 566l-105 -29q-8 -2 -11 5l-13 30q-6 12 7 15l83 20q-45 51 -101 51q-38 0 -65 -18t-37 -18q-38 0 -38 42q0 26 28 45.5t90 19.5q128 0 210 -97l85 21q9 2 12 -5l15 -33q3 -9 -8 -12l-71 -17q69 -112 69 -291q0 -138 -58 -223t-166 -85q-99 0 -160.5 68t-61.5 173
q0 107 51 170.5t135 63.5q59 0 104 -30.5t64 -79.5q-9 131 -58 214zM272 399q-53 0 -84.5 -43t-31.5 -135q0 -78 30 -123t90 -45q59 0 93 46t34 133q0 73 -32 120t-99 47z" />
    <glyph glyph-name="ntilde" unicode="&#xf1;" horiz-adv-x="571" 
d="M155 379q21 54 72.5 87t119.5 33t111.5 -41t43.5 -115v-334q0 -3 -3 -6t-6 -3h-73q-9 0 -9 9v313q0 104 -98 104q-60 0 -103 -41t-43 -111v-265q0 -3 -3 -6t-6 -3h-73q-9 0 -9 9v384q0 23 -2 41t-3.5 27.5t-1.5 11.5q0 9 8 9h63q7 0 9 -9q6 -42 6 -94zM356 554
q-28 0 -74 36.5t-68 36.5q-20 0 -32.5 -15.5t-12.5 -36.5q0 -13 -12 -13q-25 0 -25 13q0 55 27.5 85t68.5 30q24 0 45.5 -10t34 -22.5t28.5 -22.5t31 -10q17 0 30 12.5t13 37.5q0 11 9 11q26 0 26 -13q0 -55 -25 -87t-64 -32z" />
    <glyph glyph-name="ograve" unicode="&#xf2;" horiz-adv-x="572" 
d="M286 499q79 0 135 -37.5t81 -93t25 -122.5q0 -106 -62.5 -182.5t-178.5 -76.5q-78 0 -134.5 38.5t-82 96t-25.5 124.5q0 104 63 178.5t179 74.5zM286 53q72 0 108 53.5t36 137.5t-36 135.5t-108 51.5q-73 0 -108.5 -51.5t-35.5 -135.5t36 -137.5t108 -53.5zM164 695
q-3 3 -2 7t4 4h75q9 0 16 -10l112 -142q4 -4 2 -7.5t-7 -3.5h-37q-8 0 -20 10z" />
    <glyph glyph-name="oacute" unicode="&#xf3;" horiz-adv-x="572" 
d="M286 499q79 0 135 -37.5t81 -93t25 -122.5q0 -106 -62.5 -182.5t-178.5 -76.5q-78 0 -134.5 38.5t-82 96t-25.5 124.5q0 104 63 178.5t179 74.5zM286 53q72 0 108 53.5t36 137.5t-36 135.5t-108 51.5q-73 0 -108.5 -51.5t-35.5 -135.5t36 -137.5t108 -53.5zM410 695
l-143 -142q-12 -10 -20 -10h-37q-5 0 -7 3.5t2 7.5l112 142q7 10 16 10h75q3 0 4 -4t-2 -7z" />
    <glyph glyph-name="ocircumflex" unicode="&#xf4;" horiz-adv-x="572" 
d="M286 499q79 0 135 -37.5t81 -93t25 -122.5q0 -106 -62.5 -182.5t-178.5 -76.5q-78 0 -134.5 38.5t-82 96t-25.5 124.5q0 104 63 178.5t179 74.5zM286 53q72 0 108 53.5t36 137.5t-36 135.5t-108 51.5q-73 0 -108.5 -51.5t-35.5 -135.5t36 -137.5t108 -53.5zM282 647
l-86 -95q-9 -9 -16 -9h-40q-8 0 -3 9l109 144q8 10 15 10h49q7 0 15 -10l109 -144q1 -3 -0.5 -6t-4.5 -3h-43q-7 0 -16 9z" />
    <glyph glyph-name="otilde" unicode="&#xf5;" horiz-adv-x="572" 
d="M286 499q79 0 135 -37.5t81 -93t25 -122.5q0 -106 -62.5 -182.5t-178.5 -76.5q-78 0 -134.5 38.5t-82 96t-25.5 124.5q0 104 63 178.5t179 74.5zM286 53q72 0 108 53.5t36 137.5t-36 135.5t-108 51.5q-73 0 -108.5 -51.5t-35.5 -135.5t36 -137.5t108 -53.5zM353 554
q-28 0 -74 36.5t-68 36.5q-20 0 -32.5 -15.5t-12.5 -36.5q0 -13 -12 -13q-25 0 -25 13q0 55 27.5 85t68.5 30q24 0 45.5 -10t34 -22.5t28.5 -22.5t31 -10q18 0 30.5 12.5t12.5 37.5q0 11 9 11q26 0 26 -13q0 -55 -25 -87t-64 -32z" />
    <glyph glyph-name="odieresis" unicode="&#xf6;" horiz-adv-x="572" 
d="M286 499q79 0 135 -37.5t81 -93t25 -122.5q0 -106 -62.5 -182.5t-178.5 -76.5q-78 0 -134.5 38.5t-82 96t-25.5 124.5q0 104 63 178.5t179 74.5zM286 53q72 0 108 53.5t36 137.5t-36 135.5t-108 51.5q-73 0 -108.5 -51.5t-35.5 -135.5t36 -137.5t108 -53.5zM192 668
q21 0 36 -15t15 -36q0 -20 -15 -35.5t-36 -15.5t-36 15.5t-15 35.5q0 21 15 36t36 15zM379 668q21 0 36 -15t15 -36q0 -20 -15 -35.5t-36 -15.5t-36 15.5t-15 35.5q0 21 15 36t36 15z" />
    <glyph glyph-name="divide" unicode="&#xf7;" horiz-adv-x="500" 
d="M247 173q22 0 38 -15.5t16 -37.5t-16 -38t-38 -16q-23 0 -38.5 16t-15.5 38t15.5 37.5t38.5 15.5zM454 303v-57q0 -3 -3 -6t-6 -3h-390q-9 0 -9 9v57q0 10 9 10h390q9 0 9 -10zM247 488q22 0 38 -15.5t16 -37.5t-16 -38.5t-38 -16.5t-38 16t-16 39q0 22 16 37.5t38 15.5z
" />
    <glyph glyph-name="oslash" unicode="&#xf8;" horiz-adv-x="573" 
d="M131 43l-33 -34q-7 -9 -15 -9h-55q-3 0 -4.5 1.5t-1.5 3.5t2 4l72 72q-51 68 -51 165q0 104 62.5 178.5t179.5 74.5q94 0 159 -57l29 30q13 10 17 10h50q6 0 7.5 -4t-1.5 -8l-67 -66q47 -63 47 -158q0 -106 -62.5 -182.5t-178.5 -76.5q-93 0 -156 56zM412 334l-230 -235
q39 -47 105 -47q72 0 108 54t36 138q0 49 -19 90zM162 150l230 235q-38 47 -105 47q-73 0 -109 -51.5t-36 -134.5q0 -59 20 -96z" />
    <glyph glyph-name="ugrave" unicode="&#xf9;" horiz-adv-x="571" 
d="M416 105q-21 -53 -72 -85.5t-120 -32.5q-68 0 -111.5 41t-43.5 115v330q0 3 3 6t6 3h73q9 0 9 -9v-309q0 -104 99 -104q60 0 102.5 40.5t42.5 109.5v263q0 3 3 6t6 3h73q9 0 9 -9v-384q0 -23 2 -41.5t4 -27.5t2 -11q0 -9 -8 -9h-64q-7 0 -9 9q-6 42 -6 96zM165 695
q-3 3 -2 7t4 4h75q8 0 16 -10l112 -142q4 -4 2 -7.5t-7 -3.5h-37q-8 0 -20 10z" />
    <glyph glyph-name="uacute" unicode="&#xfa;" horiz-adv-x="571" 
d="M416 105q-21 -53 -72 -85.5t-120 -32.5q-68 0 -111.5 41t-43.5 115v330q0 3 3 6t6 3h73q9 0 9 -9v-309q0 -104 99 -104q60 0 102.5 40.5t42.5 109.5v263q0 3 3 6t6 3h73q9 0 9 -9v-384q0 -23 2 -41.5t4 -27.5t2 -11q0 -9 -8 -9h-64q-7 0 -9 9q-6 42 -6 96zM417 695
l-143 -142q-12 -10 -20 -10h-37q-5 0 -7 3.5t2 7.5l112 142q8 10 16 10h75q3 0 4 -4t-2 -7z" />
    <glyph glyph-name="ucircumflex" unicode="&#xfb;" horiz-adv-x="571" 
d="M416 105q-21 -53 -72 -85.5t-120 -32.5q-68 0 -111.5 41t-43.5 115v330q0 3 3 6t6 3h73q9 0 9 -9v-309q0 -104 99 -104q60 0 102.5 40.5t42.5 109.5v263q0 3 3 6t6 3h73q9 0 9 -9v-384q0 -23 2 -41.5t4 -27.5t2 -11q0 -9 -8 -9h-64q-7 0 -9 9q-6 42 -6 96zM283 647
l-86 -95q-9 -9 -16 -9h-40q-8 0 -3 9l109 144q7 10 15 10h49q7 0 15 -10l109 -144q1 -3 -0.5 -6t-4.5 -3h-43q-7 0 -16 9z" />
    <glyph glyph-name="udieresis" unicode="&#xfc;" horiz-adv-x="571" 
d="M416 105q-21 -53 -72 -85.5t-120 -32.5q-68 0 -111.5 41t-43.5 115v330q0 3 3 6t6 3h73q9 0 9 -9v-309q0 -104 99 -104q60 0 102.5 40.5t42.5 109.5v263q0 3 3 6t6 3h73q9 0 9 -9v-384q0 -23 2 -41.5t4 -27.5t2 -11q0 -9 -8 -9h-64q-7 0 -9 9q-6 42 -6 96zM193 668
q21 0 36 -15t15 -36q0 -20 -15 -35.5t-36 -15.5t-36 15.5t-15 35.5q0 21 15 36t36 15zM380 668q21 0 36 -15t15 -36q0 -20 -15 -35.5t-36 -15.5t-36 15.5t-15 35.5q0 21 15 36t36 15z" />
    <glyph glyph-name="yacute" unicode="&#xfd;" horiz-adv-x="474" 
d="M62 -214q-34 0 -52 8q-6 3 -6 15v56q0 10 8 10q4 0 8 -3q17 -10 38 -10q86 0 136 135l-189 471q-6 14 6 14h77q10 0 13 -10l94 -260q36 -112 45 -144q20 77 44 143l96 261q3 10 13 10h70q12 0 7 -13l-190 -483q-43 -108 -96 -154t-122 -46zM379 695l-143 -142
q-12 -10 -20 -10h-37q-5 0 -7 3.5t2 7.5l112 142q8 10 16 10h75q3 0 4 -4t-2 -7z" />
    <glyph glyph-name="thorn" unicode="&#xfe;" horiz-adv-x="586" 
d="M156 387q16 53 57 82.5t101 29.5q109 0 168.5 -76.5t59.5 -183.5q0 -102 -63 -177t-162 -75q-115 0 -152 89q4 -121 4 -271q0 -10 -9 -10h-71q-9 0 -9 10v891q0 10 9 10h71q9 0 9 -10zM169 298v-129q0 -50 32 -83.5t91 -33.5q70 0 110 51.5t40 139.5q0 93 -40 141
t-109 48q-59 0 -91.5 -37.5t-32.5 -96.5z" />
    <glyph glyph-name="ydieresis" unicode="&#xff;" horiz-adv-x="474" 
d="M62 -214q-34 0 -52 8q-6 3 -6 15v56q0 10 8 10q4 0 8 -3q17 -10 38 -10q86 0 136 135l-189 471q-6 14 6 14h77q10 0 13 -10l94 -260q36 -112 45 -144q20 77 44 143l96 261q3 10 13 10h70q12 0 7 -13l-190 -483q-43 -108 -96 -154t-122 -46zM144 668q21 0 36 -15t15 -36
q0 -20 -15 -35.5t-36 -15.5t-36 15.5t-15 35.5q0 21 15 36t36 15zM331 668q21 0 36 -15t15 -36q0 -20 -15 -35.5t-36 -15.5t-36 15.5t-15 35.5q0 21 15 36t36 15z" />
    <glyph glyph-name="Amacron" unicode="&#x100;" horiz-adv-x="631" 
d="M371 428q-42 118 -59 197q-20 -85 -59 -193q-36 -101 -52 -138q56 3 113 3q75 0 108 -2q-23 55 -51 133zM445 230q-64 -3 -133 -3q-68 0 -133 3q-26 -89 -78 -220q-4 -10 -11 -10h-79q-15 0 -9 16l257 681q2 9 10 9h91q8 0 12 -9l257 -681q6 -16 -9 -16h-86q-8 0 -12 10
q-60 160 -77 220zM440 844v-49q0 -7 -6 -7h-237q-6 0 -6 7v49q0 8 6 8h237q6 0 6 -8z" />
    <glyph glyph-name="amacron" unicode="&#x101;" horiz-adv-x="513" 
d="M382 635v-51q0 -7 -6 -7h-234q-6 0 -6 7v51q0 8 6 8h234q6 0 6 -8zM139 130q0 -35 23.5 -55t58.5 -20q57 0 93 40.5t36 99.5v65q-109 -8 -160 -43t-51 -87zM76 408q0 31 46 61t134 30q183 0 183 -149q0 -31 -2.5 -106t-2.5 -102q0 -98 29 -119q5 -5 5 -12q0 -4 -3.5 -7.5
t-7.5 -3.5h-44q-19 0 -27 18q-18 32 -20 83q-46 -114 -170 -114q-67 0 -106.5 35.5t-39.5 91.5q0 79 77 133.5t223 63.5v34q0 90 -101 90q-61 0 -89 -34q-10 -13 -13.5 -17t-12.5 -9.5t-19 -5.5q-17 0 -28 10.5t-11 28.5z" />
    <glyph glyph-name="Abreve" unicode="&#x102;" horiz-adv-x="631" 
d="M371 428q-42 118 -59 197q-20 -85 -59 -193q-36 -101 -52 -138q56 3 113 3q75 0 108 -2q-23 55 -51 133zM445 230q-64 -3 -133 -3q-68 0 -133 3q-26 -89 -78 -220q-4 -10 -11 -10h-79q-15 0 -9 16l257 681q2 9 10 9h91q8 0 12 -9l257 -681q6 -16 -9 -16h-86q-8 0 -12 10
q-60 160 -77 220zM428 897q5 0 5 -5q-1 -64 -32 -98t-84 -34q-52 0 -83.5 33.5t-32.5 98.5q0 5 6 5h45q5 0 5 -6q1 -70 61 -70q31 0 45 15t15 55q0 6 6 6h44z" />
    <glyph glyph-name="abreve" unicode="&#x103;" horiz-adv-x="513" 
d="M367 682q6 0 6 -5q-1 -65 -32.5 -100t-83.5 -35q-51 0 -83 35t-33 100q0 5 6 5h44q5 0 5 -6q1 -73 61 -73q30 0 45 16.5t16 56.5q0 6 5 6h44zM139 130q0 -35 23.5 -55t58.5 -20q57 0 93 40.5t36 99.5v65q-109 -8 -160 -43t-51 -87zM76 408q0 31 46 61t134 30
q183 0 183 -149q0 -31 -2.5 -106t-2.5 -102q0 -98 29 -119q5 -5 5 -12q0 -4 -3.5 -7.5t-7.5 -3.5h-44q-19 0 -27 18q-18 32 -20 83q-46 -114 -170 -114q-67 0 -106.5 35.5t-39.5 91.5q0 79 77 133.5t223 63.5v34q0 90 -101 90q-61 0 -89 -34q-10 -13 -13.5 -17t-12.5 -9.5
t-19 -5.5q-17 0 -28 10.5t-11 28.5z" />
    <glyph glyph-name="Aogonek" unicode="&#x104;" horiz-adv-x="631" 
d="M445 230q-64 -3 -133 -3q-68 0 -133 3q-26 -89 -78 -220q-4 -10 -11 -10h-79q-15 0 -9 16l257 681q2 9 10 9h91q8 0 12 -9l257 -681q6 -16 -9 -16h-21q-46 -17 -70 -46t-24 -60q0 -28 16 -46t49 -18q25 0 50 8q7 3 7 -5v-37q0 -6 -6 -7q-39 -10 -74 -10q-51 0 -80 28.5
t-29 67.5q0 41 30.5 74t86.5 51h-21q-8 0 -12 10q-60 160 -77 220zM371 428q-42 118 -59 197q-20 -85 -59 -193q-36 -101 -52 -138q56 3 113 3q75 0 108 -2q-23 55 -51 133z" />
    <glyph glyph-name="aogonek" unicode="&#x105;" horiz-adv-x="513" 
d="M76 408q0 31 46 61t134 30q183 0 183 -149q0 -31 -2.5 -106t-2.5 -102q0 -98 29 -119q5 -5 5 -12q0 -11 -10 -11q-46 -17 -70 -46t-24 -60q0 -28 16 -46t49 -18q25 0 50 8q7 3 7 -5v-37q0 -6 -6 -7q-39 -10 -74 -10q-51 0 -80 28.5t-29 67.5q0 41 30.5 74t86.5 51h-1
q-19 0 -27 18q-18 32 -20 83q-46 -114 -170 -114q-67 0 -106.5 35.5t-39.5 91.5q0 79 77 133.5t223 63.5v34q0 90 -101 90q-61 0 -89 -34q-10 -13 -13.5 -17t-12.5 -9.5t-19 -5.5q-17 0 -28 10.5t-11 28.5zM139 130q0 -35 23.5 -55t58.5 -20q57 0 93 40.5t36 99.5v65
q-109 -8 -160 -43t-51 -87z" />
    <glyph glyph-name="Cacute" unicode="&#x106;" horiz-adv-x="667" 
d="M404 -13q-152 0 -248.5 101.5t-96.5 261.5q0 161 101.5 270t269.5 109q121 0 198 -54q11 -9 11 -26v-67q0 -16 -13 -16q-5 0 -13 6q-73 70 -183 70q-125 0 -194 -79t-69 -209t71.5 -207.5t184.5 -77.5t192 65q8 5 12 5q12 0 12 -14v-53q0 -14 -11 -22q-85 -63 -224 -63z
M532 901l-160 -140q-8 -8 -15 -8h-40q-4 0 -5.5 3t0.5 6l126 140q8 10 15 10h76q4 0 5 -4t-2 -7z" />
    <glyph glyph-name="cacute" unicode="&#x107;" horiz-adv-x="471" 
d="M414 378q-16 0 -36 18q-32 28 -79 28q-73 0 -116.5 -55t-43.5 -129q0 -85 45.5 -132.5t115.5 -47.5q72 0 117 38q8 6 11 6q9 0 9 -12v-43q0 -11 -7 -17q-57 -45 -142 -45q-110 0 -176.5 68t-66.5 180q0 107 72.5 185.5t189.5 78.5q77 0 120 -36q24 -17 24 -43
q0 -17 -10.5 -29.5t-26.5 -12.5zM405 695l-143 -142q-12 -10 -20 -10h-37q-5 0 -7 3.5t2 7.5l112 142q8 10 16 10h75q3 0 4 -4t-2 -7z" />
    <glyph glyph-name="Ccircumflex" unicode="&#x108;" horiz-adv-x="667" 
d="M404 -13q-152 0 -248.5 101.5t-96.5 261.5q0 161 101.5 270t269.5 109q121 0 198 -54q11 -9 11 -26v-67q0 -16 -13 -16q-5 0 -13 6q-73 70 -183 70q-125 0 -194 -79t-69 -209t71.5 -207.5t184.5 -77.5t192 65q8 5 12 5q12 0 12 -14v-53q0 -14 -11 -22q-85 -63 -224 -63z
M412 854l-97 -92q-11 -9 -16 -9h-38q-3 0 -4.5 1.5t-1.5 3.5t2 4l122 141q9 9 15 9h42q8 0 16 -9l120 -141q1 -3 -0.5 -6t-4.5 -3h-42q-5 0 -16 9z" />
    <glyph glyph-name="ccircumflex" unicode="&#x109;" horiz-adv-x="471" 
d="M414 378q-16 0 -36 18q-32 28 -79 28q-73 0 -116.5 -55t-43.5 -129q0 -85 45.5 -132.5t115.5 -47.5q72 0 117 38q8 6 11 6q9 0 9 -12v-43q0 -11 -7 -17q-57 -45 -142 -45q-110 0 -176.5 68t-66.5 180q0 107 72.5 185.5t189.5 78.5q77 0 120 -36q24 -17 24 -43
q0 -17 -10.5 -29.5t-26.5 -12.5zM286 647l-86 -95q-9 -9 -16 -9h-40q-8 0 -3 9l109 144q8 10 15 10h49q7 0 15 -10l109 -144q1 -3 -0.5 -6t-4.5 -3h-43q-7 0 -16 9z" />
    <glyph glyph-name="Cdotaccent" unicode="&#x10a;" horiz-adv-x="667" 
d="M404 -13q-152 0 -248.5 101.5t-96.5 261.5q0 161 101.5 270t269.5 109q121 0 198 -54q11 -9 11 -26v-67q0 -16 -13 -16q-5 0 -13 6q-73 70 -183 70q-125 0 -194 -79t-69 -209t71.5 -207.5t184.5 -77.5t192 65q8 5 12 5q12 0 12 -14v-53q0 -14 -11 -22q-85 -63 -224 -63z
M422 860q22 0 38 -16t16 -38t-16 -37t-38 -15q-23 0 -38.5 15t-15.5 37t16 38t38 16z" />
    <glyph glyph-name="cdotaccent" unicode="&#x10b;" horiz-adv-x="471" 
d="M414 378q-16 0 -36 18q-32 28 -79 28q-73 0 -116.5 -55t-43.5 -129q0 -85 45.5 -132.5t115.5 -47.5q72 0 117 38q8 6 11 6q9 0 9 -12v-43q0 -11 -7 -17q-57 -45 -142 -45q-110 0 -176.5 68t-66.5 180q0 107 72.5 185.5t189.5 78.5q77 0 120 -36q24 -17 24 -43
q0 -17 -10.5 -29.5t-26.5 -12.5zM288 661q22 0 37 -15t15 -37t-15 -37.5t-37 -15.5t-37.5 15.5t-15.5 37.5t15.5 37t37.5 15z" />
    <glyph glyph-name="Ccaron" unicode="&#x10c;" horiz-adv-x="667" 
d="M404 -13q-152 0 -248.5 101.5t-96.5 261.5q0 161 101.5 270t269.5 109q121 0 198 -54q11 -9 11 -26v-67q0 -16 -13 -16q-5 0 -13 6q-73 70 -183 70q-125 0 -194 -79t-69 -209t71.5 -207.5t184.5 -77.5t192 65q8 5 12 5q12 0 12 -14v-53q0 -14 -11 -22q-85 -63 -224 -63z
M425 811l97 92q9 9 15 9h39q4 0 5 -3t-2 -6l-121 -141q-9 -9 -16 -9h-42q-8 0 -16 9l-119 141q-2 3 -0.5 6t5.5 3h42q6 0 15 -9z" />
    <glyph glyph-name="ccaron" unicode="&#x10d;" horiz-adv-x="471" 
d="M414 378q-16 0 -36 18q-32 28 -79 28q-73 0 -116.5 -55t-43.5 -129q0 -85 45.5 -132.5t115.5 -47.5q72 0 117 38q8 6 11 6q9 0 9 -12v-43q0 -11 -7 -17q-57 -45 -142 -45q-110 0 -176.5 68t-66.5 180q0 107 72.5 185.5t189.5 78.5q77 0 120 -36q24 -17 24 -43
q0 -17 -10.5 -29.5t-26.5 -12.5zM291 602l86 95q9 9 15 9h40q3 0 4.5 -3t-0.5 -6l-109 -144q-10 -10 -15 -10h-49q-7 0 -15 10l-109 144q-2 3 -0.5 6t4.5 3h43q8 0 17 -9z" />
    <glyph glyph-name="Dcaron" unicode="&#x10e;" horiz-adv-x="751" 
d="M330 0h-229q-9 0 -9 9v687q0 10 9 10h221q171 0 270.5 -94.5t99.5 -263.5q0 -168 -98.5 -258t-263.5 -90zM328 79q114 0 184.5 66t70.5 207q0 124 -66.5 199.5t-202.5 75.5q-70 0 -124 3q3 -60 3 -123v-275q0 -86 -3 -156q78 3 138 3zM338 811l97 92q9 9 15 9h39
q4 0 5 -3t-2 -6l-121 -141q-9 -9 -16 -9h-42q-9 0 -16 9l-119 141q-2 3 -0.5 6t5.5 3h42q6 0 15 -9z" />
    <glyph glyph-name="dcaron" unicode="&#x10f;" horiz-adv-x="584" 
d="M516 9q0 -9 -9 -9h-59q-7 0 -9 9q-6 32 -6 86q-18 -51 -61.5 -79.5t-103.5 -28.5q-96 0 -159.5 73t-63.5 185q0 110 62 182t162 72q57 0 97 -26t56 -65q-5 115 -5 288q0 10 9 10h72q9 0 9 -10v-562q0 -32 2.5 -61t4.5 -45.5t2 -18.5zM417 186v127q0 51 -32 85.5t-91 34.5
q-70 0 -110 -50.5t-40 -137.5q0 -94 40 -143t109 -49q59 0 91.5 37t32.5 96zM649 694l-33 -160q-2 -9 -10 -9h-31q-8 0 -8 9v162q0 4 3.5 7t7.5 3h63q11 0 8 -12z" />
    <glyph glyph-name="Dcroat" unicode="&#x110;" horiz-adv-x="761" 
d="M106 255q0 45 5 72q-31 -3 -67 -3h-35q-9 0 -9 8v48q0 9 9 9h35q38 0 67 -3q-5 32 -5 83v227q0 10 9 10h220q171 0 271 -95t100 -263q0 -167 -99 -257.5t-263 -90.5h-229q-9 0 -9 9v246zM206 255v-52q0 -85 -2 -127q76 3 137 3q114 0 185 66t71 207q0 124 -67 199.5
t-203 75.5q-70 0 -124 3q3 -35 3 -109v-56q0 -53 -3 -79q30 3 79 3h69q9 0 9 -9v-48q0 -2 -3 -5t-6 -3h-70q-51 0 -78 3q3 -26 3 -72z" />
    <glyph glyph-name="dcroat" unicode="&#x111;" horiz-adv-x="584" 
d="M566 635v-51q0 -7 -6 -7h-53v-443q0 -32 2.5 -61t4.5 -45.5t2 -18.5q0 -9 -9 -9h-59q-7 0 -9 9q-6 32 -6 86q-18 -51 -61.5 -79.5t-103.5 -28.5q-96 0 -159.5 73t-63.5 185q0 110 62 182t162 72q57 0 97 -26t56 -65q-3 54 -5 169h-90q-6 0 -6 7v51q0 8 6 8h90v53
q0 10 9 10h72q9 0 9 -10v-53h53q6 0 6 -8zM417 186v127q0 51 -32 85.5t-91 34.5q-70 0 -110 -50.5t-40 -137.5q0 -94 40 -143t109 -49q59 0 91.5 37t32.5 96z" />
    <glyph glyph-name="Emacron" unicode="&#x112;" horiz-adv-x="568" 
d="M350 77q33 0 98.5 1t95.5 1q7 0 7 -9l-8 -62q-2 -8 -7 -8h-435q-9 0 -9 9v687q0 10 9 10h420q7 0 8 -9l7 -62q0 -8 -7 -8q-30 0 -109.5 1t-108.5 1q-70 0 -121 3q3 -59 3 -113q0 -57 -3 -115q41 4 116 4q29 0 66 0.5t46 0.5q7 0 7 -9v-60q0 -8 -7 -8q-9 0 -47 0.5
t-67 0.5q-59 0 -114 5q3 -66 3 -127q0 -69 -3 -137q47 3 160 3zM452 844v-49q0 -7 -6 -7h-237q-6 0 -6 7v49q0 8 6 8h237q6 0 6 -8z" />
    <glyph glyph-name="emacron" unicode="&#x113;" horiz-adv-x="510" 
d="M285 -13q-111 0 -175.5 70t-64.5 179q0 105 66.5 184t178.5 79q91 0 138.5 -50.5t47.5 -138.5q0 -30 -27 -30h-306q-5 -23 -5 -54q0 -71 43 -118.5t118 -47.5t126 40q5 5 11 5q7 0 7 -10v-46q0 -11 -8 -17q-58 -45 -150 -45zM396 334q0 46 -28 74.5t-79 28.5
q-102 0 -137 -103h244zM402 635v-51q0 -7 -6 -7h-234q-6 0 -6 7v51q0 8 6 8h234q6 0 6 -8z" />
    <glyph glyph-name="Ebreve" unicode="&#x114;" horiz-adv-x="568" 
d="M350 77q33 0 98.5 1t95.5 1q7 0 7 -9l-8 -62q-2 -8 -7 -8h-435q-9 0 -9 9v687q0 10 9 10h420q7 0 8 -9l7 -62q0 -8 -7 -8q-30 0 -109.5 1t-108.5 1q-70 0 -121 3q3 -59 3 -113q0 -57 -3 -115q41 4 116 4q29 0 66 0.5t46 0.5q7 0 7 -9v-60q0 -8 -7 -8q-9 0 -47 0.5
t-67 0.5q-59 0 -114 5q3 -66 3 -127q0 -69 -3 -137q47 3 160 3zM428 897q5 0 5 -5q-1 -64 -32 -98t-84 -34q-52 0 -83.5 33.5t-32.5 98.5q0 5 6 5h45q5 0 5 -6q1 -70 61 -70q31 0 45 15t15 55q0 6 6 6h44z" />
    <glyph glyph-name="ebreve" unicode="&#x115;" horiz-adv-x="510" 
d="M285 -13q-111 0 -175.5 70t-64.5 179q0 105 66.5 184t178.5 79q91 0 138.5 -50.5t47.5 -138.5q0 -30 -27 -30h-306q-5 -23 -5 -54q0 -71 43 -118.5t118 -47.5t126 40q5 5 11 5q7 0 7 -10v-46q0 -11 -8 -17q-58 -45 -150 -45zM396 334q0 46 -28 74.5t-79 28.5
q-102 0 -137 -103h244zM397 682q6 0 6 -5q-1 -65 -32.5 -100t-83.5 -35q-51 0 -83 35t-33 100q0 5 6 5h44q5 0 5 -6q1 -73 61 -73q30 0 45 16.5t16 56.5q0 6 5 6h44z" />
    <glyph glyph-name="Edotaccent" unicode="&#x116;" horiz-adv-x="568" 
d="M350 77q33 0 98.5 1t95.5 1q7 0 7 -9l-8 -62q-2 -8 -7 -8h-435q-9 0 -9 9v687q0 10 9 10h420q7 0 8 -9l7 -62q0 -8 -7 -8q-30 0 -109.5 1t-108.5 1q-70 0 -121 3q3 -59 3 -113q0 -57 -3 -115q41 4 116 4q29 0 66 0.5t46 0.5q7 0 7 -9v-60q0 -8 -7 -8q-9 0 -47 0.5
t-67 0.5q-59 0 -114 5q3 -66 3 -127q0 -69 -3 -137q47 3 160 3zM332 860q22 0 38 -16t16 -38t-16 -37t-38 -15q-23 0 -38.5 15t-15.5 37t16 38t38 16z" />
    <glyph glyph-name="edotaccent" unicode="&#x117;" horiz-adv-x="510" 
d="M285 -13q-111 0 -175.5 70t-64.5 179q0 105 66.5 184t178.5 79q91 0 138.5 -50.5t47.5 -138.5q0 -30 -27 -30h-306q-5 -23 -5 -54q0 -71 43 -118.5t118 -47.5t126 40q5 5 11 5q7 0 7 -10v-46q0 -11 -8 -17q-58 -45 -150 -45zM396 334q0 46 -28 74.5t-79 28.5
q-102 0 -137 -103h244zM283 661q22 0 37 -15t15 -37t-15 -37.5t-37 -15.5t-37.5 15.5t-15.5 37.5t15.5 37t37.5 15z" />
    <glyph glyph-name="Eogonek" unicode="&#x118;" horiz-adv-x="568" 
d="M350 77q33 0 98.5 1t95.5 1q7 0 7 -9l-8 -62q-2 -8 -7 -8h-65q-46 -17 -70 -46t-24 -60q0 -28 16 -46t49 -18q25 0 50 8q7 3 7 -5v-37q0 -6 -6 -7q-39 -10 -74 -10q-51 0 -80 28.5t-29 67.5q0 41 30.5 74t86.5 51h-326q-9 0 -9 9v687q0 10 9 10h420q7 0 8 -9l7 -62
q0 -8 -7 -8q-30 0 -109.5 1t-108.5 1q-70 0 -121 3q3 -59 3 -113q0 -57 -3 -115q41 4 116 4q29 0 66 0.5t46 0.5q7 0 7 -9v-60q0 -8 -7 -8q-9 0 -47 0.5t-67 0.5q-59 0 -114 5q3 -66 3 -127q0 -69 -3 -137q47 3 160 3z" />
    <glyph glyph-name="eogonek" unicode="&#x119;" horiz-adv-x="510" 
d="M435 32q-44 -34 -112 -42q-70 -37 -70 -96q0 -28 16 -46t49 -18q25 0 50 8q7 3 7 -5v-37q0 -6 -6 -7q-39 -10 -74 -10q-51 0 -80 28.5t-29 67.5q0 73 84 113q-105 4 -165 73t-60 175q0 105 66.5 184t178.5 79q91 0 138.5 -50.5t47.5 -138.5q0 -30 -27 -30h-306
q-5 -23 -5 -54q0 -71 43 -118.5t118 -47.5t126 40q5 5 11 5q7 0 7 -10v-46q0 -11 -8 -17zM396 334q0 46 -28 74.5t-79 28.5q-102 0 -137 -103h244z" />
    <glyph glyph-name="Ecaron" unicode="&#x11a;" horiz-adv-x="568" 
d="M350 77q33 0 98.5 1t95.5 1q7 0 7 -9l-8 -62q-2 -8 -7 -8h-435q-9 0 -9 9v687q0 10 9 10h420q7 0 8 -9l7 -62q0 -8 -7 -8q-30 0 -109.5 1t-108.5 1q-70 0 -121 3q3 -59 3 -113q0 -57 -3 -115q41 4 116 4q29 0 66 0.5t46 0.5q7 0 7 -9v-60q0 -8 -7 -8q-9 0 -47 0.5
t-67 0.5q-59 0 -114 5q3 -66 3 -127q0 -69 -3 -137q47 3 160 3zM327 811l97 92q9 9 15 9h39q4 0 5 -3t-2 -6l-121 -141q-9 -9 -16 -9h-42q-8 0 -16 9l-119 141q-2 3 -0.5 6t5.5 3h42q6 0 15 -9z" />
    <glyph glyph-name="ecaron" unicode="&#x11b;" horiz-adv-x="510" 
d="M285 -13q-111 0 -175.5 70t-64.5 179q0 105 66.5 184t178.5 79q91 0 138.5 -50.5t47.5 -138.5q0 -30 -27 -30h-306q-5 -23 -5 -54q0 -71 43 -118.5t118 -47.5t126 40q5 5 11 5q7 0 7 -10v-46q0 -11 -8 -17q-58 -45 -150 -45zM396 334q0 46 -28 74.5t-79 28.5
q-102 0 -137 -103h244zM289 602l86 95q9 9 15 9h40q3 0 4.5 -3t-0.5 -6l-109 -144q-10 -10 -15 -10h-49q-7 0 -15 10l-109 144q-2 3 -0.5 6t4.5 3h43q8 0 17 -9z" />
    <glyph glyph-name="Gcircumflex" unicode="&#x11c;" horiz-adv-x="753" 
d="M436 647q-127 0 -198 -81t-71 -212q0 -130 70 -208.5t184 -78.5q84 0 154 38v207q0 10 9 10h77q9 0 9 -10v-251q-119 -74 -264 -74q-152 0 -249.5 101t-97.5 262q0 158 103.5 268.5t277.5 110.5q136 0 219 -56q11 -5 11 -22v-71q0 -16 -14 -16q-6 0 -12 6
q-35 33 -90.5 55t-117.5 22zM428 854l-97 -92q-11 -9 -16 -9h-38q-3 0 -4.5 1.5t-1.5 3.5t2 4l122 141q9 9 15 9h42q8 0 16 -9l120 -141q1 -3 -0.5 -6t-4.5 -3h-42q-5 0 -16 9z" />
    <glyph glyph-name="gcircumflex" unicode="&#x11d;" horiz-adv-x="550" 
d="M516 402q-15 0 -28.5 11t-23.5 11q-14 0 -22.5 -10.5t-8.5 -27.5q0 -10 3.5 -31.5t3.5 -39.5q0 -74 -50.5 -118.5t-156.5 -44.5q-96 0 -96 -49q0 -38 58 -38q22 0 73 5t95 5q70 0 103.5 -31.5t33.5 -84.5q0 -78 -69.5 -126.5t-189.5 -48.5q-104 0 -157 33.5t-53 92.5
q0 29 14.5 48t28.5 19h53q7 0 7 -7q0 -3 -3 -6q-13 -13 -13 -36q0 -80 126 -80q75 0 119 27.5t44 74.5q0 31 -17 46t-57 15q-26 0 -72.5 -3.5t-77.5 -3.5q-56 0 -86.5 21t-30.5 59q0 36 27 62.5t72 30.5q-47 15 -73.5 54.5t-26.5 94.5q0 77 54 125t133 48q110 0 157 -81
q10 39 35.5 61.5t62.5 22.5q24 0 36.5 -15t12.5 -38q0 -47 -40 -47zM254 438q-46 0 -71.5 -29t-25.5 -84q0 -61 26.5 -90t71.5 -29q102 0 102 115q0 57 -27 87t-76 30zM256 647l-86 -95q-9 -9 -16 -9h-40q-8 0 -3 9l109 144q8 10 15 10h49q7 0 15 -10l109 -144q1 -3 -0.5 -6
t-4.5 -3h-43q-7 0 -16 9z" />
    <glyph glyph-name="Gbreve" unicode="&#x11e;" horiz-adv-x="753" 
d="M436 647q-127 0 -198 -81t-71 -212q0 -130 70 -208.5t184 -78.5q84 0 154 38v207q0 10 9 10h77q9 0 9 -10v-251q-119 -74 -264 -74q-152 0 -249.5 101t-97.5 262q0 158 103.5 268.5t277.5 110.5q136 0 219 -56q11 -5 11 -22v-71q0 -16 -14 -16q-6 0 -12 6
q-35 33 -90.5 55t-117.5 22zM542 897q5 0 5 -5q-1 -64 -32 -98t-84 -34q-52 0 -83.5 33.5t-32.5 98.5q0 5 6 5h45q5 0 5 -6q1 -70 61 -70q31 0 45 15t15 55q0 6 6 6h44z" />
    <glyph glyph-name="gbreve" unicode="&#x11f;" horiz-adv-x="550" 
d="M516 402q-15 0 -28.5 11t-23.5 11q-14 0 -22.5 -10.5t-8.5 -27.5q0 -10 3.5 -31.5t3.5 -39.5q0 -74 -50.5 -118.5t-156.5 -44.5q-96 0 -96 -49q0 -38 58 -38q22 0 73 5t95 5q70 0 103.5 -31.5t33.5 -84.5q0 -78 -69.5 -126.5t-189.5 -48.5q-104 0 -157 33.5t-53 92.5
q0 29 14.5 48t28.5 19h53q7 0 7 -7q0 -3 -3 -6q-13 -13 -13 -36q0 -80 126 -80q75 0 119 27.5t44 74.5q0 31 -17 46t-57 15q-26 0 -72.5 -3.5t-77.5 -3.5q-56 0 -86.5 21t-30.5 59q0 36 27 62.5t72 30.5q-47 15 -73.5 54.5t-26.5 94.5q0 77 54 125t133 48q110 0 157 -81
q10 39 35.5 61.5t62.5 22.5q24 0 36.5 -15t12.5 -38q0 -47 -40 -47zM254 438q-46 0 -71.5 -29t-25.5 -84q0 -61 26.5 -90t71.5 -29q102 0 102 115q0 57 -27 87t-76 30zM361 682q6 0 6 -5q-1 -65 -32.5 -100t-83.5 -35q-51 0 -83 35t-33 100q0 5 6 5h44q5 0 5 -6
q1 -73 61 -73q30 0 45 16.5t16 56.5q0 6 5 6h44z" />
    <glyph glyph-name="Gdotaccent" unicode="&#x120;" horiz-adv-x="753" 
d="M436 647q-127 0 -198 -81t-71 -212q0 -130 70 -208.5t184 -78.5q84 0 154 38v207q0 10 9 10h77q9 0 9 -10v-251q-119 -74 -264 -74q-152 0 -249.5 101t-97.5 262q0 158 103.5 268.5t277.5 110.5q136 0 219 -56q11 -5 11 -22v-71q0 -16 -14 -16q-6 0 -12 6
q-35 33 -90.5 55t-117.5 22zM430 860q22 0 38 -16t16 -38t-16 -37t-38 -15q-23 0 -38.5 15t-15.5 37t16 38t38 16z" />
    <glyph glyph-name="gdotaccent" unicode="&#x121;" horiz-adv-x="550" 
d="M516 402q-15 0 -28.5 11t-23.5 11q-14 0 -22.5 -10.5t-8.5 -27.5q0 -10 3.5 -31.5t3.5 -39.5q0 -74 -50.5 -118.5t-156.5 -44.5q-96 0 -96 -49q0 -38 58 -38q22 0 73 5t95 5q70 0 103.5 -31.5t33.5 -84.5q0 -78 -69.5 -126.5t-189.5 -48.5q-104 0 -157 33.5t-53 92.5
q0 29 14.5 48t28.5 19h53q7 0 7 -7q0 -3 -3 -6q-13 -13 -13 -36q0 -80 126 -80q75 0 119 27.5t44 74.5q0 31 -17 46t-57 15q-26 0 -72.5 -3.5t-77.5 -3.5q-56 0 -86.5 21t-30.5 59q0 36 27 62.5t72 30.5q-47 15 -73.5 54.5t-26.5 94.5q0 77 54 125t133 48q110 0 157 -81
q10 39 35.5 61.5t62.5 22.5q24 0 36.5 -15t12.5 -38q0 -47 -40 -47zM254 438q-46 0 -71.5 -29t-25.5 -84q0 -61 26.5 -90t71.5 -29q102 0 102 115q0 57 -27 87t-76 30zM261 661q22 0 37 -15t15 -37t-15 -37.5t-37 -15.5t-37.5 15.5t-15.5 37.5t15.5 37t37.5 15z" />
    <glyph glyph-name="Gcommaaccent" unicode="&#x122;" horiz-adv-x="753" 
d="M436 647q-127 0 -198 -81t-71 -212q0 -130 70 -208.5t184 -78.5q84 0 154 38v207q0 10 9 10h77q9 0 9 -10v-251q-119 -74 -264 -74q-152 0 -249.5 101t-97.5 262q0 158 103.5 268.5t277.5 110.5q136 0 219 -56q11 -5 11 -22v-71q0 -16 -14 -16q-6 0 -12 6
q-35 33 -90.5 55t-117.5 22zM477 -73l-72 -127q-7 -10 -13 -10h-44q-10 0 -8 10l37 129q4 10 11 10h81q5 0 7.5 -4t0.5 -8z" />
    <glyph glyph-name="gcommaaccent" unicode="&#x123;" horiz-adv-x="550" 
d="M516 402q-15 0 -28.5 11t-23.5 11q-14 0 -22.5 -10.5t-8.5 -27.5q0 -10 3.5 -31.5t3.5 -39.5q0 -74 -50.5 -118.5t-156.5 -44.5q-96 0 -96 -49q0 -38 58 -38q22 0 73 5t95 5q70 0 103.5 -31.5t33.5 -84.5q0 -78 -69.5 -126.5t-189.5 -48.5q-104 0 -157 33.5t-53 92.5
q0 29 14.5 48t28.5 19h53q7 0 7 -7q0 -3 -3 -6q-13 -13 -13 -36q0 -80 126 -80q75 0 119 27.5t44 74.5q0 31 -17 46t-57 15q-26 0 -72.5 -3.5t-77.5 -3.5q-56 0 -86.5 21t-30.5 59q0 36 27 62.5t72 30.5q-47 15 -73.5 54.5t-26.5 94.5q0 77 54 125t133 48q110 0 157 -81
q10 39 35.5 61.5t62.5 22.5q24 0 36.5 -15t12.5 -38q0 -47 -40 -47zM254 438q-46 0 -71.5 -29t-25.5 -84q0 -61 26.5 -90t71.5 -29q102 0 102 115q0 57 -27 87t-76 30zM207 563l72 127q7 10 13 10h44q10 0 8 -10l-37 -129q-4 -10 -11 -10h-81q-5 0 -7.5 4t-0.5 8z" />
    <glyph glyph-name="Hcircumflex" unicode="&#x124;" horiz-adv-x="767" 
d="M473 418q55 0 101 -3q-3 61 -3 126v155q0 10 9 10h84q9 0 9 -10v-687q0 -3 -3 -6t-6 -3h-84q-9 0 -9 9v187q0 72 3 141q-40 -2 -99 -2h-186q-59 0 -99 2q3 -69 3 -141v-187q0 -3 -3 -6t-6 -3h-83q-9 0 -9 9v687q0 10 9 10h83q9 0 9 -10v-155q0 -65 -3 -126q46 3 101 3
h182zM380 854l-97 -92q-11 -9 -16 -9h-38q-3 0 -4.5 1.5t-1.5 3.5t2 4l122 141q9 9 15 9h42q8 0 16 -9l120 -141q1 -3 -0.5 -6t-4.5 -3h-42q-5 0 -16 9z" />
    <glyph glyph-name="hcircumflex" unicode="&#x125;" horiz-adv-x="570" 
d="M154 379q21 54 72.5 87t118.5 33q68 0 112 -40.5t44 -114.5v-335q0 -3 -3 -6t-6 -3h-73q-9 0 -9 9v314q0 103 -99 103q-59 0 -102 -41t-43 -111v-265q0 -3 -3 -6t-6 -3h-73q-9 0 -9 9v687q0 10 9 10h68q9 0 9 -10q0 -179 -7 -317zM214 854l-97 -92q-11 -9 -16 -9h-38
q-3 0 -4.5 1.5t-1.5 3.5t2 4l122 141q9 9 15 9h42q8 0 16 -9l120 -141q1 -3 -0.5 -6t-4.5 -3h-42q-5 0 -16 9z" />
    <glyph glyph-name="Hbar" unicode="&#x126;" horiz-adv-x="767" 
d="M739 635v-51q0 -7 -17 -7h-49v-568q0 -3 -3 -6t-6 -3h-84q-9 0 -9 9v187q0 72 3 141q-40 -2 -99 -2h-186q-59 0 -99 2q3 -69 3 -141v-187q0 -3 -3 -6t-6 -3h-83q-9 0 -9 9v568h-49q-17 0 -17 7v51q0 8 17 8h49v53q0 10 9 10h83q9 0 9 -10v-53h378v53q0 10 9 10h84
q9 0 9 -10v-53h49q17 0 17 -8zM473 418q55 0 101 -3q-3 61 -3 126v36h-378v-36q0 -65 -3 -126q46 3 101 3h182z" />
    <glyph glyph-name="hbar" unicode="&#x127;" horiz-adv-x="570" 
d="M261 635v-51q0 -7 -6 -7h-95q-1 -81 -6 -198q21 54 72.5 87t118.5 33q68 0 112 -40.5t44 -114.5v-335q0 -3 -3 -6t-6 -3h-73q-9 0 -9 9v314q0 103 -99 103q-59 0 -102 -41t-43 -111v-265q0 -3 -3 -6t-6 -3h-73q-9 0 -9 9v568h-54q-6 0 -6 7v51q0 8 6 8h54v53q0 10 9 10
h68q9 0 9 -10v-53h94q6 0 6 -8z" />
    <glyph glyph-name="Itilde" unicode="&#x128;" horiz-adv-x="285" 
d="M193 696v-687q0 -3 -3 -6t-6 -3h-83q-9 0 -9 9v687q0 10 9 10h83q9 0 9 -10zM210 755q-28 0 -74 35t-68 35q-20 0 -32.5 -14.5t-12.5 -35.5q0 -12 -12 -12q-25 0 -25 12q0 53 27.5 81.5t68.5 28.5q30 0 55.5 -15.5t45.5 -31t38 -15.5t30.5 12t12.5 35q0 11 9 11
q26 0 26 -13q0 -51 -25.5 -82t-63.5 -31z" />
    <glyph glyph-name="itilde" unicode="&#x129;" 
d="M166 472v-463q0 -3 -3 -6t-6 -3h-73q-9 0 -9 9v463q0 10 9 10h73q9 0 9 -10zM188 554q-28 0 -74 36.5t-68 36.5q-20 0 -32.5 -15.5t-12.5 -36.5q0 -13 -12 -13q-25 0 -25 13q0 55 27.5 85t68.5 30q24 0 45.5 -10t34 -22.5t28.5 -22.5t31 -10q17 0 30 12.5t13 37.5
q0 11 9 11q26 0 26 -13q0 -55 -25 -87t-64 -32z" />
    <glyph glyph-name="Imacron" unicode="&#x12a;" horiz-adv-x="285" 
d="M193 696v-687q0 -3 -3 -6t-6 -3h-83q-9 0 -9 9v687q0 10 9 10h83q9 0 9 -10zM267 844v-49q0 -7 -6 -7h-237q-6 0 -6 7v49q0 8 6 8h237q6 0 6 -8z" />
    <glyph glyph-name="imacron" unicode="&#x12b;" 
d="M166 472v-463q0 -3 -3 -6t-6 -3h-73q-9 0 -9 9v463q0 10 9 10h73q9 0 9 -10zM243 635v-51q0 -7 -6 -7h-234q-6 0 -6 7v51q0 8 6 8h234q6 0 6 -8z" />
    <glyph glyph-name="Ibreve" unicode="&#x12c;" horiz-adv-x="285" 
d="M193 696v-687q0 -3 -3 -6t-6 -3h-83q-9 0 -9 9v687q0 10 9 10h83q9 0 9 -10zM253 897q5 0 5 -5q-1 -64 -32 -98t-84 -34q-52 0 -83.5 33.5t-32.5 98.5q0 5 6 5h45q5 0 5 -6q1 -70 61 -70q31 0 45 15t15 55q0 6 6 6h44z" />
    <glyph glyph-name="ibreve" unicode="&#x12d;" 
d="M166 472v-463q0 -3 -3 -6t-6 -3h-73q-9 0 -9 9v463q0 10 9 10h73q9 0 9 -10zM230 682q6 0 6 -5q-1 -65 -32.5 -100t-83.5 -35q-51 0 -83 35t-33 100q0 5 6 5h44q5 0 5 -6q1 -73 61 -73q30 0 45 16.5t16 56.5q0 6 5 6h44z" />
    <glyph glyph-name="Iogonek" unicode="&#x12e;" horiz-adv-x="285" 
d="M193 696v-687q0 -3 -3 -6t-6 -3h-5q-36 -17 -54.5 -46t-18.5 -60q0 -28 12.5 -46t37.5 -18q19 0 38 8q6 3 6 -5v-37q0 -5 -5 -7q-29 -10 -57 -10q-39 0 -61.5 28.5t-22.5 67.5q0 40 23.5 73.5t67.5 51.5h-44q-9 0 -9 9v687q0 10 9 10h83q9 0 9 -10z" />
    <glyph glyph-name="iogonek" unicode="&#x12f;" horiz-adv-x="242" 
d="M159 0q-37 -17 -56.5 -46t-19.5 -60q0 -27 13 -45t40 -18q20 0 40 8q6 3 6 -5v-37q0 -5 -5 -7q-31 -10 -60 -10q-41 0 -64.5 28.5t-23.5 67.5q0 40 24.5 73t70.5 51h-40q-9 0 -9 9v463q0 10 9 10h73q9 0 9 -10v-463q0 -9 -8 -9h1zM121 710q23 0 39.5 -16.5t16.5 -39.5
q0 -22 -16.5 -37.5t-39.5 -15.5t-39.5 15.5t-16.5 37.5q0 23 16.5 39.5t39.5 16.5z" />
    <glyph glyph-name="Idotaccent" unicode="&#x130;" horiz-adv-x="285" 
d="M193 696v-687q0 -3 -3 -6t-6 -3h-83q-9 0 -9 9v687q0 10 9 10h83q9 0 9 -10zM142 860q22 0 38 -16t16 -38t-16 -37t-38 -15q-23 0 -38.5 15t-15.5 37t16 38t38 16z" />
    <glyph glyph-name="dotlessi" unicode="&#x131;" 
d="M166 472v-463q0 -3 -3 -6t-6 -3h-73q-9 0 -9 9v463q0 10 9 10h73q9 0 9 -10z" />
    <glyph glyph-name="IJ" unicode="&#x132;" horiz-adv-x="570" 
d="M193 696v-687q0 -3 -3 -6t-6 -3h-83q-9 0 -9 9v687q0 10 9 10h83q9 0 9 -10zM387 -59v755q0 10 9 10h83q9 0 9 -10v-752q2 -81 -43.5 -120.5t-118.5 -39.5q-46 0 -76 14q-9 5 -9 17v58q0 10 9 10q4 0 11 -3q19 -12 51 -12q34 0 54.5 18t20.5 55z" />
    <glyph glyph-name="ij" unicode="&#x133;" horiz-adv-x="484" 
d="M166 472v-463q0 -3 -3 -6t-6 -3h-73q-9 0 -9 9v463q0 10 9 10h73q9 0 9 -10zM121 710q23 0 39.5 -16.5t16.5 -39.5q0 -22 -16.5 -37.5t-39.5 -15.5t-39.5 15.5t-16.5 37.5q0 23 16.5 39.5t39.5 16.5zM219 -202q-7 4 -7 16v54q0 10 7 10q2 0 10 -4q15 -10 38 -10
q22 0 37.5 15t15.5 44v549q0 10 9 10h73q9 0 9 -10v-532q0 -82 -37 -119t-92 -37q-35 0 -63 14zM365 710q23 0 39.5 -16.5t16.5 -39.5q0 -22 -16.5 -37.5t-39.5 -15.5t-39.5 15.5t-16.5 37.5q0 23 16.5 39.5t39.5 16.5z" />
    <glyph glyph-name="Jcircumflex" unicode="&#x134;" horiz-adv-x="296" 
d="M103 -59v755q0 10 9 10h83q9 0 9 -10v-752q2 -81 -43.5 -120.5t-118.5 -39.5q-46 0 -76 14q-9 5 -9 17v58q0 10 9 10q4 0 11 -3q19 -12 51 -12q34 0 54.5 18t20.5 55zM146 854l-97 -92q-11 -9 -16 -9h-38q-3 0 -4.5 1.5t-1.5 3.5t2 4l122 141q9 9 15 9h42q8 0 16 -9
l120 -141q1 -3 -0.5 -6t-4.5 -3h-42q-5 0 -16 9z" />
    <glyph glyph-name="jcircumflex" unicode="&#x135;" horiz-adv-x="242" 
d="M-21 -202q-7 4 -7 16v54q0 10 7 10q2 0 10 -4q15 -10 38 -10q22 0 37.5 15t15.5 44v549q0 10 9 10h73q9 0 9 -10v-532q0 -82 -37 -119t-92 -37q-35 0 -63 14zM119 647l-86 -95q-9 -9 -16 -9h-40q-8 0 -3 9l109 144q8 10 15 10h49q7 0 15 -10l109 -144q1 -3 -0.5 -6
t-4.5 -3h-43q-7 0 -16 9z" />
    <glyph glyph-name="Kcommaaccent" unicode="&#x136;" horiz-adv-x="684" 
d="M193 203v-194q0 -3 -3 -6t-6 -3h-83q-9 0 -9 9v687q0 10 9 10h83q9 0 9 -10v-164q0 -85 -3 -124h16q24 0 150 139q92 103 141 151q8 8 17 8h100q8 0 8 -10q0 -8 -6 -11q-32 -17 -192 -182q-99 -101 -129 -118q23 -9 151 -144q178 -188 223 -212q8 -4 8 -14q0 -15 -8 -15
h-106q-10 0 -20 8q-85 79 -175 184q-128 149 -161 149h-18q4 -55 4 -138zM427 -73l-72 -127q-7 -10 -13 -10h-44q-10 0 -8 10l37 129q4 10 11 10h81q5 0 7.5 -4t0.5 -8z" />
    <glyph glyph-name="kcommaaccent" unicode="&#x137;" horiz-adv-x="488" 
d="M161 229q5 -39 5 -116v-104q0 -3 -3 -6t-6 -3h-73q-9 0 -9 9v687q0 10 9 10h73q9 0 9 -10v-305q0 -72 -5 -106h18q10 0 74 69t107 120q7 8 15 8h81q7 0 7 -8q0 -5 -4 -9q-26 -24 -74.5 -76l-83.5 -88t-47 -40q14 -6 109.5 -115.5t114.5 -121.5q7 -5 7 -13q0 -11 -8 -11
h-93q-8 0 -15 6q-18 20 -64.5 80l-81.5 101.5t-45 41.5h-17zM326 -73l-72 -127q-7 -10 -13 -10h-44q-10 0 -8 10l37 129q4 10 11 10h81q5 0 7.5 -4t0.5 -8z" />
    <glyph glyph-name="Lacute" unicode="&#x139;" horiz-adv-x="560" 
d="M189 75q98 5 179 5q31 0 92 0.5t91 0.5q8 0 8 -8l-7 -64q0 -9 -8 -9h-443q-9 0 -9 9v687q0 10 9 10h83q9 0 9 -10v-476q0 -76 -4 -145zM337 901l-160 -140q-8 -8 -15 -8h-40q-4 0 -5.5 3t0.5 6l126 140q7 10 15 10h76q4 0 5 -4t-2 -7z" />
    <glyph glyph-name="lacute" unicode="&#x13a;" 
d="M166 696v-687q0 -3 -3 -6t-6 -3h-73q-9 0 -9 9v687q0 10 9 10h73q9 0 9 -10zM278 901l-160 -140q-8 -8 -15 -8h-40q-4 0 -5.5 3t0.5 6l126 140q8 10 15 10h76q4 0 5 -4t-2 -7z" />
    <glyph glyph-name="Lcommaaccent" unicode="&#x13b;" horiz-adv-x="560" 
d="M189 75q98 5 179 5q31 0 92 0.5t91 0.5q8 0 8 -8l-7 -64q0 -9 -8 -9h-443q-9 0 -9 9v687q0 10 9 10h83q9 0 9 -10v-476q0 -76 -4 -145zM389 -73l-72 -127q-7 -10 -13 -10h-44q-10 0 -8 10l37 129q4 10 11 10h81q5 0 7.5 -4t0.5 -8z" />
    <glyph glyph-name="lcommaaccent" unicode="&#x13c;" 
d="M166 696v-687q0 -3 -3 -6t-6 -3h-73q-9 0 -9 9v687q0 10 9 10h73q9 0 9 -10zM181 -73l-72 -127q-7 -10 -13 -10h-44q-10 0 -8 10l37 129q4 10 11 10h81q5 0 7.5 -4t0.5 -8z" />
    <glyph glyph-name="Lcaron" unicode="&#x13d;" horiz-adv-x="560" 
d="M189 75q98 5 179 5q31 0 92 0.5t91 0.5q8 0 8 -8l-7 -64q0 -9 -8 -9h-443q-9 0 -9 9v687q0 10 9 10h83q9 0 9 -10v-476q0 -76 -4 -145zM342 694l-33 -160q-2 -9 -10 -9h-31q-8 0 -8 9v162q0 4 3.5 7t7.5 3h63q11 0 8 -12z" />
    <glyph glyph-name="lcaron" unicode="&#x13e;" 
d="M166 696v-687q0 -3 -3 -6t-6 -3h-73q-9 0 -9 9v687q0 10 9 10h73q9 0 9 -10zM300 694l-33 -160q-2 -9 -10 -9h-31q-8 0 -8 9v162q0 4 3.5 7t7.5 3h63q11 0 8 -12z" />
    <glyph glyph-name="Ldot" unicode="&#x13f;" horiz-adv-x="560" 
d="M189 75q98 5 179 5q31 0 92 0.5t91 0.5q8 0 8 -8l-7 -64q0 -9 -8 -9h-443q-9 0 -9 9v687q0 10 9 10h83q9 0 9 -10v-476q0 -76 -4 -145zM328 450q27 0 45 -18t18 -44q0 -27 -18 -45.5t-45 -18.5q-26 0 -44.5 18.5t-18.5 45.5q0 26 18.5 44t44.5 18z" />
    <glyph glyph-name="ldot" unicode="&#x140;" horiz-adv-x="319" 
d="M166 696v-687q0 -3 -3 -6t-6 -3h-73q-9 0 -9 9v687q0 10 9 10h73q9 0 9 -10zM261 429q25 0 41.5 -16.5t16.5 -40.5q0 -25 -16.5 -41.5t-41.5 -16.5q-24 0 -40.5 16.5t-16.5 41.5q0 24 16.5 40.5t40.5 16.5z" />
    <glyph glyph-name="Lslash" unicode="&#x141;" horiz-adv-x="563" 
d="M195 201q0 -73 -3 -126q98 5 179 5q31 0 92.5 0.5t91.5 0.5q9 0 7 -9l-8 -64q0 -8 -7 -8h-443q-9 0 -9 9v162q0 71 3 103q-40 -29 -60 -40q-3 -1 -6 0.5t-3 4.5v55q0 9 8 13q11 7 32.5 17.5t28.5 14.5q-3 35 -3 103v254q0 10 9 10h83q9 0 9 -10v-199q0 -55 -3 -106
q108 71 190 118q3 2 6 0t3 -6v-58q0 -9 -9 -13q-63 -38 -190 -106q2 -35 2 -125z" />
    <glyph glyph-name="lslash" unicode="&#x142;" horiz-adv-x="245" 
d="M79 301q-34 -44 -55 -65q-3 -3 -6 -2t-3 4v65q0 9 7 16q10 12 31 31t26 24q-3 46 -3 92v230q0 10 9 10h73q9 0 9 -10v-163q0 -55 -3 -79q25 35 58 71q2 2 5.5 1.5t3.5 -4.5v-69q0 -8 -7 -15q-11 -12 -33.5 -34.5t-26.5 -27.5q3 -62 3 -121v-246q0 -3 -3 -6t-6 -3h-73
q-9 0 -9 9v199q0 50 3 93z" />
    <glyph glyph-name="Nacute" unicode="&#x143;" horiz-adv-x="772" 
d="M561 8l-314 487q-42 64 -69 134q6 -76 6 -154v-466q0 -9 -8 -9h-75q-9 0 -9 9v687q0 10 9 10h113q9 0 15 -10l288 -446q52 -80 79 -157q-8 79 -8 183v420q0 10 9 10h74q9 0 9 -10v-687q0 -3 -3 -6t-6 -3h-98q-8 0 -12 8zM550 901l-160 -140q-8 -8 -15 -8h-40q-4 0 -5.5 3
t0.5 6l126 140q8 10 15 10h76q4 0 5 -4t-2 -7z" />
    <glyph glyph-name="nacute" unicode="&#x144;" horiz-adv-x="571" 
d="M155 379q21 54 72.5 87t119.5 33t111.5 -41t43.5 -115v-334q0 -3 -3 -6t-6 -3h-73q-9 0 -9 9v313q0 104 -98 104q-60 0 -103 -41t-43 -111v-265q0 -3 -3 -6t-6 -3h-73q-9 0 -9 9v384q0 23 -2 41t-3.5 27.5t-1.5 11.5q0 9 8 9h63q7 0 9 -9q6 -42 6 -94zM431 695l-143 -142
q-12 -10 -20 -10h-37q-5 0 -7 3.5t2 7.5l112 142q8 10 16 10h75q3 0 4 -4t-2 -7z" />
    <glyph glyph-name="Ncommaaccent" unicode="&#x145;" horiz-adv-x="772" 
d="M561 8l-314 487q-42 64 -69 134q6 -76 6 -154v-466q0 -9 -8 -9h-75q-9 0 -9 9v687q0 10 9 10h113q9 0 15 -10l288 -446q52 -80 79 -157q-8 79 -8 183v420q0 10 9 10h74q9 0 9 -10v-687q0 -3 -3 -6t-6 -3h-98q-8 0 -12 8zM452 -73l-72 -127q-8 -10 -13 -10h-44
q-10 0 -8 10l37 129q4 10 11 10h81q5 0 7.5 -4t0.5 -8z" />
    <glyph glyph-name="ncommaaccent" unicode="&#x146;" horiz-adv-x="571" 
d="M155 379q21 54 72.5 87t119.5 33t111.5 -41t43.5 -115v-334q0 -3 -3 -6t-6 -3h-73q-9 0 -9 9v313q0 104 -98 104q-60 0 -103 -41t-43 -111v-265q0 -3 -3 -6t-6 -3h-73q-9 0 -9 9v384q0 23 -2 41t-3.5 27.5t-1.5 11.5q0 9 8 9h63q7 0 9 -9q6 -42 6 -94zM356 -73l-72 -127
q-8 -10 -13 -10h-44q-10 0 -8 10l37 129q4 10 11 10h81q5 0 7.5 -4t0.5 -8z" />
    <glyph glyph-name="Ncaron" unicode="&#x147;" horiz-adv-x="772" 
d="M561 8l-314 487q-42 64 -69 134q6 -76 6 -154v-466q0 -9 -8 -9h-75q-9 0 -9 9v687q0 10 9 10h113q9 0 15 -10l288 -446q52 -80 79 -157q-8 79 -8 183v420q0 10 9 10h74q9 0 9 -10v-687q0 -3 -3 -6t-6 -3h-98q-8 0 -12 8zM400 811l97 92q9 9 15 9h39q4 0 5 -3t-2 -6
l-121 -141q-9 -9 -16 -9h-42q-9 0 -16 9l-119 141q-2 3 -0.5 6t5.5 3h42q6 0 15 -9z" />
    <glyph glyph-name="ncaron" unicode="&#x148;" horiz-adv-x="571" 
d="M155 379q21 54 72.5 87t119.5 33t111.5 -41t43.5 -115v-334q0 -3 -3 -6t-6 -3h-73q-9 0 -9 9v313q0 104 -98 104q-60 0 -103 -41t-43 -111v-265q0 -3 -3 -6t-6 -3h-73q-9 0 -9 9v384q0 23 -2 41t-3.5 27.5t-1.5 11.5q0 9 8 9h63q7 0 9 -9q6 -42 6 -94zM287 602l86 95
q9 9 15 9h40q3 0 4.5 -3t-0.5 -6l-109 -144q-10 -10 -15 -10h-49q-7 0 -15 10l-109 144q-2 3 -0.5 6t4.5 3h43q8 0 17 -9z" />
    <glyph glyph-name="napostrophe" unicode="&#x149;" horiz-adv-x="571" 
d="M155 379q21 54 72.5 87t119.5 33t111.5 -41t43.5 -115v-334q0 -3 -3 -6t-6 -3h-73q-9 0 -9 9v313q0 104 -98 104q-60 0 -103 -41t-43 -111v-265q0 -3 -3 -6t-6 -3h-73q-9 0 -9 9v384q0 23 -2 41t-3.5 27.5t-1.5 11.5q0 9 8 9h63q7 0 9 -9q6 -42 6 -94zM162 694l-33 -160
q-2 -9 -10 -9h-31q-8 0 -8 9v162q0 4 3.5 7t7.5 3h63q11 0 8 -12z" />
    <glyph glyph-name="Eng" unicode="&#x14a;" horiz-adv-x="772" 
d="M679 5l-104 -230q-4 -11 -12 -11h-47q-11 0 -9 11l61 226q-5 2 -7 7l-314 487q-42 64 -69 134q6 -76 6 -154v-466q0 -9 -8 -9h-75q-9 0 -9 9v687q0 10 9 10h113q9 0 15 -10l288 -446q52 -80 79 -157q-8 79 -8 183v420q0 10 9 10h74q9 0 9 -10v-687v-1v-1q-1 -1 -1 -2z
" />
    <glyph glyph-name="eng" unicode="&#x14b;" horiz-adv-x="571" 
d="M155 379q21 54 72.5 87t119.5 33t111.5 -41t43.5 -115v-330v-1v-3q0 -3 -4 -7l-81 -223q-4 -11 -12 -11h-47q-11 0 -9 11l62 228v2v313q0 104 -98 104q-60 0 -103 -41t-43 -111v-265q0 -3 -3 -6t-6 -3h-73q-9 0 -9 9v384q0 23 -2 41t-3.5 27.5t-1.5 11.5q0 9 8 9h63
q7 0 9 -9q6 -42 6 -94z" />
    <glyph glyph-name="Omacron" unicode="&#x14c;" horiz-adv-x="829" 
d="M414 68q117 0 180.5 80.5t63.5 215.5q0 138 -67.5 210.5t-175.5 72.5t-176 -72t-68 -211q0 -132 64.5 -214t178.5 -82zM414 729q95 0 175.5 -42t131 -127t50.5 -196q0 -169 -100 -273t-257 -104q-150 0 -252.5 104t-102.5 273q0 164 104 264.5t251 100.5zM540 844v-49
q0 -7 -6 -7h-237q-6 0 -6 7v49q0 8 6 8h237q6 0 6 -8z" />
    <glyph glyph-name="omacron" unicode="&#x14d;" horiz-adv-x="572" 
d="M286 499q79 0 135 -37.5t81 -93t25 -122.5q0 -106 -62.5 -182.5t-178.5 -76.5q-78 0 -134.5 38.5t-82 96t-25.5 124.5q0 104 63 178.5t179 74.5zM286 53q72 0 108 53.5t36 137.5t-36 135.5t-108 51.5q-73 0 -108.5 -51.5t-35.5 -135.5t36 -137.5t108 -53.5zM408 635v-51
q0 -7 -6 -7h-234q-6 0 -6 7v51q0 8 6 8h234q6 0 6 -8z" />
    <glyph glyph-name="Obreve" unicode="&#x14e;" horiz-adv-x="829" 
d="M414 68q117 0 180.5 80.5t63.5 215.5q0 138 -67.5 210.5t-175.5 72.5t-176 -72t-68 -211q0 -132 64.5 -214t178.5 -82zM414 729q95 0 175.5 -42t131 -127t50.5 -196q0 -169 -100 -273t-257 -104q-150 0 -252.5 104t-102.5 273q0 164 104 264.5t251 100.5zM526 897
q5 0 5 -5q-1 -64 -32 -98t-84 -34q-52 0 -83.5 33.5t-32.5 98.5q0 5 6 5h45q5 0 5 -6q1 -70 61 -70q31 0 45 15t15 55q0 6 6 6h44z" />
    <glyph glyph-name="obreve" unicode="&#x14f;" horiz-adv-x="572" 
d="M286 499q79 0 135 -37.5t81 -93t25 -122.5q0 -106 -62.5 -182.5t-178.5 -76.5q-78 0 -134.5 38.5t-82 96t-25.5 124.5q0 104 63 178.5t179 74.5zM286 53q72 0 108 53.5t36 137.5t-36 135.5t-108 51.5q-73 0 -108.5 -51.5t-35.5 -135.5t36 -137.5t108 -53.5zM395 682
q6 0 6 -5q-1 -65 -32.5 -100t-83.5 -35q-51 0 -83 35t-33 100q0 5 6 5h44q5 0 5 -6q1 -73 61 -73q30 0 45 16.5t16 56.5q0 6 5 6h44z" />
    <glyph glyph-name="Ohungarumlaut" unicode="&#x150;" horiz-adv-x="829" 
d="M414 68q117 0 180.5 80.5t63.5 215.5q0 138 -67.5 210.5t-175.5 72.5t-176 -72t-68 -211q0 -132 64.5 -214t178.5 -82zM414 729q95 0 175.5 -42t131 -127t50.5 -196q0 -169 -100 -273t-257 -104q-150 0 -252.5 104t-102.5 273q0 164 104 264.5t251 100.5zM468 901
l-140 -139q-9 -9 -14 -9h-34q-4 0 -5 3t1 6l109 140q8 10 14 10h67q3 0 4 -4t-2 -7zM627 901l-140 -139q-9 -9 -14 -9h-35q-4 0 -5 3t1 6l110 140q8 10 14 10h67q3 0 4 -4t-2 -7z" />
    <glyph glyph-name="ohungarumlaut" unicode="&#x151;" horiz-adv-x="572" 
d="M286 499q79 0 135 -37.5t81 -93t25 -122.5q0 -106 -62.5 -182.5t-178.5 -76.5q-78 0 -134.5 38.5t-82 96t-25.5 124.5q0 104 63 178.5t179 74.5zM286 53q72 0 108 53.5t36 137.5t-36 135.5t-108 51.5q-73 0 -108.5 -51.5t-35.5 -135.5t36 -137.5t108 -53.5zM332 695
l-117 -143q-7 -9 -13 -9h-34q-8 0 -3 9l92 144q7 10 12 10h61q2 0 3 -4t-1 -7zM465 695l-119 -143q-7 -9 -13 -9h-32q-4 0 -5.5 2.5t1.5 6.5l92 144q7 10 13 10h60q8 0 3 -11z" />
    <glyph glyph-name="OE" unicode="&#x152;" horiz-adv-x="1136" 
d="M515 0q-46 -13 -101 -13q-150 0 -252.5 104t-102.5 273q0 164 104.5 264.5t250.5 100.5q67 0 130 -23h546q7 0 7 -9l7 -62q0 -8 -7 -8q-29 0 -108.5 1t-108.5 1q-173 0 -229 4q105 -82 117 -228q44 3 107 3q29 0 66 0.5t46 0.5q6 0 6 -9v-60q0 -8 -6 -8q-9 0 -45.5 0.5
t-65.5 0.5q-42 0 -108 4q-2 -86 -35.5 -154.5t-92.5 -109.5q64 4 250 4q32 0 112.5 1t109.5 1q7 0 7 -9l-8 -62q0 -8 -7 -8h-589zM414 68q117 0 180.5 80.5t63.5 215.5q0 138 -67.5 210.5t-175.5 72.5t-176 -72t-68 -211q0 -132 64.5 -214t178.5 -82z" />
    <glyph glyph-name="oe" unicode="&#x153;" horiz-adv-x="890" 
d="M474 86q-60 -99 -187 -99q-116 0 -179 76.5t-63 182.5q0 104 62.5 178.5t179.5 74.5q132 0 192 -106q65 106 191 106q91 0 139 -50.5t48 -139.5q0 -29 -29 -29h-305q-5 -23 -5 -54q0 -71 43 -118.5t118 -47.5t126 40q6 5 11 5q7 0 7 -10v-46q0 -11 -8 -17
q-58 -45 -149 -45q-132 0 -192 99zM287 53q72 0 107.5 53.5t35.5 137.5q0 85 -35.5 136t-107.5 51q-73 0 -108.5 -51.5t-35.5 -135.5q0 -85 35.5 -138t108.5 -53zM777 334q0 46 -28.5 74.5t-79.5 28.5q-102 0 -137 -103h245z" />
    <glyph glyph-name="Racute" unicode="&#x154;" horiz-adv-x="650" 
d="M246 290q-21 0 -57 2q4 -57 4 -135v-148q0 -3 -3 -6t-6 -3h-83q-9 0 -9 9v684q0 13 9 13h204q117 0 177 -55t60 -142q0 -79 -60 -134t-141 -61q64 -14 197 -165q99 -110 117 -119q6 -2 6 -14q0 -16 -13 -16h-92q-19 0 -45 36l-53.5 64.5l-59 70.5l-53 58t-54.5 46t-45 15
zM293 630q-52 0 -103 3q3 -55 3 -152q0 -62 -3 -122q54 3 74 3q172 0 172 144q0 59 -36 91.5t-107 32.5zM438 901l-160 -140q-8 -8 -15 -8h-40q-4 0 -5.5 3t0.5 6l126 140q8 10 15 10h76q4 0 5 -4t-2 -7z" />
    <glyph glyph-name="racute" unicode="&#x155;" horiz-adv-x="390" 
d="M357 381q-15 0 -35 17t-49 17q-49 0 -76.5 -42t-27.5 -102v-262q0 -3 -3 -6t-6 -3h-73q-9 0 -9 9v384q0 23 -2 41t-3.5 27.5t-1.5 11.5q0 9 8 9h63q7 0 9 -9q6 -39 6 -99q19 57 58 91t92 34q45 0 67.5 -19.5t22.5 -48.5q0 -22 -11 -36t-29 -14zM364 695l-143 -142
q-12 -10 -20 -10h-37q-5 0 -7 3.5t2 7.5l112 142q7 10 16 10h75q3 0 4 -4t-2 -7z" />
    <glyph glyph-name="Rcommaaccent" unicode="&#x156;" horiz-adv-x="650" 
d="M246 290q-21 0 -57 2q4 -57 4 -135v-148q0 -3 -3 -6t-6 -3h-83q-9 0 -9 9v684q0 13 9 13h204q117 0 177 -55t60 -142q0 -79 -60 -134t-141 -61q64 -14 197 -165q99 -110 117 -119q6 -2 6 -14q0 -16 -13 -16h-92q-19 0 -45 36l-53.5 64.5l-59 70.5l-53 58t-54.5 46t-45 15
zM293 630q-52 0 -103 3q3 -55 3 -152q0 -62 -3 -122q54 3 74 3q172 0 172 144q0 59 -36 91.5t-107 32.5zM404 -73l-72 -127q-8 -10 -13 -10h-44q-10 0 -8 10l37 129q4 10 11 10h81q5 0 7.5 -4t0.5 -8z" />
    <glyph glyph-name="rcommaaccent" unicode="&#x157;" horiz-adv-x="390" 
d="M357 381q-15 0 -35 17t-49 17q-49 0 -76.5 -42t-27.5 -102v-262q0 -3 -3 -6t-6 -3h-73q-9 0 -9 9v384q0 23 -2 41t-3.5 27.5t-1.5 11.5q0 9 8 9h63q7 0 9 -9q6 -39 6 -99q19 57 58 91t92 34q45 0 67.5 -19.5t22.5 -48.5q0 -22 -11 -36t-29 -14zM185 -73l-72 -127
q-7 -10 -13 -10h-44q-10 0 -8 10l37 129q4 10 11 10h81q5 0 7.5 -4t0.5 -8z" />
    <glyph glyph-name="Rcaron" unicode="&#x158;" horiz-adv-x="650" 
d="M246 290q-21 0 -57 2q4 -57 4 -135v-148q0 -3 -3 -6t-6 -3h-83q-9 0 -9 9v684q0 13 9 13h204q117 0 177 -55t60 -142q0 -79 -60 -134t-141 -61q64 -14 197 -165q99 -110 117 -119q6 -2 6 -14q0 -16 -13 -16h-92q-19 0 -45 36l-53.5 64.5l-59 70.5l-53 58t-54.5 46t-45 15
zM293 630q-52 0 -103 3q3 -55 3 -152q0 -62 -3 -122q54 3 74 3q172 0 172 144q0 59 -36 91.5t-107 32.5zM293 811l97 92q9 9 15 9h39q4 0 5 -3t-2 -6l-121 -141q-9 -9 -16 -9h-42q-8 0 -16 9l-119 141q-2 3 -0.5 6t5.5 3h42q6 0 15 -9z" />
    <glyph glyph-name="rcaron" unicode="&#x159;" horiz-adv-x="390" 
d="M357 381q-15 0 -35 17t-49 17q-49 0 -76.5 -42t-27.5 -102v-262q0 -3 -3 -6t-6 -3h-73q-9 0 -9 9v384q0 23 -2 41t-3.5 27.5t-1.5 11.5q0 9 8 9h63q7 0 9 -9q6 -39 6 -99q19 57 58 91t92 34q45 0 67.5 -19.5t22.5 -48.5q0 -22 -11 -36t-29 -14zM235 602l86 95q9 9 15 9
h40q3 0 4.5 -3t-0.5 -6l-109 -144q-10 -10 -15 -10h-49q-7 0 -15 10l-109 144q-2 3 -0.5 6t4.5 3h43q8 0 17 -9z" />
    <glyph glyph-name="Sacute" unicode="&#x15a;" horiz-adv-x="559" 
d="M271 64q67 0 106 31.5t39 81.5q0 53 -34 79.5t-119 61.5q-12 4 -18 7q-84 33 -131.5 79.5t-47.5 124.5q0 82 63 141t172 59q103 0 176 -49q10 -8 10 -25v-68q0 -14 -12 -14q-7 0 -13 6q-70 69 -168 69q-59 0 -93 -31.5t-34 -78.5q0 -22 9 -41t20 -30.5t35.5 -25t39 -20
t47.5 -19.5q104 -39 151.5 -87.5t47.5 -126.5q0 -93 -68 -147.5t-174 -54.5q-70 0 -114.5 14t-93.5 49q-10 10 -10 23v55q0 16 10 16q6 0 13 -7q89 -72 191 -72zM425 901l-160 -140q-8 -8 -15 -8h-40q-4 0 -5.5 3t0.5 6l126 140q7 10 15 10h76q4 0 5 -4t-2 -7z" />
    <glyph glyph-name="sacute" unicode="&#x15b;" horiz-adv-x="426" 
d="M200 -13q-85 0 -141 40q-8 7 -8 17v46q0 13 7 13q8 0 14 -6q53 -43 127 -43q46 0 72 20t26 50q0 9 -1.5 16t-5.5 13l-7.5 11t-11.5 9.5l-13 7.5t-16.5 7.5t-17.5 6.5t-21 7.5t-22 7.5q-59 20 -94 53t-35 94q0 59 49 100.5t129 41.5q82 0 126 -37q17 -14 17 -34
q0 -18 -10.5 -30t-23.5 -12q-14 0 -28 11q-39 32 -86 32q-41 0 -63 -20t-22 -49q0 -8 1 -15t5 -13.5l6.5 -10.5t10 -9t10.5 -7.5t14 -7t14 -5.5t17 -6t17 -6q79 -28 114.5 -59.5t35.5 -90.5q0 -64 -51.5 -103.5t-133.5 -39.5zM353 695l-143 -142q-12 -10 -20 -10h-37
q-5 0 -7 3.5t2 7.5l112 142q8 10 16 10h75q3 0 4 -4t-2 -7z" />
    <glyph glyph-name="Scircumflex" unicode="&#x15c;" horiz-adv-x="559" 
d="M271 64q67 0 106 31.5t39 81.5q0 53 -34 79.5t-119 61.5q-12 4 -18 7q-84 33 -131.5 79.5t-47.5 124.5q0 82 63 141t172 59q103 0 176 -49q10 -8 10 -25v-68q0 -14 -12 -14q-7 0 -13 6q-70 69 -168 69q-59 0 -93 -31.5t-34 -78.5q0 -22 9 -41t20 -30.5t35.5 -25t39 -20
t47.5 -19.5q104 -39 151.5 -87.5t47.5 -126.5q0 -93 -68 -147.5t-174 -54.5q-70 0 -114.5 14t-93.5 49q-10 10 -10 23v55q0 16 10 16q6 0 13 -7q89 -72 191 -72zM295 854l-97 -92q-10 -9 -16 -9h-38q-3 0 -4.5 1.5t-1.5 3.5t2 4l122 141q9 9 15 9h42q9 0 16 -9l120 -141
q1 -3 -0.5 -6t-4.5 -3h-42q-6 0 -16 9z" />
    <glyph glyph-name="scircumflex" unicode="&#x15d;" horiz-adv-x="426" 
d="M200 -13q-85 0 -141 40q-8 7 -8 17v46q0 13 7 13q8 0 14 -6q53 -43 127 -43q46 0 72 20t26 50q0 9 -1.5 16t-5.5 13l-7.5 11t-11.5 9.5l-13 7.5t-16.5 7.5t-17.5 6.5t-21 7.5t-22 7.5q-59 20 -94 53t-35 94q0 59 49 100.5t129 41.5q82 0 126 -37q17 -14 17 -34
q0 -18 -10.5 -30t-23.5 -12q-14 0 -28 11q-39 32 -86 32q-41 0 -63 -20t-22 -49q0 -8 1 -15t5 -13.5l6.5 -10.5t10 -9t10.5 -7.5t14 -7t14 -5.5t17 -6t17 -6q79 -28 114.5 -59.5t35.5 -90.5q0 -64 -51.5 -103.5t-133.5 -39.5zM224 647l-86 -95q-9 -9 -16 -9h-40q-8 0 -3 9
l109 144q8 10 15 10h49q7 0 15 -10l109 -144q1 -3 -0.5 -6t-4.5 -3h-43q-7 0 -16 9z" />
    <glyph glyph-name="Scedilla" unicode="&#x15e;" horiz-adv-x="559" 
d="M185 -233q-6 1 -6 9v29q0 8 7 5q26 -9 54 -9q37 0 53 13t16 40q0 53 -64 53q-5 0 -9.5 -1t-10.5 -2.5t-9 -2.5q-4 0 -7.5 6t-3.5 12q0 2 2 6l66 61q-70 1 -114.5 15t-91.5 48q-10 10 -10 23v55q0 16 10 16q6 0 13 -7q89 -72 191 -72q67 0 106 31.5t39 81.5q0 53 -34 79.5
t-119 61.5q-12 4 -18 7q-84 33 -131.5 79.5t-47.5 124.5q0 82 63 141t172 59q103 0 176 -49q10 -8 10 -25v-68q0 -14 -12 -14q-7 0 -13 6q-70 69 -168 69q-59 0 -93 -31.5t-34 -78.5q0 -22 9 -41t20 -30.5t35.5 -25t39 -20t47.5 -19.5q104 -39 151.5 -87.5t47.5 -126.5
q0 -83 -54 -135t-143 -64l-52 -47h10q50 0 77.5 -25.5t27.5 -61.5q0 -39 -32.5 -69t-90.5 -30q-38 0 -75 11z" />
    <glyph glyph-name="Scedilla" unicode="&#xf6c1;" horiz-adv-x="559" 
d="M185 -233q-6 1 -6 9v29q0 8 7 5q26 -9 54 -9q37 0 53 13t16 40q0 53 -64 53q-5 0 -9.5 -1t-10.5 -2.5t-9 -2.5q-4 0 -7.5 6t-3.5 12q0 2 2 6l66 61q-70 1 -114.5 15t-91.5 48q-10 10 -10 23v55q0 16 10 16q6 0 13 -7q89 -72 191 -72q67 0 106 31.5t39 81.5q0 53 -34 79.5
t-119 61.5q-12 4 -18 7q-84 33 -131.5 79.5t-47.5 124.5q0 82 63 141t172 59q103 0 176 -49q10 -8 10 -25v-68q0 -14 -12 -14q-7 0 -13 6q-70 69 -168 69q-59 0 -93 -31.5t-34 -78.5q0 -22 9 -41t20 -30.5t35.5 -25t39 -20t47.5 -19.5q104 -39 151.5 -87.5t47.5 -126.5
q0 -83 -54 -135t-143 -64l-52 -47h10q50 0 77.5 -25.5t27.5 -61.5q0 -39 -32.5 -69t-90.5 -30q-38 0 -75 11z" />
    <glyph glyph-name="scedilla" unicode="&#x15f;" horiz-adv-x="426" 
d="M110 -233q-6 1 -6 9v29q0 8 7 5q25 -9 54 -9q37 0 53 13t16 40q0 53 -64 53q-5 0 -9.5 -1t-10.5 -2.5t-9 -2.5q-4 0 -7.5 6t-3.5 12q0 2 2 6l67 62q-84 0 -140 40q-8 7 -8 17v46q0 13 7 13q8 0 14 -6q53 -43 127 -43q46 0 72 20t26 50q0 9 -1.5 16t-5.5 13l-7.5 11
t-11.5 9.5l-13 7.5t-16.5 7.5t-17.5 6.5t-21 7.5t-22 7.5q-59 20 -94 53t-35 94q0 59 49 100.5t129 41.5q82 0 126 -37q17 -14 17 -34q0 -18 -10.5 -30t-23.5 -12q-14 0 -28 11q-39 32 -86 32q-41 0 -63 -20t-22 -49q0 -8 1 -15t5 -13.5l6.5 -10.5t10 -9t10.5 -7.5t14 -7
t14 -5.5t17 -6t17 -6q79 -28 114.5 -59.5t35.5 -90.5q0 -54 -37 -91t-100 -48l-55 -49h10q50 0 77.5 -25.5t27.5 -61.5q0 -39 -32.5 -69t-90.5 -30q-38 0 -75 11z" />
    <glyph glyph-name="scedilla" unicode="&#xf6c2;" horiz-adv-x="426" 
d="M110 -233q-6 1 -6 9v29q0 8 7 5q25 -9 54 -9q37 0 53 13t16 40q0 53 -64 53q-5 0 -9.5 -1t-10.5 -2.5t-9 -2.5q-4 0 -7.5 6t-3.5 12q0 2 2 6l67 62q-84 0 -140 40q-8 7 -8 17v46q0 13 7 13q8 0 14 -6q53 -43 127 -43q46 0 72 20t26 50q0 9 -1.5 16t-5.5 13l-7.5 11
t-11.5 9.5l-13 7.5t-16.5 7.5t-17.5 6.5t-21 7.5t-22 7.5q-59 20 -94 53t-35 94q0 59 49 100.5t129 41.5q82 0 126 -37q17 -14 17 -34q0 -18 -10.5 -30t-23.5 -12q-14 0 -28 11q-39 32 -86 32q-41 0 -63 -20t-22 -49q0 -8 1 -15t5 -13.5l6.5 -10.5t10 -9t10.5 -7.5t14 -7
t14 -5.5t17 -6t17 -6q79 -28 114.5 -59.5t35.5 -90.5q0 -54 -37 -91t-100 -48l-55 -49h10q50 0 77.5 -25.5t27.5 -61.5q0 -39 -32.5 -69t-90.5 -30q-38 0 -75 11z" />
    <glyph glyph-name="Scaron" unicode="&#x160;" horiz-adv-x="559" 
d="M271 64q67 0 106 31.5t39 81.5q0 53 -34 79.5t-119 61.5q-12 4 -18 7q-84 33 -131.5 79.5t-47.5 124.5q0 82 63 141t172 59q103 0 176 -49q10 -8 10 -25v-68q0 -14 -12 -14q-7 0 -13 6q-70 69 -168 69q-59 0 -93 -31.5t-34 -78.5q0 -22 9 -41t20 -30.5t35.5 -25t39 -20
t47.5 -19.5q104 -39 151.5 -87.5t47.5 -126.5q0 -93 -68 -147.5t-174 -54.5q-70 0 -114.5 14t-93.5 49q-10 10 -10 23v55q0 16 10 16q6 0 13 -7q89 -72 191 -72zM298 811l97 92q9 9 15 9h39q4 0 5 -3t-2 -6l-121 -141q-9 -9 -16 -9h-42q-9 0 -16 9l-119 141q-2 3 -0.5 6
t5.5 3h42q6 0 15 -9z" />
    <glyph glyph-name="scaron" unicode="&#x161;" horiz-adv-x="426" 
d="M200 -13q-85 0 -141 40q-8 7 -8 17v46q0 13 7 13q8 0 14 -6q53 -43 127 -43q46 0 72 20t26 50q0 9 -1.5 16t-5.5 13l-7.5 11t-11.5 9.5l-13 7.5t-16.5 7.5t-17.5 6.5t-21 7.5t-22 7.5q-59 20 -94 53t-35 94q0 59 49 100.5t129 41.5q82 0 126 -37q17 -14 17 -34
q0 -18 -10.5 -30t-23.5 -12q-14 0 -28 11q-39 32 -86 32q-41 0 -63 -20t-22 -49q0 -8 1 -15t5 -13.5l6.5 -10.5t10 -9t10.5 -7.5t14 -7t14 -5.5t17 -6t17 -6q79 -28 114.5 -59.5t35.5 -90.5q0 -64 -51.5 -103.5t-133.5 -39.5zM228 602l86 95q9 9 15 9h40q3 0 4.5 -3t-0.5 -6
l-109 -144q-10 -10 -15 -10h-49q-7 0 -15 10l-109 144q-4 9 4 9h43q8 0 17 -9z" />
    <glyph glyph-name="Tcommaaccent" unicode="&#x162;" horiz-adv-x="609" 
d="M605 706q7 0 7 -8v-68q0 -7 -7 -7q-19 0 -59 1t-59 1q-68 0 -134 3q3 -56 3 -111v-508q0 -3 -3 -6t-6 -3h-83q-9 0 -9 9v510q0 57 3 109q-60 -3 -121 -3q-23 0 -66.5 -1t-66.5 -1q-9 0 -7 8l9 66q2 9 7 9h592zM366 -73l-72 -127q-8 -10 -13 -10h-44q-10 0 -8 10l37 129
q4 10 11 10h81q5 0 7.5 -4t0.5 -8z" />
    <glyph glyph-name="Tcommaaccent" unicode="&#x21a;" horiz-adv-x="609" 
d="M605 706q7 0 7 -8v-68q0 -7 -7 -7q-19 0 -59 1t-59 1q-68 0 -134 3q3 -56 3 -111v-508q0 -3 -3 -6t-6 -3h-83q-9 0 -9 9v510q0 57 3 109q-60 -3 -121 -3q-23 0 -66.5 -1t-66.5 -1q-9 0 -7 8l9 66q2 9 7 9h592zM366 -73l-72 -127q-8 -10 -13 -10h-44q-10 0 -8 10l37 129
q4 10 11 10h81q5 0 7.5 -4t0.5 -8z" />
    <glyph glyph-name="tcommaaccent" unicode="&#x163;" horiz-adv-x="321" 
d="M230 -73l-72 -127q-7 -10 -13 -10h-44q-10 0 -8 10l37 129q4 10 11 10h81q5 0 7.5 -4t0.5 -8zM27 452q74 46 129 144q4 8 12 8q12 0 12 -12v-23q0 -43 -9 -90q40 3 111 3q7 0 7 -9v-52q0 -8 -7 -8q-76 0 -111 3q5 -48 5 -111v-154q0 -46 16.5 -65t49.5 -19q22 0 36 7
q11 5 11 -6v-60q0 -8 -9 -10q-27 -6 -51 -6q-64 0 -103.5 40t-39.5 117v156q0 46 7 111q-20 -3 -63 -3q-10 0 -10 19q0 16 7 20z" />
    <glyph glyph-name="tcommaaccent" unicode="&#x21b;" horiz-adv-x="321" 
d="M230 -73l-72 -127q-7 -10 -13 -10h-44q-10 0 -8 10l37 129q4 10 11 10h81q5 0 7.5 -4t0.5 -8zM27 452q74 46 129 144q4 8 12 8q12 0 12 -12v-23q0 -43 -9 -90q40 3 111 3q7 0 7 -9v-52q0 -8 -7 -8q-76 0 -111 3q5 -48 5 -111v-154q0 -46 16.5 -65t49.5 -19q22 0 36 7
q11 5 11 -6v-60q0 -8 -9 -10q-27 -6 -51 -6q-64 0 -103.5 40t-39.5 117v156q0 46 7 111q-20 -3 -63 -3q-10 0 -10 19q0 16 7 20z" />
    <glyph glyph-name="Tcaron" unicode="&#x164;" horiz-adv-x="609" 
d="M605 706q7 0 7 -8v-68q0 -7 -7 -7q-19 0 -59 1t-59 1q-68 0 -134 3q3 -56 3 -111v-508q0 -3 -3 -6t-6 -3h-83q-9 0 -9 9v510q0 57 3 109q-60 -3 -121 -3q-23 0 -66.5 -1t-66.5 -1q-9 0 -7 8l9 66q2 9 7 9h592zM307 811l97 92q9 9 15 9h39q4 0 5 -3t-2 -6l-121 -141
q-9 -9 -16 -9h-42q-8 0 -16 9l-119 141q-2 3 -0.5 6t5.5 3h42q6 0 15 -9z" />
    <glyph glyph-name="tcaron" unicode="&#x165;" horiz-adv-x="321" 
d="M317 694l-33 -160q-2 -9 -10 -9h-31q-8 0 -8 9v162q0 4 3.5 7t7.5 3h63q11 0 8 -12zM27 452q74 46 129 144q4 8 12 8q12 0 12 -12v-23q0 -43 -9 -90q40 3 111 3q7 0 7 -9v-52q0 -8 -7 -8q-76 0 -111 3q5 -48 5 -111v-154q0 -46 16.5 -65t49.5 -19q22 0 36 7q11 5 11 -6
v-60q0 -8 -9 -10q-27 -6 -51 -6q-64 0 -103.5 40t-39.5 117v156q0 46 7 111q-20 -3 -63 -3q-10 0 -10 19q0 16 7 20z" />
    <glyph glyph-name="Tbar" unicode="&#x166;" horiz-adv-x="609" 
d="M492 303v-56q0 -3 -3 -6t-5 -3h-128v-229q0 -3 -3 -6t-6 -3h-83q-9 0 -9 9v229h-130q-8 0 -8 9v56q0 9 8 9h130v207q0 57 3 109q-60 -3 -121 -3q-23 0 -66.5 -1t-66.5 -1q-9 0 -7 8l9 66q2 9 7 9h592q7 0 7 -8v-68q0 -7 -7 -7q-19 0 -59 1t-59 1q-68 0 -134 3
q3 -56 3 -111v-205h128q2 0 5 -3t3 -6z" />
    <glyph glyph-name="tbar" unicode="&#x167;" horiz-adv-x="321" 
d="M282 290v-45q0 -6 -6 -6h-101v-88q0 -46 17 -65t50 -19q22 0 36 7q11 5 11 -6v-60q0 -8 -9 -10q-27 -6 -51 -6q-64 0 -103.5 40t-39.5 117v90h-65q-6 0 -6 6v45q0 7 6 7h65v8q0 46 7 111q-20 -3 -63 -3q-10 0 -10 19q0 16 7 20q72 45 128 144q4 8 12 8q12 0 12 -12v-30
q0 -24 -9 -83q40 3 112 3q7 0 7 -9v-52q0 -8 -7 -8q-77 0 -112 3q5 -48 5 -111v-8h101q6 0 6 -7z" />
    <glyph glyph-name="Utilde" unicode="&#x168;" horiz-adv-x="753" 
d="M83 241v455q0 10 9 10h84q9 0 9 -10v-442q0 -84 50.5 -131t140.5 -47q94 0 144.5 43.5t50.5 129.5v447q0 10 9 10h81q9 0 9 -10v-458q0 -114 -81.5 -182.5t-213.5 -68.5q-131 0 -211.5 69.5t-80.5 184.5zM448 755q-28 0 -74 35t-68 35q-20 0 -32.5 -14.5t-12.5 -35.5
q0 -12 -12 -12q-25 0 -25 12q0 53 27.5 81.5t68.5 28.5q30 0 55.5 -15.5t45.5 -31t38 -15.5t30.5 12t12.5 35q0 11 9 11q26 0 26 -13q0 -51 -25.5 -82t-63.5 -31z" />
    <glyph glyph-name="utilde" unicode="&#x169;" horiz-adv-x="571" 
d="M416 105q-21 -53 -72 -85.5t-120 -32.5q-68 0 -111.5 41t-43.5 115v330q0 3 3 6t6 3h73q9 0 9 -9v-309q0 -104 99 -104q60 0 102.5 40.5t42.5 109.5v263q0 3 3 6t6 3h73q9 0 9 -9v-384q0 -23 2 -41.5t4 -27.5t2 -11q0 -9 -8 -9h-64q-7 0 -9 9q-6 42 -6 96zM354 554
q-28 0 -74 36.5t-68 36.5q-20 0 -32.5 -15.5t-12.5 -36.5q0 -13 -12 -13q-25 0 -25 13q0 55 27.5 85t68.5 30q24 0 45.5 -10t34 -22.5t28.5 -22.5t31 -10q17 0 30 12.5t13 37.5q0 11 9 11q26 0 26 -13q0 -55 -25 -87t-64 -32z" />
    <glyph glyph-name="Umacron" unicode="&#x16a;" horiz-adv-x="753" 
d="M83 241v455q0 10 9 10h84q9 0 9 -10v-442q0 -84 50.5 -131t140.5 -47q94 0 144.5 43.5t50.5 129.5v447q0 10 9 10h81q9 0 9 -10v-458q0 -114 -81.5 -182.5t-213.5 -68.5q-131 0 -211.5 69.5t-80.5 184.5zM501 844v-49q0 -7 -6 -7h-237q-6 0 -6 7v49q0 8 6 8h237q6 0 6 -8
z" />
    <glyph glyph-name="umacron" unicode="&#x16b;" horiz-adv-x="571" 
d="M416 105q-21 -53 -72 -85.5t-120 -32.5q-68 0 -111.5 41t-43.5 115v330q0 3 3 6t6 3h73q9 0 9 -9v-309q0 -104 99 -104q60 0 102.5 40.5t42.5 109.5v263q0 3 3 6t6 3h73q9 0 9 -9v-384q0 -23 2 -41.5t4 -27.5t2 -11q0 -9 -8 -9h-64q-7 0 -9 9q-6 42 -6 96zM409 635v-51
q0 -7 -6 -7h-234q-6 0 -6 7v51q0 8 6 8h234q6 0 6 -8z" />
    <glyph glyph-name="Ubreve" unicode="&#x16c;" horiz-adv-x="753" 
d="M83 241v455q0 10 9 10h84q9 0 9 -10v-442q0 -84 50.5 -131t140.5 -47q94 0 144.5 43.5t50.5 129.5v447q0 10 9 10h81q9 0 9 -10v-458q0 -114 -81.5 -182.5t-213.5 -68.5q-131 0 -211.5 69.5t-80.5 184.5zM487 897q5 0 5 -5q-1 -64 -32 -98t-84 -34q-52 0 -83.5 33.5
t-32.5 98.5q0 5 6 5h45q5 0 5 -6q1 -70 61 -70q31 0 45 15t15 55q0 6 6 6h44z" />
    <glyph glyph-name="ubreve" unicode="&#x16d;" horiz-adv-x="571" 
d="M416 105q-21 -53 -72 -85.5t-120 -32.5q-68 0 -111.5 41t-43.5 115v330q0 3 3 6t6 3h73q9 0 9 -9v-309q0 -104 99 -104q60 0 102.5 40.5t42.5 109.5v263q0 3 3 6t6 3h73q9 0 9 -9v-384q0 -23 2 -41.5t4 -27.5t2 -11q0 -9 -8 -9h-64q-7 0 -9 9q-6 42 -6 96zM396 682
q6 0 6 -5q-1 -65 -32.5 -100t-83.5 -35q-51 0 -83 35t-33 100q0 5 6 5h44q5 0 5 -6q1 -73 61 -73q30 0 45 16.5t16 56.5q0 6 5 6h44z" />
    <glyph glyph-name="Uring" unicode="&#x16e;" horiz-adv-x="753" 
d="M83 241v455q0 10 9 10h84q9 0 9 -10v-442q0 -84 50.5 -131t140.5 -47q94 0 144.5 43.5t50.5 129.5v447q0 10 9 10h81q9 0 9 -10v-458q0 -114 -81.5 -182.5t-213.5 -68.5q-131 0 -211.5 69.5t-80.5 184.5zM376 732q-50 0 -82.5 27t-32.5 70q0 42 32.5 69.5t82.5 27.5
t82.5 -27.5t32.5 -69.5q0 -43 -32.5 -70t-82.5 -27zM376 883q-61 0 -61 -56q0 -27 17.5 -42t43.5 -15q60 0 60 57q0 56 -60 56z" />
    <glyph glyph-name="uring" unicode="&#x16f;" horiz-adv-x="571" 
d="M416 105q-21 -53 -72 -85.5t-120 -32.5q-68 0 -111.5 41t-43.5 115v330q0 3 3 6t6 3h73q9 0 9 -9v-309q0 -104 99 -104q60 0 102.5 40.5t42.5 109.5v263q0 3 3 6t6 3h73q9 0 9 -9v-384q0 -23 2 -41.5t4 -27.5t2 -11q0 -9 -8 -9h-64q-7 0 -9 9q-6 42 -6 96zM286 728
q46 0 79 -29t33 -73t-32.5 -72.5t-79.5 -28.5q-46 0 -78.5 29t-32.5 72q0 44 32.5 73t78.5 29zM286 684q-25 0 -40 -16.5t-15 -42.5q0 -25 15.5 -42.5t39.5 -17.5q25 0 40.5 17.5t15.5 42.5q0 26 -15.5 42.5t-40.5 16.5z" />
    <glyph glyph-name="Uhungarumlaut" unicode="&#x170;" horiz-adv-x="753" 
d="M83 241v455q0 10 9 10h84q9 0 9 -10v-442q0 -84 50.5 -131t140.5 -47q94 0 144.5 43.5t50.5 129.5v447q0 10 9 10h81q9 0 9 -10v-458q0 -114 -81.5 -182.5t-213.5 -68.5q-131 0 -211.5 69.5t-80.5 184.5zM433 901l-140 -139q-9 -9 -14 -9h-34q-4 0 -5 3t1 6l109 140
q8 10 14 10h67q3 0 4 -4t-2 -7zM592 901l-140 -139q-9 -9 -14 -9h-35q-4 0 -5 3t1 6l110 140q7 10 14 10h67q3 0 4 -4t-2 -7z" />
    <glyph glyph-name="uhungarumlaut" unicode="&#x171;" horiz-adv-x="571" 
d="M416 105q-21 -53 -72 -85.5t-120 -32.5q-68 0 -111.5 41t-43.5 115v330q0 3 3 6t6 3h73q9 0 9 -9v-309q0 -104 99 -104q60 0 102.5 40.5t42.5 109.5v263q0 3 3 6t6 3h73q9 0 9 -9v-384q0 -23 2 -41.5t4 -27.5t2 -11q0 -9 -8 -9h-64q-7 0 -9 9q-6 42 -6 96zM335 695
l-117 -143q-7 -9 -13 -9h-34q-8 0 -3 9l92 144q8 10 12 10h61q2 0 3 -4t-1 -7zM468 695l-119 -143q-7 -9 -13 -9h-32q-4 0 -5.5 2.5t1.5 6.5l92 144q8 10 13 10h60q3 0 4 -4t-1 -7z" />
    <glyph glyph-name="Uogonek" unicode="&#x172;" horiz-adv-x="753" 
d="M83 241v455q0 10 9 10h84q9 0 9 -10v-442q0 -84 50.5 -131t140.5 -47q94 0 144.5 43.5t50.5 129.5v447q0 10 9 10h81q9 0 9 -10v-458q0 -106 -72 -173.5t-191 -76.5q-67 -37 -67 -94q0 -28 16 -46t49 -18q25 0 50 8q7 3 7 -5v-37q0 -6 -6 -7q-39 -10 -74 -10
q-51 0 -80 28.5t-29 67.5q0 72 84 112q-124 5 -199 74t-75 180z" />
    <glyph glyph-name="uogonek" unicode="&#x173;" horiz-adv-x="571" 
d="M416 105q-21 -53 -72 -85.5t-120 -32.5q-68 0 -111.5 41t-43.5 115v330q0 3 3 6t6 3h73q9 0 9 -9v-309q0 -104 99 -104q60 0 102.5 40.5t42.5 109.5v263q0 3 3 6t6 3h73q9 0 9 -9v-384q0 -23 2 -41.5t4 -27.5t2 -11q0 -9 -8 -9h-11q-46 -17 -70 -46t-24 -60q0 -28 16 -46
t49 -18q25 0 50 8q7 3 7 -5v-37q0 -6 -6 -7q-39 -10 -74 -10q-51 0 -80 28.5t-29 67.5q0 41 30.5 74t86.5 51h-9q-7 0 -9 9q-6 42 -6 96z" />
    <glyph glyph-name="Wcircumflex" unicode="&#x174;" horiz-adv-x="1009" 
d="M506 596q-17 -99 -38 -166l-130 -421q-2 -9 -9 -9h-92q-8 0 -10 9l-221 681q-6 16 8 16h88q7 0 11 -10l132 -417q27 -86 45 -191q16 95 45 189l126 420q3 9 11 9h74q10 0 11 -9l125 -408q31 -102 48 -201q11 65 53 213l124 395q2 10 11 10h78q12 0 8 -16l-222 -681
q-2 -9 -9 -9h-88q-8 0 -10 9l-131 424q-20 65 -38 163zM503 854l-97 -92q-10 -9 -16 -9h-38q-3 0 -4.5 1.5t-1.5 3.5t2 4l122 141q9 9 15 9h42q9 0 16 -9l120 -141q1 -3 -0.5 -6t-4.5 -3h-42q-6 0 -16 9z" />
    <glyph glyph-name="wcircumflex" unicode="&#x175;" horiz-adv-x="759" 
d="M349 482h70q9 0 12 -10l78 -253q26 -82 37 -146q13 68 36 143l79 256q3 10 11 10h71q11 0 5 -13l-158 -466q-4 -9 -10 -9h-76q-6 0 -9 9l-85 270q-18 59 -29 127q-9 -59 -31 -129l-86 -268q-3 -9 -9 -9h-77q-8 0 -9 9l-159 466q-4 13 6 13h77q8 0 11 -10l80 -255
q25 -77 37 -144q12 68 36 142l81 257q3 10 11 10zM376 647l-86 -95q-9 -9 -16 -9h-40q-8 0 -3 9l109 144q8 10 15 10h49q7 0 15 -10l109 -144q1 -3 -0.5 -6t-4.5 -3h-43q-7 0 -16 9z" />
    <glyph glyph-name="Ycircumflex" unicode="&#x176;" horiz-adv-x="678" 
d="M387 308v-299q0 -3 -3 -6t-6 -3h-83q-9 0 -9 9v299l-286 382q-12 16 5 16h93q12 0 17 -11l163 -217q40 -53 61 -101q26 50 63 100l164 218q7 11 21 11h84q17 0 5 -16zM336 854l-97 -92q-10 -9 -16 -9h-38q-3 0 -4.5 1.5t-1.5 3.5t2 4l122 141q9 9 15 9h42q8 0 16 -9
l120 -141q1 -3 -0.5 -6t-4.5 -3h-42q-5 0 -16 9z" />
    <glyph glyph-name="ycircumflex" unicode="&#x177;" horiz-adv-x="474" 
d="M62 -214q-34 0 -52 8q-6 3 -6 15v56q0 10 8 10q4 0 8 -3q17 -10 38 -10q86 0 136 135l-189 471q-6 14 6 14h77q10 0 13 -10l94 -260q36 -112 45 -144q20 77 44 143l96 261q3 10 13 10h70q12 0 7 -13l-190 -483q-43 -108 -96 -154t-122 -46zM234 647l-86 -95q-9 -9 -16 -9
h-40q-8 0 -3 9l109 144q8 10 15 10h49q7 0 15 -10l109 -144q1 -3 -0.5 -6t-4.5 -3h-43q-7 0 -16 9z" />
    <glyph glyph-name="Ydieresis" unicode="&#x178;" horiz-adv-x="678" 
d="M387 308v-299q0 -3 -3 -6t-6 -3h-83q-9 0 -9 9v299l-286 382q-12 16 5 16h93q12 0 17 -11l163 -217q40 -53 61 -101q26 50 63 100l164 218q7 11 21 11h84q17 0 5 -16zM241 860q21 0 36 -15t15 -36q0 -20 -15 -35t-36 -15t-36 15t-15 35q0 21 15 36t36 15zM435 860
q21 0 36 -15t15 -36q0 -20 -15 -35t-36 -15q-20 0 -35.5 15t-15.5 35q0 21 15.5 36t35.5 15z" />
    <glyph glyph-name="Zacute" unicode="&#x179;" horiz-adv-x="669" 
d="M619 679l-323 -459q-66 -92 -112 -147q91 4 215 4q32 0 103.5 1t103.5 1q9 0 8 -10l-8 -61q-2 -8 -9 -8h-541q-4 0 -8 6t-4 13q0 6 4 11l331 465q69 97 105 134q-101 -3 -202 -3q-32 0 -100 -1t-99 -1q-10 0 -8 8l8 65q1 9 8 9h518q13 0 13 -15q0 -6 -3 -12zM487 901
l-160 -140q-8 -8 -15 -8h-40q-4 0 -5.5 3t0.5 6l126 140q7 10 15 10h76q4 0 5 -4t-2 -7z" />
    <glyph glyph-name="zacute" unicode="&#x17a;" horiz-adv-x="459" 
d="M425 69q6 0 8.5 -2.5t1.5 -6.5l-6 -52q-1 -8 -11 -8h-376q-16 0 -16 20q0 10 7 18l227 298q38 50 64 80q-46 -2 -137 -2q-26 0 -70 -1t-65 -1q-5 0 -7.5 2t-1.5 6l6 53q1 9 9 9h371q16 0 16 -21q0 -7 -5 -14l-224 -296q-45 -59 -69 -86q33 2 147 2q23 0 67.5 1t63.5 1z
M379 695l-143 -142q-12 -10 -20 -10h-37q-5 0 -7 3.5t2 7.5l112 142q8 10 16 10h75q3 0 4 -4t-2 -7z" />
    <glyph glyph-name="Zdotaccent" unicode="&#x17b;" horiz-adv-x="669" 
d="M619 679l-323 -459q-66 -92 -112 -147q91 4 215 4q32 0 103.5 1t103.5 1q9 0 8 -10l-8 -61q-2 -8 -9 -8h-541q-4 0 -8 6t-4 13q0 6 4 11l331 465q69 97 105 134q-101 -3 -202 -3q-32 0 -100 -1t-99 -1q-10 0 -8 8l8 65q1 9 8 9h518q13 0 13 -15q0 -6 -3 -12zM345 860
q22 0 38 -16t16 -38t-16 -37t-38 -15q-23 0 -38.5 15t-15.5 37t15.5 38t38.5 16z" />
    <glyph glyph-name="zdotaccent" unicode="&#x17c;" horiz-adv-x="459" 
d="M425 69q6 0 8.5 -2.5t1.5 -6.5l-6 -52q-1 -8 -11 -8h-376q-16 0 -16 20q0 10 7 18l227 298q38 50 64 80q-46 -2 -137 -2q-26 0 -70 -1t-65 -1q-5 0 -7.5 2t-1.5 6l6 53q1 9 9 9h371q16 0 16 -21q0 -7 -5 -14l-224 -296q-45 -59 -69 -86q33 2 147 2q23 0 67.5 1t63.5 1z
M242 661q22 0 37 -15t15 -37t-15 -37.5t-37 -15.5t-37.5 15.5t-15.5 37.5t15.5 37t37.5 15z" />
    <glyph glyph-name="Zcaron" unicode="&#x17d;" horiz-adv-x="669" 
d="M619 679l-323 -459q-66 -92 -112 -147q91 4 215 4q32 0 103.5 1t103.5 1q9 0 8 -10l-8 -61q-2 -8 -9 -8h-541q-4 0 -8 6t-4 13q0 6 4 11l331 465q69 97 105 134q-101 -3 -202 -3q-32 0 -100 -1t-99 -1q-10 0 -8 8l8 65q1 9 8 9h518q13 0 13 -15q0 -6 -3 -12zM347 811
l97 92q9 9 15 9h39q4 0 5 -3t-2 -6l-121 -141q-9 -9 -16 -9h-42q-8 0 -16 9l-119 141q-2 3 -0.5 6t5.5 3h42q6 0 15 -9z" />
    <glyph glyph-name="zcaron" unicode="&#x17e;" horiz-adv-x="459" 
d="M425 69q6 0 8.5 -2.5t1.5 -6.5l-6 -52q-1 -8 -11 -8h-376q-16 0 -16 20q0 10 7 18l227 298q38 50 64 80q-46 -2 -137 -2q-26 0 -70 -1t-65 -1q-5 0 -7.5 2t-1.5 6l6 53q1 9 9 9h371q16 0 16 -21q0 -7 -5 -14l-224 -296q-45 -59 -69 -86q33 2 147 2q23 0 67.5 1t63.5 1z
M257 602l86 95q9 9 15 9h40q3 0 4.5 -3t-0.5 -6l-109 -144q-10 -10 -15 -10h-49q-7 0 -15 10l-109 144q-2 3 -0.5 6t4.5 3h43q8 0 17 -9z" />
    <glyph glyph-name="longs" unicode="&#x17f;" horiz-adv-x="264" 
d="M180 541v-532q0 -3 -3 -6t-6 -3h-71q-9 0 -9 9v296q0 57 4 111q-30 -3 -65 -3q-6 0 -6 8v52q0 9 6 9q40 0 65 -4q-4 40 -4 77q0 73 47 116.5t141 43.5q14 0 14 -14v-54q0 -11 -11 -11q-58 0 -80 -20.5t-22 -74.5z" />
    <glyph glyph-name="florin" unicode="&#x192;" horiz-adv-x="309" 
d="M179 544q0 -95 -4 -168q56 3 111 3q7 0 7 -9v-52q0 -8 -7 -8q-39 0 -109 4q4 -58 4 -111v-194q0 -3 -3 -6t-6 -3h-73q-9 0 -9 9v194q0 55 4 111q-40 -4 -64 -4q-6 0 -6 8v52q0 9 6 9q36 0 64 -3q-4 106 -4 179t47 116.5t142 43.5q14 0 14 -14v-54q0 -11 -11 -11
q-60 0 -81.5 -20t-21.5 -72z" />
    <glyph glyph-name="Scommaaccent" unicode="&#x218;" horiz-adv-x="559" 
d="M271 64q67 0 106 31.5t39 81.5q0 53 -34 79.5t-119 61.5q-12 4 -18 7q-84 33 -131.5 79.5t-47.5 124.5q0 82 63 141t172 59q103 0 176 -49q10 -8 10 -25v-68q0 -14 -12 -14q-7 0 -13 6q-70 69 -168 69q-59 0 -93 -31.5t-34 -78.5q0 -22 9 -41t20 -30.5t35.5 -25t39 -20
t47.5 -19.5q104 -39 151.5 -87.5t47.5 -126.5q0 -93 -68 -147.5t-174 -54.5q-70 0 -114.5 14t-93.5 49q-10 10 -10 23v55q0 16 10 16q6 0 13 -7q89 -72 191 -72zM340 -73l-72 -127q-7 -10 -13 -10h-44q-10 0 -8 10l37 129q4 10 11 10h81q5 0 7.5 -4t0.5 -8z" />
    <glyph glyph-name="scommaaccent" unicode="&#x219;" horiz-adv-x="426" 
d="M200 -13q-85 0 -141 40q-8 7 -8 17v46q0 13 7 13q8 0 14 -6q53 -43 127 -43q46 0 72 20t26 50q0 9 -1.5 16t-5.5 13l-7.5 11t-11.5 9.5l-13 7.5t-16.5 7.5t-17.5 6.5t-21 7.5t-22 7.5q-59 20 -94 53t-35 94q0 59 49 100.5t129 41.5q82 0 126 -37q17 -14 17 -34
q0 -18 -10.5 -30t-23.5 -12q-14 0 -28 11q-39 32 -86 32q-41 0 -63 -20t-22 -49q0 -8 1 -15t5 -13.5l6.5 -10.5t10 -9t10.5 -7.5t14 -7t14 -5.5t17 -6t17 -6q79 -28 114.5 -59.5t35.5 -90.5q0 -64 -51.5 -103.5t-133.5 -39.5zM279 -73l-72 -127q-7 -10 -13 -10h-44
q-10 0 -8 10l37 129q4 10 11 10h81q5 0 7.5 -4t0.5 -8z" />
    <glyph glyph-name="circumflex" unicode="&#x2c6;" horiz-adv-x="459" 
d="M227 647l-86 -95q-9 -9 -16 -9h-40q-8 0 -3 9l109 144q8 10 15 10h49q7 0 15 -10l109 -144q1 -3 -0.5 -6t-4.5 -3h-43q-7 0 -16 9z" />
    <glyph glyph-name="caron" unicode="&#x2c7;" horiz-adv-x="459" 
d="M233 602l86 95q9 9 15 9h40q3 0 4.5 -3t-0.5 -6l-109 -144q-10 -10 -15 -10h-49q-7 0 -15 10l-109 144q-2 3 -0.5 6t4.5 3h43q8 0 17 -9z" />
    <glyph glyph-name="breve" unicode="&#x2d8;" horiz-adv-x="392" 
d="M306 682q6 0 6 -5q-1 -65 -32.5 -100t-83.5 -35q-51 0 -83 35t-33 100q0 5 6 5h44q5 0 5 -6q1 -73 61 -73q30 0 45 16.5t16 56.5q0 6 5 6h44z" />
    <glyph glyph-name="dotaccent" unicode="&#x2d9;" horiz-adv-x="265" 
d="M133 661q22 0 37 -15t15 -37t-15 -37.5t-37 -15.5t-37.5 15.5t-15.5 37.5t15.5 37t37.5 15z" />
    <glyph glyph-name="ring" unicode="&#x2da;" horiz-adv-x="381" 
d="M190 728q46 0 79 -29t33 -73t-32.5 -72.5t-79.5 -28.5q-46 0 -78.5 29t-32.5 72q0 44 32.5 73t78.5 29zM190 684q-25 0 -40 -16.5t-15 -42.5q0 -25 15.5 -42.5t39.5 -17.5q25 0 40.5 17.5t15.5 42.5q0 26 -15.5 42.5t-40.5 16.5z" />
    <glyph glyph-name="ogonek" unicode="&#x2db;" horiz-adv-x="349" 
d="M241 0q-46 -17 -70 -46t-24 -60q0 -28 16 -46t49 -18q25 0 50 8q7 3 7 -5v-37q0 -6 -6 -7q-39 -10 -74 -10q-51 0 -80 28.5t-29 67.5q0 41 30.5 74t86.5 51h44z" />
    <glyph glyph-name="tilde" unicode="&#x2dc;" horiz-adv-x="473" 
d="M304 554q-28 0 -74 36.5t-68 36.5q-20 0 -32.5 -15.5t-12.5 -36.5q0 -13 -12 -13q-25 0 -25 13q0 55 27.5 85t68.5 30q24 0 45.5 -10t34 -22.5t28.5 -22.5t31 -10q17 0 30 12.5t13 37.5q0 11 9 11q26 0 26 -13q0 -55 -25 -87t-64 -32z" />
    <glyph glyph-name="hungarumlaut" unicode="&#x2dd;" horiz-adv-x="459" 
d="M255 695l-117 -143q-7 -9 -13 -9h-34q-8 0 -3 9l92 144q8 10 12 10h61q2 0 3 -4t-1 -7zM388 695l-119 -143q-7 -9 -13 -9h-32q-4 0 -5.5 2.5t1.5 6.5l92 144q8 10 13 10h60q3 0 4 -4t-1 -7z" />
    <glyph glyph-name="Delta" unicode="&#x394;" horiz-adv-x="678" 
d="M-6 0l345 763l346 -763h-691zM339 601l-243 -538h487z" />
    <glyph glyph-name="Delta" unicode="&#x2206;" horiz-adv-x="678" 
d="M-6 0l345 763l346 -763h-691zM339 601l-243 -538h487z" />
    <glyph glyph-name="Omega" unicode="&#x3a9;" horiz-adv-x="827" 
d="M560 165q2 -16 2 -48q0 -33 -2 -49q46 3 152 3q7 0 7 -9l-6 -54q0 -8 -7 -8h-225q-8 0 -8 9v195q86 22 128 74.5t42 152.5q0 101 -60.5 161t-173.5 60q-109 0 -168 -64.5t-59 -167.5q0 -84 41.5 -140t120.5 -76v-193q0 -11 -9 -11h-225q-7 0 -7 8l-4 54q0 9 6 9
q107 0 154 -3q-3 48 -3 50q0 5 3 47q-181 75 -181 255q0 127 88 218t242 91q161 0 250 -86.5t89 -215.5q0 -187 -187 -262z" />
    <glyph glyph-name="Omega" unicode="&#x2126;" horiz-adv-x="827" 
d="M560 165q2 -16 2 -48q0 -33 -2 -49q46 3 152 3q7 0 7 -9l-6 -54q0 -8 -7 -8h-225q-8 0 -8 9v195q86 22 128 74.5t42 152.5q0 101 -60.5 161t-173.5 60q-109 0 -168 -64.5t-59 -167.5q0 -84 41.5 -140t120.5 -76v-193q0 -11 -9 -11h-225q-7 0 -7 8l-4 54q0 9 6 9
q107 0 154 -3q-3 48 -3 50q0 5 3 47q-181 75 -181 255q0 127 88 218t242 91q161 0 250 -86.5t89 -215.5q0 -187 -187 -262z" />
    <glyph glyph-name="pi" unicode="&#x3c0;" horiz-adv-x="625" 
d="M114 446q-45 -10 -70 -73l-26 17q17 64 57 101t101 37q60 0 157 -41.5t140 -41.5q41 0 61.5 16t34.5 58l30 -15q-16 -95 -85 -124q3 -38 3 -113v-258q0 -3 -3 -6t-6 -3h-71q-9 0 -9 9v265q0 57 4 100q-57 -1 -134.5 33t-101.5 36q3 -34 3 -98v-336q0 -3 -3 -6t-6 -3h-70
q-9 0 -9 9v334q0 70 3 103z" />
    <glyph glyph-name="afii10023" unicode="&#x401;" horiz-adv-x="568" 
d="M350 77q33 0 98.5 1t95.5 1q7 0 7 -9l-8 -62q-2 -8 -7 -8h-435q-9 0 -9 9v687q0 10 9 10h420q7 0 8 -9l7 -62q0 -8 -7 -8q-30 0 -109.5 1t-108.5 1q-70 0 -121 3q3 -59 3 -113q0 -57 -3 -115q41 4 116 4q29 0 66 0.5t46 0.5q7 0 7 -9v-60q0 -8 -7 -8q-9 0 -47 0.5
t-67 0.5q-59 0 -114 5q3 -66 3 -127q0 -69 -3 -137q47 3 160 3zM226 860q21 0 36 -15t15 -36q0 -20 -15 -35t-36 -15q-20 0 -35.5 15t-15.5 35q0 21 15.5 36t35.5 15zM420 860q21 0 36 -15t15 -36q0 -20 -15 -35t-36 -15q-20 0 -35.5 15t-15.5 35q0 21 15.5 36t35.5 15z" />
    <glyph glyph-name="afii10051" unicode="&#x402;" horiz-adv-x="752" 
d="M13 706h592q7 0 7 -8v-68q0 -7 -7 -7q-19 0 -59 1t-59 1q-68 0 -134 3q3 -56 3 -111v-124q54 95 172 95q91 0 132 -56.5t41 -168.5q0 -180 -97 -420q-4 -9 -12 -9h-80q-6 0 -6 9q94 208 94 400q0 85 -22.5 127t-79.5 42t-99.5 -39.5t-42.5 -102.5v-261q0 -3 -3 -6t-6 -3
h-83q-9 0 -9 9v510q0 57 3 109q-60 -3 -121 -3q-23 0 -66.5 -1t-66.5 -1q-7 0 -7 8l9 66q2 9 7 9z" />
    <glyph glyph-name="afii10052" unicode="&#x403;" horiz-adv-x="550" 
d="M490 901l-160 -140q-8 -8 -15 -8h-40q-4 0 -5.5 3t0.5 6l126 140q8 10 15 10h76q4 0 5 -4t-2 -7zM101 706h429q6 0 8 -8l9 -66q2 -7 -7 -7q-20 0 -91.5 1t-110.5 1q-110 0 -148 2q3 -53 3 -112v-508q0 -3 -3 -6t-6 -3h-83q-9 0 -9 9v687q0 10 9 10z" />
    <glyph glyph-name="afii10053" unicode="&#x404;" horiz-adv-x="667" 
d="M430 729q121 0 198 -54q11 -9 11 -26v-64q0 -16 -13 -16q-5 0 -13 6q-73 70 -183 70q-115 0 -182.5 -66t-78.5 -179q80 2 151 2q36 0 105 0.5t72 0.5q7 0 7 -9v-59q0 -8 -7 -8q-4 0 -74.5 0.5t-104.5 0.5q-109 0 -150 2q7 -121 77 -192t178 -71q114 0 192 64q8 5 12 5
q12 0 12 -14v-50q0 -14 -11 -22q-85 -63 -224 -63q-152 0 -248.5 101.5t-96.5 261.5q0 161 101.5 270t269.5 109z" />
    <glyph glyph-name="afii10054" unicode="&#x405;" horiz-adv-x="559" 
d="M271 64q67 0 106 31.5t39 81.5q0 53 -34 79.5t-119 61.5q-12 4 -18 7q-84 33 -131.5 79.5t-47.5 124.5q0 82 63 141t172 59q103 0 176 -49q10 -8 10 -25v-68q0 -14 -12 -14q-7 0 -13 6q-70 69 -168 69q-59 0 -93 -31.5t-34 -78.5q0 -22 9 -41t20 -30.5t35.5 -25t39 -20
t47.5 -19.5q104 -39 151.5 -87.5t47.5 -126.5q0 -93 -68 -147.5t-174 -54.5q-70 0 -114.5 14t-93.5 49q-10 10 -10 23v55q0 16 10 16q6 0 13 -7q89 -72 191 -72z" />
    <glyph glyph-name="afii10055" unicode="&#x406;" horiz-adv-x="285" 
d="M193 696v-687q0 -3 -3 -6t-6 -3h-83q-9 0 -9 9v687q0 10 9 10h83q9 0 9 -10z" />
    <glyph glyph-name="afii10056" unicode="&#x407;" horiz-adv-x="285" 
d="M193 696v-687q0 -3 -3 -6t-6 -3h-83q-9 0 -9 9v687q0 10 9 10h83q9 0 9 -10zM45 860q22 0 37 -15t15 -36q0 -20 -15 -35t-37 -15q-20 0 -35 15t-15 35q0 21 15 36t35 15zM239 860q21 0 36 -15t15 -36q0 -20 -15 -35t-36 -15q-20 0 -35.5 15t-15.5 35q0 21 15.5 36
t35.5 15z" />
    <glyph glyph-name="afii10057" unicode="&#x408;" horiz-adv-x="296" 
d="M103 -59v755q0 10 9 10h83q9 0 9 -10v-752q2 -81 -43.5 -120.5t-118.5 -39.5q-46 0 -76 14q-9 5 -9 17v58q0 10 9 10q4 0 11 -3q19 -12 51 -12q34 0 54.5 18t20.5 55z" />
    <glyph glyph-name="afii10058" unicode="&#x409;" horiz-adv-x="1096" 
d="M221 706h422q9 0 9 -10v-134q0 -81 -4 -133q64 4 154 4q117 0 180.5 -55t63.5 -156t-63.5 -161.5t-177.5 -60.5h-246q-9 0 -9 10v437q0 100 4 179q-43 -3 -128 -3q-73 0 -121 3q0 -198 -26 -339t-82 -220.5t-140 -79.5q-31 0 -50 8q-7 3 -7 10v80q0 6 5 6q3 0 8 -3
q18 -10 46 -10q69 0 111 170t42 449q0 9 9 9zM649 362q3 -68 3 -138q0 -82 -3 -153q50 2 147 2q144 0 144 154q0 65 -38.5 98.5t-107.5 33.5q-90 0 -145 3z" />
    <glyph glyph-name="afii10059" unicode="&#x40a;" horiz-adv-x="1060" 
d="M101 706h83q9 0 9 -10v-152q0 -65 -3 -125q46 3 101 3h125q55 0 101 -3q-3 60 -3 125v152q0 10 9 10h83q9 0 9 -10v-134q0 -74 -3 -133q62 4 153 4q117 0 181 -55t64 -156t-63.5 -161.5t-177.5 -60.5h-246q-9 0 -9 10v190q0 72 3 141q-40 -2 -99 -2h-129q-59 0 -99 2
q3 -69 3 -141v-191q0 -3 -3 -6t-6 -3h-83q-9 0 -9 9v687q0 10 9 10zM612 362q3 -45 3 -138q0 -82 -3 -153q51 2 148 2q144 0 144 154q0 65 -38.5 98.5t-107.5 33.5q-89 0 -146 3z" />
    <glyph glyph-name="afii10060" unicode="&#x40b;" horiz-adv-x="782" 
d="M605 706q7 0 7 -8v-68q0 -7 -7 -7q-19 0 -59 1t-59 1q-68 0 -134 3q3 -56 3 -111v-126q25 43 73 70t109 27q73 0 119 -41.5t46 -116.5v-321q0 -3 -3 -6t-6 -3h-83q-9 0 -9 9v300q0 102 -100 102q-58 0 -102 -40.5t-44 -106.5v-255q0 -3 -3 -6t-6 -3h-83q-9 0 -9 9v510
q0 57 3 109q-60 -3 -121 -3q-23 0 -66.5 -1t-66.5 -1q-9 0 -7 8l9 66q2 9 7 9h592z" />
    <glyph glyph-name="afii10061" unicode="&#x40c;" horiz-adv-x="684" 
d="M517 901l-160 -140q-8 -8 -15 -8h-40q-4 0 -5.5 3t0.5 6l126 140q7 10 15 10h76q4 0 5 -4t-2 -7zM101 706h83q9 0 9 -10v-164q0 -85 -3 -124h45q39 0 135 136q73 104 127 154q10 8 17 8h100q8 0 8 -10q0 -8 -6 -11q-50 -26 -155 -164q-92 -117 -137 -136q65 -2 110.5 -47
t87.5 -129q78 -155 133 -180q9 -5 9 -14q0 -15 -9 -15h-106q-12 0 -20 8q-41 41 -100 167q-42 93 -86.5 129.5t-106.5 36.5h-47q4 -55 4 -138v-194q0 -3 -3 -6t-6 -3h-83q-9 0 -9 9v687q0 10 9 10z" />
    <glyph glyph-name="afii10062" unicode="&#x40e;" horiz-adv-x="599" 
d="M431 894q5 0 5 -5q-1 -62 -35.5 -93.5t-89.5 -31.5q-54 0 -89 31t-36 95q0 4 6 4h57q6 0 6 -6q1 -75 57 -75q30 0 43 17t14 58q0 6 5 6h57zM9 706h88q9 0 14 -9l140 -276q40 -81 64 -148q16 52 58 145l123 279q3 9 14 9h81q11 0 5 -14l-231 -500q-53 -115 -110.5 -160
t-137.5 -45q-38 0 -56 8q-6 3 -6 15v69q0 11 7 11l9 -3q16 -11 41 -11q43 0 77 28t69 104l-255 484q-8 14 6 14z" />
    <glyph glyph-name="afii10145" unicode="&#x40f;" horiz-adv-x="762" 
d="M101 706h81q9 0 9 -9v-425q0 -139 -3 -192q48 3 196 3q134 0 187 -3q-3 79 -3 192v425q0 9 9 9h82q3 0 6 -3t3 -6v-688q0 -3 -3 -6t-6 -3h-230l-13 -148q0 -9 -8 -9h-52q-8 0 -8 9l-13 148h-234q-9 0 -9 9v688q0 9 9 9z" />
    <glyph glyph-name="c0c" unicode="&#x410;" horiz-adv-x="631" 
d="M371 428q-42 118 -59 197q-20 -85 -59 -193q-36 -101 -52 -138q56 3 113 3q75 0 108 -2q-23 55 -51 133zM445 230q-64 -3 -133 -3q-68 0 -133 3q-26 -89 -78 -220q-4 -10 -11 -10h-79q-15 0 -9 16l257 681q2 9 10 9h91q8 0 12 -9l257 -681q6 -16 -9 -16h-86q-8 0 -12 10
q-60 160 -77 220z" />
    <glyph glyph-name="c0d" unicode="&#x411;" horiz-adv-x="644" 
d="M346 75q143 0 143 124q0 65 -44.5 101.5t-136.5 36.5q-62 0 -118 3q3 -64 3 -132q0 -67 -3 -136q75 3 156 3zM101 706h412q6 0 8 -8l9 -66q2 -7 -7 -7q-13 0 -81.5 2t-100.5 2q-102 0 -151 4q3 -58 3 -113q0 -62 -3 -117q44 3 135 3q138 0 203.5 -57t65.5 -154
q0 -89 -62 -142t-171 -53h-260q-9 0 -9 9v687q0 10 9 10z" />
    <glyph glyph-name="c0e" unicode="&#x412;" horiz-adv-x="644" 
d="M361 0h-260q-9 0 -9 9v687q0 10 9 10h214q124 0 177.5 -49t53.5 -117q0 -60 -44 -102t-108 -57q80 -6 140 -59.5t60 -134.5q0 -86 -62 -136.5t-171 -50.5zM346 75q143 0 143 124q0 65 -44.5 101.5t-136.5 36.5q-62 0 -118 3q3 -64 3 -132q0 -67 -3 -136q75 3 156 3z
M441 520q0 112 -141 112q-76 0 -110 2q3 -58 3 -114q0 -62 -3 -117q44 3 91 3q81 0 120.5 31t39.5 83z" />
    <glyph glyph-name="afii10020" unicode="&#x413;" horiz-adv-x="550" 
d="M101 706h429q6 0 8 -8l9 -66q2 -7 -7 -7q-20 0 -91.5 1t-110.5 1q-110 0 -148 2q3 -53 3 -112v-508q0 -3 -3 -6t-6 -3h-83q-9 0 -9 9v687q0 10 9 10z" />
    <glyph glyph-name="afii10021" unicode="&#x414;" horiz-adv-x="768" 
d="M298 626q0 -126 -28 -289t-64 -255h350v365q0 100 4 179q-39 -3 -126 -3q-91 0 -136 3zM217 706h432q9 0 9 -9v-615h91q8 0 8 -8l-25 -248q-1 -12 -12 -12h-55q-9 0 -9 12l7 174h-534l8 -174q0 -12 -9 -12h-57q-11 0 -12 12l-27 248q0 8 8 8h76q40 97 66 277t26 338
q0 9 9 9z" />
    <glyph glyph-name="afii10022" unicode="&#x415;" horiz-adv-x="568" 
d="M350 77q33 0 98.5 1t95.5 1q7 0 7 -9l-8 -62q-2 -8 -7 -8h-435q-9 0 -9 9v687q0 10 9 10h420q7 0 8 -9l7 -62q0 -8 -7 -8q-30 0 -109.5 1t-108.5 1q-70 0 -121 3q3 -59 3 -113q0 -57 -3 -115q41 4 116 4q29 0 66 0.5t46 0.5q7 0 7 -9v-60q0 -8 -7 -8q-9 0 -47 0.5
t-67 0.5q-59 0 -114 5q3 -66 3 -127q0 -69 -3 -137q47 3 160 3z" />
    <glyph glyph-name="afii10024" unicode="&#x416;" horiz-adv-x="1026" 
d="M471 706h84q9 0 9 -10v-164q0 -66 -3 -124h30q38 0 131 136q77 109 124 154q8 8 17 8h94q9 0 9 -10q0 -7 -6 -11q-52 -28 -150 -164q-88 -116 -133 -136q65 -2 109 -47t84 -129q75 -155 127 -180q9 -5 9 -14q0 -15 -9 -15h-101q-9 0 -19 8q-41 44 -96 167
q-42 93 -85 129.5t-103 36.5h-33q4 -55 4 -138v-194q0 -3 -3 -6t-6 -3h-84q-3 0 -6 3t-3 6v194q0 83 4 138h-33q-60 0 -103 -36.5t-85 -129.5q-55 -123 -96 -167q-10 -8 -20 -8h-100q-9 0 -9 15q0 9 9 14q52 25 127 180q40 84 84 129t109 47q-45 20 -133 136
q-101 138 -150 164q-6 4 -6 11q0 10 9 10h94q9 0 17 -8q47 -45 124 -154q91 -136 130 -136h31q-3 58 -3 124v164q0 10 9 10z" />
    <glyph glyph-name="afii10025" unicode="&#x417;" horiz-adv-x="587" 
d="M276 729q120 0 182 -47.5t62 -125.5q0 -81 -57 -131t-155 -58q109 -3 169 -50.5t60 -132.5q0 -88 -70.5 -142.5t-207.5 -54.5q-66 0 -125 16t-93 41q-9 6 -9 19v51q0 12 8 12q5 0 13 -6q74 -58 197 -58q87 0 135 34.5t48 98.5q0 75 -57 103t-193 28q-10 0 -10 10v46
q0 11 10 11q126 0 180.5 33.5t54.5 109.5q0 116 -147 116q-115 0 -145 -69q-12 -22 -41 -22q-18 0 -30 10.5t-12 32.5q0 16 12 35.5t37 40.5t73.5 35t110.5 14z" />
    <glyph glyph-name="afii10026" unicode="&#x418;" horiz-adv-x="772" 
d="M101 706h74q9 0 9 -10v-420q0 -91 -8 -183q25 71 76 157l291 446q6 10 15 10h113q9 0 9 -10v-687q0 -9 -9 -9h-75q-3 0 -6 3t-3 6v466q0 65 7 154q-20 -53 -66 -134l-317 -487q-4 -8 -12 -8h-98q-3 0 -6 3t-3 6v687q0 10 9 10z" />
    <glyph glyph-name="afii10027" unicode="&#x419;" horiz-adv-x="772" 
d="M101 706h74q9 0 9 -10v-420q0 -91 -8 -183q25 71 76 157l291 446q6 10 15 10h113q9 0 9 -10v-687q0 -9 -9 -9h-75q-3 0 -6 3t-3 6v466q0 65 7 154q-20 -53 -66 -134l-317 -487q-4 -8 -12 -8h-98q-3 0 -6 3t-3 6v687q0 10 9 10zM508 894q5 0 5 -5q-1 -62 -36 -93.5
t-89 -31.5t-89 31t-36 95q0 4 6 4h57q5 0 5 -6q1 -75 57 -75q30 0 43 17t14 58q0 6 5 6h58z" />
    <glyph glyph-name="afii10028" unicode="&#x41a;" horiz-adv-x="684" 
d="M101 706h83q9 0 9 -10v-164q0 -85 -3 -124h45q39 0 135 136q73 104 127 154q10 8 17 8h100q8 0 8 -10q0 -8 -6 -11q-50 -26 -155 -164q-92 -117 -137 -136q65 -2 110.5 -47t87.5 -129q78 -155 133 -180q9 -5 9 -14q0 -15 -9 -15h-106q-12 0 -20 8q-41 41 -100 167
q-42 93 -86.5 129.5t-106.5 36.5h-47q4 -55 4 -138v-194q0 -3 -3 -6t-6 -3h-83q-9 0 -9 9v687q0 10 9 10z" />
    <glyph glyph-name="afii10029" unicode="&#x41b;" horiz-adv-x="743" 
d="M221 706h422q9 0 9 -9v-688q0 -3 -3 -6t-6 -3h-84q-9 0 -9 9v438q0 100 4 179q-43 -3 -128 -3q-73 0 -121 3q0 -198 -26 -339t-82 -220.5t-140 -79.5q-31 0 -50 8q-7 3 -7 10v80q0 6 5 6q3 0 8 -3q18 -10 46 -10q69 0 111 170t42 449q0 9 9 9z" />
    <glyph glyph-name="afii10030" unicode="&#x41c;" horiz-adv-x="897" 
d="M721 619l-216 -610q-2 -9 -10 -9h-86q-8 0 -12 9l-217 610q4 -92 4 -157v-453q0 -3 -3 -6t-6 -3h-75q-8 0 -8 9v687q0 10 8 10h127q9 0 12 -10l169 -448q35 -104 48 -163q19 83 47 165l165 446q5 10 12 10h117q9 0 9 -10v-687q0 -3 -3 -6t-6 -3h-73q-9 0 -9 9v435
q0 110 6 175z" />
    <glyph glyph-name="afii10031" unicode="&#x41d;" horiz-adv-x="767" 
d="M473 418q55 0 101 -3q-3 61 -3 126v155q0 10 9 10h84q9 0 9 -10v-687q0 -3 -3 -6t-6 -3h-84q-9 0 -9 9v187q0 72 3 141q-40 -2 -99 -2h-186q-59 0 -99 2q3 -69 3 -141v-187q0 -3 -3 -6t-6 -3h-83q-9 0 -9 9v687q0 10 9 10h83q9 0 9 -10v-155q0 -65 -3 -126q46 3 101 3
h182z" />
    <glyph glyph-name="afii10032" unicode="&#x41e;" horiz-adv-x="829" 
d="M414 68q117 0 180.5 80.5t63.5 215.5q0 138 -67.5 210.5t-175.5 72.5t-176 -72t-68 -211q0 -132 64.5 -214t178.5 -82zM414 729q95 0 175.5 -42t131 -127t50.5 -196q0 -169 -100 -273t-257 -104q-150 0 -252.5 104t-102.5 273q0 164 104 264.5t251 100.5z" />
    <glyph glyph-name="afii10033" unicode="&#x41f;" horiz-adv-x="762" 
d="M101 706h558q3 0 6 -3t3 -6v-688q0 -3 -3 -6t-6 -3h-82q-9 0 -9 9v377q0 160 3 240q-48 -3 -196 -3q-133 0 -187 3q3 -53 3 -240v-377q0 -9 -9 -9h-81q-9 0 -9 9v688q0 9 9 9z" />
    <glyph glyph-name="afii10034" unicode="&#x420;" horiz-adv-x="587" 
d="M287 270q-59 0 -97 3q3 -60 3 -135v-129q0 -3 -3 -6t-6 -3h-83q-9 0 -9 9v684q0 13 9 13h197q124 0 187.5 -62.5t63.5 -157.5q0 -100 -67 -158t-195 -58zM280 345q162 0 162 142q0 65 -35.5 104t-111.5 39q-71 0 -105 3q3 -55 3 -142q0 -111 -3 -148q29 2 90 2z" />
    <glyph glyph-name="afii10035" unicode="&#x421;" horiz-adv-x="667" 
d="M404 -13q-152 0 -248.5 101.5t-96.5 261.5q0 161 101.5 270t269.5 109q121 0 198 -54q11 -9 11 -26v-67q0 -16 -13 -16q-5 0 -13 6q-73 70 -183 70q-125 0 -194 -79t-69 -209t71.5 -207.5t184.5 -77.5t192 65q8 5 12 5q12 0 12 -14v-53q0 -14 -11 -22q-85 -63 -224 -63z
" />
    <glyph glyph-name="afii10036" unicode="&#x422;" horiz-adv-x="609" 
d="M605 706q7 0 7 -8v-68q0 -7 -7 -7q-19 0 -59 1t-59 1q-68 0 -134 3q3 -56 3 -111v-508q0 -3 -3 -6t-6 -3h-83q-9 0 -9 9v510q0 57 3 109q-60 -3 -121 -3q-23 0 -66.5 -1t-66.5 -1q-9 0 -7 8l9 66q2 9 7 9h592z" />
    <glyph glyph-name="afii10037" unicode="&#x423;" horiz-adv-x="599" 
d="M9 706h88q9 0 14 -9l140 -276q40 -81 64 -148q16 52 58 145l123 279q3 9 14 9h81q11 0 5 -14l-231 -500q-53 -115 -110.5 -160t-137.5 -45q-38 0 -56 8q-6 3 -6 15v69q0 11 7 11l9 -3q16 -11 41 -11q43 0 77 28t69 104l-255 484q-8 14 6 14z" />
    <glyph glyph-name="afii10038" unicode="&#x424;" horiz-adv-x="889" 
d="M403 706h83q9 0 9 -10q0 -70 -2 -106h107q122 0 186.5 -62t64.5 -155q0 -102 -67.5 -160.5t-196.5 -58.5q-17 0 -95 3q3 -60 3 -148q0 -3 -3 -6t-6 -3h-83q-3 0 -6 3t-3 6q0 88 3 148q-78 -3 -95 -3q-130 0 -197 58.5t-67 160.5q0 93 64.5 155t186.5 62h107q-2 36 -2 106
q0 10 9 10zM492 519q3 -37 3 -143q0 -112 -3 -151q43 3 88 3q164 0 164 143q0 65 -36.5 105t-110.5 40q-53 0 -105 3zM397 519q-54 -3 -105 -3q-75 0 -111 -40t-36 -105q0 -143 164 -143q45 0 88 -3q-3 39 -3 151q0 106 3 143z" />
    <glyph glyph-name="afii10039" unicode="&#x425;" horiz-adv-x="714" 
d="M409 354q57 -65 277 -342q4 -4 2 -8t-9 -4h-101q-11 0 -19 11q-109 142 -205 281q-107 -152 -210 -283q-9 -9 -16 -9h-92q-7 0 -8 5.5t3 10.5q212 263 275 333l-276 341q-5 6 -3 11t10 5h99q10 0 17 -11q125 -164 208 -285q76 110 212 285q9 11 20 11h92q14 0 4 -15
l-167.5 -206z" />
    <glyph glyph-name="afii10040" unicode="&#x426;" horiz-adv-x="771" 
d="M101 706h81q9 0 9 -9v-400q0 -164 -3 -217q54 3 187 3q141 0 189 -3q-3 53 -3 217v400q0 9 9 9h81q3 0 6 -3t3 -6v-615h91q8 0 8 -8l-24 -248q-1 -12 -12 -12h-56q-11 0 -9 12l8 174h-565q-9 0 -9 9v688q0 9 9 9z" />
    <glyph glyph-name="afii10041" unicode="&#x427;" horiz-adv-x="719" 
d="M530 10q0 208 5 307q-23 -53 -90 -88t-156 -35q-91 0 -155 47t-64 136v320q0 3 4 6t7 3h81q9 0 9 -9v-305q0 -59 42 -86.5t107 -27.5q82 0 144 44.5t62 113.5v261q0 3 3 6t6 3h83q9 0 9 -9v-687q0 -10 -9 -10h-79q-9 0 -9 10z" />
    <glyph glyph-name="afii10042" unicode="&#x428;" horiz-adv-x="1099" 
d="M101 706h81q9 0 9 -9v-400q0 -164 -3 -217q54 3 161 3q106 0 154 -3q-3 53 -3 217v400q0 9 9 9h81q3 0 6 -3t3 -6v-400q0 -160 -3 -217q54 3 161 3q106 0 154 -3q-3 53 -3 217v400q0 9 9 9h82q3 0 6 -3t3 -6v-688q0 -9 -9 -9h-898q-9 0 -9 9v688q0 9 9 9z" />
    <glyph glyph-name="afii10043" unicode="&#x429;" horiz-adv-x="1118" 
d="M101 706h81q9 0 9 -9v-400q0 -164 -3 -217q54 3 161 3q106 0 154 -3q-3 53 -3 217v400q0 9 9 9h81q3 0 6 -3t3 -6v-400q0 -160 -3 -217q54 3 161 3q106 0 154 -3q-3 53 -3 217v400q0 9 9 9h82q3 0 6 -3t3 -6v-615h90q8 0 8 -8l-24 -248q-1 -12 -12 -12h-56q-11 0 -9 12
l8 174h-912q-9 0 -9 9v688q0 9 9 9z" />
    <glyph glyph-name="afii10044" unicode="&#x42a;" horiz-adv-x="770" 
d="M3 706h236q9 0 9 -10v-142q0 -66 -3 -125q62 4 153 4q117 0 180.5 -55t63.5 -156t-63.5 -161.5t-176.5 -60.5h-247q-9 0 -9 10v621q-71 -8 -153 -8q-7 0 -7 8l10 67q0 8 7 8zM245 362q3 -67 3 -138q0 -82 -3 -153q50 2 147 2q144 0 144 154q0 65 -38.5 98.5t-107.5 33.5
q-88 0 -145 3z" />
    <glyph glyph-name="afii10045" unicode="&#x42b;" horiz-adv-x="871" 
d="M101 706h83q9 0 9 -10v-134q0 -74 -3 -133q62 4 153 4q117 0 181 -55t64 -156t-63.5 -161.5t-177.5 -60.5h-246q-9 0 -9 10v686q0 10 9 10zM190 362q3 -45 3 -138q0 -82 -3 -153q50 2 147 2q144 0 144 154q0 65 -38.5 98.5t-107.5 33.5q-88 0 -145 3zM780 696v-687
q0 -3 -3 -6t-6 -3h-83q-9 0 -9 9v687q0 10 9 10h83q9 0 9 -10z" />
    <glyph glyph-name="afii10046" unicode="&#x42c;" horiz-adv-x="638" 
d="M101 706h83q9 0 9 -10v-134q0 -74 -3 -133q62 4 153 4q117 0 181 -55t64 -156t-63.5 -161.5t-177.5 -60.5h-246q-9 0 -9 10v686q0 10 9 10zM190 362q3 -45 3 -138q0 -82 -3 -153q50 2 147 2q144 0 144 154q0 65 -38.5 98.5t-107.5 33.5q-88 0 -145 3z" />
    <glyph glyph-name="afii10047" unicode="&#x42d;" horiz-adv-x="667" 
d="M170 403q38 0 151.5 -2t176.5 -2q-8 117 -73 181.5t-181 64.5q-53 0 -105 -18.5t-85 -51.5q-10 -6 -13 -6q-14 0 -14 16v64q0 18 12 26q77 54 207 54q171 0 266.5 -94.5t95.5 -257.5q0 -162 -101 -276t-251 -114q-74 0 -123 15t-94 48q-11 8 -11 22v50q0 14 12 14
q4 0 11 -5q78 -64 185 -64q105 0 178 73t83 191q-53 0 -167 -2t-160 -2q-7 0 -7 8v59q0 9 7 9z" />
    <glyph glyph-name="afii10048" unicode="&#x42e;" horiz-adv-x="985" 
d="M100 706h83q9 0 9 -10v-156q0 -85 -2 -125q46 3 100 3h82q13 138 88 224.5t191 86.5q131 0 203 -103t72 -270t-73 -268t-209 -101q-123 0 -194 92.5t-79 254.5h-83q-58 0 -98 2q2 -45 2 -140v-187q0 -3 -3 -6t-6 -3h-83q-9 0 -9 9v687q0 10 9 10zM649 650q-89 0 -133 -79
t-44 -218q0 -134 45.5 -212.5t130.5 -78.5q86 0 130.5 77t44.5 214q0 138 -42.5 217.5t-131.5 79.5z" />
    <glyph glyph-name="afii10049" unicode="&#x42f;" horiz-adv-x="649" 
d="M344 706h205q9 0 9 -13v-684q0 -9 -9 -9h-84q-3 0 -6 3t-3 6v148q0 49 4 135q-36 -2 -58 -2q-100 0 -205 -173q-29 -51 -78 -104q-13 -13 -26 -13h-91q-13 0 -13 16q0 11 6 14q50 27 112 119q52 76 100 117.5t101 47.5q-80 6 -140.5 59.5t-60.5 131.5q0 87 60.5 144
t176.5 57zM356 630q-71 0 -107 -33t-36 -92q0 -143 172 -143q20 0 74 -3q-3 60 -3 122q0 97 3 152q-51 -3 -103 -3z" />
    <glyph glyph-name="afii10065" unicode="&#x430;" horiz-adv-x="513" 
d="M350 259q-109 -8 -160 -42.5t-51 -86.5q0 -35 23.5 -55t58.5 -20q57 0 93 40.5t36 99.5v64zM256 499q183 0 183 -149q0 -31 -2.5 -106t-2.5 -102q0 -98 29 -119q5 -5 5 -12q0 -4 -3.5 -7.5t-7.5 -3.5h-44q-19 0 -27 18q-18 32 -20 83q-46 -114 -170 -114
q-67 0 -106.5 35.5t-39.5 91.5q0 79 76.5 132t223.5 62v33q0 44 -23 66.5t-78 22.5q-61 0 -89 -34q-1 -1 -5 -6t-5 -6t-4.5 -5t-5 -5l-5 -3.5t-6 -3t-6.5 -1.5t-8 -1q-17 0 -28 10t-11 28q0 32 46.5 64t133.5 32z" />
    <glyph glyph-name="afii10066" unicode="&#x431;" horiz-adv-x="572" 
d="M296 429q-68 0 -106 -50t-38 -126q0 -93 34.5 -146.5t107.5 -53.5q128 0 128 183q0 193 -126 193zM303 651q-65 0 -110.5 -69t-54.5 -218q17 58 64.5 94t118.5 36q101 0 152 -68.5t51 -175.5q0 -113 -62.5 -188t-174.5 -75q-118 0 -177.5 86.5t-59.5 240.5
q0 201 71.5 304t190.5 103q29 0 83.5 -6t79.5 -6q4 0 7 -3.5t2 -7.5l-9 -55q-2 -12 -12 -12q-18 0 -67 10t-93 10z" />
    <glyph glyph-name="afii10067" unicode="&#x432;" horiz-adv-x="526" 
d="M288 482q83 0 123.5 -33t40.5 -81q0 -41 -29.5 -70t-77.5 -37q56 -3 95.5 -40.5t39.5 -89.5q0 -60 -42.5 -95.5t-118.5 -35.5h-235q-9 0 -9 9v463q0 10 9 10h204zM277 225q-48 0 -114 2q2 -25 2 -84q0 -62 -2 -83q11 0 63 0.5t74 0.5q88 0 88 80q0 84 -111 84zM277 421
q-58 0 -114 2q2 -18 2 -68q0 -52 -2 -75q36 2 103 2q94 0 94 72q0 67 -83 67z" />
    <glyph glyph-name="afii10068" unicode="&#x433;" horiz-adv-x="429" 
d="M85 482h330q5 0 7 -9l7 -59q0 -8 -7 -8q-99 0 -258 3q4 -52 4 -108v-292q0 -3 -3 -6t-6 -3h-73q-3 0 -6 3t-3 6v464q0 9 8 9z" />
    <glyph glyph-name="afii10069" unicode="&#x434;" horiz-adv-x="595" 
d="M231 412q-4 -210 -71 -342h236v183q0 61 4 159q-36 -3 -79 -3q-48 0 -90 3zM157 482h320q9 0 9 -9v-403h91q8 0 8 -8l-23 -202q-1 -12 -12 -12h-46q-9 0 -9 12l7 140h-416l8 -140q0 -12 -9 -12h-48q-11 0 -12 12l-25 202q0 8 8 8h73q67 122 67 403q0 9 9 9z" />
    <glyph glyph-name="afii10070" unicode="&#x435;" horiz-adv-x="510" 
d="M285 -13q-111 0 -175.5 70t-64.5 179q0 105 66.5 184t178.5 79q91 0 138.5 -50.5t47.5 -138.5q0 -30 -27 -30h-306q-5 -23 -5 -54q0 -71 43 -118.5t118 -47.5t126 40q5 5 11 5q7 0 7 -10v-46q0 -11 -8 -17q-58 -45 -150 -45zM396 334q0 46 -28 74.5t-79 28.5
q-102 0 -137 -103h244z" />
    <glyph glyph-name="afii10072" unicode="&#x436;" horiz-adv-x="722" 
d="M75 486q43 0 77.5 -31.5t53.5 -69t43 -69t47 -31.5h24q-4 45 -4 106v81q0 10 9 10h73q9 0 9 -10v-81q0 -49 -5 -106h24q24 0 48 31.5t42.5 69t53 69t77.5 31.5q21 0 33 -12t12 -29q0 -18 -10.5 -30.5t-32.5 -12.5q-28 0 -52 -20.5t-38 -45.5t-34 -48t-41 -26
q40 -5 83 -57t80 -111t53 -70q7 -5 7 -13q0 -11 -9 -11h-84q-14 0 -22 13q-13 17 -34.5 57.5l-38.5 73t-44.5 59t-55.5 26.5h-17q5 -55 5 -110v-110q0 -3 -3 -6t-6 -3h-73q-3 0 -6 3t-3 6v110q0 66 4 110h-17q-36 0 -67.5 -39t-62 -99.5t-43.5 -77.5q-8 -13 -22 -13h-84
q-9 0 -9 11q0 7 7 13q15 10 41 48.5l51 78t59 73.5t65 38q-21 3 -41 26t-34 48t-38 45.5t-52 20.5q-21 0 -32 12.5t-11 30.5q0 17 12 29t33 12z" />
    <glyph glyph-name="afii10073" unicode="&#x437;" horiz-adv-x="499" 
d="M229 -13q-104 0 -171 38q-6 4 -6 11v51q0 7 7 7q4 0 10 -3q59 -38 159 -38q129 0 129 83q0 44 -39 61.5t-146 17.5q-8 0 -9 5v50q0 8 8 8q100 0 135 19t35 65q0 71 -100 71q-47 0 -75.5 -15.5t-37.5 -36.5q-8 -20 -36 -20q-15 0 -26.5 9.5t-11.5 23.5q0 37 51.5 71
t146.5 34q86 0 133.5 -33t47.5 -91q0 -48 -32.5 -81t-103.5 -41q80 -3 118 -36t38 -86q0 -67 -62 -105.5t-162 -38.5z" />
    <glyph glyph-name="afii10074" unicode="&#x438;" horiz-adv-x="591" 
d="M85 482h65q10 0 10 -10q0 -257 -9 -389q82 165 235 391q4 8 12 8h107q9 0 9 -10v-463q0 -9 -9 -9h-64q-9 0 -9 9q0 272 6 407q-155 -262 -256 -410q-3 -6 -11 -6h-86q-3 0 -6 3t-3 6v463q0 10 9 10z" />
    <glyph glyph-name="afii10075" unicode="&#x439;" horiz-adv-x="591" 
d="M421 681q6 0 6 -5q-1 -64 -36 -96t-90 -32q-53 0 -88 31.5t-36 96.5q0 5 6 5h57q5 0 5 -6q1 -78 57 -78q30 0 43 17.5t14 60.5q0 6 5 6h57zM85 482h65q10 0 10 -10q0 -257 -9 -389q82 165 235 391q4 8 12 8h107q9 0 9 -10v-463q0 -9 -9 -9h-64q-9 0 -9 9q0 272 6 407
q-155 -262 -256 -410q-3 -6 -11 -6h-86q-3 0 -6 3t-3 6v463q0 10 9 10z" />
    <glyph glyph-name="afii10076" unicode="&#x43a;" horiz-adv-x="498" 
d="M429 486q45 0 45 -41q0 -18 -10.5 -30.5t-32.5 -12.5q-42 0 -88 -55q-7 -8 -22 -27t-23 -28t-21.5 -18.5t-25.5 -11.5q44 -6 113 -90q17 -21 44 -58.5t44.5 -59.5t29.5 -30q7 -5 7 -13q0 -11 -9 -11h-84q-14 0 -22 13q-9 10 -22 28.5t-30.5 46l-28.5 43.5q-67 98 -115 98
h-15q3 -69 3 -220q0 -3 -3 -6t-6 -3h-73q-9 0 -9 9v463q0 10 9 10h73q9 0 9 -10q0 -122 -3 -187h22q14 0 29.5 11.5t25.5 24.5l29 39.5l29 39.5q63 86 131 86z" />
    <glyph glyph-name="afii10077" unicode="&#x43b;" horiz-adv-x="579" 
d="M168 482h327q9 0 9 -9v-464q0 -3 -3 -6t-6 -3h-72q-9 0 -9 9v243q0 61 4 159q-48 -4 -91 -4q-28 0 -84 4q-1 -75 -5 -131t-15.5 -114t-30.5 -95t-51.5 -60.5t-76.5 -23.5q-38 0 -57 8q-7 3 -7 10v71q0 6 5 6q3 0 8 -3q18 -10 47 -10q59 0 79 102.5t20 301.5q0 9 9 9z" />
    <glyph glyph-name="afii10078" unicode="&#x43c;" horiz-adv-x="704" 
d="M84 482h114q7 0 11 -11l146 -385l146 387q5 9 10 9h109q9 0 9 -10v-463q0 -3 -3 -6t-6 -3h-67q-9 0 -9 9q0 267 6 393l-152 -396q0 -6 -7 -6h-79q-4 0 -8 6l-151 396q9 -162 9 -393q0 -3 -3 -6t-6 -3h-69q-9 0 -9 9v463q0 10 9 10z" />
    <glyph glyph-name="afii10079" unicode="&#x43d;" horiz-adv-x="579" 
d="M84 482h73q9 0 9 -10q0 -146 -2 -183q21 2 124 2q113 0 127 -2q-2 37 -2 183q0 10 9 10h73q9 0 9 -10v-463q0 -3 -3 -6t-6 -3h-73q-9 0 -9 9q0 176 2 215q-20 -2 -129 -2q-94 0 -122 2q2 -39 2 -215q0 -3 -3 -6t-6 -3h-73q-9 0 -9 9v463q0 10 9 10z" />
    <glyph glyph-name="afii10080" unicode="&#x43e;" horiz-adv-x="572" 
d="M286 499q79 0 135 -37.5t81 -93t25 -122.5q0 -106 -62.5 -182.5t-178.5 -76.5q-78 0 -134.5 38.5t-82 96t-25.5 124.5q0 104 63 178.5t179 74.5zM286 53q72 0 108 53.5t36 137.5t-36 135.5t-108 51.5q-73 0 -108.5 -51.5t-35.5 -135.5t36 -137.5t108 -53.5z" />
    <glyph glyph-name="afii10081" unicode="&#x43f;" horiz-adv-x="576" 
d="M84 482h408q9 0 9 -10v-463q0 -3 -3 -6t-6 -3h-73q-9 0 -9 9q0 374 2 404q-18 -2 -55 -2h-131q-38 0 -62 2q2 -30 2 -404q0 -3 -3 -6t-6 -3h-73q-9 0 -9 9v463q0 10 9 10z" />
    <glyph glyph-name="afii10082" unicode="&#x440;" horiz-adv-x="587" 
d="M71 473q0 9 9 9h59q7 0 9 -9q7 -37 7 -86q39 112 165 112q96 0 159 -72t63 -183q0 -110 -62 -183.5t-162 -73.5q-115 0 -152 88q5 -119 5 -270q0 -10 -9 -10h-73q-9 0 -9 10v543q0 32 -2 61t-4.5 45.5t-2.5 18.5zM171 298v-129q0 -50 32 -83.5t91 -33.5q70 0 110 51.5
t40 139.5q0 93 -40 141t-109 48q-59 0 -91.5 -37.5t-32.5 -96.5z" />
    <glyph glyph-name="afii10083" unicode="&#x441;" horiz-adv-x="471" 
d="M414 378q-16 0 -36 18q-32 28 -79 28q-73 0 -116.5 -55t-43.5 -129q0 -85 45.5 -132.5t115.5 -47.5q72 0 117 38q8 6 11 6q9 0 9 -12v-43q0 -11 -7 -17q-57 -45 -142 -45q-110 0 -176.5 68t-66.5 180q0 107 72.5 185.5t189.5 78.5q77 0 120 -36q24 -17 24 -43
q0 -17 -10.5 -29.5t-26.5 -12.5z" />
    <glyph glyph-name="afii10084" unicode="&#x442;" horiz-adv-x="435" 
d="M263 9q0 -3 -3 -6t-6 -3h-73q-9 0 -9 9v292q0 69 3 108l-168 -3q-8 0 -6 8l5 59q2 9 7 9h413q7 0 7 -9v-59q0 -8 -7 -8q-90 0 -166 3q3 -41 3 -108v-292z" />
    <glyph glyph-name="afii10085" unicode="&#x443;" horiz-adv-x="474" 
d="M62 -214q-34 0 -52 8q-6 3 -6 15v56q0 10 8 10q4 0 8 -3q17 -10 38 -10q86 0 136 135l-189 471q-6 14 6 14h77q10 0 13 -10l94 -260q36 -112 45 -144q16 62 44 143l96 261q3 10 13 10h70q12 0 7 -13l-189 -483q-43 -108 -96.5 -154t-122.5 -46z" />
    <glyph glyph-name="afii10086" unicode="&#x444;" horiz-adv-x="889" 
d="M408 706h73q9 0 9 -10q0 -173 -5 -292q47 95 157 95q94 0 148 -69.5t54 -185.5q0 -114 -53 -185.5t-151 -71.5q-57 0 -97 23.5t-58 64.5q5 -119 5 -270q0 -10 -9 -10h-73q-9 0 -9 10q0 151 5 270q-39 -88 -155 -88q-98 0 -151 71.5t-53 185.5q0 115 54 185t147 70
q111 0 158 -95q-5 119 -5 292q0 10 9 10zM614 432q-59 0 -91.5 -37.5t-32.5 -96.5v-129q0 -50 32 -83.5t91 -33.5q66 0 99.5 50.5t33.5 140.5q0 189 -132 189zM274 432q-131 0 -131 -189q0 -90 33.5 -140.5t99.5 -50.5q59 0 91 33.5t32 83.5v129q0 59 -32.5 96.5t-92.5 37.5
z" />
    <glyph glyph-name="afii10087" unicode="&#x445;" horiz-adv-x="500" 
d="M110 482q8 0 16 -10q89 -121 126 -177q23 36 131 177q8 10 18 10h77q4 0 5.5 -4t-3.5 -9q-134 -166 -187 -222q45 -44 192 -234q5 -6 3.5 -9.5t-5.5 -3.5h-91q-9 0 -17 11q-83 110 -129 179q-16 -24 -133 -180q-8 -10 -15 -10h-79q-5 0 -7 3.5t2 9.5q108 136 191 225
q-55 59 -189 231q-4 6 -2.5 9.5t6.5 3.5h90z" />
    <glyph glyph-name="afii10088" unicode="&#x446;" horiz-adv-x="610" 
d="M84 482h73q3 0 6 -3t3 -6q0 -374 -2 -404q24 2 62 2h131q37 0 55 -2q-2 30 -2 404q0 9 9 9h73q3 0 6 -3t3 -6v-403h91q8 0 8 -8l-24 -202q-1 -12 -12 -12h-46q-11 0 -9 12l8 140h-433q-9 0 -9 10v463q0 9 9 9z" />
    <glyph glyph-name="afii10089" unicode="&#x447;" horiz-adv-x="573" 
d="M78 482h73q9 0 9 -9v-187q0 -103 99 -103q59 0 103.5 41t44.5 111v138q0 3 3 6t6 3h73q9 0 9 -9v-463q0 -10 -9 -10h-68q-9 0 -9 10q0 97 6 215q-20 -52 -71 -83.5t-123 -31.5q-69 0 -112 40t-43 115v208q0 3 3 6t6 3z" />
    <glyph glyph-name="afii10090" unicode="&#x448;" horiz-adv-x="859" 
d="M84 482h73q3 0 6 -3t3 -6q0 -374 -2 -404q24 2 63 2h104q37 0 55 -2q-2 30 -2 404q0 9 9 9h73q3 0 6 -3t3 -6q0 -374 -2 -404q24 2 63 2h104q37 0 55 -2q-2 30 -2 404q0 9 9 9h73q3 0 6 -3t3 -6v-463q0 -10 -9 -10h-691q-9 0 -9 10v463q0 9 9 9z" />
    <glyph glyph-name="afii10091" unicode="&#x449;" horiz-adv-x="893" 
d="M84 482h73q3 0 6 -3t3 -6q0 -374 -2 -404q24 2 63 2h104q37 0 55 -2q-2 30 -2 404q0 9 9 9h73q3 0 6 -3t3 -6q0 -374 -2 -404q24 2 63 2h104q37 0 55 -2q-2 30 -2 404q0 9 9 9h73q3 0 6 -3t3 -6v-403h91q8 0 8 -8l-23 -202q-1 -12 -12 -12h-46q-11 0 -9 12l7 140h-716
q-9 0 -9 10v463q0 9 9 9z" />
    <glyph glyph-name="afii10092" unicode="&#x44a;" horiz-adv-x="585" 
d="M211 256q2 -38 2 -103q0 -54 -2 -94q36 3 127 3q99 0 99 96q0 95 -108 95q-97 0 -118 3zM14 482h191q9 0 9 -10q0 -109 -3 -160q32 3 141 3q87 0 133.5 -45.5t46.5 -112.5q0 -66 -42.5 -111.5t-124.5 -45.5h-233q-9 0 -9 10v406q-68 -6 -116 -6q-7 0 -7 7l6 56q2 9 8 9z
" />
    <glyph glyph-name="afii10093" unicode="&#x44b;" horiz-adv-x="712" 
d="M163 256q2 -38 2 -103q0 -54 -2 -94q36 3 127 3q99 0 99 96q0 95 -107 95q-98 0 -119 3zM84 482h73q9 0 9 -10q0 -109 -3 -160q31 3 142 3q86 0 132.5 -45.5t46.5 -112.5q0 -66 -42.5 -111.5t-124.5 -45.5h-233q-9 0 -9 10v462q0 10 9 10zM555 482h73q9 0 9 -10v-463
q0 -3 -3 -6t-6 -3h-73q-9 0 -9 9v463q0 10 9 10z" />
    <glyph glyph-name="afii10094" unicode="&#x44c;" horiz-adv-x="526" 
d="M282 253q-98 0 -119 3q2 -38 2 -103q0 -54 -2 -94q36 3 127 3q99 0 99 96q0 95 -107 95zM84 482h73q9 0 9 -10q0 -109 -3 -160q31 3 142 3q86 0 132.5 -45.5t46.5 -112.5q0 -66 -42.5 -111.5t-124.5 -45.5h-233q-9 0 -9 10v462q0 10 9 10z" />
    <glyph glyph-name="afii10095" unicode="&#x44d;" horiz-adv-x="473" 
d="M96 283q11 0 65 -0.5t66 -0.5q25 0 105 -2q-7 64 -46.5 105.5t-104.5 41.5q-56 0 -86 -28q-18 -18 -36 -18q-16 0 -26.5 11t-10.5 29q0 25 24 43q18 15 57.5 25t83.5 10q116 0 178.5 -69t62.5 -171q0 -115 -65.5 -193.5t-175.5 -78.5q-87 0 -144 45q-7 6 -7 17v39
q0 11 9 11q4 0 11 -5q46 -37 119 -37q65 0 108 44.5t50 122.5q-70 -2 -108 -2q-17 0 -69 -0.5t-59 -0.5q-10 0 -10 8v46q0 8 9 8z" />
    <glyph glyph-name="afii10096" unicode="&#x44e;" horiz-adv-x="792" 
d="M84 482h73q9 0 9 -10q0 -146 -2 -183q21 2 68 2h81q11 89 67 148.5t149 59.5q105 0 162 -75t57 -182q0 -106 -59 -180.5t-163 -74.5q-97 0 -152.5 66.5t-61.5 168.5h-82q-38 0 -66 2q2 -39 2 -215q0 -3 -3 -6t-6 -3h-73q-9 0 -9 9v463q0 10 9 10zM526 426
q-125 0 -125 -187q0 -83 32 -133t94 -50q125 0 125 183q0 187 -126 187z" />
    <glyph glyph-name="afii10097" unicode="&#x44f;" horiz-adv-x="528" 
d="M244 482h199q9 0 9 -10v-463q0 -9 -9 -9h-73q-3 0 -6 3t-3 6q0 138 3 180q-11 -2 -68 -2q-43 0 -86 -40.5t-78 -111.5q-14 -35 -36 -35h-78q-10 0 -10 15q0 11 5 14q18 7 56 66q67 106 147 118q-56 6 -96.5 39t-40.5 90q0 62 44 101t121 39zM262 418q-89 0 -89 -85
q0 -45 27.5 -66t86.5 -21q64 0 77 -1q-3 21 -3 75q0 64 3 100q-24 -2 -102 -2z" />
    <glyph glyph-name="afii10071" unicode="&#x451;" horiz-adv-x="510" 
d="M285 -13q-111 0 -175.5 70t-64.5 179q0 105 66.5 184t178.5 79q91 0 138.5 -50.5t47.5 -138.5q0 -30 -27 -30h-306q-5 -23 -5 -54q0 -71 43 -118.5t118 -47.5t126 40q5 5 11 5q7 0 7 -10v-46q0 -11 -8 -17q-58 -45 -150 -45zM396 334q0 46 -28 74.5t-79 28.5
q-102 0 -137 -103h244zM198 668q21 0 36 -15t15 -36q0 -20 -15 -35.5t-36 -15.5t-36 15.5t-15 35.5q0 21 15 36t36 15zM385 668q21 0 36 -15t15 -36q0 -20 -15 -35.5t-36 -15.5t-36 15.5t-15 35.5q0 21 15 36t36 15z" />
    <glyph glyph-name="afii10099" unicode="&#x452;" horiz-adv-x="571" 
d="M28 639h47v57q0 10 9 10h73q9 0 9 -10v-57h91q6 0 6 -8v-44q0 -7 -6 -7h-92q0 -83 -4 -183q25 45 70 73.5t105 28.5q90 0 128.5 -57.5t38.5 -170.5q0 -188 -97 -428q-4 -9 -12 -9h-73q-6 0 -6 9q94 208 94 411q0 86 -22.5 127.5t-79.5 41.5t-99 -39.5t-42 -102.5v-272
q0 -3 -3 -6t-6 -3h-73q-9 0 -9 9v571h-47q-6 0 -6 7v44q0 8 6 8z" />
    <glyph glyph-name="afii10100" unicode="&#x453;" horiz-adv-x="429" 
d="M415 695l-143 -142q-12 -10 -20 -10h-37q-5 0 -7 3.5t2 7.5l112 142q8 10 16 10h75q3 0 4 -4t-2 -7zM85 482h330q5 0 7 -9l7 -59q0 -8 -7 -8q-99 0 -258 3q4 -52 4 -108v-292q0 -3 -3 -6t-6 -3h-73q-3 0 -6 3t-3 6v464q0 9 8 9z" />
    <glyph glyph-name="afii10101" unicode="&#x454;" horiz-adv-x="473" 
d="M307 499q77 0 120 -34q24 -17 24 -43q0 -18 -10.5 -29.5t-26.5 -11.5q-18 0 -36 18q-30 28 -79 28q-63 0 -104.5 -42t-52.5 -105q68 2 105 2q18 0 71 0.5t59 0.5q10 0 10 -8v-45q0 -9 -9 -9q-13 0 -66 1t-64 1q-68 0 -109 1q4 -80 49 -123.5t112 -43.5q71 0 117 37
q7 5 11 5q9 0 9 -11v-39q0 -11 -7 -17q-57 -45 -142 -45q-110 0 -176.5 68t-66.5 180q0 107 72.5 185.5t189.5 78.5z" />
    <glyph glyph-name="afii10102" unicode="&#x455;" horiz-adv-x="426" 
d="M200 -13q-85 0 -141 40q-8 7 -8 17v46q0 13 7 13q8 0 14 -6q53 -43 127 -43q46 0 72 20t26 50q0 33 -23 48.5t-78 34.5q-10 3 -15 5q-60 20 -94.5 52t-34.5 93q0 59 49 100.5t129 41.5q82 0 126 -37q17 -14 17 -34q0 -18 -10.5 -30t-23.5 -12q-14 0 -28 11q-39 32 -86 32
q-41 0 -63 -20t-22 -49q0 -18 5.5 -30.5t23.5 -23t27 -14l39 -14.5q80 -28 115 -59t35 -89q0 -64 -51.5 -103.5t-133.5 -39.5z" />
    <glyph glyph-name="afii10103" unicode="&#x456;" horiz-adv-x="242" 
d="M166 472v-463q0 -3 -3 -6t-6 -3h-73q-9 0 -9 9v463q0 10 9 10h73q9 0 9 -10zM121 710q23 0 39.5 -16.5t16.5 -39.5q0 -22 -16.5 -37.5t-39.5 -15.5t-39.5 15.5t-16.5 37.5q0 23 16.5 39.5t39.5 16.5z" />
    <glyph glyph-name="afii10104" unicode="&#x457;" 
d="M27 668q21 0 36 -15t15 -36q0 -20 -15 -35.5t-36 -15.5t-36 15.5t-15 35.5q0 21 15 36t36 15zM214 668q21 0 36 -15t15 -36q0 -20 -15 -35.5t-36 -15.5t-36 15.5t-15 35.5q0 21 15 36t36 15zM84 482h73q9 0 9 -10v-463q0 -3 -3 -6t-6 -3h-73q-9 0 -9 9v463q0 10 9 10z
" />
    <glyph glyph-name="afii10105" unicode="&#x458;" horiz-adv-x="242" 
d="M-21 -202q-7 4 -7 16v54q0 10 7 10q2 0 10 -4q15 -10 38 -10q22 0 37.5 15t15.5 44v549q0 10 9 10h73q9 0 9 -10v-532q0 -82 -37 -119t-92 -37q-35 0 -63 14zM125 710q23 0 39.5 -16.5t16.5 -39.5q0 -22 -16.5 -37.5t-39.5 -15.5t-39.5 15.5t-16.5 37.5q0 23 16.5 39.5
t39.5 16.5z" />
    <glyph glyph-name="afii10106" unicode="&#x459;" horiz-adv-x="864" 
d="M620 253q-98 0 -118 3q1 -19 1 -103q0 -74 -1 -94q36 3 127 3q98 0 98 96q0 95 -107 95zM168 482h327q9 0 9 -10q0 -126 -2 -160q30 3 141 3q87 0 133.5 -45.5t46.5 -112.5q0 -66 -42.5 -111.5t-125.5 -45.5h-232q-9 0 -9 9v243q0 61 4 159q-48 -4 -91 -4q-28 0 -84 4
q-1 -75 -5 -131t-15.5 -114t-30.5 -95t-51.5 -60.5t-76.5 -23.5q-38 0 -57 8q-7 3 -7 10v71q0 6 5 6q3 0 8 -3q18 -10 47 -10q59 0 79 102.5t20 301.5q0 9 9 9z" />
    <glyph glyph-name="afii10107" unicode="&#x45a;" horiz-adv-x="865" 
d="M84 482h73q9 0 9 -10q0 -146 -2 -183q21 2 128 2q109 0 123 -2q-2 37 -2 183q0 10 9 10h73q9 0 9 -10q0 -126 -2 -160q30 3 141 3q87 0 133.5 -45.5t46.5 -112.5q0 -66 -42.5 -111.5t-125.5 -45.5h-233q-9 0 -9 9q0 176 2 215q-20 -2 -124 -2q-99 0 -127 2q2 -39 2 -215
q0 -3 -3 -6t-6 -3h-73q-9 0 -9 9v463q0 10 9 10zM502 256q1 -19 1 -103q0 -74 -1 -94q36 3 127 3q98 0 98 96q0 95 -107 95q-97 0 -118 3z" />
    <glyph glyph-name="afii10108" unicode="&#x45b;" horiz-adv-x="570" 
d="M84 706h68q9 0 9 -10v-57h101q6 0 6 -8v-41q0 -7 -6 -7h-102q-5 -180 -6 -204q21 54 72.5 87t118.5 33q68 0 112 -40.5t44 -114.5v-335q0 -3 -3 -6t-6 -3h-73q-9 0 -9 9v314q0 103 -99 103q-59 0 -102 -41t-43 -111v-265q0 -3 -3 -6t-6 -3h-73q-9 0 -9 9v574h-49
q-6 0 -6 7v41q0 8 6 8h49v57q0 10 9 10z" />
    <glyph glyph-name="afii10109" unicode="&#x45c;" horiz-adv-x="498" 
d="M429 486q45 0 45 -41q0 -18 -10.5 -30.5t-32.5 -12.5q-42 0 -88 -55q-7 -8 -22 -27t-23 -28t-21.5 -18.5t-25.5 -11.5q44 -6 113 -90q17 -21 44 -58.5t44.5 -59.5t29.5 -30q7 -5 7 -13q0 -11 -9 -11h-84q-14 0 -22 13q-9 10 -22 28.5t-30.5 46l-28.5 43.5q-67 98 -115 98
h-15q3 -69 3 -220q0 -3 -3 -6t-6 -3h-73q-9 0 -9 9v463q0 10 9 10h73q9 0 9 -10q0 -122 -3 -187h22q14 0 29.5 11.5t25.5 24.5l29 39.5l29 39.5q63 86 131 86zM414 695l-143 -142q-12 -10 -20 -10h-37q-5 0 -7 3.5t2 7.5l112 142q7 10 16 10h75q3 0 4 -4t-2 -7z" />
    <glyph glyph-name="afii10110" unicode="&#x45e;" horiz-adv-x="474" 
d="M362 681q5 0 5 -5q-1 -64 -35.5 -96t-89.5 -32q-54 0 -89 31.5t-36 96.5q0 5 6 5h57q5 0 5 -6q1 -78 58 -78q29 0 42 17.5t14 60.5q0 6 6 6h57zM62 -214q-34 0 -52 8q-6 3 -6 15v56q0 10 8 10q4 0 8 -3q17 -10 38 -10q86 0 136 135l-189 471q-6 14 6 14h77q10 0 13 -10
l94 -260q36 -112 45 -144q16 62 44 143l96 261q3 10 13 10h70q12 0 7 -13l-189 -483q-43 -108 -96.5 -154t-122.5 -46z" />
    <glyph glyph-name="afii10193" unicode="&#x45f;" horiz-adv-x="576" 
d="M84 482h73q9 0 9 -9q0 -374 -2 -404q18 2 124 2q100 0 124 -2q-2 30 -2 404q0 3 3 6t6 3h73q9 0 9 -9v-463q0 -10 -9 -10h-159l-13 -148q0 -9 -8 -9h-49q-8 0 -8 9l-13 148h-158q-9 0 -9 10v463q0 3 3 6t6 3z" />
    <glyph glyph-name="afii10050" unicode="&#x490;" horiz-adv-x="565" 
d="M101 706h391l10 112q1 12 12 12h39q10 0 10 -12v-185q0 -8 -7 -8q-20 0 -99.5 1t-118.5 1q-110 0 -148 2q3 -53 3 -112v-508q0 -3 -3 -6t-6 -3h-83q-9 0 -9 9v687q0 10 9 10z" />
    <glyph glyph-name="afii10098" unicode="&#x491;" horiz-adv-x="430" 
d="M85 482h274l9 87q1 12 12 12h31q10 0 10 -12v-155q0 -8 -7 -8q-91 0 -250 3q4 -52 4 -108v-292q0 -3 -3 -6t-6 -3h-73q-3 0 -6 3t-3 6v464q0 9 8 9z" />
    <glyph glyph-name="endash" unicode="&#x2013;" horiz-adv-x="500" 
d="M454 302v-61q0 -3 -3 -6t-6 -3h-390q-9 0 -9 9v61q0 10 9 10h390q9 0 9 -10z" />
    <glyph glyph-name="emdash" unicode="&#x2014;" horiz-adv-x="725" 
d="M680 302v-61q0 -3 -3 -6t-6 -3h-616q-9 0 -9 9v61q0 10 9 10h616q9 0 9 -10z" />
    <glyph glyph-name="quoteleft" unicode="&#x2018;" horiz-adv-x="217" 
d="M32 527l94 223q4 10 11 10h41q10 0 8 -10l-59 -225q-4 -10 -11 -10h-77q-10 0 -7 12z" />
    <glyph glyph-name="quoteright" unicode="&#x2019;" horiz-adv-x="217" 
d="M187 750l-94 -224q-4 -10 -11 -10h-41q-10 0 -8 10l60 225q2 10 10 10h77q4 0 6.5 -3.5t0.5 -7.5z" />
    <glyph glyph-name="quotesinglbase" unicode="&#x201a;" horiz-adv-x="217" 
d="M185 103l-94 -224q-4 -10 -11 -10h-40q-11 0 -9 10l60 225q2 10 10 10h77q4 0 6.5 -3.5t0.5 -7.5z" />
    <glyph glyph-name="quotedblleft" unicode="&#x201c;" horiz-adv-x="393" 
d="M209 527l93 223q4 10 11 10h41q10 0 8 -10l-59 -225q-4 -10 -11 -10h-77q-3 0 -5.5 3.5t-0.5 8.5zM32 527l94 223q4 10 11 10h40q11 0 9 -10l-59 -225q-4 -10 -11 -10h-77q-4 0 -6.5 3.5t-0.5 8.5z" />
    <glyph glyph-name="quotedblright" unicode="&#x201d;" horiz-adv-x="392" 
d="M184 750l-93 -224q-4 -10 -12 -10h-40q-10 0 -8 10l59 225q4 10 11 10h77q3 0 5.5 -3.5t0.5 -7.5zM361 750l-94 -224q-4 -10 -11 -10h-41q-10 0 -8 10l59 225q4 10 11 10h77q3 0 5.5 -3.5t1.5 -7.5z" />
    <glyph glyph-name="quotedblbase" unicode="&#x201e;" horiz-adv-x="392" 
d="M184 103l-93 -224q-4 -10 -12 -10h-40q-10 0 -8 10l59 225q4 10 11 10h77q3 0 5.5 -3.5t0.5 -7.5zM361 103l-94 -224q-4 -10 -11 -10h-41q-10 0 -8 10l59 225q4 10 11 10h77q3 0 5.5 -3.5t1.5 -7.5z" />
    <glyph glyph-name="dagger" unicode="&#x2020;" horiz-adv-x="547" 
d="M234 480q-1 14 -4 90l-4 126q0 10 9 10h83q9 0 9 -10l-4 -126q-3 -77 -4 -90q24 2 71 2h125q9 0 9 -10v-49q0 -3 -3 -6t-6 -3h-127q-47 0 -69 2q2 -57 0 -114l-9 -498q0 -3 -3 -6t-6 -3h-49q-9 0 -9 9l-9 500q-2 57 0 112q-24 -2 -74 -2h-122q-9 0 -9 9v49q0 10 9 10h125
q49 0 71 -2z" />
    <glyph glyph-name="daggerdbl" unicode="&#x2021;" horiz-adv-x="549" 
d="M310 -196q0 -3 -3 -6t-6 -3h-49q-9 0 -9 9q0 13 -3.5 161.5t-2.5 168.5q-22 -2 -68 -2h-114q-8 0 -8 9v47q0 9 8 9h116q47 0 68 -1q-1 13 -5 115q-1 53 0 105q-24 -2 -74 -2h-122q-9 0 -9 9v49q0 10 9 10h125q49 0 71 -2q-1 14 -4 90l-4 126q0 10 9 10h83q9 0 9 -10
l-4 -126q-3 -77 -4 -90q24 2 71 2h125q9 0 9 -10v-49q0 -3 -3 -6t-6 -3h-127q-47 0 -69 2q1 -53 0 -107q-4 -99 -5 -113q23 1 68 1h115q9 0 9 -9v-47q0 -3 -3 -6t-6 -3h-117q-44 0 -64 2q1 -22 -2.5 -169.5t-3.5 -160.5z" />
    <glyph glyph-name="bullet" unicode="&#x2022;" horiz-adv-x="418" 
d="M209 97q-65 0 -111.5 46t-46.5 111q0 64 46.5 110.5t111.5 46.5q64 0 110.5 -46.5t46.5 -110.5q0 -65 -46.5 -111t-110.5 -46z" />
    <glyph glyph-name="ellipsis" unicode="&#x2026;" horiz-adv-x="793" 
d="M140 119q26 0 44.5 -18.5t18.5 -44.5q0 -27 -18.5 -45.5t-44.5 -18.5t-45 18.5t-19 45.5q0 26 19 44.5t45 18.5zM397 119q26 0 44.5 -18.5t18.5 -44.5q0 -27 -18.5 -45.5t-44.5 -18.5q-27 0 -45.5 18.5t-18.5 45.5q0 26 18.5 44.5t45.5 18.5zM654 119q26 0 44.5 -18.5
t18.5 -44.5q0 -27 -18.5 -45.5t-44.5 -18.5q-27 0 -45.5 18.5t-18.5 45.5q0 26 18.5 44.5t45.5 18.5z" />
    <glyph glyph-name="perthousand" unicode="&#x2030;" horiz-adv-x="1267" 
d="M1045 -8q-79 0 -123 52.5t-44 124.5q0 83 54 134q46 44 114 44q81 0 125 -53t44 -125t-45.5 -124.5t-124.5 -52.5zM1046 286q-46 0 -66 -28.5t-20 -91.5q0 -120 86 -120q88 0 88 120q0 62 -21 91t-67 29zM763 694l-583 -685q-6 -9 -14 -9h-71q-5 0 -6.5 4t1.5 8l584 684
q8 10 16 10h69q3 0 4.5 -2t1.5 -4.5t-2 -5.5zM636 -8q-79 0 -123 52.5t-44 124.5t45 125t124 53q80 0 124 -53t44 -125t-45.5 -124.5t-124.5 -52.5zM637 286q-46 0 -66 -28.5t-20 -91.5q0 -120 86 -120q44 0 66 28t22 92q0 62 -21 91t-67 29zM223 366q-79 0 -123 52.5
t-44 124.5t44.5 125t123.5 53q81 0 125 -53t44 -125t-45.5 -124.5t-124.5 -52.5zM224 660q-46 0 -66 -28.5t-20 -91.5t21 -91t65 -28q88 0 88 119q0 62 -21 91t-67 29z" />
    <glyph glyph-name="guilsinglleft" unicode="&#x2039;" horiz-adv-x="392" 
d="M340 31l-291 191q-8 8 -8 26q0 20 8 26l290 189q12 9 12 -6v-29q0 -12 -8 -20l-196 -153l197 -168q7 -6 7 -17v-33q0 -5 -3.5 -6.5t-7.5 0.5z" />
    <glyph glyph-name="guilsinglright" unicode="&#x203a;" horiz-adv-x="392" 
d="M52 465l291 -191q8 -8 8 -26q0 -20 -8 -26l-289 -189q-13 -8 -13 6v29q0 12 9 20l195 153l-197 168q-7 6 -7 17v33q0 5 3.5 6.5t7.5 -0.5z" />
    <glyph glyph-name="fraction" unicode="&#x2044;" horiz-adv-x="570" 
d="M619 694l-578 -685q-6 -9 -14 -9h-70q-5 0 -6.5 4t1.5 8l579 684q7 10 16 10h68q3 0 4.5 -2t1.5 -4.5t-2 -5.5z" />
    <glyph glyph-name="fraction" unicode="&#x2215;" horiz-adv-x="570" 
d="M619 694l-578 -685q-6 -9 -14 -9h-70q-5 0 -6.5 4t1.5 8l579 684q7 10 16 10h68q3 0 4.5 -2t1.5 -4.5t-2 -5.5z" />
    <glyph glyph-name="Euro" unicode="&#x20ac;" horiz-adv-x="680" 
d="M407 -13q-117 0 -197.5 76.5t-103.5 193.5q-25 -3 -74 -3q-8 0 -8 11v43q0 8 11 8q30 0 64 -2q-1 12 -1 35q0 34 4 61q-24 -1 -70 -1q-8 0 -8 9v45q0 8 12 8q42 0 78 -2q31 113 112.5 186.5t206.5 73.5q106 0 170 -49q8 -6 8 -20v-69q0 -16 -12 -16q-6 0 -12 6
q-59 67 -155 67q-85 0 -142 -50.5t-80 -129.5q52 3 102 3h97q8 0 8 -10v-44q0 -8 -8 -8h-102q-72 0 -108 3q-4 -42 -4 -57q0 -16 2 -42q35 3 103 3h110q7 0 7 -9v-44q0 -9 -9 -9h-103q-66 0 -98 4q19 -89 77 -141.5t140 -52.5q104 0 167 60q4 5 11 5q9 0 9 -15v-49
q0 -15 -9 -21q-69 -57 -195 -57z" />
    <glyph glyph-name="afii61352" unicode="&#x2116;" horiz-adv-x="1201" 
d="M561 8l-317 487q-46 81 -66 134q6 -76 6 -154v-466q0 -9 -8 -9h-75q-9 0 -9 9v687q0 10 9 10h113q9 0 15 -10l291 -446q51 -86 76 -157q-8 79 -8 183v420q0 10 9 10h74q9 0 9 -10v-687q0 -3 -3 -6t-6 -3h-98q-8 0 -12 8zM965 341q-81 0 -133 53.5t-52 136.5
q0 79 51 134.5t136 55.5q82 0 130.5 -55t48.5 -135t-50.5 -135t-130.5 -55zM966 658q-101 0 -101 -129q0 -64 26.5 -97.5t74.5 -33.5q50 0 73 31.5t23 99.5q0 129 -96 129zM1143 198v-56q0 -3 -3 -6t-6 -3h-335q-9 0 -9 9v56q0 10 9 10h335q9 0 9 -10z" />
    <glyph glyph-name="trademark" unicode="&#x2122;" horiz-adv-x="757" 
d="M290 706q3 0 3 -3l2 -40q0 -3 -3 -3l-90 1v-209q0 -4 -4 -4h-51q-4 0 -4 4v209l-91 -1q-3 0 -3 3l2 40q0 3 3 3h236zM399 662l5 -210q0 -4 -4 -4h-46q-4 0 -4 4v251q0 3 4 3h75q5 0 6 -3l70 -191l68 191q1 3 5 3h73q4 0 4 -3v-251q0 -4 -4 -4h-45q-5 0 -5 4l5 210
l-80 -210q0 -4 -4 -4h-38q-3 0 -5 4z" />
    <glyph glyph-name="estimated" unicode="&#x212e;" horiz-adv-x="726" 
d="M415 -12q-159 0 -257.5 98t-98.5 258q0 166 100.5 275t250.5 109q133 0 202 -76t69 -198q0 -42 -41 -42h-466q-6 -33 -6 -80q0 -107 72.5 -184.5t187.5 -77.5q108 0 181 58q8 7 15 7q10 0 10 -14v-51q0 -17 -11 -26q-88 -56 -208 -56zM580 482q0 77 -45.5 121t-125.5 44
t-140 -45t-82 -120h393z" />
    <glyph glyph-name="arrowleft" unicode="&#x2190;" horiz-adv-x="732" 
d="M146 206l194 -193q5 -5 2.5 -9t-9.5 -4h-70q-13 0 -20 7l-220 217q-9 9 -9 17q0 9 9 18l220 216q7 7 20 7h70q7 0 9.5 -4t-2.5 -9l-194 -191h544q9 0 9 -10v-53q0 -3 -3 -6t-6 -3h-544z" />
    <glyph glyph-name="arrowup" unicode="&#x2191;" horiz-adv-x="582" 
d="M256 451l-193 -194q-5 -5 -9 -2.5t-4 9.5v70q0 13 7 20l217 220q9 9 17 9q9 0 18 -9l216 -220q7 -7 7 -20v-70q0 -7 -4 -9.5t-9 2.5l-191 194v-544q0 -9 -10 -9h-53q-3 0 -6 3t-3 6v544z" />
    <glyph glyph-name="arrowright" unicode="&#x2192;" horiz-adv-x="732" 
d="M585 206h-543q-3 0 -6 3t-3 6v53q0 10 9 10h543l-193 191q-5 5 -2.5 9t9.5 4h70q13 0 20 -7l220 -216q9 -9 9 -18q0 -8 -9 -17l-220 -217q-7 -7 -20 -7h-70q-7 0 -9.5 4t2.5 9z" />
    <glyph glyph-name="arrowdown" unicode="&#x2193;" horiz-adv-x="582" 
d="M326 29l193 194q5 5 9 2.5t4 -9.5v-70q0 -13 -7 -20l-217 -220q-9 -9 -17 -9q-9 0 -18 9l-216 220q-7 7 -7 20v70q0 7 4 9.5t9 -2.5l191 -194v544q0 9 10 9h53q3 0 6 -3t3 -6v-544z" />
    <glyph glyph-name="partialdiff" unicode="&#x2202;" horiz-adv-x="559" 
d="M217 656q-38 0 -65 -18t-37 -18q-17 0 -29 13t-12 35q0 24 28.5 42.5t89.5 18.5q138 0 225 -114.5t87 -319.5q0 -138 -58.5 -223t-168.5 -85q-97 0 -158 69t-61 177q0 101 49 166t137 65q59 0 103.5 -31.5t64.5 -80.5q-12 145 -64 224.5t-131 79.5zM274 399
q-54 0 -86 -43t-32 -135q0 -78 29 -123t88 -45q60 0 95 47.5t35 136.5q0 70 -31.5 116t-97.5 46z" />
    <glyph glyph-name="product" unicode="&#x220f;" horiz-adv-x="625" 
d="M114 639q-45 -11 -70 -73l-26 16q17 65 57 102t101 37q60 0 157 -41.5t140 -41.5q41 0 61.5 16t34.5 57l30 -15q-16 -96 -85 -123q3 -38 3 -113v-451q0 -3 -3 -6t-6 -3h-71q-9 0 -9 9v458q0 56 4 99q-57 0 -134.5 34t-101.5 36q3 -34 3 -99v-528q0 -3 -3 -6t-6 -3h-70
q-9 0 -9 9v526q0 71 3 104z" />
    <glyph glyph-name="summation" unicode="&#x2211;" horiz-adv-x="649" 
d="M398 354l-134 -188q-34 -50 -75 -92q70 4 226 4q32 0 94 1t93 1q10 0 9 -10l-9 -62q0 -8 -9 -8h-529q-4 0 -8.5 5t-4.5 12q0 8 4 13l235 324l-231 319q-8 11 -8 18q0 15 13 15h509q7 0 8 -9l9 -63q0 -9 -8 -9q-30 0 -88.5 1t-89.5 1q-142 0 -210 4q30 -30 59 -71z" />
    <glyph glyph-name="minus" unicode="&#x2212;" horiz-adv-x="491" 
d="M449 302v-61q0 -3 -3 -6t-6 -3h-390q-9 0 -9 9v61q0 10 9 10h390q9 0 9 -10z" />
    <glyph glyph-name="radical" unicode="&#x221a;" horiz-adv-x="712" 
d="M166 416q-72 -2 -140 -2q-6 0 -6 8v51q0 9 6 9h207q8 0 13 -10l96 -257q25 -66 43 -133q14 59 42 132l181 484q3 9 13 9h72q11 0 7 -13l-271 -691q-4 -8 -11 -8h-73q-6 0 -11 8z" />
    <glyph glyph-name="infinity" unicode="&#x221e;" horiz-adv-x="764" 
d="M382 231q-33 -141 -166 -141q-82 0 -130.5 70.5t-48.5 190.5q0 119 50.5 190t130.5 71q129 0 165 -145q35 145 162 145q81 0 131.5 -71t50.5 -190q0 -120 -49 -190.5t-130 -70.5q-133 0 -166 141zM227 164q97 0 120 185q-11 90 -38.5 138t-80.5 48q-100 0 -100 -186
q0 -185 99 -185zM538 164q49 0 74 48.5t25 136.5q0 186 -100 186q-53 0 -80 -47.5t-40 -138.5q14 -93 41.5 -139t79.5 -46z" />
    <glyph glyph-name="approxequal" unicode="&#x2248;" horiz-adv-x="499" 
d="M341 296q-39 0 -99.5 38.5t-88.5 38.5q-26 0 -42 -17t-16 -39q0 -13 -15 -13q-33 0 -33 13q0 49 32.5 82.5t88.5 33.5q41 0 74 -17.5t59.5 -35t49.5 -17.5t39.5 15t16.5 40q0 11 12 11q33 0 33 -13q0 -53 -30.5 -86.5t-80.5 -33.5zM341 127q-39 0 -99.5 39t-88.5 39
q-26 0 -42 -17.5t-16 -39.5q0 -13 -15 -13q-33 0 -33 13q0 50 32 83t89 33q41 0 74 -17.5t59.5 -35t49.5 -17.5t39.5 15.5t16.5 40.5q0 11 12 11q33 0 33 -13q0 -54 -30.5 -87.5t-80.5 -33.5z" />
    <glyph glyph-name="notequal" unicode="&#x2260;" horiz-adv-x="490" 
d="M330 319l-79 -116h189q9 0 9 -10v-54q0 -3 -3 -6t-6 -3h-240l-60 -85q-6 -9 -12 -9h-60q-4 0 -6 3.5t0 5.5l60 85h-72q-9 0 -9 9v54q0 10 9 10h123l80 116h-203q-9 0 -9 9v54q0 10 9 10h254l50 70q8 10 14 10h59q3 0 4.5 -3.5t-0.5 -6.5l-50 -70h59q9 0 9 -10v-54
q0 -3 -3 -6t-6 -3h-110z" />
    <glyph glyph-name="lessequal" unicode="&#x2264;" horiz-adv-x="500" 
d="M452 66v-57q0 -3 -3 -6t-6 -3h-388q-9 0 -9 9v57q0 10 9 10h388q9 0 9 -10zM427 141l-363 190q-10 7 -10 25q0 20 10 25l360 188q17 9 17 -5v-24q0 -11 -12 -18l-250 -160l253 -172q9 -7 9 -16v-28q0 -5 -4.5 -6.5t-9.5 1.5z" />
    <glyph glyph-name="greaterequal" unicode="&#x2265;" horiz-adv-x="500" 
d="M47 66q0 10 9 10h388q9 0 9 -10v-57q0 -9 -9 -9h-388q-3 0 -6 3t-3 6v57zM74 571l362 -190q10 -7 10 -25q0 -20 -10 -25l-360 -188q-16 -9 -16 5v24q0 11 11 18l250 161l-252 171q-9 6 -9 16v27q0 5 5 6.5t9 -0.5z" />
    <glyph glyph-name="lozenge" unicode="&#x25ca;" horiz-adv-x="530" 
d="M269 -66l159 337l-165 341l-161 -336zM299 -158h-67l-209 429l209 433h67l208 -430z" />
    <glyph glyph-name="Acute" unicode="&#xf6c9;" horiz-adv-x="380" 
d="M307 901l-160 -140q-8 -8 -15 -8h-40q-4 0 -5.5 3t0.5 6l126 140q7 10 15 10h76q4 0 5 -4t-2 -7z" />
    <glyph glyph-name="Caron" unicode="&#xf6ca;" horiz-adv-x="483" 
d="M244 811l97 92q9 9 15 9h39q4 0 5 -3t-2 -6l-121 -141q-9 -9 -16 -9h-42q-9 0 -16 9l-119 141q-2 3 -0.5 6t5.5 3h42q6 0 15 -9z" />
    <glyph glyph-name="Dieresis" unicode="&#xf6cb;" horiz-adv-x="460" 
d="M135 860q21 0 36 -15t15 -36q0 -20 -15 -35t-36 -15t-36 15t-15 35q0 21 15 36t36 15zM329 860q21 0 36 -15t15 -36q0 -20 -15 -35t-36 -15q-20 0 -35.5 15t-15.5 35q0 21 15.5 36t35.5 15z" />
    <glyph glyph-name="Grave" unicode="&#xf6ce;" horiz-adv-x="380" 
d="M78 901q-4 3 -3 7t5 4h76q8 0 16 -10l125 -140q3 -3 1.5 -6t-5.5 -3h-41q-7 0 -15 8z" />
    <glyph glyph-name="Hungarumlaut" unicode="&#xf6cf;" horiz-adv-x="659" 
d="M358 901l-140 -139q-9 -9 -14 -9h-34q-4 0 -5 3t1 6l109 140q7 10 14 10h67q3 0 4 -4t-2 -7zM517 901l-140 -139q-9 -9 -14 -9h-35q-4 0 -5 3t1 6l110 140q8 10 14 10h67q3 0 4 -4t-2 -7z" />
    <glyph glyph-name="Macron" unicode="&#xf6d0;" horiz-adv-x="407" 
d="M329 844v-49q0 -7 -6 -7h-237q-6 0 -6 7v49q0 8 6 8h237q6 0 6 -8z" />
    <glyph glyph-name="Lslashsmall" unicode="&#xf6f9;" horiz-adv-x="423" 
d="M170 66q40 2 107 2q35 0 67 1t50 1.5t19 0.5q8 0 8 -7l-5 -58q0 -6 -7 -6h-317q-9 0 -9 10q0 102 3 145q-34 -44 -54 -64q-1 -1 -3 -1.5t-3.5 0.5t-1.5 3v62q0 9 6 15q10 12 30.5 30.5t25.5 23.5q-3 45 -3 248q0 10 9 10h73q9 0 9 -10q0 -142 -3 -165q31 42 87 102
q2 2 5.5 1.5t3.5 -4.5v-64q0 -8 -7 -15l-48.5 -50.5t-40.5 -42.5q4 -82 -1 -168z" />
    <glyph glyph-name="OEsmall" unicode="&#xf6fa;" horiz-adv-x="796" 
d="M454 58q115 5 174 5q39 0 81.5 1.5t44.5 1.5q10 0 10 -8l-4 -51q0 -7 -7 -7h-384q-39 -13 -82 -13q-116 0 -179 76.5t-63 182.5q0 104 62.5 178.5t179.5 74.5q53 0 98 -17h352q7 0 7 -6l5 -47q2 -11 -10 -11q-8 0 -47 0.5t-72 0.5q-50 0 -160 5q51 -51 65 -142q46 2 65 2
q18 0 40.5 0.5t28.5 0.5q10 0 10 -8v-48q0 -9 -9 -9q-13 0 -35.5 1t-33.5 1q-39 0 -65 1q-5 -108 -72 -165zM287 53q72 0 107.5 53.5t35.5 137.5q0 85 -35 136t-108 51t-108.5 -51.5t-35.5 -135.5t36 -137.5t108 -53.5z" />
    <glyph glyph-name="Scaronsmall" unicode="&#xf6fd;" horiz-adv-x="431" 
d="M234 499q74 0 126 -32q6 -4 6 -15v-61q0 -12 -8 -12q-3 0 -12 7q-50 42 -118 42q-43 0 -65 -19t-22 -48q0 -17 5 -29t20.5 -21.5t25 -13.5t37.5 -14q7 -3 11 -4q77 -26 113 -59t36 -90q0 -66 -53 -104.5t-131 -38.5q-88 0 -144 40q-8 5 -8 17v47q0 12 7 12q5 0 12 -5
q55 -44 132 -44q46 0 71.5 20t25.5 50q0 32 -21.5 46.5t-76.5 32.5q-9 3 -14 5q-62 22 -98 55t-36 92q0 64 50.5 104t128.5 40zM232 602l86 95q9 9 15 9h40q3 0 4.5 -3t-0.5 -6l-109 -144q-10 -10 -15 -10h-49q-7 0 -15 10l-109 144q-4 9 4 9h43q8 0 17 -9z" />
    <glyph glyph-name="Zcaronsmall" unicode="&#xf6ff;" horiz-adv-x="461" 
d="M425 69q6 0 8.5 -2.5t1.5 -6.5l-6 -52q-1 -8 -11 -8h-376q-16 0 -16 20q0 10 7 18l227 298q38 50 64 80q-46 -2 -137 -2q-26 0 -70 -1t-65 -1q-5 0 -7.5 2t-1.5 6l6 53q1 9 9 9h371q16 0 16 -21q0 -7 -5 -14l-224 -296q-45 -59 -69 -86q33 2 147 2q23 0 67.5 1t63.5 1z
M250 602l86 95q9 9 15 9h40q3 0 4.5 -3t-0.5 -6l-109 -144q-10 -10 -15 -10h-49q-7 0 -15 10l-109 144q-4 9 4 9h43q8 0 17 -9z" />
    <glyph glyph-name="exclamsmall" unicode="&#xf721;" horiz-adv-x="331" 
d="M223 696l-23 -502q0 -3 -3 -6t-6 -3h-48q-9 0 -9 9l-23 502q0 10 9 10h94q9 0 9 -10zM167 111q25 0 42 -16.5t17 -41.5q0 -24 -17 -40.5t-42 -16.5q-24 0 -40.5 16.5t-16.5 40.5q0 25 16.5 41.5t40.5 16.5z" />
    <glyph glyph-name="ampersandsmall" unicode="&#xf726;" horiz-adv-x="691" 
d="M357 653q-76 0 -109.5 -33t-33.5 -86q0 -61 40 -95t122 -34q73 0 134 2.5t95.5 5.5t41.5 3t7 -9v-52q0 -8 -7 -8q-73 0 -107 3q3 -29 3 -105v-236q0 -9 -9 -9h-249q-103 0 -166 50.5t-63 136.5q0 81 61 134.5t140 59.5q-71 16 -110.5 58t-39.5 107q0 73 56.5 128
t177.5 55q117 0 190 -49q11 -8 11 -25v-60q0 -14 -13 -14q-7 0 -13 6q-66 66 -159 66zM340 343q-88 0 -132 -39t-44 -104q0 -61 35.5 -93t102.5 -32q84 0 156 -3q-3 39 -3 82v102q0 56 3 90q-33 -3 -118 -3z" />
    <glyph glyph-name="zerooldstyle" unicode="&#xf730;" horiz-adv-x="539" 
d="M273 500q101 0 157.5 -74.5t56.5 -182.5q0 -110 -58.5 -183t-161.5 -73q-101 0 -158 73t-57 183q0 107 60 182t161 75zM271 52q61 0 91.5 50t30.5 138q0 87 -30.5 139t-93.5 52t-92.5 -52t-29.5 -139q0 -84 32 -136t92 -52z" />
    <glyph glyph-name="oneoldstyle" unicode="&#xf731;" horiz-adv-x="539" 
d="M240 399q-52 -28 -76 -37q-1 0 -6 -2t-7 -4q-33 -14 -41 -17q-6 -2 -7 -2q-7 0 -7 7v60q0 10 11 14l203 83q1 0 3 1h2q14 0 14 -9v-354q0 -39 -3 -77q22 2 68 2h53q11 0 11 -8q1 -8 2.5 -23.5t2.5 -23.5v-2q0 -7 -11 -7h-340q-11 0 -11 7v2q1 15 5 47q0 8 11 8h58
q45 0 65 -2q-3 38 -3 74v65v121q0 36 3 77z" />
    <glyph glyph-name="twooldstyle" unicode="&#xf732;" horiz-adv-x="539" 
d="M176 61q75 4 197 8q20 0 51 1t37 1q10 0 10 -7v-2q-1 -2 -1 -6t-1 -6q-1 -6 -2.5 -20.5t-2.5 -20.5q0 -9 -10 -9h-377q-14 0 -14 30q0 16 7 20q296 136 296 277q0 23 -5 36q-16 62 -97 62q-24 0 -44 -9q-46 -17 -46 -63q0 -20 -12 -31.5t-33 -11.5q-5 0 -13 4
q-31 7 -31 47q0 5 2 13q2 18 12 37t30 40.5t57 35t85 13.5q91 0 139 -43.5t48 -119.5q0 -87 -76.5 -161t-205.5 -115z" />
    <glyph glyph-name="threeoldstyle" unicode="&#xf733;" horiz-adv-x="539" 
d="M230 -216q-94 0 -159 50q-6 6 -6 15v51q0 9 7 9q3 0 10 -5q63 -51 142 -51q65 0 103.5 35.5t38.5 97.5q0 59 -29.5 93.5t-92.5 34.5q-30 0 -55 -8.5t-27 -8.5q-8 0 -9 8l-6 39q-3 10 6 12q94 24 144 68.5t50 106.5q0 98 -99 98q-85 0 -100 -65q-5 -28 -40 -28
q-17 0 -29.5 11t-12.5 32q0 40 46.5 80.5t140.5 40.5q86 0 136 -42t50 -114q0 -62 -43 -110.5t-120 -75.5q87 0 136 -47.5t49 -129.5q0 -89 -65.5 -143t-165.5 -54z" />
    <glyph glyph-name="fouroldstyle" unicode="&#xf734;" horiz-adv-x="539" 
d="M41 62q116 212 257 420h76q8 0 8 -10v-323q0 -58 -2 -84q39 2 119 2q11 0 9 -11l-6 -48q-2 -8 -8 -8q-77 0 -114 2q2 -25 2 -80v-117q0 -10 -8 -10h-65q-9 0 -9 10v119q0 54 2 78q-25 -2 -77 -2h-180q-10 0 -10 10v26q0 16 6 26zM302 65q-2 27 -2 81v92q0 83 7 153
l-193 -327q56 3 103 3q60 0 85 -2z" />
    <glyph glyph-name="fiveoldstyle" unicode="&#xf735;" horiz-adv-x="539" 
d="M222 -147q61 0 100.5 43t39.5 124q0 146 -137 146q-33 0 -58 -5t-37.5 -9.5t-16.5 -4.5q-11 0 -11 8v313q0 14 13 14h289q8 0 9 -9l6 -58q1 -4 -2 -6.5t-8 -2.5q-20 0 -58 1t-57 1q-76 0 -109 2q3 -43 3 -91q0 -33 -4 -97q28 7 71 7q98 0 151 -55t53 -151
q0 -103 -66 -171t-180 -68q-77 0 -116 28.5t-39 60.5q0 19 10.5 30.5t29.5 11.5q8 0 14 -2.5t8.5 -5t9.5 -10.5t10 -11q17 -19 34 -26t48 -7z" />
    <glyph glyph-name="sixoldstyle" unicode="&#xf736;" horiz-adv-x="539" 
d="M341 651q-82 0 -136 -83.5t-65 -233.5q13 53 59 88t108 35q81 0 132.5 -60.5t51.5 -164.5q0 -109 -59.5 -176.5t-157.5 -67.5q-100 0 -158 76.5t-58 224.5q0 209 85 324.5t216 115.5q62 0 90.5 -21t28.5 -50q0 -20 -10.5 -32t-29.5 -12q-12 0 -37.5 18.5t-59.5 18.5z
M283 395q-64 0 -95 -47t-31 -118q0 -88 31 -133.5t84 -45.5q122 0 122 168q0 88 -29.5 132t-81.5 44z" />
    <glyph glyph-name="sevenoldstyle" unicode="&#xf737;" horiz-adv-x="539" 
d="M484 452q-98 -181 -153.5 -327.5t-55.5 -288.5q0 -22 -14.5 -34t-37.5 -12t-38.5 11.5t-15.5 32.5q0 80 54 228t164 348q-85 -5 -146 -5q-24 0 -86.5 -1t-82.5 -1q-11 0 -9 10l8 60q1 9 9 9h399q10 0 10 -14q0 -10 -5 -16z" />
    <glyph glyph-name="eightoldstyle" unicode="&#xf738;" horiz-adv-x="539" 
d="M268 -13q-101 0 -159 47.5t-58 126.5q0 121 156 200q-63 37 -97.5 79.5t-34.5 108.5q0 74 56.5 127t145.5 53q93 0 143 -46t50 -116q0 -107 -140 -181q78 -45 120 -91t42 -116q0 -91 -62.5 -141.5t-161.5 -50.5zM275 669q-54 0 -82.5 -33t-28.5 -80q0 -44 27.5 -75.5
t89.5 -66.5q50 33 75.5 65.5t25.5 82.5q0 48 -27.5 77.5t-79.5 29.5zM254 336q-57 -37 -82 -74t-25 -94q0 -55 35 -86.5t90 -31.5t88 31.5t33 88.5q0 53 -29.5 87t-109.5 79z" />
    <glyph glyph-name="nineoldstyle" unicode="&#xf739;" horiz-adv-x="539" 
d="M198 -144q92 0 141.5 84t55.5 208q-17 -51 -59.5 -82.5t-100.5 -31.5q-85 0 -132 61.5t-47 159.5q0 111 59.5 178t153.5 67q95 0 153.5 -71t58.5 -225q0 -214 -79.5 -316.5t-204.5 -102.5q-77 0 -129 41q-9 6 -9 20v46q0 12 8 12q5 0 12 -7q49 -41 119 -41zM259 96
q55 0 89 41t34 118q0 87 -29 134t-81 47q-58 0 -89.5 -44t-31.5 -128q0 -86 30 -127t78 -41z" />
    <glyph glyph-name="questionsmall" unicode="&#xf73f;" horiz-adv-x="481" 
d="M285 315q-43 0 -66 13q4 -98 4 -136q0 -3 -3 -6t-6 -3h-54q-9 0 -9 9v204q0 9 8 9q4 0 11 -5q37 -20 81 -20q52 0 79.5 31.5t27.5 90.5q0 63 -37.5 100t-98.5 37q-59 0 -92 -42q-21 -29 -44 -29q-40 0 -40 43q0 36 41.5 71.5t128.5 35.5q108 0 172.5 -59t64.5 -159
q0 -86 -45 -135.5t-123 -49.5zM192 111q25 0 42 -16.5t17 -41.5q0 -24 -17 -40.5t-42 -16.5q-24 0 -40.5 16.5t-16.5 40.5q0 25 16.5 41.5t40.5 16.5z" />
    <glyph glyph-name="Asmall" unicode="&#xf761;" horiz-adv-x="480" 
d="M237 416q-38 -134 -75 -217q21 2 75 2q61 0 71 -1q-45 114 -71 216zM376 10q-41 110 -47 133q-30 -2 -93 -2q-62 0 -92 2q-15 -49 -48 -133q-3 -10 -13 -10h-71q-11 0 -7 13l184 466q3 8 11 8h77q6 0 11 -8l186 -466q5 -13 -7 -13h-78q-9 0 -13 10z" />
    <glyph glyph-name="Bsmall" unicode="&#xf762;" horiz-adv-x="493" 
d="M263 61q88 0 88 80q0 84 -111 84q-42 0 -77 2q2 -25 2 -84q0 -62 -2 -83q11 0 44.5 0.5t55.5 0.5zM229 282q94 0 94 72q0 67 -83 67q-21 0 -77 2q2 -18 2 -68q0 -52 -2 -75q40 2 66 2zM282 0h-198q-9 0 -9 9v463q0 10 9 10h167q83 0 123 -33t40 -81q0 -39 -30.5 -69
t-75.5 -38q57 -4 96 -41.5t39 -88.5q0 -60 -42.5 -95.5t-118.5 -35.5z" />
    <glyph glyph-name="Csmall" unicode="&#xf763;" horiz-adv-x="473" 
d="M301 424q-69 0 -114.5 -48.5t-45.5 -134.5t44.5 -133.5t114.5 -47.5q72 0 117 38q8 6 11 6q9 0 9 -12v-43q0 -11 -7 -17q-57 -45 -142 -45q-108 0 -175.5 69.5t-67.5 183.5q0 111 75.5 185t180.5 74q79 0 129 -33q7 -4 7 -15v-59q0 -12 -9 -12q-3 0 -11 6q-46 38 -116 38
z" />
    <glyph glyph-name="Dsmall" unicode="&#xf764;" horiz-adv-x="558" 
d="M258 0h-174q-9 0 -9 9v463q0 10 9 10h169q117 0 189 -65t72 -179t-71 -176t-185 -62zM256 64q160 0 160 176q0 79 -41 128.5t-129 49.5q-33 0 -83 2q3 -18 3 -70v-200q0 -66 -3 -88q31 2 93 2z" />
    <glyph glyph-name="Esmall" unicode="&#xf765;" horiz-adv-x="448" 
d="M280 63q40 0 82 1.5t44 1.5q11 0 11 -8l-4 -51q0 -7 -7 -7h-322q-9 0 -9 9v463q0 10 9 10h305q7 0 7 -6l5 -47q2 -11 -10 -11q-9 0 -47 0.5t-71 0.5q-27 0 -65.5 2t-44.5 2q3 -27 3 -68t-3 -74q40 3 78 3q19 0 41.5 0.5t28.5 0.5q10 0 10 -8v-48q0 -9 -9 -9
q-13 0 -35.5 1t-33.5 1q-46 0 -80 2q3 -33 3 -81q0 -51 -3 -83q105 3 117 3z" />
    <glyph glyph-name="Fsmall" unicode="&#xf766;" horiz-adv-x="414" 
d="M166 9q0 -3 -3 -6t-6 -3h-73q-9 0 -9 9v463q0 10 9 10h306q7 0 7 -6l4 -49q1 -10 -8 -10q-17 0 -63.5 0.5t-64.5 0.5q-21 0 -56.5 2t-45.5 2q3 -25 3 -76q0 -46 -3 -77q51 3 88 3q15 0 40 0.5t33 0.5t8 -8v-48q0 -9 -8 -9q-11 0 -35.5 1t-36.5 1q-64 0 -89 3
q3 -114 3 -204z" />
    <glyph glyph-name="Gsmall" unicode="&#xf767;" horiz-adv-x="531" 
d="M320 425q-88 0 -135.5 -50t-47.5 -134q0 -93 46.5 -139t113.5 -46q49 0 96 20v147q0 10 10 10h63q10 0 10 -10v-185q-80 -51 -183 -51q-107 0 -177.5 67t-70.5 180q0 114 76 189.5t200 75.5q90 0 146 -33q8 -5 8 -14v-62q0 -11 -9 -11q-4 0 -12 6q-55 40 -134 40z" />
    <glyph glyph-name="Hsmall" unicode="&#xf768;" horiz-adv-x="570" 
d="M404 9q0 176 2 215q-20 -2 -61 -2h-115q-38 0 -66 2q2 -39 2 -215q0 -3 -3 -6t-6 -3h-73q-9 0 -9 9v463q0 10 9 10h73q9 0 9 -10q0 -146 -2 -183q21 2 68 2h112q48 0 62 -2q-2 37 -2 183q0 10 9 10h73q9 0 9 -10v-463q0 -3 -3 -6t-6 -3h-73q-9 0 -9 9z" />
    <glyph glyph-name="Ismall" unicode="&#xf769;" 
d="M166 472v-463q0 -3 -3 -6t-6 -3h-73q-9 0 -9 9v463q0 10 9 10h73q9 0 9 -10z" />
    <glyph glyph-name="Jsmall" unicode="&#xf76a;" horiz-adv-x="309" 
d="M24 3q-6 3 -6 15v57q0 11 7 11q5 0 9 -3q20 -13 49 -13q68 0 68 57v345q0 10 9 10h73q9 0 9 -10v-329q0 -76 -43 -115.5t-107 -39.5q-38 0 -68 15z" />
    <glyph glyph-name="Ksmall" unicode="&#xf76b;" horiz-adv-x="488" 
d="M162 227q4 -37 4 -114v-104q0 -3 -3 -6t-6 -3h-73q-9 0 -9 9v463q0 10 9 10h73q9 0 9 -10v-81q0 -72 -4 -107h17q10 0 73.5 68.5t107.5 121.5q7 8 15 8h81q7 0 7 -8q0 -5 -4 -9q-26 -25 -74.5 -76.5l-83.5 -88t-47 -40.5q14 -6 109.5 -115t114.5 -121q7 -5 7 -13
q0 -11 -8 -11h-93q-8 0 -15 6q-17 20 -64 79.5l-82 100.5t-45 41h-16z" />
    <glyph glyph-name="Lsmall" unicode="&#xf76c;" horiz-adv-x="415" 
d="M166 472q0 -180 -4 -406q42 2 107 2q35 0 67 1t50 1.5t19 0.5q8 0 8 -7l-5 -58q0 -6 -7 -6h-317q-9 0 -9 10v462q0 10 9 10h73q9 0 9 -10z" />
    <glyph glyph-name="Msmall" unicode="&#xf76d;" horiz-adv-x="690" 
d="M534 9q0 275 5 406l-148 -409q0 -6 -7 -6h-79q-4 0 -8 6l-148 409q9 -194 9 -406q0 -3 -3 -6t-6 -3h-65q-9 0 -9 9v463q0 10 9 10h114q7 0 11 -11l139 -387l138 389q4 9 11 9h109q9 0 9 -10v-463q0 -3 -3 -6t-6 -3h-63q-9 0 -9 9z" />
    <glyph glyph-name="Nsmall" unicode="&#xf76e;" horiz-adv-x="589" 
d="M439 83q-8 117 -8 389q0 10 9 10h65q9 0 9 -10v-463q0 -3 -3 -6t-6 -3h-86q-8 0 -11 6q-120 179 -255 410q6 -180 6 -407q0 -3 -3 -6t-6 -3h-65q-9 0 -9 9v463q0 10 9 10h108q7 0 11 -8q156 -233 235 -391z" />
    <glyph glyph-name="Osmall" unicode="&#xf76f;" horiz-adv-x="572" 
d="M286 499q79 0 135 -37.5t81 -93t25 -122.5q0 -106 -62.5 -182.5t-178.5 -76.5q-78 0 -134.5 38.5t-82 96t-25.5 124.5q0 104 63 178.5t179 74.5zM286 53q72 0 107 53.5t35 137.5q0 85 -35 136t-107 51q-73 0 -108.5 -51.5t-35.5 -135.5t36 -137.5t108 -53.5z" />
    <glyph glyph-name="Psmall" unicode="&#xf770;" horiz-adv-x="458" 
d="M166 9q0 -3 -3 -6t-6 -3h-73q-9 0 -9 9v463q0 10 9 10h166q87 0 132 -43t45 -109q0 -69 -50 -112t-136 -43q-43 0 -77 2q2 -29 2 -168zM225 240q55 0 81.5 21t26.5 69q0 88 -97 88q-36 0 -72 3q2 -40 2 -88q0 -58 -2 -96q22 3 61 3z" />
    <glyph glyph-name="Qsmall" unicode="&#xf771;" horiz-adv-x="570" 
d="M556 -108q-38 0 -81.5 23t-95.5 48t-110 28q-104 3 -164 76.5t-60 178.5q0 104 62.5 178.5t179.5 74.5q115 0 178 -73.5t63 -173.5q0 -86 -40.5 -150.5t-112.5 -87.5q29 -2 93 -25t88 -23q23 0 41 8q8 4 12 4q10 0 10 -12v-42q0 -14 -18 -23t-45 -9zM288 53q72 0 107 53
t35 137t-35 136t-108 52t-108.5 -51.5t-35.5 -135.5t36 -137.5t109 -53.5z" />
    <glyph glyph-name="Rsmall" unicode="&#xf772;" horiz-adv-x="507" 
d="M166 9q0 -3 -3 -6t-6 -3h-73q-9 0 -9 9v463q0 10 9 10h175q77 0 119.5 -36.5t42.5 -97.5q0 -58 -41 -93.5t-96 -41.5q28 -12 55.5 -37.5t80.5 -81.5q51 -56 74 -65q6 -3 6 -14q0 -15 -11 -15h-85q-12 0 -20 9q-18 17 -57 65.5t-70.5 80.5t-49.5 32q-33 0 -44 2
q3 -42 3 -180zM241 418q-28 0 -78 2q3 -36 3 -100q0 -54 -3 -75q13 1 54 1q113 0 113 90q0 82 -89 82z" />
    <glyph glyph-name="Ssmall" unicode="&#xf773;" horiz-adv-x="431" 
d="M234 499q74 0 126 -32q6 -4 6 -15v-61q0 -12 -8 -12q-3 0 -12 7q-50 42 -118 42q-43 0 -65 -19t-22 -48q0 -15 5.5 -26.5t11 -18.5t22.5 -15t26 -11.5t34 -12.5q78 -26 113.5 -58t35.5 -89q0 -66 -53 -104.5t-131 -38.5q-88 0 -144 40q-8 5 -8 17v47q0 12 7 12q5 0 12 -5
q55 -44 132 -44q46 0 71.5 20t25.5 50q0 15 -6 26.5t-12.5 18.5t-26 15.5t-29 12t-38.5 13.5q-63 22 -98.5 54t-35.5 91q0 64 50.5 104t128.5 40z" />
    <glyph glyph-name="Tsmall" unicode="&#xf774;" horiz-adv-x="426" 
d="M258 9q0 -3 -3 -6t-6 -3h-73q-9 0 -9 9v292q0 69 3 108q-19 0 -55 -1t-64 -1.5t-49 -0.5q-8 0 -6 8l5 59q1 9 7 9h410q6 0 7 -9l3 -59q2 -8 -7 -8q-89 0 -166 3q3 -41 3 -108v-292z" />
    <glyph glyph-name="Usmall" unicode="&#xf775;" horiz-adv-x="563" 
d="M68 171v302q0 3 3 6t6 3h73q9 0 9 -9v-303q0 -55 34.5 -82.5t88.5 -27.5t88.5 28.5t34.5 81.5v303q0 3 3 6t6 3h71q9 0 9 -9v-303q0 -86 -64 -134.5t-149 -48.5q-88 0 -150.5 48.5t-62.5 135.5z" />
    <glyph glyph-name="Vsmall" unicode="&#xf776;" horiz-adv-x="474" 
d="M286 3q-3 -9 -11 -9h-77q-7 0 -10 9l-183 465q-6 14 6 14h77q8 0 13 -10l93 -261q32 -90 45 -143q21 78 44 142l96 262q5 10 13 10h70q12 0 7 -15z" />
    <glyph glyph-name="Wsmall" unicode="&#xf777;" horiz-adv-x="759" 
d="M349 482h70q9 0 12 -10l78 -253q26 -82 37 -146q13 68 36 143l79 256q3 10 11 10h71q11 0 5 -13l-158 -466q-4 -9 -10 -9h-76q-6 0 -9 9l-85 270q-18 59 -29 127q-9 -59 -31 -129l-86 -268q-3 -9 -9 -9h-77q-8 0 -9 9l-159 466q-4 13 6 13h77q8 0 11 -10l80 -255
q25 -77 37 -144q12 68 36 142l81 257q3 10 11 10z" />
    </font>
</defs>
</svg>
