<?xml version="1.0" standalone="no"?>
<!DOCTYPE svg PUBLIC "-//W3C//DTD SVG 1.1//EN" "http://www.w3.org/Graphics/SVG/1.1/DTD/svg11.dtd" >
<svg>
<metadata>
Created by FontForge 20100429 at Tue Aug 20 10:24:28 2013
 By www-data
Copyright (c) 2010 by Pablo Impallari. www.impallari.com. All rights reserved.
</metadata>
<defs>
<font id="Lobster" horiz-adv-x="1034" >
  <font-face 
    font-family="Lobster"
    font-weight="400"
    font-stretch="normal"
    units-per-em="2048"
    panose-1="2 0 5 6 0 0 0 2 0 3"
    ascent="1638"
    descent="-410"
    x-height="1024"
    cap-height="1534"
    bbox="-428 -512 3172 2048"
    underline-thickness="102"
    underline-position="-103"
    unicode-range="U+0020-FB04"
  />
<missing-glyph horiz-adv-x="788" 
 />
    <glyph glyph-name="E_x" unicode="Ex" horiz-adv-x="1632" 
d="M1348 1042q0 97 125 97q59 0 94 -53.5t35 -141t-71 -201.5t-222 -274l18 -102l13 -61q24 -120 108 -120q59 0 110 51t74 130h86q-132 -379 -422 -379q-98 0 -149.5 64t-85.5 206q-108 -127 -295 -209t-363 -82q-270 0 -358 192q-31 68 -31 157q0 178 105 337t274 201
q-125 91 -125 251t130 297.5t319 137.5q127 0 210 -66.5t83 -174t-45 -168t-104 -60.5t-99 55q36 14 63 68t27 113.5t-36 85.5q-37 26 -80 26q-86 0 -146 -88.5t-60 -200.5q0 -154 112 -232q40 -28 95 -42q-156 -34 -261 -187t-105 -282.5t58.5 -179t132.5 -49.5
q128 0 254.5 62t217.5 165l-102 561h289l65 -364q195 208 195 325q0 15 -2 25q-20 -4 -35 -4q-96 0 -96 114z" />
    <glyph glyph-name="F_i" unicode="Fi" horiz-adv-x="1487" 
d="M221 0l295 1368h-22q-137 0 -211 -93.5t-74 -330.5q0 -81 25 -125q4 -8 4 -14q-165 0 -206 105q-14 38 -14 117t38 175t122 170q185 164 539 164q52 0 107 -6l112 -14q160 -21 283.5 -21t267.5 39q-38 -215 -151 -288q-43 -29 -105 -29t-113 12t-100 29t-100 37t-115 36
l-88 -409h258l-33 -152h-258l-166 -770h-295zM1573 367q-132 -379 -441 -379q-81 0 -145 58q-63 58 -63 187q0 58 16 134l139 657h295l-147 -696q-8 -37 -8 -73q0 -69 83 -69q60 0 111.5 52t73.5 129h86z" />
    <glyph glyph-name="IJ" unicode="IJ" horiz-adv-x="1358" 
d="M559 -424q-330 0 -330 292q0 71 32 132h-68l296 1391q-286 -120 -286 -447q0 -83 23 -125q5 -8 5 -14q-164 0 -205 105q-14 38 -14 94q0 103 64.5 198.5t166.5 169.5q233 164 488 164q42 0 82 -4l-301 -1414q54 -7 95.5 -38.5t41.5 -91.5q0 -28 -14 -68q-47 47 -101.5 47
t-93.5 -44t-39 -89q0 -77 39.5 -116.5t106 -39.5t112.5 54.5t76 197.5l336 1538l307 68l-307 -1454q-104 -506 -512 -506z" />
    <glyph glyph-name="T_h" unicode="Th" horiz-adv-x="1989" 
d="M1735 274q0 -88 75 -88q68 0 104.5 44t74.5 137h86q-76 -226 -193 -317q-79 -62 -168 -62q-147 0 -204.5 66.5t-57.5 155.5t46 273t46 258q0 105 -74 105t-128 -110q-16 -31 -27 -66l-125 -670h-295l281 1307q-64 4 -132 14l-139 20l-289 -1341h-294l292 1360
q-192 -7 -292 -92q-119 -100 -119 -319v-7q0 -83 23 -125q5 -8 5 -14q-164 0 -205 105q-14 38 -14 117t41.5 175t128.5 170q194 164 551 164q35 0 97 -8q321 -45 476 -45t228 49l-35 -70q-41 -88 -105 -390l-32 -157q100 119 244 119q97 0 162 -54t65 -158t-33 -240
l-50 -200q-15 -65 -15 -106z" />
    <glyph glyph-name="T_i" unicode="Ti" horiz-adv-x="1524" 
d="M1473 1530q22 -72 22 -135q0 -111 -78 -165q-57 -40 -130.5 -40t-142.5 26l-247 89l-281 -1305h-294l294 1374q-44 6 -98 6q-139 0 -227 -100t-88 -338q0 -83 23 -125q5 -8 5 -14q-164 0 -205 105q-14 38 -14 117t38 175t122 170q185 164 539 164q31 0 89 -5l129 -11
q183 -17 327.5 -17t216.5 29zM1610 367q-132 -379 -442 -379q-80 0 -144 58q-63 58 -63 187q0 58 16 134l139 657h295l-147 -696q-8 -37 -8 -73q0 -69 83 -69q60 0 111.5 52t73.5 129h86z" />
    <glyph glyph-name="a_x" unicode="ax" horiz-adv-x="1841" 
d="M1653 928q-97 0 -97 114q0 46 32.5 71.5t92 25.5t94.5 -53.5t35 -141.5q0 -129 -161 -326q-55 -68 -131 -149l18 -102l12 -61q25 -120 109 -120q59 0 110 51t74 130h86q-132 -379 -422 -379q-97 0 -150 65t-87 209q-218 -274 -482 -274q-85 0 -150.5 49.5t-82.5 142.5
q-128 -192 -310.5 -192t-246.5 175q-23 63 -23 143.5t14 161t43 160.5q64 176 183 291t287 115q88 0 127 -29.5t39 -74.5v-15l22 109h295l-147 -696q-7 -27 -7 -58.5t18.5 -57.5t64.5 -26q83 0 174.5 55.5t158.5 137.5l-119 645h289l80 -442q195 208 195 325q0 15 -2 25
q-20 -4 -35 -4zM647 829q0 19 -17.5 48.5t-74.5 29.5t-111 -61q-130 -147 -163 -422q-5 -42 -5 -89q0 -91 38 -127q22 -22 55 -22q61 0 111 48.5t69 132.5z" />
    <glyph glyph-name="a_z" unicode="a&#x7a;" horiz-adv-x="1855" 
d="M551 178q-127 -190 -309 -190t-246 175q-23 63 -23 143.5t14 161t43 160.5q64 176 183 291t287 115q88 0 127 -29.5t39 -74.5v-15l22 109h295l-147 -696q-9 -35 -9 -72q0 -70 84 -70q27 0 45 9q-43 -115 -73 -149q-53 -58 -134.5 -58t-133.5 49.5t-64 140.5zM647 829
q0 19 -17.5 48.5t-74.5 29.5t-111 -61q-130 -147 -163 -422q-5 -42 -5 -89q0 -91 38 -127q22 -22 55 -22q61 0 111 48.5t69 132.5zM1681 317q91 0 91 -98q0 -79 -70 -149t-180 -70h-543l522 913h-114q-48 0 -80.5 -5t-32.5 -27q0 -5 3.5 -6t11 -6.5t7.5 -48t-34.5 -68
t-63.5 -25.5q-51 0 -78.5 24t-27.5 61q0 79 68 145.5t169 66.5h527l-502 -866q13 -1 31 -3l39 -5q46 -5 84 -5q91 0 98 41q-39 4 -39 43q0 30 28 59t86 29z" />
    <glyph glyph-name="b_s" unicode="bs" horiz-adv-x="1636" 
d="M952 303q0 -153 119 -153q68 0 98.5 40t30.5 124t-10 164q-23 200 -35 419q-142 -214 -324 -276q-18 -212 -112.5 -372.5t-253.5 -226.5q-84 -34 -209.5 -34t-197.5 69t-72 193q0 55 14 117l219 1026l303 41l-98 -461q92 57 168 57q228 0 241 -307q142 27 316 324l303 40
q8 -192 16 -321l25 -325q4 -48 4 -95t-6 -80q66 36 145 101h86q-109 -129 -284 -240q-96 -139 -301 -139q-165 0 -235 89q-50 65 -50 166.5t45 156.5t102 55q107 0 107 -86q0 -38 -29 -65.5t-69.5 -27.5t-55.5 27zM617 776q-29 109 -99 109q-50 0 -81 -13.5t-40 -23.5
l-112 -520q-6 -26 -6 -47q0 -95 108 -95q90 0 170 170q50 114 66 254q-33 23 -33 79.5t27 86.5z" />
    <glyph glyph-name="b_s_x" unicode="bsx" horiz-adv-x="2343" 
d="M952 303q0 -153 119 -153q68 0 98.5 40t30.5 124t-10 164q-23 200 -35 419q-142 -214 -324 -276q-18 -212 -112.5 -372.5t-253.5 -226.5q-84 -34 -209.5 -34t-197.5 69t-72 193q0 55 14 117l219 1026l303 41l-98 -461q92 57 168 57q228 0 241 -307q142 27 316 324l303 40
q8 -192 16 -321l25 -325q4 -48 4 -97t-8 -92q160 67 254 147l-115 625h289l80 -442q194 207 194 325q0 15 -2 25q-17 -4 -35 -4q-96 0 -96 114q0 46 32.5 71.5t92 25.5t94.5 -53.5t35 -141t-71 -201.5t-222 -274l31 -163q25 -120 109 -120q59 0 110.5 52t73.5 129h86
q-132 -379 -422 -379q-100 0 -152 68t-92 235q-85 -59 -191 -105.5t-138 -62.5q-99 -135 -297 -135q-165 0 -235 89q-50 65 -50 166.5t45 156.5t102 55q107 0 107 -86q0 -38 -29 -65.5t-69.5 -27.5t-55.5 27zM617 776q-29 109 -99 109q-50 0 -81 -13.5t-40 -23.5l-112 -520
q-6 -26 -6 -47q0 -95 108 -95q90 0 170 170q50 114 66 254q-33 23 -33 79.5t27 86.5z" />
    <glyph glyph-name="b_s_z" unicode="bs&#x7a;" horiz-adv-x="2372" 
d="M952 303q0 -153 119 -153q68 0 98.5 40t30.5 124t-10 164q-23 200 -35 419q-142 -214 -324 -276q-18 -212 -112.5 -372.5t-253.5 -226.5q-84 -34 -209.5 -34t-197.5 69t-72 193q0 55 14 117l219 1026l303 41l-98 -461q92 57 168 57q228 0 241 -307q142 27 316 324l303 40
q8 -192 16 -321l25 -325q4 -48 4 -124t-33 -143q-91 -186 -327 -186q-165 0 -235 89q-50 65 -50 166.5t45 156.5t102 55q107 0 107 -86q0 -38 -29 -65.5t-69.5 -27.5t-55.5 27zM2197 317q91 0 91 -98q0 -79 -70 -149t-180 -70h-543l522 913h-114q-48 0 -80.5 -5t-32.5 -27
q0 -5 3.5 -6t11 -6.5t7.5 -48t-34.5 -68t-63.5 -25.5q-51 0 -78.5 24t-27.5 61q0 79 68 145.5t169 66.5h527l-502 -866q13 -1 31 -3l39 -5q46 -5 84 -5q91 0 98 41q-39 4 -39 43q0 30 28 59t86 29zM617 776q-29 109 -99 109q-50 0 -81 -13.5t-40 -23.5l-112 -520
q-6 -26 -6 -47q0 -95 108 -95q90 0 170 170q50 114 66 254q-33 23 -33 79.5t27 86.5z" />
    <glyph glyph-name="c_x" unicode="cx" horiz-adv-x="1546" 
d="M1262 1042q0 97 122 97q60 0 96 -53t36 -114q0 -109 -67.5 -220.5t-225.5 -284.5l18 -100l13 -61q24 -120 108 -120q59 0 110 51t74 130h86q-99 -283 -288 -355q-62 -24 -127 -24q-105 0 -159 66.5t-87 215.5q-130 -128 -305 -205t-342 -77q-256 0 -336 178
q-29 65 -29 139t12 149t39 154q62 186 172 297q137 137 323.5 137t221.5 -120q10 -34 10 -91.5t-33.5 -91.5t-73.5 -34t-73 24q25 63 25 121q0 84 -56 84q-50 0 -96 -64q-101 -141 -146 -344q-22 -95 -22 -168q0 -202 207 -202q184 0 367 132q61 44 112 101l-117 635h289
l80 -442q195 208 195 325q0 15 -2 25q-20 -4 -37 -4q-94 0 -94 114z" />
    <glyph glyph-name="c_z" unicode="c&#x7a;" horiz-adv-x="1575" 
d="M1147 913q-113 0 -113 -29q0 -8 3.5 -9t11.5 -6.5t8 -48t-34.5 -68t-64.5 -25.5q-51 0 -78.5 24t-27.5 61q0 78 67.5 145t170.5 67h485l-502 -866q59 0 100 -12.5t76 -12.5t52.5 11.5t23.5 41.5q-39 4 -39 43q0 30 28 59t81 29q96 0 96 -98q0 -79 -70 -149t-180 -70h-543
l523 913h-74zM262 348q0 -170 123 -170q110 0 246 113q-59 -303 -355 -303q-143 0 -230 75.5t-87 249.5q0 235 119 454q90 165 247 237q81 38 167 38q143 0 194 -53.5t51 -134.5t-33.5 -115t-73.5 -34t-73 24q25 63 25 121q0 84 -56 84q-61 0 -126 -108q-92 -149 -128 -365
q-10 -63 -10 -113z" />
    <glyph glyph-name="e_x" unicode="ex" horiz-adv-x="1561" 
d="M1276 1042q0 97 122 97q60 0 96 -53t36 -114q0 -109 -66.5 -221t-226.5 -284l18 -100q7 -29 13 -61q25 -120 108 -120q60 0 111.5 52t73.5 129h86q-99 -282 -289 -355q-67 -26 -120.5 -26t-95.5 18q-74 30 -116 136q-22 54 -41 132q-196 -200 -473 -264q-88 -20 -168 -20
q-170 0 -270.5 79.5t-100.5 254.5q0 225 119 444q91 167 248 238q81 38 168 38q142 0 193 -53.5t51 -142.5q0 -176 -140.5 -298t-332.5 -134q-3 -15 -3 -29v-27q0 -114 60 -158t130 -44q134 0 265.5 62t231.5 171l-117 635h289l79 -442q195 208 195 325q0 15 -2 25
q-17 -4 -37 -4q-94 0 -94 114zM594 860q0 74 -51 74q-73 0 -145.5 -133.5t-102.5 -288.5q118 4 208.5 106.5t90.5 241.5z" />
    <glyph glyph-name="e_z" unicode="e&#x7a;" horiz-adv-x="1614" 
d="M263 352q0 -170 131 -170q56 0 122.5 33t115.5 76q-55 -303 -354 -303q-144 0 -231 75.5t-87 249.5q0 234 120 453q90 167 246 238q82 38 168 38q144 0 194.5 -53.5t50.5 -142.5q0 -175 -140.5 -297.5t-330.5 -134.5q-5 -28 -5 -62zM581 860q0 74 -51 74
q-97 -4 -187 -226q-38 -95 -61 -196q118 4 208.5 106.5t90.5 241.5zM1439 317q91 0 91 -98q0 -79 -70 -149t-180 -70h-543l522 913h-114q-48 0 -80.5 -5t-32.5 -27q0 -5 3.5 -6t11 -6.5t7.5 -48t-34.5 -68t-63.5 -25.5q-51 0 -78.5 24t-27.5 61q0 79 68 145.5t169 66.5h527
l-502 -866q13 -1 31 -3l39 -5q46 -5 84 -5q91 0 98 41q-39 4 -39 43q0 30 28 59t86 29z" />
    <glyph glyph-name="eacute_x" unicode="&#xe9;x" horiz-adv-x="1556" 
d="M1272 1042q0 97 125 97q59 0 94 -53.5t35 -141t-71 -201.5t-222 -274l18 -102l13 -61q24 -120 108 -120q60 0 111 51q50 52 73 130h86q-132 -379 -421 -379q-100 0 -153.5 69.5t-86.5 214.5q-120 -128 -299.5 -206t-341.5 -78q-261 0 -342 174q-29 63 -29 138t12 151.5
t39 157.5q60 185 172 297q138 136 326 136t220 -124q10 -37 10 -100.5t-39 -138.5t-105 -132q-138 -121 -328 -133q-4 -34 -4 -66q0 -104 60 -148t132 -44q132 0 264.5 62.5t229.5 170.5l-116 635h288l80 -442q195 208 195 325q0 15 -2 25q-17 -4 -35 -4q-96 0 -96 114z
M541 934q-75 0 -144 -126.5t-106 -295.5q117 8 208 108.5t91 207t-49 106.5zM459 1149l186 387h215l-248 -387h-153z" />
    <glyph glyph-name="ff" unicode="ff" horiz-adv-x="1040" 
d="M1184 1229q4 32 4 61t-23.5 46.5t-47.5 17.5q-109 0 -146 -162l-37 -168h205l-19 -82h-202l-232 -1106q-39 -196 -158 -284q-87 -64 -215 -64q-167 0 -221 129q-97 -129 -278 -129q-95 0 -168.5 62.5t-73.5 145.5t27.5 131.5t88 92t238.5 96.5l246 1170q73 348 373 348
q68 0 129 -34.5t90 -94.5q101 129 280 129q96 0 169 -62t73 -159q0 -47 -6 -84h-96zM621 942h-203l-182 -866l210 37zM147 -289q26 -41 119 -41q33 0 67 34t54 126l49 233l-211 -38l-39 -189q-17 -72 -39 -125zM637 1024l47 215q4 24 4 52t-23.5 45.5t-47.5 17.5
q-109 0 -146 -162l-37 -168h203zM-76 -51q-110 -39 -151 -72q-76 -61 -76 -139q0 -40 49 -62q15 -6 40.5 -6t59.5 34q33 34 54 126z" />
    <glyph glyph-name="ffi" unicode="ffi" horiz-adv-x="1565" 
d="M1651 367q-132 -379 -441 -379q-81 0 -145 58q-63 58 -63 187q0 58 16 134l121 575h-246l-234 -1106q-40 -192 -154 -280q-88 -68 -206 -68q-160 0 -223 109q-99 -109 -262 -109q-95 0 -168.5 62.5t-73.5 145.5t27.5 131.5t88 92t238.5 96.5l246 1170q73 348 373 348
q169 0 252 -107q113 107 309 107q286 0 351 -150q16 -37 16 -86q0 -91 -50 -128t-112 -37q-123 0 -123 110q0 35 18.5 67.5t50.5 32.5h10q5 0 7 -2q-4 82 -113 82q-175 0 -217 -231l-35 -168h543l-147 -696q-8 -37 -8 -73q0 -69 83 -69q60 0 111.5 52t73.5 129h86zM594 942
h-172l-184 -868l180 30zM145 -293q13 -65 79 -65q42 0 78.5 45t57.5 143l48 223l-183 -37l-39 -180q-13 -67 -41 -129zM729 1350q-30 34 -77 34q-148 0 -181 -192l-33 -168h174l15 70q28 148 102 256zM-76 -51q-110 -39 -151 -72q-76 -61 -76 -139q0 -40 49 -62q15 -6 40 -6
t60 34q34 34 54 126z" />
    <glyph glyph-name="ffl" unicode="ffl" horiz-adv-x="1597" 
d="M1683 367q-133 -379 -441 -379q-81 0 -145 58q-63 58 -63 187q0 54 17 134l213 1005q-82 33 -168 33q-105 0 -140 -162l-45 -219h191l-17 -82h-190l-236 -1106q-40 -192 -154 -280q-88 -68 -206 -68q-161 0 -223 111q-101 -111 -262 -111q-95 0 -168.5 62.5t-73.5 145.5
t27.5 131.5t88 92t238.5 96.5l246 1170q42 199 158 284q89 64 227.5 64t222.5 -86q96 86 238.5 86t240.5 -32l166 -57q68 -24 138 -52l-226 -1065q-8 -37 -8 -73q0 -69 84 -69q60 0 111 51q50 52 73 130h86zM596 942h-174l-184 -868l180 30zM408 53l-183 -37l-39 -180
q-13 -65 -41 -127q6 -67 76 -67q99 0 139 188zM647 1186q18 98 66 178q-28 20 -69 20q-74 0 -116.5 -55t-56.5 -137l-33 -168h174zM-76 -51q-110 -39 -151 -72q-76 -61 -76 -139q0 -40 49 -62q15 -6 40 -6t60 34q34 34 54 126z" />
    <glyph glyph-name="f_f_t" unicode="fft" horiz-adv-x="1597" 
d="M1683 367q-133 -379 -441 -379q-81 0 -145 58q-63 58 -63 187q0 54 17 134l120 575h-276l-236 -1106q-40 -192 -154 -280q-88 -68 -206 -68q-161 0 -223 111q-101 -111 -262 -111q-95 0 -168.5 62.5t-73.5 145.5t27.5 131.5t88 92t238.5 96.5l246 1170q42 199 158 284
q89 64 227.5 64t222.5 -86q96 86 238.5 86t240.5 -32l166 -57q68 -24 138 -52l-78 -369h123l-17 -82h-125l-129 -614q-8 -37 -8 -73q0 -69 84 -69q60 0 111 51q50 52 73 130h86zM596 942h-174l-184 -868l180 30zM1264 1372q-82 33 -168 33q-105 0 -140 -162l-45 -219h279z
M408 53l-183 -37l-39 -180q-13 -65 -41 -127q6 -67 76 -67q99 0 139 188zM647 1186q18 98 66 178q-28 20 -69 20q-74 0 -116.5 -55t-56.5 -137l-33 -168h174zM-76 -51q-110 -39 -151 -72q-76 -61 -76 -139q0 -40 49 -62q15 -6 40 -6t60 34q34 34 54 126z" />
    <glyph glyph-name="fi" unicode="fi" horiz-adv-x="1094" 
d="M805 1341q-4 82 -113 82q-135 0 -192 -145q-17 -42 -25 -86l-35 -168h164l-16 -82h-164l-234 -1106q-40 -192 -154 -280q-88 -68 -203 -68t-186 62t-71 167q0 172 226 255q63 24 128 44l228 1078q94 440 479 440q286 0 351 -150q16 -37 16 -86q0 -91 -50 -128t-112 -37
q-123 0 -123 110q0 35 18.5 67.5t50.5 32.5h10q5 0 7 -2zM1180 367q-132 -379 -442 -379q-80 0 -144 58q-63 58 -63 187q0 58 16 134l139 657h295l-147 -696q-8 -37 -8 -73q0 -69 83 -69q60 0 111.5 52t73.5 129h86zM-84 -51q-227 -74 -227 -197q0 -45 28 -63.5t57 -18.5
t64 36.5t53 123.5z" />
    <glyph glyph-name="f_i_x" unicode="fix" horiz-adv-x="1839" 
d="M805 1341q-4 82 -113 82q-135 0 -192 -145q-17 -42 -25 -86l-35 -168h164l-16 -82h-164l-234 -1106q-40 -192 -154 -280q-88 -68 -203 -68t-186 62t-71 167q0 172 226 255q63 24 128 44l228 1078q94 440 479 440q286 0 351 -150q16 -37 16 -86q0 -91 -50 -128t-112 -37
q-123 0 -123 110q0 35 18.5 67.5t50.5 32.5h10q5 0 7 -2zM1651 928q-97 0 -97 114q0 46 32.5 71.5t92 25.5t94.5 -53.5t35 -141.5q0 -129 -161 -326q-55 -68 -131 -149l18 -102l12 -61q25 -120 109 -120q59 0 110 51t74 130h86q-132 -379 -422 -379q-99 0 -151 66
q-51 66 -86 216q-170 -191 -376 -258q-72 -24 -155 -24t-144 58t-61 185q0 47 17 136l139 657h295l-147 -696q-9 -35 -9 -66q0 -74 90 -74q121 0 253 116q40 35 73 77l-117 643h289l80 -442q195 208 195 325q0 15 -2 25q-20 -4 -35 -4zM-84 -51q-227 -74 -227 -197
q0 -45 28 -63.5t57 -18.5t64 36.5t53 123.5z" />
    <glyph glyph-name="f_i_z" unicode="fi&#x7a;" horiz-adv-x="1851" 
d="M805 1341q-4 82 -113 82q-135 0 -192 -145q-17 -42 -25 -86l-35 -168h164l-16 -82h-164l-234 -1106q-40 -192 -154 -280q-88 -68 -203 -68t-186 62t-71 167q0 172 226 255q63 24 128 44l228 1078q94 440 479 440q286 0 351 -150q16 -37 16 -86q0 -91 -50 -128t-112 -37
q-123 0 -123 110q0 35 18.5 67.5t50.5 32.5h10q5 0 7 -2zM1677 317q91 0 91 -98q0 -79 -70 -149t-180 -70h-543l522 913h-114q-48 0 -80.5 -5t-32.5 -27q0 -5 3.5 -6t11 -6.5t7.5 -48t-34.5 -68t-63.5 -25.5q-51 0 -78.5 24t-27.5 61q0 79 68 145.5t169 66.5h527l-502 -866
q13 -1 31 -3l39 -5q46 -5 84 -5q91 0 98 41q-39 4 -39 43q0 30 28 59t86 29zM975 199q-8 -103 -72 -157t-154.5 -54t-154.5 58q-63 58 -63 187q0 58 16 134l139 657h295l-147 -696q-8 -37 -8 -73t20 -52.5t58 -16.5t71 13zM-84 -51q-227 -74 -227 -197q0 -45 28 -63.5
t57 -18.5t64 36.5t53 123.5z" />
    <glyph glyph-name="fl" unicode="fl" horiz-adv-x="1122" 
d="M-88 -51q-110 -39 -151 -72q-76 -61 -76 -139q0 -40 49 -62q15 -6 39.5 -6t60 34t53.5 126zM1208 367q-133 -379 -441 -379q-81 0 -145 58q-63 58 -63 187q0 58 16 134l213 1005q-82 33 -167 33q-105 0 -140 -162l-45 -219h191l-17 -82h-190l-234 -1106
q-70 -348 -372 -348q-95 0 -168.5 62.5t-73.5 145.5t27.5 131.5t88 92t238.5 96.5l246 1170q72 348 381 348q133 0 231 -32l166 -57q67 -24 137 -52l-225 -1065q-8 -37 -8 -73q0 -69 84 -69q59 0 110 51t74 130h86z" />
    <glyph glyph-name="f_l_x" unicode="flx" horiz-adv-x="1868" 
d="M1679 928q-96 0 -96 114q0 46 32.5 71.5t92 25.5t94.5 -53.5t35 -141t-71 -201.5t-222 -274l19 -102l13 -61q24 -120 107 -120q60 0 111.5 52t73.5 129h86q-132 -379 -422 -379q-99 0 -151.5 66.5t-86.5 215.5q-170 -191 -376 -258q-71 -24 -154 -24t-144 58t-61 185
q0 56 16 136l213 1005q-82 33 -167 33q-105 0 -140 -162l-45 -219h191l-17 -82h-190l-234 -1106q-70 -348 -372 -348q-95 0 -168.5 62.5t-73.5 145.5t27.5 131.5t88 92t238.5 96.5l246 1170q72 348 381 348q133 0 231 -32l166 -57q67 -24 137 -52l-225 -1065q-8 -37 -8 -66
q0 -74 90 -74q121 0 252 116q41 35 74 77l-117 643h289l80 -442q194 207 194 325q0 15 -2 25q-17 -4 -35 -4zM-88 -51q-110 -39 -151 -72q-76 -61 -76 -139q0 -40 49 -62q15 -6 40 -6t59 34t54 126z" />
    <glyph glyph-name="f_l_z" unicode="fl&#x7a;" horiz-adv-x="1921" 
d="M-88 -51q-110 -39 -151 -72q-76 -61 -76 -139q0 -40 49 -62q15 -6 39.5 -6t60 34t53.5 126zM788 1372q-82 33 -167 33q-105 0 -140 -162l-45 -219h191l-17 -82h-190l-234 -1106q-70 -348 -372 -348q-95 0 -168.5 62.5t-73.5 145.5t27.5 131.5t88 92t238.5 96.5l246 1170
q72 348 381 348q133 0 231 -32l166 -57q67 -24 137 -52l-225 -1065q-8 -37 -8 -73q0 -69 84 -69q29 0 42 4l24 9q-9 -103 -72.5 -157t-154.5 -54t-155 58q-63 58 -63 187q0 58 16 134zM1746 317q91 0 91 -98q0 -79 -70 -149t-180 -70h-543l522 913h-114q-48 0 -80.5 -5
t-32.5 -27q0 -5 3.5 -6t11 -6.5t7.5 -48t-34.5 -68t-64.5 -25.5q-49 0 -77 24t-28 61q0 79 68 145.5t169 66.5h527l-502 -866q13 -1 31 -3l39 -5q46 -5 84 -5q91 0 98 41q-39 4 -39 43q0 30 28 59t86 29z" />
    <glyph glyph-name="f_t" unicode="ft" horiz-adv-x="1122" 
d="M1208 367q-133 -379 -441 -379q-81 0 -145 58q-63 58 -63 187q0 58 16 134l121 575h-276l-234 -1106q-70 -348 -372 -348q-95 0 -168.5 62.5t-73.5 145.5t27.5 131.5t88 92t238.5 96.5l246 1170q72 348 381 348q133 0 231 -32l166 -57q67 -24 137 -52l-77 -369h123
l-17 -82h-125l-129 -614q-8 -37 -8 -73q0 -69 84 -69q59 0 110 51t74 130h86zM788 1372q-82 33 -167 33q-105 0 -140 -162l-45 -219h279zM-88 -51q-110 -39 -151 -72q-76 -61 -76 -139q0 -40 49 -62q15 -6 40 -6t59 34t54 126z" />
    <glyph glyph-name="f_u" unicode="fu" horiz-adv-x="1581" 
d="M1667 367q-130 -379 -411 -379q-183 0 -203 194q-120 -194 -303 -194q-92 0 -156 58q-63 58 -63 187q0 58 16 134l121 575h-250l-236 -1106q-70 -348 -366 -348q-95 0 -168.5 62.5t-73.5 145.5t28 132t76 84q70 49 248 104l248 1170q73 348 373 348q95 0 168 -62t73 -159
q0 -47 -6 -84h-96q4 32 4 61t-23.5 46.5t-46.5 17.5q-50 0 -91.5 -38.5t-59.5 -129.5l-35 -162h547l-147 -696q-6 -32 -6 -58q0 -84 61 -84q108 0 164 181l139 657h295l-147 -696q-9 -35 -9 -72q0 -70 84 -70q115 0 166 181h86zM-88 -51q-109 -38 -150 -71q-75 -62 -75 -140
q0 -40 49 -62q15 -6 40.5 -6t57.5 35t51 125z" />
    <glyph glyph-name="f_x" unicode="fx" horiz-adv-x="1358" 
d="M1169 928q-96 0 -96 114q0 46 32.5 71.5t92 25.5t94.5 -53.5t35 -142t-71 -194.5t-228 -247l25 -135l13 -61q24 -120 108 -120q59 0 110.5 52t73.5 129h86q-132 -379 -422 -379q-109 0 -165 86t-93 293l-4 14q-185 -132 -185 -229q10 2 27 2q53 0 68.5 -32.5t15.5 -68.5
q0 -112 -115 -112q-69 0 -102 39.5t-33 97.5q0 104 90.5 220t212.5 198l-82 446h-239l-236 -1106q-70 -348 -366 -348q-95 0 -168.5 62.5t-73.5 145.5t28 132t76 84q70 49 248 104l248 1170q73 348 373 348q95 0 168 -62t73 -159q0 -47 -6 -84h-96q4 32 4 61t-23.5 46.5
t-46.5 17.5q-50 0 -91.5 -38.5t-59.5 -129.5l-35 -162h498l74 -406q200 181 200 289q0 15 -2 25q-17 -4 -35 -4zM-94 -51q-109 -38 -150 -71q-75 -62 -75 -140q0 -23 23.5 -45.5t48.5 -22.5q47 0 77 37.5t49 122.5z" />
    <glyph glyph-name="g_p" unicode="gp" horiz-adv-x="1997" 
d="M1456 946q102 88 240 88q177 0 230 -170q20 -62 20 -142.5t-10 -161t-33 -160.5q-52 -182 -154 -286q-122 -126 -307 -126q-104 0 -189 6l-92 -432l-309 -74l109 516q-103 -4 -199 -22l-31 -146q-39 -197 -156 -284q-86 -64 -197 -64t-178 49t-67 156.5t98.5 187
t237.5 121.5l23 98q-107 -112 -246 -112q-186 0 -250 175q-23 63 -23 143.5t14 161t43 160.5q64 176 183 291t287 115q88 0 127 -29.5t39 -74.5v-12l22 106h295l-201 -940q105 23 205 39l207 977h295zM1665 717q0 170 -102 170q-35 0 -74 -25t-68 -76l-133 -632q23 2 45 2
h45q79 0 135 60q108 117 137 332q15 97 15 169zM647 831q0 46 -43 67q-16 9 -41 9q-65 0 -119 -61q-130 -147 -163 -422q-5 -42 -5 -89q0 -91 38 -127q22 -22 54 -22q57 0 106 43.5t69 116.5zM446 -111q-200 -72 -200 -174q0 -41 39 -61q13 -6 38 -6t58 44.5t53 137.5z" />
    <glyph glyph-name="g_x" unicode="gx" horiz-adv-x="1827" 
d="M1638 928q-96 0 -96 114q0 46 32.5 71.5t92 25.5t94.5 -53.5t35 -141t-71 -201.5t-222 -274l31 -163q25 -120 108 -120q60 0 111.5 52t73.5 129h86q-132 -379 -422 -379q-98 0 -151 65q-52 66 -87 215q-170 -189 -491 -282l-31 -150q-39 -197 -156 -284q-86 -64 -197 -64
t-178 49t-67 150q0 164 217 255q60 25 117 44l25 116q-109 -114 -246 -114q-186 0 -250 175q-23 63 -23 143.5t14 161t43 160.5q64 176 183 291t287 115q88 0 127 -29.5t39 -74.5v-15l22 109h295l-201 -944q119 40 194 90q134 89 251 223l-115 631h289l80 -442
q194 207 194 325q0 15 -2 25q-17 -4 -35 -4zM276 335q0 -149 102 -149q43 0 94.5 40.5t72.5 125.5l102 477q0 19 -17.5 48.5t-74.5 29.5t-111 -61q-130 -147 -163 -422q-5 -42 -5 -89zM446 -109q-200 -72 -200 -176q0 -41 39 -61q13 -6 38 -6t58 44.5t53 137.5z" />
    <glyph glyph-name="g_z" unicode="g&#x7a;" horiz-adv-x="1858" 
d="M491 102q-109 -114 -246 -114q-186 0 -250 175q-23 63 -23 143.5t14 161t43 160.5q65 178 175 282q127 124 295 124q88 0 127 -29.5t39 -74.5v-4l20 98h297l-250 -1188q-39 -196 -158 -284q-87 -64 -199 -64t-184.5 62.5t-72.5 146.5t27.5 133t86 90.5t240.5 95.5z
M275 335q0 -149 102 -149q42 0 92.5 38t72.5 116l104 496q-5 19 -21 45q-17 26 -72.5 26t-108.5 -61q-131 -147 -164 -422q-5 -42 -5 -89zM458 -49q-110 -39 -152 -73q-76 -63 -76 -140q0 -23 24.5 -45.5t57.5 -22.5t67 34t54 126zM1683 317q91 0 91 -98q0 -79 -70 -149
t-180 -70h-543l522 913h-114q-48 0 -80.5 -5t-32.5 -27q0 -5 3.5 -6t11 -6.5t7.5 -48t-34.5 -68t-63.5 -25.5q-51 0 -78.5 24t-27.5 61q0 79 68 145.5t169 66.5h527l-502 -866q13 -1 31 -3l39 -5q46 -5 84 -5q91 0 98 41q-39 4 -39 43q0 30 28 59t86 29z" />
    <glyph glyph-name="ij" unicode="ij" horiz-adv-x="1038" 
d="M506 1296q0 -68 -48.5 -114.5t-116 -46.5t-114.5 47t-47 114t46.5 115.5t115 48.5t116.5 -48t48 -116zM428 199q-8 -103 -72 -157t-154.5 -54t-154.5 58q-63 58 -63 187q0 58 16 134l139 657h295l-147 -696q-8 -37 -8 -73t20 -52.5t58.5 -16.5t70.5 13zM731 -164
q-39 -197 -156 -284q-86 -64 -196.5 -64t-178 49.5t-67.5 149.5q0 166 218 260q60 26 118 45l219 1032h295l-203 -950q95 32 155 95t104 198h86q-80 -263 -264 -347q-51 -24 -99 -36zM1036 1298q0 -68 -48.5 -114.5t-115.5 -46.5t-114 47t-47 114t46.5 115.5t114.5 48.5
t116 -48t48 -116zM447 -111q-201 -70 -201 -174q0 -41 39 -61q13 -6 38 -6t58 44.5t53 137.5z" />
    <glyph glyph-name="i_x" unicode="ix" horiz-adv-x="1292" 
d="M1008 1042q0 97 125 97q59 0 94 -53.5t35 -141t-71 -201.5t-222 -274l18 -102l13 -61q24 -120 108 -120q59 0 110 51t74 130h86q-132 -379 -422 -379q-98 0 -150.5 66.5t-86.5 215.5q-170 -191 -377 -258q-71 -24 -153.5 -24t-143.5 58t-61 185q0 56 16 136l139 657h295
l-147 -696q-8 -37 -8 -66q0 -74 90 -74q122 0 253 114q40 36 72 79l-116 643h288l80 -442q195 208 195 325q0 15 -2 25q-20 -4 -35 -4q-96 0 -96 114zM506 1296q0 -68 -48.5 -114.5t-116 -46.5t-114.5 47t-47 114t46.5 115.5t115 48.5t116.5 -48t48 -116z" />
    <glyph glyph-name="i_z" unicode="i&#x7a;" horiz-adv-x="1305" 
d="M506 1296q0 -68 -48.5 -114.5t-116 -46.5t-114.5 47t-47 114t46.5 115.5t115 48.5t116.5 -48t48 -116zM428 199q-8 -103 -72 -157t-154.5 -54t-154.5 58q-63 58 -63 187q0 58 16 134l139 657h295l-147 -696q-8 -37 -8 -73t20 -52.5t58.5 -16.5t70.5 13zM1130 317
q91 0 91 -98q0 -79 -70 -149t-180 -70h-543l522 913h-114q-48 0 -80.5 -5t-32.5 -27q0 -5 3.5 -6t11 -6.5t7.5 -48t-34.5 -68t-64.5 -25.5q-49 0 -77 24t-28 61q0 79 68 145.5t169 66.5h527l-502 -866q13 -1 31 -3l39 -5q46 -5 84 -5q91 0 98 41q-39 4 -39 43q0 30 28 59
t86 29z" />
    <glyph glyph-name="iacute_x" unicode="&#xed;x" horiz-adv-x="1292" 
d="M1008 1042q0 97 125 97q59 0 94 -53.5t35 -141t-71 -201.5t-222 -274l18 -102l13 -61q24 -120 108 -120q59 0 110 51t74 130h86q-132 -379 -422 -379q-98 0 -150.5 66.5t-86.5 215.5q-170 -191 -377 -258q-71 -24 -153.5 -24t-143.5 58t-61 185q0 56 16 136l139 657h295
l-147 -696q-8 -37 -8 -66q0 -74 90 -74q122 0 253 114q40 36 72 79l-116 643h288l80 -442q195 208 195 325q0 15 -2 25q-20 -4 -35 -4q-96 0 -96 114zM230 1149l186 387h215l-248 -387h-153z" />
    <glyph glyph-name="iacute_z" unicode="&#xed;&#x7a;" horiz-adv-x="1305" 
d="M428 199q-8 -103 -72 -157t-154.5 -54t-154.5 58q-63 58 -63 187q0 58 16 134l139 657h295l-147 -696q-8 -37 -8 -73t20 -52.5t58.5 -16.5t70.5 13zM1130 317q91 0 91 -98q0 -79 -70 -149t-180 -70h-543l522 913h-114q-48 0 -80.5 -5t-32.5 -27q0 -5 3.5 -6t11 -6.5
t7.5 -48t-34.5 -68t-64.5 -25.5q-49 0 -77 24t-28 61q0 79 68 145.5t169 66.5h527l-502 -866q13 -1 31 -3l39 -5q46 -5 84 -5q91 0 98 41q-39 4 -39 43q0 30 28 59t86 29zM229 1149l186 387h215l-248 -387h-153z" />
    <glyph glyph-name="j_x" unicode="jx" horiz-adv-x="1278" 
d="M1090 928q-97 0 -97 114q0 46 33 72q32 25 91.5 25t94.5 -53.5t35 -141t-71 -201.5t-222 -274l19 -102l13 -61q24 -120 108 -120q59 0 110.5 52t73.5 129h86q-132 -379 -422 -379q-98 0 -150 64.5t-87 215.5q-176 -192 -492 -282l-31 -150q-39 -197 -156 -284
q-86 -64 -196.5 -64t-178 49.5t-67.5 156.5q0 108 110 188q72 54 226 104l219 1038h295l-201 -944q119 40 194 90q134 89 251 223l-115 631h289l80 -442q194 207 194 325q0 15 -2 25q-17 -4 -34 -4zM487 1298q0 -68 -48.5 -114.5t-115.5 -46.5t-114 47t-47 114t46.5 115.5
t114.5 48.5t116 -48t48 -116zM-100 -109q-81 -29 -142 -70.5t-61 -94.5q0 -52 39 -72q13 -6 38 -6t58 44.5t53 137.5z" />
    <glyph glyph-name="j_z" unicode="j&#x7a;" horiz-adv-x="1266" 
d="M145 1024h297l-250 -1188q-70 -348 -372 -348q-95 0 -168.5 62.5t-73.5 146.5t28 133t86.5 90t241.5 96zM504 1298q0 -68 -49 -114.5t-116 -46.5t-114 47t-47 114t46.5 115.5t114.5 48.5t116.5 -48t48.5 -116zM-80 -49q-99 -34 -164 -81.5t-65 -131.5q0 -40 49 -62
q15 -6 40 -6t59 34t54 126zM1091 317q91 0 91 -98q0 -79 -70 -149t-180 -70h-543l522 913h-114q-48 0 -80.5 -5t-32.5 -27q0 -5 3.5 -6t11 -6.5t7.5 -48t-34.5 -68t-63.5 -25.5q-51 0 -78.5 24t-27.5 61q0 79 68 145.5t169 66.5h527l-502 -866q13 -1 31 -3l39 -5
q46 -5 84 -5q91 0 98 41q-39 4 -39 43q0 30 28 59t86 29z" />
    <glyph glyph-name="l_x" unicode="lx" horiz-adv-x="1292" 
d="M1008 1042q0 97 125 97q59 0 94 -53.5t35 -141t-71 -201.5t-222 -274l18 -102l13 -61q24 -120 108 -120q59 0 110 51t74 130h86q-132 -379 -422 -379q-97 0 -150 65q-52 66 -87 215q-170 -191 -375 -257q-71 -23 -153.5 -23t-143.5 58t-61 185q0 56 16 136l217 1026
l303 41l-233 -1106q-8 -37 -8 -66q0 -74 85 -74q131 0 257 113q39 35 73 78l-118 645h288l80 -442q195 208 195 325q0 15 -2 25q-20 -4 -35 -4q-96 0 -96 114z" />
    <glyph glyph-name="l_z" unicode="l&#x7a;" horiz-adv-x="1300" 
d="M424 203q-8 -104 -72.5 -159.5t-154.5 -55.5t-153.5 58.5t-63.5 191.5q0 57 16 133l219 1026l303 41l-235 -1106q-9 -38 -9 -66t18.5 -52t59 -24t72.5 13zM1126 317q91 0 91 -98q0 -79 -70 -149t-180 -70h-543l522 913h-114q-48 0 -80.5 -5t-32.5 -27q0 -5 3.5 -6
t11 -6.5t7.5 -48t-34.5 -68t-64.5 -25.5q-49 0 -77 24t-28 61q0 79 68 145.5t169 66.5h527l-502 -866q13 -1 31 -3l39 -5q46 -5 84 -5q91 0 98 41q-39 4 -39 43q0 30 28 59t86 29z" />
    <glyph glyph-name="m_x" unicode="mx" horiz-adv-x="2302" 
d="M2114 928q-97 0 -97 114q0 46 32.5 71.5t92 25.5t94.5 -53.5t35 -141t-71 -201.5t-222 -274l19 -102l13 -61q24 -120 108 -120q59 0 110.5 52t73.5 129h86q-132 -379 -422 -379q-98 0 -152 67.5t-88 214.5q-181 -188 -374 -258q-64 -24 -126 -24q-118 0 -170 65
t-52 157.5t46 276.5t46 254q0 105 -74 105t-132 -117q-17 -33 -28 -72l-139 -657h-295l150 707q6 24 6 51q0 90 -60.5 90t-103 -56.5t-64.5 -134.5l-139 -657h-295l217 1024h295l-22 -106q102 116 250 116q181 0 210 -176q113 174 285 174q97 0 162 -54t65 -158t-34 -240
l-48 -200q-16 -65 -16 -108q0 -86 90 -86q114 0 251 117q42 36 77 78l-117 643h289l80 -442q194 207 194 325q0 15 -2 25q-17 -4 -34 -4z" />
    <glyph glyph-name="m_z" unicode="m&#x7a;" horiz-adv-x="2304" 
d="M872 858q113 174 285 174q97 0 162 -54t65 -158t-34 -240l-48 -200q-16 -65 -16 -106t17.5 -64.5t65.5 -23.5t67 13q-15 -111 -80 -161t-135 -50q-121 0 -169 65.5t-48 157.5t46 276t46 254q0 105 -74 105t-132 -117q-17 -33 -28 -72l-139 -657h-295l150 707q6 24 6 51
q0 90 -60.5 90t-103 -56.5t-64.5 -134.5l-139 -657h-295l217 1024h295l-22 -106q102 116 250 116q181 0 210 -176zM2129 317q91 0 91 -98q0 -79 -70 -149t-180 -70h-543l522 913h-114q-48 0 -80.5 -5t-32.5 -27q0 -5 3.5 -6t11 -6.5t7.5 -48t-34.5 -68t-63.5 -25.5
q-51 0 -78.5 24t-27.5 61q0 79 68 145.5t169 66.5h527l-502 -866q13 -1 31 -3l39 -5q46 -5 84 -5q91 0 98 41q-39 4 -39 43q0 30 28 59t86 29z" />
    <glyph glyph-name="n_z" unicode="n&#x7a;" horiz-adv-x="1806" 
d="M412 918q100 114 239 114q98 0 163 -54t65 -160t-34 -240l-49 -198q-16 -65 -16 -106t17.5 -64.5t65.5 -23.5t67 13q-15 -111 -80 -161t-135 -50q-123 0 -173 72q-44 60 -44 151.5t46 275.5t46 254q0 105 -74 105t-132 -117q-17 -33 -28 -72l-139 -657h-295l217 1024h295
zM1632 317q91 0 91 -98q0 -79 -70 -149t-180 -70h-543l522 913h-114q-48 0 -80.5 -5t-32.5 -27q0 -5 3.5 -6t11 -6.5t7.5 -48t-34.5 -68t-64.5 -25.5q-49 0 -77 24t-28 61q0 79 68 145.5t169 66.5h527l-502 -866q13 -1 31 -3l39 -5q46 -5 84 -5q91 0 98 41q-39 4 -39 43
q0 30 28 59t86 29z" />
    <glyph glyph-name="o_ae" unicode="o&#xe6;" horiz-adv-x="2230" 
d="M1702 950q116 84 270 84q184 0 214 -118q9 -35 9 -98.5t-38.5 -138.5t-104.5 -132q-138 -121 -328 -133q-4 -34 -4 -66q0 -115 34 -151.5t98 -36.5q127 0 202 47t176 160h70q-233 -379 -565 -379q-248 0 -301 196q-98 -196 -284 -196q-267 0 -267 268q0 338 467 338
q60 0 94 -8q45 101 45 172.5t-31.5 113t-112.5 41.5t-137 -27t-131 -82l-127 -90q-52 -36 -159 -73q-18 -295 -154 -472t-334 -177q-234 0 -303 174q-25 61 -25 135t12 150.5t39 157.5q60 185 172 297q138 136 332 136q252 0 263 -309q95 39 145 77l148 111q155 113 311 113
q210 0 305 -84zM616 604q-55 12 -55 98.5t64 108.5q-4 60 -22.5 83.5t-64 23.5t-94.5 -62t-84 -150.5t-57 -188t-22 -163.5q0 -111 21.5 -144.5t70.5 -33.5q87 0 155 124q68 125 88 304zM1989 934q-75 0 -144 -126.5t-106 -295.5q117 8 208 108.5t91 207t-49 106.5z
M1430 467l-44 2q-140 0 -196 -103q-19 -35 -19 -75q0 -62 32.5 -83.5t62.5 -21.5q114 0 164 281z" />
    <glyph glyph-name="o_s" unicode="os" horiz-adv-x="1610" 
d="M1106 -12q-281 0 -281 272q0 85 45 140t103 55q106 0 106 -86q0 -38 -29 -65.5t-69.5 -27.5t-54.5 27q0 -153 118 -153q68 0 99 40t31 150q0 49 -10 126l-12 119l-16 185q-4 56 -8 127q-146 -224 -344 -283q-20 -281 -156.5 -451.5t-328.5 -170.5q-236 0 -304 174
q-24 61 -24 135t12 150.5t39 157.5q60 185 172 297q138 136 332 136q257 0 262 -321q151 8 334 326l303 40l9 -179q4 -80 8 -142l8 -112q3 -50 6 -88l10 -125q4 -48 4 -95t-6 -80q42 23 80 50l66 51h86q-108 -127 -285 -240q-94 -139 -305 -139zM612 600q-49 18 -49 95
t58 104q-5 66 -22 92.5t-64.5 26.5t-95.5 -62q-94 -122 -142 -339q-21 -99 -21 -163q0 -111 22.5 -144.5t71.5 -33.5q88 0 153 122.5t89 301.5z" />
    <glyph glyph-name="o_s_x" unicode="osx" horiz-adv-x="2318" 
d="M1108 -12q-281 0 -281 272q0 85 45 140t103 55q106 0 106 -86q0 -38 -29 -65.5t-69.5 -27.5t-54.5 27q0 -153 119 -153q67 0 98 40t31 150q0 49 -10 126l-12 119l-16 185q-4 56 -8 127q-146 -224 -344 -283q-20 -281 -156.5 -451.5t-328.5 -170.5q-234 0 -303 174
q-25 61 -25 135t12 150.5t39 157.5q60 185 172 297q138 136 332 136q258 0 263 -321q150 8 333 326l303 40l9 -179q4 -80 8 -142l8 -112q3 -50 6 -88l10 -125q5 -60 5 -102t-9 -87q157 66 254 147l-114 625h288l80 -442q195 208 195 325q0 15 -2 25q-20 -4 -35 -4
q-96 0 -96 114q0 97 125 97q59 0 94 -53.5t35 -141t-71 -201.5t-222 -274l18 -102l13 -61q24 -120 108 -120q59 0 110 51t74 130h86q-132 -379 -422 -379q-100 0 -153 69t-90 234q-85 -59 -191 -105.5t-139 -62.5q-96 -135 -301 -135zM614 600q-49 18 -49 95t58 104
q-5 66 -22 92.5t-64.5 26.5t-95.5 -62q-91 -118 -140 -338q-22 -100 -22 -164q0 -111 21.5 -144.5t71.5 -33.5q88 0 153 122.5t89 301.5z" />
    <glyph glyph-name="o_s_z" unicode="os&#x7a;" horiz-adv-x="2333" 
d="M1110 -12q-285 0 -285 272q0 85 45 140t103 55q106 0 106 -86q0 -38 -29 -65.5t-69.5 -27.5t-54.5 27q0 -153 118 -153q68 0 99 40t31 150q0 49 -10 126l-12 119l-16 185q-4 56 -8 127q-146 -224 -344 -283q-20 -281 -156.5 -451.5t-328.5 -170.5q-236 0 -304 174
q-24 61 -24 135t12 150.5t39 157.5q60 185 172 297q138 136 332 136q257 0 262 -321q151 8 334 326l303 40l9 -179q4 -80 8 -142l8 -112q3 -50 6 -88l10 -125q4 -48 4 -124t-33 -143q-91 -186 -327 -186zM612 600q-49 18 -49 95t58 104q-5 66 -22 92.5t-64.5 26.5t-95.5 -62
q-94 -122 -142 -339q-21 -99 -21 -163q0 -111 22.5 -144.5t71.5 -33.5q88 0 153 122.5t89 301.5zM2158 317q91 0 91 -98q0 -79 -70 -149t-180 -70h-543l522 913h-114q-48 0 -80.5 -5t-32.5 -27q0 -5 3.5 -6t11 -6.5t7.5 -48t-34.5 -68t-64.5 -25.5q-49 0 -77 24t-28 61
q0 79 68 145.5t169 66.5h527l-502 -866q13 -1 31 -3l39 -5q46 -5 84 -5q91 0 98 41q-39 4 -39 43q0 30 28 59t86 29z" />
    <glyph glyph-name="o_x" unicode="ox" horiz-adv-x="1743" 
d="M1552 928q-96 0 -96 114q0 46 32.5 71.5t92 25.5t94.5 -53.5t35 -142t-71 -194.5t-228 -247l37 -196q25 -120 108 -120q60 0 111.5 52t73.5 129h86q-132 -379 -422 -379q-109 0 -165 86t-93 293l-4 14q-185 -132 -185 -229q10 2 27 2q53 0 68.5 -32.5t15.5 -68.5
q0 -112 -115 -112q-69 0 -102 39.5t-33 97.5q0 104 90.5 220t212.5 198l-57 317q-125 -149 -277 -197q-24 -282 -161 -453t-330 -171q-236 0 -304 174q-24 61 -24 135t12.5 150.5t39.5 157.5q61 183 177 297q138 136 332 136q258 0 263 -321q114 11 251 205l-18 98h289
l74 -406q200 181 200 289q0 15 -2 25q-17 -4 -35 -4zM616 600q-55 13 -55 96t64 105q-4 65 -21.5 91t-64.5 26q-93 0 -179 -204t-86 -372q0 -99 18 -125.5t38 -33.5t54 -7q71 0 139.5 122.5t92.5 301.5z" />
    <glyph glyph-name="oacute_s" unicode="&#xf3;s" horiz-adv-x="1612" 
d="M449 1149l186 387h215l-248 -387h-153zM1108 -12q-281 0 -281 272q0 85 45 140t103 55q106 0 106 -86q0 -38 -29 -65.5t-69.5 -27.5t-54.5 27q0 -153 118 -153q68 0 99 40t31 150q0 49 -10 126l-12 119l-16 185q-4 56 -8 127q-146 -224 -344 -283q-20 -281 -156.5 -451.5
t-328.5 -170.5q-236 0 -304 174q-24 61 -24 135t12 150.5t39 157.5q60 185 172 297q138 136 332 136q257 0 262 -321q151 8 334 326l303 40l9 -179q4 -80 8 -142l8 -112q3 -50 6 -88l10 -125q4 -48 4 -95t-6 -80q42 23 80 50l66 51h86q-108 -127 -285 -240
q-94 -139 -305 -139zM614 600q-49 18 -49 95t58 104q-5 66 -22 92.5t-64.5 26.5t-95.5 -62q-94 -122 -142 -339q-21 -99 -21 -163q0 -111 22.5 -144.5t71.5 -33.5q88 0 153 122.5t89 301.5z" />
    <glyph glyph-name="oacute_s_x" unicode="&#xf3;sx" horiz-adv-x="2337" 
d="M1114 -12q-285 0 -285 272q0 85 45 140t103 55q106 0 106 -86q0 -38 -29 -65.5t-69.5 -27.5t-54.5 27q0 -153 119 -153q67 0 98 40t31 150q0 49 -10 126l-12 119q-14 145 -23 312q-148 -224 -345 -283q-20 -281 -156.5 -451.5t-328.5 -170.5q-234 0 -303 174
q-25 61 -25 135t12 150.5t39 157.5q60 185 172 297q138 136 332 136q258 0 263 -321q150 8 333 326l304 40q8 -192 16 -321l8 -112q3 -50 6 -88l10 -125q5 -60 5 -130t-33 -137q-91 -186 -328 -186zM616 600q-49 18 -49 95t58 104q-4 65 -21.5 92t-64 27t-95.5 -62
t-84 -150.5t-57 -188t-22 -163.5q0 -111 21.5 -144.5t71.5 -33.5q88 0 153 122.5t89 301.5zM2162 317q91 0 91 -98q0 -79 -70 -149t-180 -70h-543l522 913h-114q-48 0 -80.5 -5t-32.5 -27q0 -5 3.5 -6t11 -6.5t7.5 -48t-34.5 -68t-64.5 -25.5q-49 0 -77 24t-28 61
q0 79 68 145.5t169 66.5h527l-502 -866q13 -1 31 -3l39 -5q46 -5 84 -5q91 0 98 41q-39 4 -39 43q0 30 28 59t86 29zM451 1149l186 387h215l-248 -387h-153z" />
    <glyph glyph-name="oacute_s_z" unicode="&#xf3;s&#x7a;" horiz-adv-x="2335" 
d="M1112 -12q-285 0 -285 272q0 85 45 140t103 55q106 0 106 -86q0 -38 -29 -65.5t-69.5 -27.5t-54.5 27q0 -153 119 -153q67 0 98 40t31 150q0 49 -10 126l-12 119l-16 185q-4 56 -8 127q-146 -224 -344 -283q-20 -281 -156.5 -451.5t-328.5 -170.5q-234 0 -303 174
q-25 61 -25 135t12 150.5t39 157.5q60 185 172 297q138 136 332 136q258 0 263 -321q150 8 333 326l303 40l9 -179q4 -80 8 -142l8 -112q3 -50 6 -88l10 -125q5 -60 5 -130t-33 -137q-91 -186 -328 -186zM614 600q-49 18 -49 95t58 104q-5 66 -22 92.5t-64.5 26.5t-95.5 -62
q-91 -118 -140 -338q-22 -100 -22 -164q0 -111 21.5 -144.5t71.5 -33.5q88 0 153 122.5t89 301.5zM2160 317q91 0 91 -98q0 -79 -70 -149t-180 -70h-543l522 913h-114q-48 0 -80.5 -5t-32.5 -27q0 -5 3.5 -6t11 -6.5t7.5 -48t-34.5 -68t-64.5 -25.5q-49 0 -77 24t-28 61
q0 79 68 145.5t169 66.5h527l-502 -866q13 -1 31 -3l39 -5q46 -5 84 -5q91 0 98 41q-39 4 -39 43q0 30 28 59t86 29zM449 1149l186 387h215l-248 -387h-153z" />
    <glyph glyph-name="oacute_x" unicode="&#xf3;x" horiz-adv-x="1745" 
d="M1554 928q-96 0 -96 114q0 46 32.5 71.5t92 25.5t94.5 -53.5t35 -142t-71 -194.5t-228 -247l37 -196q25 -120 109 -120q59 0 110.5 52t73.5 129h86q-132 -379 -422 -379q-109 0 -165 86t-93 293l-4 14q-184 -133 -184 -229q10 2 26 2q53 0 68.5 -32.5t15.5 -68.5
q0 -112 -115 -112q-69 0 -102 39.5t-33 97.5q0 103 91.5 220.5t211.5 197.5l-57 317q-125 -149 -276 -197q-26 -284 -162.5 -454t-329.5 -170q-236 0 -304 174q-24 61 -24 135t12.5 150.5t39.5 157.5q61 183 177 297q138 136 332 136q258 0 263 -321q115 11 252 205l-19 98
h289l74 -406q200 181 200 289q0 15 -2 25q-17 -4 -35 -4zM618 600q-55 13 -55 96t64 105q-4 65 -21.5 91t-64.5 26q-93 0 -179 -207.5t-86 -368.5q0 -99 18 -125.5t38 -33.5t54 -7q71 0 139.5 122.5t92.5 301.5zM447 1149l186 387h215l-248 -387h-153z" />
    <glyph glyph-name="r_x" unicode="rx" horiz-adv-x="1606" 
d="M1417 928q-96 0 -96 114q0 46 32.5 71.5t92 25.5t94.5 -53.5t35 -117.5q0 -113 -71 -219t-234 -251l44 -192q26 -120 107 -120q60 0 111.5 52t73.5 129h86q-132 -379 -416 -379q-108 0 -163 84.5t-101 294.5l-4 14q-185 -132 -185 -229q10 2 27 2q53 0 68.5 -32.5
t15.5 -68.5q0 -112 -115 -112q-69 0 -102 39.5t-33 98.5q0 104 88.5 217t210.5 196l-119 532h289l92 -414q99 91 154 164t55 133q0 15 -2 25q-17 -4 -35 -4zM-78 0l217 1024h295l-26 -127q51 45 112.5 86t133 41t107.5 -47t36 -90q0 -74 -39.5 -120t-95.5 -46t-74 25.5
t-22 52t-10.5 42t-27.5 15.5q-42 0 -74 -19.5t-73 -58.5l-164 -778h-295z" />
    <glyph glyph-name="r_z" unicode="r&#x7a;" horiz-adv-x="1339" 
d="M1090 186q-39 4 -39 43q0 30 28 59t81 29q95 0 95 -98q0 -80 -69.5 -149.5t-179.5 -69.5h-543l520 907h-190q2 -10 2 -37q0 -62 -39.5 -105.5t-94.5 -43.5t-73 25.5t-22 52t-10.5 42t-27.5 15.5q-42 0 -74 -19.5t-73 -58.5l-164 -778h-295l217 1024h295l-26 -127
q51 45 112.5 86t134.5 41h684l-501 -866q59 0 100 -12.5t76 -12.5t52 11.5t24 41.5z" />
    <glyph glyph-name="s_x" unicode="sx" horiz-adv-x="1489" 
d="M1300 928q-96 0 -96 114q0 46 32.5 71.5t92 25.5t94.5 -53.5t35 -141t-71 -201.5t-222 -274l31 -163q25 -120 109 -120q59 0 110.5 52t73.5 129h86q-132 -379 -422 -379q-100 0 -152 68t-92 235q-68 -49 -152 -87l-127 -58q-43 -19 -75 -35q-116 -123 -322 -123
q-144 0 -221.5 78.5t-77.5 167t34 137.5t75 69q144 258 252 607l303 40q8 -192 16 -321l25 -325q4 -48 4 -96.5t-10 -94.5q167 70 256 149l-115 625h289l80 -442q194 207 194 325q0 15 -2 25q-17 -4 -35 -4zM150 150q196 0 196 190q0 53 -8 125l-12 117q-11 112 -19 243
q-52 -168 -166 -387q47 -22 47 -65.5t-24.5 -75t-66 -31.5t-54.5 27q0 -143 107 -143z" />
    <glyph glyph-name="s_z" unicode="s&#x7a;" horiz-adv-x="1524" 
d="M598 1087q8 -192 16 -321l25 -325q4 -48 4 -107t-18.5 -111.5t-50.5 -91.5q-59 -74 -152 -108.5t-180 -34.5q-152 0 -230 78.5t-78 167t34 137.5t75 69q144 258 252 607zM150 150q196 0 196 190q0 53 -8 125l-12 117q-11 112 -19 243q-52 -168 -166 -387q47 -22 47 -65.5
t-24.5 -75t-66 -31.5t-54.5 27q0 -143 107 -143zM1349 317q91 0 91 -98q0 -79 -70 -149t-180 -70h-543l522 913h-114q-48 0 -80.5 -5t-32.5 -27q0 -5 3.5 -6t11 -6.5t7.5 -48t-34.5 -68t-63.5 -25.5q-51 0 -78.5 24t-27.5 61q0 79 68 145.5t169 66.5h527l-502 -866
q13 -1 31 -3l39 -5q46 -5 84 -5q91 0 98 41q-39 4 -39 43q0 30 28 59t86 29z" />
    <glyph glyph-name="t_x" unicode="tx" horiz-adv-x="1292" 
d="M1008 1042q0 97 125 97q59 0 94 -53.5t35 -141t-71 -201.5t-222 -274l18 -102l13 -61q24 -120 108 -120q59 0 110 51t74 130h86q-132 -379 -422 -379q-97 0 -150 65q-52 66 -87 215q-170 -191 -375 -257q-71 -23 -153.5 -23t-143.5 58t-61 185q0 56 16 136l123 575h-68
l17 82h67l62 283l303 41l-70 -324h430l80 -442q195 208 195 325q0 15 -2 25q-20 -4 -35 -4q-96 0 -96 114zM281 262q0 -74 85 -74q131 0 257 113q39 35 73 78l-104 563h-172l-131 -614q-8 -37 -8 -66z" />
    <glyph glyph-name="t_z" unicode="t&#x7a;" horiz-adv-x="1442" 
d="M131 942h-68l17 82h67l62 283l303 41l-70 -324h123l-16 -82h-123l-131 -614q-10 -39 -10 -72t14.5 -53.5t52.5 -20.5t58 6q-59 -170 -162 -194q-28 -6 -55 -6q-109 0 -157 66.5t-48 142t12 131.5zM1267 317q91 0 91 -98q0 -79 -70 -149t-180 -70h-543l522 913h-114
q-48 0 -80.5 -5t-32.5 -27q0 -5 3.5 -6t11 -6.5t7.5 -48t-34.5 -68t-63.5 -25.5q-51 0 -78.5 24t-27.5 61q0 79 68 145.5t169 66.5h527l-502 -866q13 -1 31 -3l39 -5q46 -5 84 -5q91 0 98 41q-39 4 -39 43q0 30 28 59t86 29z" />
    <glyph glyph-name="u_v" unicode="uv" horiz-adv-x="1890" 
d="M281 276q0 -90 61 -90q108 0 164 181l139 657h293l-217 -1024h-293l23 104q-103 -116 -248 -116q-92 0 -156 58q-63 58 -63 187q0 58 16 134l139 657h295l-147 -696q-6 -26 -6 -52zM1309 252q0 -66 77 -66q126 0 237 232q71 147 94 314q7 50 7 93v33q-21 -8 -54.5 -8
t-54.5 36q-20 37 -20 73.5t33 71t75 34.5q140 0 140 -182q0 -296 -133 -569q-45 -93 -109 -166q-142 -160 -333 -160q-120 0 -187 58.5t-67 176.5q0 45 12 105l121 585l-53 27l16 84h360l-149 -696q-4 -23 -8 -41.5t-4 -34.5z" />
    <glyph glyph-name="u_x" unicode="ux" horiz-adv-x="1798" 
d="M1610 928q-97 0 -97 114q0 46 33 72q32 25 91.5 25t94.5 -53.5t35 -141.5q0 -129 -161 -326q-55 -68 -131 -149l18 -102l13 -61q24 -120 108 -120q59 0 110 51t74 130h86q-132 -379 -422 -379q-97 0 -150 65t-87 209q-218 -274 -482 -274q-86 0 -153 52q-65 52 -82 144
q-121 -196 -305 -196q-91 0 -155 58.5t-64 189.5q0 55 16 131l139 657h295l-147 -696q-6 -26 -6 -52q0 -90 61 -90q108 0 164 181l139 657h295l-147 -696q-7 -27 -7 -52q0 -90 88 -90q120 0 256 119q40 35 72 74l-119 645h289l80 -442q195 208 195 325q0 15 -2 25
q-20 -4 -35 -4z" />
    <glyph glyph-name="y_p" unicode="yp" horiz-adv-x="1954" 
d="M1413 946q102 88 240 88q177 0 231 -170q19 -62 19 -142.5t-10 -161t-33 -160.5q-52 -182 -154 -286q-122 -126 -307 -126q-104 0 -189 6l-92 -432l-309 -74l109 516q-103 -4 -199 -22l-31 -146q-39 -197 -156 -284q-86 -64 -197 -64t-178 49t-67 156.5t110 195.5
q87 71 226 113l23 100q-106 -114 -246 -114q-92 0 -156 58q-63 58 -63 187q0 58 16 134l139 657h295l-147 -696q-6 -26 -6 -52q0 -90 58.5 -90t99.5 48q40 49 63 120l143 670h295l-201 -940q105 23 205 39l207 977h295zM1622 717q0 170 -102 170q-35 0 -74 -25t-68 -76
l-133 -632q23 2 45 2h45q79 0 135 60q108 117 137 332q15 97 15 169zM403 -111q-200 -72 -200 -174q0 -41 39 -61q13 -6 38 -6t58 44.5t53 137.5z" />
    <glyph glyph-name="y_x" unicode="yx" horiz-adv-x="1784" 
d="M1595 928q-96 0 -96 114q0 46 33 72q32 25 91.5 25t94.5 -53.5t35 -141t-71 -201.5t-222 -274l19 -102l13 -61q24 -120 107 -120q60 0 111.5 52t73.5 129h86q-130 -377 -422 -377q-98 0 -151 65.5t-87 212.5q-170 -189 -491 -282l-31 -150q-39 -197 -156 -284
q-86 -64 -197 -64t-178 49t-67 150q0 164 218 255q59 25 116 44l27 118q-102 -114 -248 -114q-92 0 -156 57q-63 57 -63 186q0 58 16 134l139 657h295l-147 -696q-6 -26 -6 -52q0 -90 61 -90q108 0 164 181l139 657h295l-201 -944q119 40 194 90q134 89 251 223l-115 631
h289l80 -442q194 207 194 325q0 15 -2 25q-17 -4 -35 -4zM403 -109q-200 -72 -200 -176q0 -41 39 -61q13 -6 38 -6t58 44.5t53 137.5z" />
    <glyph glyph-name="y_z" unicode="y&#x7a;" horiz-adv-x="1819" 
d="M281 276q0 -90 61 -90q108 0 164 181l139 657h297l-250 -1188q-39 -196 -158 -284q-87 -64 -199 -64t-184.5 62.5t-72.5 146.5t27.5 133t86 90.5t240.5 95.5l21 90q-104 -118 -250 -118q-92 0 -156 58q-63 58 -63 187q0 58 16 134l139 657h295l-147 -696q-6 -26 -6 -52z
M418 -49q-110 -39 -152 -73q-76 -63 -76 -140q0 -23 24.5 -45.5t57 -22.5t67.5 35t54 125zM1644 317q91 0 91 -98q0 -79 -70 -149t-180 -70h-543l522 913h-114q-48 0 -80.5 -5t-32.5 -27q0 -5 3.5 -6t11 -6.5t7.5 -48t-34.5 -68t-64.5 -25.5q-49 0 -77 24t-28 61
q0 79 68 145.5t169 66.5h527l-502 -866q13 -1 31 -3l39 -5q46 -5 84 -5q91 0 98 41q-39 4 -39 43q0 30 28 59t86 29z" />
    <glyph glyph-name="afii10065_afii10087" unicode="&#x430;&#x445;" horiz-adv-x="1841" 
d="M1653 928q-97 0 -97 114q0 46 32.5 71.5t92 25.5t94.5 -53.5t35 -141.5q0 -129 -161 -326q-55 -68 -131 -149l18 -102l12 -61q25 -120 109 -120q59 0 110 51t74 130h86q-132 -379 -422 -379q-97 0 -150 65t-87 209q-218 -274 -482 -274q-85 0 -150.5 49.5t-82.5 142.5
q-128 -192 -310.5 -192t-246.5 175q-23 63 -23 143.5t14 161t43 160.5q64 176 183 291t287 115q88 0 127 -29.5t39 -74.5v-15l22 109h295l-147 -696q-7 -27 -7 -58.5t18.5 -57.5t64.5 -26q83 0 174.5 55.5t158.5 137.5l-119 645h289l80 -442q195 208 195 325q0 15 -2 25
q-20 -4 -35 -4zM647 829q0 19 -17.5 48.5t-74.5 29.5t-111 -61q-130 -147 -163 -422q-5 -42 -5 -89q0 -91 38 -127q22 -22 55 -22q61 0 111 48.5t69 132.5z" />
    <glyph glyph-name="afii10065_afii10089" unicode="&#x430;&#x447;" horiz-adv-x="2034" 
d="M551 178q-127 -190 -309 -190t-246 175q-23 63 -23 143.5t14 161t43 160.5q64 176 183 291t287 115q88 0 127 -29.5t39 -74.5v-15l22 109h295l-147 -696q-9 -35 -9 -72q0 -70 84 -70q27 0 45 9q-43 -115 -73 -149q-53 -58 -134.5 -58t-133.5 49.5t-64 140.5zM1868 186
q110 0 166 181h86q-76 -221 -208 -315q-91 -64 -193.5 -64t-166.5 58q-63 58 -63 187q0 58 16 134l11 51q-105 -115 -246 -115q-92 0 -156 58q-63 58 -63 188q0 57 16 133l72 342h295l-80 -381q-6 -32 -6 -57q0 -84 60.5 -84t104 49.5t60.5 130.5l72 342h294l-147 -696
q-8 -37 -8 -73q0 -69 84 -69zM647 829q0 19 -17.5 48.5t-74.5 29.5t-111 -61q-130 -147 -163 -422q-5 -42 -5 -89q0 -91 38 -127q22 -22 55 -22q61 0 111 48.5t69 132.5z" />
    <glyph glyph-name="afii10066_afii10068" unicode="&#x431;&#x433;" horiz-adv-x="1671" 
d="M1757 367q-243 -379 -546 -379q-334 0 -334 231q0 144 123 245q35 28 72 54l71 51q123 88 123 187.5t-95 99.5q-167 0 -370 -389l-55 -107q-104 -207 -208.5 -287.5t-236.5 -80.5q-328 0 -328 346q0 246 144 431q160 200 415 200q11 0 19 -1t16 -1q-41 49 -85 91t-81 82
q-84 92 -84 172.5t53.5 117t168.5 36.5h402q71 0 93 38q13 20 23 61h90q-49 -233 -117 -305q-39 -40 -94 -54t-135 -14h-197q-26 0 -26 -25q0 -12 49.5 -67.5t82 -122t58 -135.5t27.5 -187q102 186 221 286.5t297.5 100.5t240.5 -125q21 -44 21 -117t-28.5 -132.5
t-71.5 -103.5t-93.5 -78t-93.5 -66q-100 -74 -100 -152q0 -108 141 -108t264 109q45 40 95 98h69zM297 207q25 -31 76.5 -31t88 32.5t64.5 83.5q50 93 74.5 222t24.5 203t-20 100.5t-63.5 26.5t-83 -31t-70.5 -79q-55 -88 -85.5 -211.5t-30.5 -204t25 -111.5z" />
    <glyph glyph-name="afii10066_afii10072" unicode="&#x431;&#x436;" horiz-adv-x="2583" 
d="M2458 850q0 84 -48 84q-77 0 -149 -193.5t-72 -386.5q0 -112 41.5 -163.5t112 -51.5t136 55.5t104.5 172.5h86q-90 -255 -282 -347q-68 -32 -149 -32q-140 0 -219.5 88.5t-79.5 236.5q0 97 17 179h-117l-102 -492h-275l105 492h-117q-41 -207 -143 -343
q-121 -161 -293 -161q-114 0 -162.5 53.5t-48.5 132t30.5 115.5t71.5 37t74 -25q-21 -73 -21 -121q0 -84 48 -84q77 0 151 199q70 188 70 381q0 111 -40.5 163t-101.5 52q-148 0 -289 -373q-16 -45 -30 -80l-25 -65q-149 -381 -440 -381q-328 0 -328 346q0 246 144 431
q160 200 415 200q11 0 19 -1t16 -1q-41 49 -85 91t-81 82q-84 92 -84 172.5t53.5 117t168.5 36.5h402q71 0 93 38q13 20 23 61h90q-49 -233 -117 -305q-39 -40 -94 -54t-135 -14h-197q-26 0 -26 -25q0 -7 14 -25l36 -47q143 -186 163 -364q158 311 387 311q141 0 220 -88
t79 -237q0 -54 -7 -103h123l86 410h275l-86 -410h114q90 295 270 392q66 36 140 36q125 0 173 -53.5t48 -132t-30.5 -115t-71 -36.5t-74.5 24q21 73 21 121zM297 207q25 -31 76.5 -31t88 32.5t64.5 83.5q50 93 74.5 222t24.5 203t-20 100.5t-63.5 26.5t-83 -31t-70.5 -79
q-55 -88 -85.5 -211.5t-30.5 -204t25 -111.5z" />
    <glyph glyph-name="afii10066_afii10095" unicode="&#x431;&#x44d;" horiz-adv-x="1761" 
d="M604 1192q-26 0 -26 -25q0 -11 36 -54q96 -114 152 -263q29 -80 29 -169v-22q95 171 205 261q147 122 343 122q153 0 244.5 -80t91.5 -255q0 -133 -44 -251q-82 -218 -203 -332q-147 -136 -345 -136q-141 0 -209.5 58t-68.5 171.5t73 148.5q22 11 56 11t66 -29
q-27 -74 -27 -139q0 -113 113 -113q83 0 155.5 117t108.5 279h-254l26 122h246q4 42 4 78q0 105 -41.5 141.5t-98.5 36.5t-92 -15q-158 -68 -335 -379q-61 -108 -117.5 -219.5t-157.5 -188t-233 -76.5q-328 0 -328 346q0 246 144 431q160 200 415 200q11 0 19 -1t16 -1
q-41 49 -85 91t-81 82q-84 92 -84 172.5t53.5 117t168.5 36.5h402q71 0 93 38q13 20 23 61h90q-49 -233 -117 -305q-39 -40 -94 -54t-135 -14h-197zM297 207q25 -31 76.5 -31t88 32.5t64.5 83.5q50 93 74.5 222t24.5 203t-20 100.5t-63.5 26.5t-83 -31t-70.5 -79
q-55 -88 -85.5 -211.5t-30.5 -204t25 -111.5z" />
    <glyph glyph-name="afii10066_afii10100" unicode="&#x431;&#x453;" horiz-adv-x="1671" 
d="M1757 367q-243 -379 -546 -379q-334 0 -334 231q0 144 123 245q35 28 72 54l71 51q123 88 123 187.5t-95 99.5q-167 0 -370 -389l-55 -107q-104 -207 -208.5 -287.5t-236.5 -80.5q-328 0 -328 346q0 246 144 431q160 200 415 200q11 0 19 -1t16 -1q-41 49 -85 91t-81 82
q-84 92 -84 172.5t53.5 117t168.5 36.5h402q71 0 93 38q13 20 23 61h90q-49 -233 -117 -305q-39 -40 -94 -54t-135 -14h-197q-26 0 -26 -25q0 -12 49.5 -67.5t82 -122t58 -135.5t27.5 -187q102 186 221 286.5t297.5 100.5t240.5 -125q21 -44 21 -117t-28.5 -132.5
t-71.5 -103.5t-93.5 -78t-93.5 -66q-100 -74 -100 -152q0 -108 141 -108t264 109q45 40 95 98h69zM297 207q25 -31 76.5 -31t88 32.5t64.5 83.5q50 93 74.5 222t24.5 203t-20 100.5t-63.5 26.5t-83 -31t-70.5 -79q-55 -88 -85.5 -211.5t-30.5 -204t25 -111.5zM1217 1149
l186 387h215l-248 -387h-153z" />
    <glyph glyph-name="afii10066_afii10103" unicode="&#x431;&#x456;" horiz-adv-x="1427" 
d="M604 1192q-26 0 -26 -25q0 -12 34 -51q183 -214 183 -457t-130 -442q-63 -97 -155 -161t-189 -64q-178 0 -263 85t-85 261q0 246 144 431q160 200 415 200q11 0 19 -1t16 -1q-41 49 -85 91t-81 82q-84 92 -84 172.5t53.5 117t168.5 36.5h299q71 0 94 38q12 20 22 61h90
q-47 -232 -117 -305q-39 -40 -94 -54t-135 -14h-94zM1513 367q-133 -379 -441 -379q-81 0 -145 58q-63 58 -63 187q0 54 17 134l139 657h295l-148 -696q-8 -37 -8 -73q0 -69 84 -69q60 0 111 51q50 52 73 130h86zM297 207q25 -31 76.5 -31t88 32.5t64.5 83.5q50 93 74.5 222
t24.5 203t-20 100.5t-63.5 26.5t-83 -31t-70.5 -79q-55 -88 -85.5 -211.5t-30.5 -204t25 -111.5zM1386 1296q0 -68 -48.5 -114.5t-115.5 -46.5t-114 47t-47 114t46.5 115.5t114.5 48.5t116 -48t48 -116z" />
    <glyph glyph-name="afii10066_afii10104" unicode="&#x431;&#x457;" horiz-adv-x="1427" 
d="M604 1192q-26 0 -26 -25q0 -12 34 -51q183 -214 183 -457t-130 -442q-63 -97 -155 -161t-189 -64q-178 0 -263 85t-85 261q0 246 144 431q160 200 415 200q11 0 19 -1t16 -1q-41 49 -85 91t-81 82q-84 92 -84 172.5t53.5 117t168.5 36.5h263q70 0 92 38q13 20 24 61h90
q-49 -231 -118 -305q-39 -40 -93.5 -54t-134.5 -14h-58zM1513 367q-133 -379 -441 -379q-81 0 -145 58q-63 58 -63 187q0 54 17 134l139 657h295l-148 -696q-8 -37 -8 -73q0 -69 84 -69q60 0 111 51q50 52 73 130h86zM297 207q25 -31 76.5 -31t88 32.5t64.5 83.5
q50 93 74.5 222t24.5 203t-20 100.5t-63.5 26.5t-83 -31t-70.5 -79q-55 -88 -85.5 -211.5t-30.5 -204t25 -111.5zM1208 1209q-38 -35 -76 -35q-65 0 -101 35t-36 88t36 89.5t88 36.5t89 -36.5t37 -89t-37 -88.5zM1338 1386q36 37 88.5 37t89 -36.5t36.5 -89t-37 -88
t-89.5 -35.5t-87.5 35t-35 87.5t35 89.5z" />
    <glyph glyph-name="afii10066_afii10105" unicode="&#x431;&#x458;" horiz-adv-x="1370" 
d="M604 1192q-26 0 -26 -25q0 -12 34 -51q183 -214 183 -457t-130 -442q-63 -97 -155 -161t-189 -64q-178 0 -263 85t-85 261q0 246 144 431q160 200 415 200q11 0 19 -1t16 -1q-41 49 -85 91t-81 82q-84 92 -84 172.5t53.5 117t168.5 36.5h299q71 0 94 38q12 20 22 61h90
q-47 -232 -117 -305q-39 -40 -94 -54t-135 -14h-94zM1063 -164q-41 -198 -157 -284q-86 -64 -196.5 -64t-177.5 49t-67 150q0 165 217 260q60 26 117 45l221 1032h295l-203 -950q93 31 153.5 94.5t104.5 198.5h86q-81 -265 -264 -348q-51 -23 -98 -35zM297 207
q25 -31 76.5 -31t88 32.5t64.5 83.5q50 93 74.5 222t24.5 203t-20 100.5t-63.5 26.5t-83 -31t-70.5 -79q-55 -88 -85.5 -211.5t-30.5 -204t25 -111.5zM1368 1298q0 -68 -48.5 -114.5t-115 -46.5t-115.5 47q-47 47 -47 114t47 116q48 48 115.5 48t115.5 -48t48 -116z
M778 -111q-200 -70 -200 -174q0 -41 38 -61q13 -6 38.5 -6t58 44.5t53.5 137.5z" />
    <glyph glyph-name="afii10066_afii10110" unicode="&#x431;&#x45e;" horiz-adv-x="1876" 
d="M1161 276q0 -90 62 -90q56 0 87 36q49 60 72 132l144 670h295l-203 -950q93 31 153.5 94.5t104.5 198.5h86q-81 -265 -264 -348q-51 -23 -99 -35l-30 -148q-41 -198 -157 -284q-86 -64 -196.5 -64t-177.5 49t-67 157q0 189 334 298l24 110q-104 -114 -246 -114
q-92 0 -156 58q-63 58 -63 187q0 54 17 134l139 657h295l-148 -696q-6 -26 -6 -52zM604 1192q-26 0 -26 -25q0 -12 34 -51q183 -214 183 -457t-130 -442q-63 -97 -155 -161t-189 -64q-178 0 -263 85t-85 261q0 246 144 431q160 200 415 200q11 0 19 -1t16 -1q-41 49 -85 91
t-81 82q-84 92 -84 172.5t53.5 117t168.5 36.5h361q71 0 94 38q12 20 22 61h90q-49 -233 -118 -305q-38 -40 -93 -54t-135 -14h-156zM297 207q25 -31 76.5 -31t88 32.5t64.5 83.5q50 93 74.5 222t24.5 203t-20 100.5t-63.5 26.5t-83 -31t-70.5 -79q-55 -88 -85.5 -211.5
t-30.5 -204t25 -111.5zM1282 1450q129 0 129 -117q0 -60 -49 -92q32 -8 78 -8q230 0 319 240h86q-96 -281 -296 -333q-64 -16 -164 -16t-169 47.5t-69 121t37 115.5t98 42zM1284 -111q-201 -70 -201 -174q0 -41 39 -61q13 -6 38.5 -6t58 44.5t53.5 137.5z" />
    <glyph glyph-name="afii10066_afii10071" unicode="&#x431;&#x451;" horiz-adv-x="1667" 
d="M604 1192q-26 0 -26 -25q0 -12 34 -51q183 -214 183 -457t-130 -442q-63 -97 -155 -161t-189 -64q-178 0 -263 85t-85 261q0 246 144 431q160 200 415 200q11 0 19 -1t16 -1q-41 49 -85 91t-81 82q-84 92 -84 172.5t53.5 117t168.5 36.5h340q71 0 93 38q13 20 23 61h90
q-47 -232 -117 -305q-39 -40 -94 -54t-135 -14h-135zM1407 1042q225 0 225 -196q0 -174 -141 -297t-330 -135q-4 -46 -4 -82q0 -105 37 -138.5t104 -33.5q117 0 195.5 51t173.5 156h70q-230 -379 -563 -379q-146 0 -233 75.5t-87 249.5q0 234 120 453q90 167 246 238
q82 38 187 38zM297 207q25 -31 76.5 -31t88 32.5t64.5 83.5q50 93 74.5 222t24.5 203t-20 100.5t-63.5 26.5t-83 -31t-70.5 -79q-55 -88 -85.5 -211.5t-30.5 -204t25 -111.5zM1475 860q0 74 -52 74q-74 -2 -143.5 -130t-101.5 -292q117 8 207 110.5t90 237.5zM1706 1209
q-38 -35 -76 -35q-65 0 -101 35t-36 88t36 89.5t88 36.5t89 -36.5t37 -89t-37 -88.5zM1337 1209q-38 -35 -77 -35q-64 0 -100 35t-36 88t36 89.5t88 36.5t89 -36.5t37 -89t-37 -88.5z" />
    <glyph glyph-name="afii10066_afii10075" unicode="&#x431;&#x439;" horiz-adv-x="1915" 
d="M604 1192q-26 0 -26 -25q0 -12 34 -51q183 -214 183 -457t-130 -442q-63 -97 -155 -161t-189 -64q-178 0 -263 85t-85 261q0 246 144 431q160 200 415 200q11 0 19 -1t16 -1q-41 49 -85 91t-81 82q-84 92 -84 172.5t53.5 117t168.5 36.5h361q71 0 94 38q12 20 22 61h90
q-49 -233 -118 -305q-38 -40 -93 -54t-135 -14h-156zM1749 186q110 0 166 181h86q-132 -379 -412 -379q-181 0 -203 194q-117 -194 -303 -194q-92 0 -156 58q-63 58 -63 187q0 54 17 134l139 657h295l-148 -696q-6 -32 -6 -58q0 -84 62 -84q112 0 163 181l140 657h295
l-148 -696q-8 -37 -8 -73q0 -69 84 -69zM297 207q25 -31 76.5 -31t88 32.5t64.5 83.5q50 93 74.5 222t24.5 203t-20 100.5t-63.5 26.5t-83 -31t-70.5 -79q-55 -88 -85.5 -211.5t-30.5 -204t25 -111.5zM1282 1450q129 0 129 -117q0 -60 -49 -92q32 -8 78 -8q230 0 319 240h86
q-96 -281 -296 -333q-64 -16 -164 -16t-169 47.5t-69 121t37 115.5t98 42z" />
    <glyph glyph-name="afii10067_afii10068" unicode="&#x432;&#x433;" horiz-adv-x="1714" 
d="M1214 268q0 -108 141.5 -108t264.5 109q45 40 94 98h70q-114 -178 -234 -267q-149 -112 -329 -112q-318 0 -318 231q0 144 123 245q35 28 72 54l71 51q77 55 100 101.5t23 89.5q0 96 -86 96q-66 0 -147.5 -45.5t-143.5 -84t-139 -81.5q23 -58 23 -146.5t-33 -182
t-96 -165.5q-138 -159 -359 -159q-169 0 -254.5 100t-85.5 265.5t83 439.5q90 298 225 502q158 239 333 239q96 0 157.5 -64.5t61.5 -223.5t-111 -378l-56 -106q31 -17 63 -45q41 23 135 93l144 104q179 124 341 124q114 0 184.5 -61.5t70.5 -157.5t-28 -155
q-49 -103 -166 -182l-94 -66q-100 -74 -100 -152zM276 354q0 -178 125 -178q95 0 153 89t58 181.5t-18 128.5q-32 -12 -77 -12t-74 26.5t-29 66.5q0 68 37.5 96.5t105.5 33.5q94 170 131 358q12 64 12 124.5t-16 85t-50 24.5q-63 0 -132 -130q-114 -216 -195 -642
q-31 -163 -31 -252z" />
    <glyph glyph-name="afii10067_afii10100" unicode="&#x432;&#x453;" horiz-adv-x="1714" 
d="M1214 268q0 -108 141.5 -108t264.5 109q45 40 94 98h70q-114 -178 -234 -267q-149 -112 -329 -112q-318 0 -318 231q0 144 123 245q35 28 72 54l71 51q77 55 100 101.5t23 89.5q0 96 -86 96q-66 0 -147.5 -45.5t-143.5 -84t-139 -81.5q23 -58 23 -146.5t-33 -182
t-96 -165.5q-138 -159 -359 -159q-169 0 -254.5 100t-85.5 265.5t83 439.5q90 298 225 502q158 239 333 239q96 0 157.5 -64.5t61.5 -223.5t-111 -378l-56 -106q31 -17 63 -45q41 23 135 93l144 104q179 124 341 124q114 0 184.5 -61.5t70.5 -157.5t-28 -155
q-49 -103 -166 -182l-94 -66q-100 -74 -100 -152zM276 354q0 -178 125 -178q95 0 153 89t58 181.5t-18 128.5q-32 -12 -77 -12t-74 26.5t-29 66.5q0 68 37.5 96.5t105.5 33.5q94 170 131 358q12 64 12 124.5t-16 85t-50 24.5q-63 0 -132 -130q-114 -216 -195 -642
q-31 -163 -31 -252zM1243 1149l187 387h215l-248 -387h-154z" />
    <glyph glyph-name="afii10067_afii10072" unicode="&#x432;&#x436;" horiz-adv-x="2619" 
d="M1066 -12q-226 0 -226 186q0 78 30.5 115t70 37t75.5 -25q-21 -73 -21 -121q0 -84 47 -84q40 0 70 42q88 123 132 345q20 104 20 179q0 128 -27.5 178.5t-87.5 50.5t-158.5 -55t-216.5 -189q25 -73 25 -155t-33 -175.5t-96 -165.5q-138 -159 -359 -159q-169 0 -254.5 100
t-85.5 265.5t83 439.5q90 298 225 502q158 239 333 239q96 0 157.5 -64.5t61.5 -223.5t-111 -378l-56 -106q36 -18 61 -43q216 259 405 305q55 14 110 14q114 0 194 -88q79 -91 79 -237q0 -48 -6 -103h123l86 410h275l-86 -410h114q90 295 269 392q67 36 140 36
q126 0 174 -53.5t48 -132t-30.5 -115t-72 -36.5t-73.5 24q20 70 20 121q0 84 -47 84q-77 0 -149 -193.5t-72 -386.5q0 -112 41.5 -163.5t110.5 -51.5q116 0 194 127q27 42 47 101h86q-86 -254 -281 -347q-69 -32 -149 -32q-140 0 -219.5 88.5t-79.5 236.5q0 105 17 179h-117
l-102 -492h-275l105 492h-117q-70 -337 -269 -460q-73 -44 -152 -44zM276 354q0 -178 125 -178q95 0 153 89t58 181.5t-18 128.5q-32 -12 -77 -12t-74 26.5t-29 66.5q0 68 37.5 96.5t105.5 33.5q94 170 131 358q12 64 12 124.5t-16 85t-50 24.5q-63 0 -132 -130
q-114 -216 -195 -642q-31 -163 -31 -252z" />
    <glyph glyph-name="afii10067_afii10073" unicode="&#x432;&#x437;" horiz-adv-x="1688" 
d="M782 -313q0 194 322 301q-6 217 -148 217h-63l27 123h59q109 0 180.5 105.5t71.5 266.5q0 60 -20.5 108t-89 48t-173.5 -74l-180 -129q31 -66 31 -154.5t-33 -182t-96 -165.5q-138 -159 -359 -159q-169 0 -254.5 100t-85.5 265.5t83 439.5q90 298 225 502
q158 239 333 239q96 0 157.5 -64.5t61.5 -223.5t-111 -378l-56 -106q26 -12 51 -37q26 22 59 53l72 68q208 192 385 192h6q149 0 226 -89.5t77 -252.5t-128 -304q-67 -73 -118 -100.5t-71 -31.5q49 -17 98 -70t70 -135q116 36 182.5 100.5t114.5 207.5h86
q-55 -186 -172 -287q-80 -69 -203 -103q-4 -228 -109.5 -358.5t-277.5 -130.5q-95 0 -162.5 49.5t-67.5 149.5zM276 354q0 -178 125 -178q95 0 153 89t58 181.5t-18 128.5q-32 -12 -77 -12t-74 26.5t-29 66.5q0 68 37.5 96.5t105.5 33.5q94 170 131 358q12 64 12 124.5
t-16 85t-50 24.5q-63 0 -132 -130q-114 -216 -195 -642q-31 -163 -31 -252zM1098 -111q-203 -71 -203 -174q0 -28 17.5 -47.5t45.5 -19.5q51 0 89 70.5t51 170.5z" />
    <glyph glyph-name="afii10067_afii10087" unicode="&#x432;&#x445;" horiz-adv-x="1743" 
d="M1567 926q-97 0 -97 114q0 54 42 77.5t84 23.5q66 0 97 -56t31 -118t-19 -110q-36 -91 -153 -224l-137 -150l17 -118q12 -98 35 -129.5t44 -40.5t48 -9q59 0 110.5 52t73.5 129h86q-76 -215 -206 -309q-96 -70 -204 -70h-8q-193 0 -250 356l-282 -344h-148l414 467
l-33 229q-17 104 -33.5 137t-38.5 33t-42 -8q-39 -15 -124 -96l-108 -107q33 -70 33 -157.5t-33 -181t-96 -165.5q-138 -159 -359 -159q-169 0 -254.5 100t-85.5 265.5t83 439.5q90 298 225 502q158 239 333 239q96 0 157.5 -64.5t61.5 -223.5t-111 -378l-56 -106
q26 -12 51 -37q58 52 111 106t107 98q124 101 235.5 101t163.5 -83q35 -57 46 -160l23 -183q96 107 146 183.5t55 138.5q-20 -4 -35 -4zM276 354q0 -178 125 -178q95 0 153 89t58 181.5t-18 128.5q-32 -12 -77 -12t-74 26.5t-29 66.5q0 68 37.5 96.5t105.5 33.5
q94 170 131 358q12 64 12 124.5t-16 85t-50 24.5q-63 0 -132 -130q-114 -216 -195 -642q-31 -163 -31 -252z" />
    <glyph glyph-name="afii10068_afii10073" unicode="&#x433;&#x437;" horiz-adv-x="1720" 
d="M815 -313q0 194 322 301q-7 217 -148 217h-63l26 123h60q109 0 180.5 102.5t71.5 234.5t-58 175q-22 16 -63.5 16t-82.5 -26q-76 -48 -162 -206l-93 -178q-50 -95 -99 -178q-166 -280 -452 -280q-130 0 -213.5 55t-83.5 181q0 166 217 294q56 33 104 68q113 80 113 175
t-94 95q-132 0 -221 -213h-99q68 192 172.5 295.5t284.5 103.5t244 -125q22 -44 22 -106.5t-18 -111.5t-48 -87q-49 -62 -150 -126l-79 -50q-87 -53 -112 -92.5t-25 -86.5t37.5 -72t91.5 -25q168 0 308 278l93 184q119 249 229 334.5t249 85.5t218 -85t79 -249t-128 -312
q-75 -83 -153 -119q-22 -10 -37 -13q49 -17 99 -70.5t69 -134.5q118 36 167 84q84 82 130 224h86q-76 -266 -274 -353q-53 -24 -100 -37q-4 -228 -109.5 -358.5t-278.5 -130.5q-95 0 -162 49t-67 150zM1130 -111q-202 -71 -202 -174q0 -28 17.5 -47.5t46.5 -19.5
q51 0 88.5 71t49.5 170z" />
    <glyph glyph-name="afii10068_afii10087" unicode="&#x433;&#x445;" horiz-adv-x="1516" 
d="M1231 1042q0 97 125 97q59 0 94 -53.5t35 -117.5q0 -113 -71 -219t-234 -251l44 -192q16 -72 44 -96t75.5 -24t99 52t73.5 129h86q-132 -379 -416 -379q-103 0 -158.5 77t-97.5 263q-170 -161 -281 -223.5t-200 -89.5t-205.5 -27t-201.5 55t-85 181q0 166 217 294
q56 33 104 68q113 80 113 175t-94 95q-132 0 -221 -213h-99q68 192 172.5 295.5t284.5 103.5t244 -125q22 -44 22 -106.5t-18 -111.5t-48 -87q-49 -62 -150 -126l-79 -50q-87 -53 -112 -92.5t-25 -75.5q0 -108 152.5 -108t365.5 174l119 102l-131 588h289l92 -414
q99 91 154 164t55 133q0 15 -2 25q-17 -4 -35 -4q-96 0 -96 114z" />
    <glyph glyph-name="afii10068_afii10089" unicode="&#x433;&#x447;" horiz-adv-x="1802" 
d="M1116 586q0 -84 62 -84q89 0 140 107q15 33 23 73l72 342h295l-147 -696q-9 -35 -9 -72q0 -70 84 -70q115 0 166 181h86q-76 -221 -208 -315q-90 -64 -193 -64t-167 58q-63 58 -63 187q0 54 17 134l10 51q-104 -115 -249.5 -115t-194.5 125q-96 -186 -248 -313t-318 -127
q-317 0 -317 231q0 130 113 225q48 41 104 74t104 68q113 80 113 175t-94 95q-132 0 -221 -213h-99q68 192 172.5 295.5t284.5 103.5t244 -125q22 -44 22 -106.5t-18 -111.5t-48 -87q-49 -62 -150 -126l-79 -50q-87 -53 -112 -92.5t-25 -75.5q0 -108 146 -108
q107 0 236 146.5t179 350.5l78 367h295l-80 -381q-6 -32 -6 -57z" />
    <glyph glyph-name="afii10100_afii10073" unicode="&#x453;&#x437;" horiz-adv-x="1720" 
d="M815 -313q0 194 322 301q-7 217 -148 217h-63l26 123h60q109 0 180.5 102.5t71.5 234.5t-58 175q-22 16 -63.5 16t-82.5 -26q-76 -48 -162 -206l-93 -178q-50 -95 -99 -178q-166 -280 -452 -280q-130 0 -213.5 55t-83.5 181q0 166 217 294q56 33 104 68q113 80 113 175
t-94 95q-132 0 -221 -213h-99q68 192 172.5 295.5t284.5 103.5t244 -125q22 -44 22 -106.5t-18 -111.5t-48 -87q-49 -62 -150 -126l-79 -50q-87 -53 -112 -92.5t-25 -86.5t37.5 -72t91.5 -25q168 0 308 278l93 184q119 249 229 334.5t249 85.5t218 -85t79 -249t-128 -312
q-75 -83 -153 -119q-22 -10 -37 -13q49 -17 99 -70.5t69 -134.5q118 36 167 84q84 82 130 224h86q-76 -266 -274 -353q-53 -24 -100 -37q-4 -228 -109.5 -358.5t-278.5 -130.5q-95 0 -162 49t-67 150zM1130 -111q-202 -71 -202 -174q0 -28 17.5 -47.5t46.5 -19.5
q51 0 88.5 71t49.5 170zM420 1149l186 387h215l-248 -387h-153z" />
    <glyph glyph-name="afii10100_afii10087" unicode="&#x453;&#x445;" horiz-adv-x="1516" 
d="M1231 1042q0 97 125 97q59 0 94 -53.5t35 -117.5q0 -113 -71 -219t-234 -251l44 -192q16 -72 44 -96t75.5 -24t99 52t73.5 129h86q-132 -379 -416 -379q-103 0 -158.5 77t-97.5 263q-170 -161 -281 -223.5t-200 -89.5t-205.5 -27t-201.5 55t-85 181q0 166 217 294
q56 33 104 68q113 80 113 175t-94 95q-132 0 -221 -213h-99q68 192 172.5 295.5t284.5 103.5t244 -125q22 -44 22 -106.5t-18 -111.5t-48 -87q-49 -62 -150 -126l-79 -50q-87 -53 -112 -92.5t-25 -75.5q0 -108 152.5 -108t365.5 174l119 102l-131 588h289l92 -414
q99 91 154 164t55 133q0 15 -2 25q-17 -4 -35 -4q-96 0 -96 114zM420 1149l186 387h215l-248 -387h-153z" />
    <glyph glyph-name="afii10100_afii10089" unicode="&#x453;&#x447;" horiz-adv-x="1802" 
d="M1116 586q0 -84 60.5 -84t104.5 51q43 51 60 129l72 342h295l-147 -696q-9 -35 -9 -72q0 -70 84 -70q115 0 166 181h86q-76 -221 -208 -315q-90 -64 -193 -64t-167 58q-63 58 -63 187q0 54 17 134l10 51q-104 -115 -249.5 -115t-194.5 125q-96 -186 -248 -313t-318 -127
q-317 0 -317 231q0 130 113 225q48 41 104 74t104 68q113 80 113 175t-94 95q-132 0 -221 -213h-99q68 192 172.5 295.5t284.5 103.5t244 -125q22 -44 22 -106.5t-18 -111.5t-48 -87q-49 -62 -150 -126l-79 -50q-87 -53 -112 -92.5t-25 -75.5q0 -108 146 -108
q107 0 236 146.5t179 350.5l78 367h295l-80 -381q-6 -32 -6 -57zM420 1149l186 387h215l-248 -387h-153z" />
    <glyph glyph-name="afii10069_afii10089" unicode="&#x434;&#x447;" horiz-adv-x="2068" 
d="M1382 586q0 -84 62 -84q89 0 140 108q15 33 24 72l71 342h295l-147 -696q-8 -37 -8 -73q0 -69 84 -69q114 0 165 181h86q-76 -221 -208 -315q-90 -64 -192.5 -64t-166.5 58q-63 58 -63 187q0 58 16 134l10 51q-104 -115 -233.5 -115t-190.5 84q-73 -319 -364 -403
l-31 -148q-39 -197 -156 -284q-86 -64 -197 -64t-178 49t-67 157q0 187 334 298l25 108q-107 -112 -246 -112q-186 0 -250 175q-23 63 -23 143.5t14 161t43 160.5q64 176 183 291t287 115q88 0 127 -29.5t39 -74.5v-12l22 106h295l-203 -950q159 56 228 214q26 58 43 138
l123 598h294l-79 -381q-7 -29 -7 -57zM647 831q0 46 -43 67q-16 9 -41 9q-65 0 -119 -61q-130 -147 -163 -422q-5 -42 -5 -89q0 -91 38 -127q22 -22 54 -22q57 0 106 43.5t69 116.5zM446 -111q-200 -72 -200 -174q0 -41 39 -61q13 -6 38 -6t58 44.5t53 137.5z" />
    <glyph glyph-name="afii10069_afii10105" unicode="&#x434;&#x458;" horiz-adv-x="1528" 
d="M492 102q-109 -114 -246 -114q-186 0 -250 175q-23 63 -23 143.5t14 161t43 160.5q64 176 183 291t287 115q88 0 127 -29.5t39 -74.5v-15l22 109h295l-217 -1016l48 4q24 2 46 6l105 11l213 995h295l-201 -940q94 32 159 95t97 188h86q-66 -246 -242 -331
q-55 -26 -119 -42l-32 -158q-72 -348 -371 -348q-163 0 -217 121q-101 -121 -271 -121q-95 0 -162 49t-67 150q0 211 330 278zM276 335q0 -149 102 -149q43 0 94.5 40.5t72.5 125.5l102 477q0 19 -17.5 48.5t-74.5 29.5t-111 -61q-130 -147 -163 -422q-5 -42 -5 -89z
M1526 1298q0 -68 -48.5 -114.5t-116 -46.5t-114.5 47t-47 114t46.5 115.5t115 48.5t116.5 -48t48 -116zM948 -53l-46 -4q-23 -2 -46 -6l-106 -11l-19 -90q-11 -54 -43 -131q34 -35 76 -35q71 0 104.5 35t55.5 125zM444 -123q-198 -49 -198 -162q0 -24 17.5 -45.5t51 -21.5
t66.5 44.5t53 137.5z" />
    <glyph glyph-name="afii10071_afii10073" unicode="&#x451;&#x437;" horiz-adv-x="1794" 
d="M889 -313q0 194 321 301q-6 217 -147 217h-64l27 123h59q110 0 181 102t71 250q0 176 -125 176q-136 0 -233 -172q-35 -62 -64 -132l-51 -118q-203 -446 -571 -446q-146 0 -233 75.5t-87 249.5q0 234 119 453q91 167 248 238q81 38 168 38q142 0 193 -53.5t51 -142.5
q0 -175 -141 -297.5t-330 -134.5q-5 -58 -5 -82q0 -105 37 -138.5t117 -33.5q147 0 250 118q66 76 147 271l57 128q96 217 198 291t245 74t231.5 -85.5t88.5 -252.5t-129 -308q-65 -72 -117 -100t-72 -32q49 -17 99 -70t69 -135q116 36 182.5 100.5t114.5 207.5h86
q-79 -268 -274 -354q-53 -23 -101 -36q-4 -229 -109 -359t-278 -130q-95 0 -162 49t-67 150zM594 860q0 74 -51 74q-75 -2 -145 -132.5t-101 -289.5q118 8 207.5 110t89.5 238zM825 1209q-38 -35 -77 -35q-64 0 -100 35t-36 88t36 89.5t88 36.5t89 -36.5t37 -89t-37 -88.5z
M457 1209q-38 -35 -77 -35q-66 0 -101 35.5t-35 87.5t35 89q36 37 88.5 37t89.5 -36.5t37 -89t-37 -88.5zM1204 -111q-203 -71 -203 -174q0 -28 17.5 -47.5t45.5 -19.5q51 0 89 70.5t51 170.5z" />
    <glyph glyph-name="afii10070_afii10089" unicode="&#x435;&#x447;" horiz-adv-x="1821" 
d="M1655 186q110 0 166 181h86q-76 -221 -209 -315q-90 -64 -192.5 -64t-166.5 58q-63 58 -63 187q0 58 16 134l11 51q-105 -115 -249.5 -115t-195.5 125q-154 -295 -390 -402q-84 -38 -175 -38q-146 0 -233 75.5t-87 249.5q0 234 119 453q91 167 248 238q81 38 168 38
q142 0 193 -53.5t51 -142.5q0 -175 -141 -297.5t-330 -134.5q-5 -58 -5 -82q0 -105 37 -138.5t99 -33.5q126 0 261.5 156t180.5 366l72 342h295l-80 -381q-6 -32 -6 -57q0 -84 61 -84q89 0 140 108q15 33 24 72l72 342h294l-147 -696q-8 -37 -8 -73q0 -69 84 -69zM594 860
q0 74 -51 74q-75 -2 -145 -132.5t-101 -289.5q118 8 207.5 110t89.5 238z" />
    <glyph glyph-name="afii10071_afii10089" unicode="&#x451;&#x447;" horiz-adv-x="1821" 
d="M1655 186q110 0 166 181h86q-76 -221 -209 -315q-90 -64 -192.5 -64t-166.5 58q-63 58 -63 187q0 58 16 134l11 51q-105 -115 -249.5 -115t-195.5 125q-154 -295 -390 -402q-84 -38 -175 -38q-146 0 -233 75.5t-87 249.5q0 234 119 453q91 167 248 238q81 38 168 38
q142 0 193 -53.5t51 -142.5q0 -175 -141 -297.5t-330 -134.5q-5 -58 -5 -82q0 -105 37 -138.5t110.5 -33.5t147.5 56t117 117q133 189 166 349l72 342h295l-80 -381q-6 -32 -6 -57q0 -84 61 -84q89 0 140 108q15 33 24 72l72 342h294l-147 -696q-8 -37 -8 -73q0 -69 84 -69z
M594 860q0 74 -51 74q-75 -2 -145 -132.5t-101 -289.5q118 8 207.5 110t89.5 238zM457 1209q-38 -35 -77 -35q-66 0 -101 35.5t-35 87.5t35 89q36 37 88.5 37t89.5 -36.5t37 -89t-37 -88.5zM825 1209q-38 -35 -77 -35q-64 0 -100 35t-36 88t36 89.5t88 36.5t89 -36.5t37 -89
t-37 -88.5z" />
    <glyph glyph-name="afii10072_afii10089" unicode="&#x436;&#x447;" horiz-adv-x="2851" 
d="M2675 186q110 0 166 181h86q-76 -221 -209 -315q-90 -64 -192.5 -64t-166.5 58q-63 58 -63 187q0 58 16 134l10 51q-104 -115 -246 -115t-194 115q-143 -334 -366 -412q-54 -18 -115 -18q-140 0 -219.5 88.5t-79.5 236.5q0 102 16 179h-117l-102 -492h-274l104 492h-115
q-67 -338 -274 -460q-75 -44 -158 -44q-142 0 -200 62t-58 155q0 126 75 161q22 11 56.5 11t63.5 -29q-27 -74 -27 -138t24.5 -89t58 -25t63.5 42q93 130 132 345q19 101 19 193q0 215 -125 215q-59 0 -94 -40t-64 -114h-106q87 305 340 305q141 0 220 -88t79 -237
q0 -51 -6 -103h123l86 410h274l-86 -410h115q86 294 269 392q67 36 140 36q125 0 173.5 -54t48.5 -132t-31 -114.5t-71.5 -36.5t-74.5 24q21 67 21 121q0 84 -47 84q-78 0 -152 -199q-69 -198 -69 -381q0 -112 42 -163.5t109 -51.5q99 0 210.5 166.5t160.5 380.5l72 338h295
l-80 -381q-7 -29 -7 -57q0 -84 62 -84q121 0 162 176l73 346h295l-147 -696q-8 -37 -8 -73q0 -69 84 -69z" />
    <glyph glyph-name="afii10074_afii10089" unicode="&#x438;&#x447;" horiz-adv-x="2068" 
d="M1382 586q0 -84 61 -84t104.5 49.5t60.5 130.5l71 342h295l-147 -696q-8 -37 -8 -73q0 -69 84 -69q114 0 165 181h86q-76 -221 -208 -315q-90 -64 -192.5 -64t-166.5 58q-63 58 -63 187q0 58 16 134l10 51q-104 -115 -236.5 -115t-187.5 86q-89 -283 -270 -369
q-66 -32 -147 -32q-183 0 -203 194q-120 -194 -303 -194q-92 0 -156 58q-63 58 -63 187q0 58 16 134l139 657h295l-147 -696q-6 -32 -6 -58q0 -84 61 -84q108 0 164 181l139 657h295l-147 -696q-9 -35 -9 -72q0 -70 84 -70q131 0 201 327q12 56 20.5 103.5t14.5 73.5l70 334
h294l-79 -381q-7 -29 -7 -57z" />
    <glyph glyph-name="afii10075_afii10089" unicode="&#x439;&#x447;" horiz-adv-x="2068" 
d="M1382 586q0 -84 62 -84q121 0 162 176l73 346h295l-147 -696q-8 -37 -8 -73q0 -69 84 -69q114 0 165 181h86q-76 -221 -208 -315q-90 -64 -192.5 -64t-166.5 58q-63 58 -63 187q0 58 16 134l10 51q-104 -115 -236.5 -115t-187.5 86q-89 -283 -270 -369q-66 -32 -147 -32
q-183 0 -203 194q-120 -194 -303 -194q-92 0 -156 58q-63 58 -63 187q0 58 16 134l139 657h295l-147 -696q-6 -32 -6 -58q0 -84 61 -84q108 0 164 181l139 657h295l-147 -696q-9 -35 -9 -72q0 -70 84 -70q149 0 220 425q8 48 14 75l72 338h294l-79 -381q-7 -29 -7 -57z
M402 1450q128 0 128 -117q0 -60 -49 -92q32 -8 82 -8q223 0 316 240h86q-96 -281 -297 -333q-64 -16 -163 -16t-169 47.5t-70 121t37 115.5t99 42z" />
    <glyph glyph-name="afii10070_afii10073" unicode="&#x435;&#x437;" horiz-adv-x="1794" 
d="M889 -313q0 194 321 301q-6 217 -147 217h-64l27 123h59q110 0 181 102t71 250q0 176 -125 176q-136 0 -233 -172q-35 -62 -64 -132l-51 -118q-203 -446 -571 -446q-146 0 -233 75.5t-87 249.5q0 234 119 453q91 167 248 238q81 38 168 38q142 0 193 -53.5t51 -142.5
q0 -175 -141 -297.5t-330 -134.5q-5 -58 -5 -82q0 -105 37 -138.5t117 -33.5q147 0 250 118q66 76 147 271l57 128q96 217 198 291t245 74t231.5 -85.5t88.5 -252.5t-129 -308q-65 -72 -117 -100t-72 -32q49 -17 99 -70t69 -135q116 36 182.5 100.5t114.5 207.5h86
q-79 -268 -274 -354q-53 -23 -101 -36q-4 -229 -109 -359t-278 -130q-95 0 -162 49t-67 150zM594 860q0 74 -51 74q-75 -2 -145 -132.5t-101 -289.5q118 8 207.5 110t89.5 238zM1204 -111q-203 -71 -203 -174q0 -28 17.5 -47.5t45.5 -19.5q51 0 89 70.5t51 170.5z" />
    <glyph glyph-name="afii10076_afii10089" unicode="&#x43a;&#x447;" horiz-adv-x="2081" 
d="M1409 586q0 -84 61 -84q90 0 140 107q16 33 24 73l72 342h295l-148 -696q-8 -37 -8 -73q0 -69 84 -69q115 0 166 181h86q-132 -379 -412 -379q-92 0 -156 58q-63 58 -63 187q0 54 17 134l10 51q-105 -115 -240 -115t-192 96q-98 -335 -295 -394q-56 -17 -111 -17
q-125 0 -186 61.5t-61 165.5q0 51 12 105.5t12 89.5q0 98 -78 98q-36 0 -72 -28l-59 -48l-90 -432h-295l219 1024h295l-88 -406l128 132l98 107q97 104 154 145q57 40 130.5 40t108 -38.5t34.5 -98t-33 -95.5t-96 -36t-88 34q-24 34 -24 51v20q-58 -35 -104 -85l-76 -84
q-29 -32 -62 -65q46 8 86 8q111 0 153 -49.5t42 -140.5q0 -24 -4 -48l-9 -49q-12 -71 -12 -104q0 -76 96 -76t162 148q47 104 86 291l82 399h295l-80 -381q-6 -32 -6 -57z" />
    <glyph glyph-name="afii10109_afii10089" unicode="&#x45c;&#x447;" horiz-adv-x="2081" 
d="M1409 586q0 -84 61 -84q90 0 140 108q16 33 24 72l72 342h295l-148 -696q-8 -37 -8 -73q0 -69 84 -69q115 0 166 181h86q-132 -379 -412 -379q-92 0 -156 58q-63 58 -63 187q0 54 17 134l10 51q-105 -115 -240 -115t-192 96q-98 -339 -297 -395q-56 -16 -111 -16
q-123 0 -184 61.5t-61 165.5q0 51 12 105.5t12 89.5q0 98 -78 98q-36 0 -72 -28l-59 -48l-90 -432h-295l219 1024h295l-88 -406l128 132l98 107q97 104 154 145q57 40 130.5 40t108 -38.5t34.5 -98t-33 -95.5t-96 -36t-88 34q-24 34 -24 51v20q-58 -35 -104 -85l-76 -84
q-29 -32 -62 -65q46 8 86 8q111 0 153 -49.5t42 -140.5q0 -24 -4 -48l-9 -49q-12 -71 -12 -104q0 -76 96 -76t162 148q47 104 86 291l82 399h295l-80 -381q-6 -32 -6 -57zM475 1149l187 387h215l-248 -387h-154z" />
    <glyph glyph-name="afii10077_afii10089" unicode="&#x43b;&#x447;" horiz-adv-x="2173" 
d="M2007 186q110 0 166 181h86q-132 -379 -412 -379q-92 0 -156 58q-63 58 -63 187q0 54 17 134l10 51q-105 -115 -234 -115t-190 84q-61 -195 -168 -297t-219 -102q-113 0 -176 62q-62 63 -62 146q0 84 45 287l90 406q-103 0 -157 -85q-53 -85 -90 -258.5t-62 -268.5
t-60 -159q-73 -130 -225 -130q-110 0 -167 66q-58 67 -58 154t33.5 131t87.5 44t83.5 -29.5t29.5 -79t-25 -73t-57 -19.5q4 -21 17.5 -43t63.5 -22t80.5 33t50.5 88t34 127t41.5 191t66.5 218.5t87 155t107 75t136 19.5h289l-145 -666q-13 -59 -13 -86q0 -86 82 -86
q118 0 189 292q20 83 38 169l80 377h295l-80 -381q-6 -32 -6 -57q0 -84 61 -84q90 0 140 108q16 33 24 72l72 342h295l-148 -696q-8 -37 -8 -73q0 -69 84 -69z" />
    <glyph glyph-name="afii10078_afii10089" unicode="&#x43c;&#x447;" horiz-adv-x="2613" 
d="M1927 586q0 -84 62 -84q89 0 139 107q16 33 24 73l72 342h295l-147 -696q-9 -35 -9 -72q0 -70 84 -70q115 0 166 181h86q-76 -221 -208 -315q-90 -64 -193 -64t-167 58q-63 58 -63 187q0 54 17 134l10 51q-104 -115 -233.5 -115t-190.5 84q-61 -195 -168 -297t-220 -102
t-175 62q-61 63 -61 151t45 282l30 138l-303 -621h-287l-36 625l-27 -129q-25 -123 -48 -217.5t-57 -158.5q-71 -132 -217 -132q-108 0 -167 72q-58 71 -58 153t33.5 123t87.5 41t83.5 -29.5t29.5 -79t-25 -73t-57 -19.5q-2 -23 14 -50.5t68 -27.5t85 36t54.5 94.5
t36.5 133.5t33 154l108 508h287l43 -786l381 786h303q-119 -554 -138.5 -639.5t-19.5 -112.5q0 -86 82 -86q121 0 189 292q20 83 38 169l80 377h295l-80 -381q-6 -32 -6 -57z" />
    <glyph glyph-name="afii10079_afii10089" unicode="&#x43d;&#x447;" horiz-adv-x="2071" 
d="M1905 186q110 0 166 181h86q-76 -221 -209 -315q-90 -64 -192.5 -64t-166.5 58q-63 58 -63 187q0 58 16 134l10 51q-104 -115 -236.5 -115t-187.5 86q-58 -191 -160 -296t-222 -105q-121 0 -182 62q-62 63 -62 155q0 70 47 287h-227l-105 -492h-295l217 1024h295
l-88 -410h229l93 410h274l-108 -508l-36 -158q-14 -59 -14 -86q0 -86 82 -86q88 0 140 126q34 83 90 333l80 379h294l-79 -381q-7 -29 -7 -57q0 -84 62 -84q89 0 140 108q15 33 24 72l71 342h295l-147 -696q-8 -37 -8 -73q0 -69 84 -69z" />
    <glyph glyph-name="afii10080_afii10068" unicode="&#x43e;&#x433;" horiz-adv-x="1647" 
d="M1167 268q0 -108 141.5 -108t264.5 109q45 40 94 98h70q-114 -178 -234 -267q-149 -112 -329 -112q-318 0 -318 231q0 130 112 225q49 41 105 74t105 68q112 80 112 175t-94 95q-66 0 -186 -89l-107 -81q-55 -43 -112 -78h-3q-24 -280 -161 -448t-328 -168
q-236 0 -304 174q-24 61 -24 135t12.5 150.5t39.5 157.5q61 183 177 297q138 136 332 136q263 0 263 -327v-2q30 26 65 61l73 70q97 92 161 128q122 70 229 70q190 0 253 -125q23 -44 23 -117t-31.5 -132.5t-79.5 -103.5t-104.5 -78t-104.5 -66t-80 -68t-32 -84zM618 602
q-55 14 -55 91t64 106q-4 65 -20.5 92t-64.5 27q-94 0 -180 -207.5t-86 -368.5q0 -99 18 -125.5t38 -33.5t54 -7q70 0 139 123t93 303z" />
    <glyph glyph-name="afii10080_afii10100" unicode="&#x43e;&#x453;" horiz-adv-x="1647" 
d="M1167 268q0 -108 141.5 -108t264.5 109q45 40 94 98h70q-114 -178 -234 -267q-149 -112 -329 -112q-318 0 -318 231q0 130 112 225q49 41 105 74t105 68q112 80 112 175t-94 95q-66 0 -186 -89l-107 -81q-55 -43 -112 -78h-3q-24 -280 -161 -448t-328 -168
q-236 0 -304 174q-24 61 -24 135t12.5 150.5t39.5 157.5q61 183 177 297q138 136 332 136q263 0 263 -327v-2q30 26 65 61l73 70q97 92 161 128q122 70 229 70q190 0 253 -125q23 -44 23 -117t-31.5 -132.5t-79.5 -103.5t-104.5 -78t-104.5 -66t-80 -68t-32 -84zM618 602
q-55 14 -55 91t64 106q-4 65 -20.5 92t-64.5 27q-94 0 -180 -207.5t-86 -368.5q0 -99 18 -125.5t38 -33.5t54 -7q70 0 139 123t93 303zM1298 1149l187 387h215l-248 -387h-154z" />
    <glyph glyph-name="afii10096_afii10068" unicode="&#x44e;&#x433;" horiz-adv-x="2150" 
d="M1651 268q0 -108 141 -108t264 109q45 40 94 98h70q-114 -178 -234 -267q-149 -112 -329 -112q-318 0 -318 231q0 172 217 299q57 33 106 68q112 80 112 175t-95 95q-66 0 -186 -88l-107 -82q-55 -43 -112 -78h-2q-24 -280 -161 -448t-329 -168q-235 0 -303 174
q-24 61 -24 144t18 182h-154l-102 -492h-295l217 1024h295l-86 -410h160q98 290 322 391q82 37 186 37q262 0 262 -327v-2q30 26 64 61l74 70q211 198 395 198t249 -125q23 -44 23 -106q0 -162 -137 -269q-39 -31 -80 -56l-80 -50q-85 -53 -110 -92.5t-25 -75.5zM1102 602
q-55 13 -55 91t63 106q-4 65 -20.5 92t-63.5 27q-94 0 -180 -204t-86 -372q0 -98 17.5 -125t37.5 -34t53 -7t70.5 33t69.5 90q70 122 94 303z" />
    <glyph glyph-name="afii10096_afii10100" unicode="&#x44e;&#x453;" horiz-adv-x="2150" 
d="M1651 268q0 -108 141 -108t264 109q45 40 94 98h70q-114 -178 -234 -267q-149 -112 -329 -112q-318 0 -318 231q0 172 217 299q57 33 106 68q112 80 112 175t-95 95q-66 0 -186 -88l-107 -82q-55 -43 -112 -78h-2q-24 -280 -161 -448t-329 -168q-235 0 -303 174
q-24 61 -24 144t18 182h-154l-102 -492h-295l217 1024h295l-86 -410h160q98 290 322 391q82 37 186 37q262 0 262 -327v-2q30 26 64 61l74 70q211 198 395 198t249 -125q23 -44 23 -106q0 -162 -137 -269q-39 -31 -80 -56l-80 -50q-85 -53 -110 -92.5t-25 -75.5zM1102 602
q-55 13 -55 91t63 106q-4 65 -20.5 92t-63.5 27q-94 0 -180 -204t-86 -372q0 -98 17.5 -125t37.5 -34t53 -7t70.5 33t69.5 90q70 122 94 303zM1782 1149l186 387h215l-248 -387h-153z" />
    <glyph glyph-name="afii10080_afii10072" unicode="&#x43e;&#x436;" horiz-adv-x="2603" 
d="M2478 850q0 84 -47 84q-78 0 -152 -199q-69 -198 -69 -381q0 -112 42 -163.5t111.5 -51.5t135 55.5t104.5 172.5h86q-90 -255 -281 -347q-68 -32 -149 -32q-140 0 -219.5 88.5t-79.5 236.5q0 102 16 179h-116l-103 -492h-274l104 492h-117q-41 -207 -143 -343
q-121 -161 -293 -161q-200 0 -240 137q-12 39 -12 102.5t36 106.5t81.5 43t77.5 -29q-27 -74 -27 -135t22.5 -89t58.5 -28t77 57t71.5 141.5t49 187t18.5 178.5q0 132 -27 181.5t-87.5 49.5t-140 -71.5t-201.5 -211.5h-3q-24 -280 -161 -448t-328 -168q-236 0 -304 174
q-24 61 -24 135t12.5 150.5t39.5 157.5q61 183 177 297q138 136 332 136q252 0 263 -309q184 267 330 299q46 10 99 10q114 0 193.5 -88.5t79.5 -236.5q0 -48 -6 -103h123l86 410h274l-86 -410h115q90 296 269 392q67 36 140 36q125 0 173.5 -54t48.5 -132t-31 -114.5
t-72 -36.5t-73 24q20 70 20 121zM618 602q-55 14 -55 91t64 106q-4 65 -20.5 92t-64.5 27q-94 0 -180 -207.5t-86 -368.5q0 -99 18 -125.5t38 -33.5t54 -7q70 0 139 123t93 303z" />
    <glyph glyph-name="afii10096_afii10072" unicode="&#x44e;&#x436;" horiz-adv-x="3086" 
d="M2961 850q0 84 -47 84q-78 0 -152 -199q-69 -198 -69 -381q0 -112 41.5 -163.5t110.5 -51.5q116 0 195 127q26 42 46 101h86q-86 -254 -282 -347q-68 -32 -148 -32q-140 0 -219.5 88.5t-79.5 236.5q0 105 17 179h-117l-102 -492h-275l105 492h-117q-70 -337 -270 -460
q-72 -44 -156 -44q-149 0 -210 68q-52 55 -52 145.5t35.5 133t81.5 42.5t77 -29q-26 -75 -26 -135.5t22.5 -88.5t58 -28t76.5 56q83 116 121 331q19 101 19 177q0 130 -27.5 180.5t-88 50.5t-139.5 -72q-40 -35 -90 -88l-112 -123h-2q-24 -280 -161 -448t-329 -168
q-235 0 -303 174q-24 61 -24 144t18 182h-154l-102 -492h-295l217 1024h295l-86 -410h160q98 290 322 391q82 37 186 37q251 0 262 -309q134 191 225 250t205.5 59t193 -88t78.5 -237q0 -48 -6 -103h123l86 410h275l-86 -410h114q90 295 270 392q66 36 139 36
q126 0 174 -53.5t48 -132t-30.5 -115t-72 -36.5t-73.5 24q20 70 20 121zM1102 602q-55 13 -55 91t63 106q-4 65 -20.5 92t-63.5 27q-94 0 -180 -204t-86 -372q0 -98 17.5 -125t37.5 -34t53 -7t70.5 33t69.5 90q70 122 94 303z" />
    <glyph glyph-name="afii10080_afii10073" unicode="&#x43e;&#x437;" horiz-adv-x="1714" 
d="M1257 680q0 176 -120 176q-90 0 -253 -161q-44 -44 -93 -87h-3q-24 -280 -161 -448t-328 -168q-236 0 -304 174q-24 61 -24 135t12.5 150.5t39.5 157.5q61 183 177 297q138 136 332 136q255 0 263 -317l103 116q177 201 366 201q132 0 217.5 -85.5t85.5 -252.5t-129 -308
q-65 -72 -117 -100t-72 -32q49 -17 99 -70t69 -135q118 36 167 84q84 82 130 224h86q-79 -267 -274 -353q-53 -24 -101 -37q-4 -229 -109 -359t-278 -130q-95 0 -162 49t-67 150q0 194 321 301q-6 217 -147 217h-63l26 123h60q109 0 180 102t71 250zM618 602q-55 14 -55 91
t64 106q-4 65 -20.5 92t-64.5 27q-94 0 -180 -207.5t-86 -368.5q0 -99 18 -125.5t38 -33.5t54 -7q70 0 139 123t93 303zM1124 -111q-202 -71 -202 -174q0 -28 17 -47.5t46 -19.5q52 0 89.5 71t49.5 170z" />
    <glyph glyph-name="afii10096_afii10073" unicode="&#x44e;&#x437;" horiz-adv-x="2198" 
d="M1741 680q0 176 -121 176q-90 0 -252 -161q-45 -44 -94 -87h-2q-24 -280 -161 -448t-329 -168q-235 0 -303 174q-24 61 -24 144t18 182h-154l-102 -492h-295l217 1024h295l-86 -410h160q98 290 322 391q82 37 186 37q256 0 262 -317l104 117q173 200 365 200
q132 0 217.5 -85.5t85.5 -252.5t-128 -308q-67 -73 -118 -100.5t-71 -31.5q49 -17 98 -70t70 -135q116 36 182.5 100.5t114.5 207.5h86q-55 -186 -172 -287q-80 -69 -203 -103q-4 -228 -109.5 -358.5t-277.5 -130.5q-96 0 -163 49t-67 150q0 194 322 301q-6 217 -148 217
h-63l27 123h59q109 0 180.5 102.5t71.5 249.5zM1102 602q-55 13 -55 91t63 106q-4 65 -20.5 92t-63.5 27q-94 0 -180 -204t-86 -372q0 -98 17.5 -125t37.5 -34t53 -7t70.5 33t69.5 90q70 122 94 303zM1608 -111q-203 -71 -203 -174q0 -28 17.5 -47.5t45.5 -19.5
q51 0 89 70.5t51 170.5z" />
    <glyph glyph-name="afii10080_afii10077" unicode="&#x43e;&#x43b;" horiz-adv-x="2032" 
d="M2118 367q-129 -379 -381 -379q-117 0 -179.5 62.5t-62.5 146t45 286.5l90 406q-103 0 -156.5 -86t-90.5 -258t-61 -266.5t-59 -158.5q-71 -132 -227 -132q-95 0 -147 47q-51 47 -68 112q-170 -103 -391 -143q-69 -12 -136 -12q-149 0 -236 77t-87 230.5t39 272.5
q157 470 522 470q263 0 263 -327q0 -353 -177 -568q114 37 193 86q4 69 37 109.5t85.5 40.5t81.5 -29.5t29 -79t-24.5 -73t-56.5 -19.5q1 -21 16.5 -43t64 -22t80.5 33q56 59 86 215l31 151q88 428 267 488q57 20 126 20h301l-108 -508l-36 -158q-13 -59 -13 -86
q0 -86 82 -86q62 0 99 47.5t73 133.5h86zM550 347q79 178 79 405q0 86 -16.5 126t-67.5 40q-97 0 -183 -207.5t-86 -368.5q0 -99 18 -125.5t38 -33.5t57 -7t81.5 46t79.5 125z" />
    <glyph glyph-name="afii10096_afii10077" unicode="&#x44e;&#x43b;" horiz-adv-x="2515" 
d="M1033 347q79 178 79 405q0 86 -16.5 126t-67.5 40q-96 0 -182 -204t-86 -372q0 -98 17.5 -125t37.5 -34t57 -7t81.5 46t79.5 125zM2601 367q-129 -379 -381 -379q-117 0 -179.5 62.5t-62.5 146t45 286.5l91 406q-104 0 -157.5 -86t-90.5 -258t-60.5 -266.5t-59 -159
t-88.5 -98t-143.5 -33.5t-141.5 46.5t-68 112.5q-175 -103 -391 -143q-70 -12 -137 -12q-148 0 -235 77t-87 246q0 78 18 177h-154l-102 -492h-295l217 1024h295l-86 -410h160q98 290 322 391q82 37 186 37q262 0 262 -327q0 -357 -176 -568q114 38 192 86q4 69 37 109.5
t85.5 40.5t82 -29.5t29.5 -79t-24.5 -73t-57.5 -19.5q1 -21 17 -43t64 -22t79 33q55 57 88 215l30 151q62 301 160 414q83 94 234 94h301q-119 -554 -138.5 -639.5t-19.5 -112.5q0 -86 82 -86q62 0 99 47.5t73 133.5h86z" />
    <glyph glyph-name="afii10080_afii10106" unicode="&#x43e;&#x459;" horiz-adv-x="2415" 
d="M1864 692q102 41 184 41q143 0 214 -72t71 -191.5t-70 -239.5t-216 -192q-102 -50 -243 -50t-222 69.5t-81 192.5q0 57 15 117l114 522q-103 0 -156.5 -86t-90.5 -258t-61 -266.5t-59 -158.5q-71 -132 -227 -132q-96 0 -148.5 46t-68.5 111q-171 -104 -389 -141
q-69 -12 -136 -12q-149 0 -236 77t-87 230.5t39 272.5q157 470 522 470q263 0 263 -327q0 -353 -177 -568q114 37 193 86q4 66 37 108t85.5 42t81.5 -29.5t29 -79t-24.5 -73t-56.5 -19.5q1 -21 16.5 -43t64 -22t80.5 33q56 59 86 215l31 151q88 428 267 488q57 20 126 20
h301zM550 347q79 178 79 405q0 86 -16.5 126t-67.5 40q-97 0 -183 -207.5t-86 -368.5q0 -99 18 -125.5t38 -33.5t57 -7t81.5 46t79.5 125zM1782 303q-6 -18 -6 -57q0 -84 88 -84q76 0 138 94.5t62 173.5q0 152 -110 152q-66 0 -121 -37z" />
    <glyph glyph-name="afii10096_afii10106" unicode="&#x44e;&#x459;" horiz-adv-x="2898" 
d="M2347 692q98 41 213.5 41t185.5 -71t70 -192q0 -176 -138 -329q-48 -54 -149 -103.5t-242 -49.5t-222 69q-80 71 -80 193q0 55 14 117l115 522q-104 0 -157.5 -86t-90.5 -258t-60.5 -266.5t-59 -159t-88.5 -98t-144 -33.5t-142.5 45.5t-68.5 111.5q-175 -104 -389 -141
q-69 -12 -136 -12q-149 0 -236 77t-87 246q0 78 18 177h-154l-102 -492h-295l217 1024h295l-86 -410h160q98 290 322 391q82 37 186 37q262 0 262 -327q0 -357 -176 -568q114 38 192 86q4 66 37 108t85.5 42t82 -29.5t29.5 -79t-24.5 -73t-57.5 -19.5q1 -21 17 -43t64 -22
t79 33q55 57 88 215l30 151q62 301 160 414q83 94 234 94h301zM1033 347q79 178 79 405q0 86 -16.5 126t-67.5 40q-96 0 -182 -204t-86 -372q0 -98 17.5 -125t37.5 -34t57 -7t81.5 46t79.5 125zM2265 303q-6 -18 -6 -57q0 -84 88 -84q75 0 138 94t63 174q0 152 -111 152
q-65 0 -121 -37z" />
    <glyph glyph-name="afii10080_afii10078" unicode="&#x43e;&#x43c;" horiz-adv-x="2472" 
d="M2558 367q-129 -379 -381 -379q-117 0 -179.5 62.5t-62.5 150.5t43 276l33 146l-303 -623h-287l-37 625l-26 -129q-25 -123 -48 -217.5t-58 -158.5q-70 -132 -216 -132q-89 0 -141 46t-74 113q-170 -103 -391 -143q-69 -12 -136 -12q-149 0 -236 77t-87 230.5t39 272.5
q157 470 522 470q263 0 263 -327q0 -353 -177 -568q114 37 193 86q2 69 34.5 106.5t86.5 37.5t83 -29.5t29 -79t-24.5 -73t-56.5 -19.5q-2 -23 14 -50.5t68 -27.5t86 36q62 64 92 228l30 154l109 508h287l43 -786l381 786h303q-119 -554 -138.5 -639.5t-19.5 -112.5
q0 -86 82 -86q62 0 99 47.5t73 133.5h86zM550 347q79 178 79 405q0 86 -16.5 126t-67.5 40q-97 0 -183 -207.5t-86 -368.5q0 -99 18 -125.5t38 -33.5t57 -7t81.5 46t79.5 125z" />
    <glyph glyph-name="afii10096_afii10078" unicode="&#x44e;&#x43c;" horiz-adv-x="2955" 
d="M3041 367q-129 -379 -381 -379q-118 0 -179.5 62.5t-61.5 150.5t43 276l32 146l-303 -623h-286l-37 625l-27 -129q-55 -282 -97.5 -361.5t-93.5 -113t-135.5 -33.5t-137 46.5t-72.5 112.5q-175 -103 -391 -143q-70 -12 -137 -12q-148 0 -235 77t-87 246q0 78 18 177h-154
l-102 -492h-295l217 1024h295l-86 -410h160q98 290 322 391q82 37 186 37q262 0 262 -327q0 -357 -176 -568q114 38 192 86q2 69 34.5 106.5t86.5 37.5t83.5 -29.5t29.5 -79t-24.5 -73t-57.5 -19.5q-2 -23 14 -50.5t68.5 -27.5t86.5 36t55.5 94.5t35.5 133.5t31 154l108 508
h287l43 -786l381 786h303q-119 -554 -138.5 -639.5t-19.5 -112.5q0 -86 82 -86q62 0 99 47.5t73 133.5h86zM1033 347q79 178 79 405q0 86 -16.5 126t-67.5 40q-96 0 -182 -204t-86 -372q0 -98 17.5 -125t37.5 -34t57 -7t81.5 46t79.5 125z" />
    <glyph glyph-name="afii10096_afii10087" unicode="&#x44e;&#x445;" horiz-adv-x="2228" 
d="M1942 1042q0 97 124 97q59 0 94 -53.5t35 -142t-71 -194.5t-228 -247l25 -135l13 -61q24 -120 108 -120q59 0 110 51t74 130h86q-132 -379 -422 -379q-109 0 -164 85.5t-94 293.5l-4 14q-87 -62 -120 -100q-64 -72 -64 -129q10 2 26 2q54 0 69 -33t15 -68
q0 -112 -114 -112q-135 0 -135 145q0 96 92 213.5t211 196.5l-58 317q-125 -149 -276 -197q-24 -283 -161.5 -453.5t-330.5 -170.5q-235 0 -303 174q-24 61 -24 144t18 182h-154l-102 -492h-295l217 1024h295l-86 -410h160q98 290 322 391q82 37 186 37q257 0 262 -321
q115 11 252 205l-19 98h289l74 -406q201 182 201 289q0 15 -2 25q-20 -4 -35 -4q-96 0 -96 114zM1102 600q-55 13 -55 96t63 105q-4 65 -21.5 91t-64.5 26q-92 0 -178 -204t-86 -372q0 -98 17.5 -125t37.5 -34t53 -7t70.5 32.5t69.5 89.5q70 122 94 302z" />
    <glyph glyph-name="afii10080_afii10095" unicode="&#x43e;&#x44d;" horiz-adv-x="1776" 
d="M1386 614q5 35 5 78q0 105 -40.5 141.5t-123 36.5t-215.5 -100l-149 -114q-37 -28 -72 -48h-3q-24 -280 -161 -448t-328 -168q-236 0 -304 174q-24 61 -24 135t12.5 150.5t39.5 157.5q61 183 177 297q138 136 332 136q263 0 263 -327v-2q36 25 77 67q256 262 484 262
q153 0 245.5 -80.5t92.5 -254.5q0 -222 -136 -445q-167 -274 -473 -274q-124 0 -193 58t-69 171.5t73 148.5q22 11 56 11t66 -29q-27 -74 -27 -139q0 -113 113 -113q84 0 157 117t107 279h-254l27 122h245zM618 602q-55 14 -55 91t64 106q-4 65 -20.5 92t-64.5 27
q-94 0 -180 -207.5t-86 -368.5q0 -99 18 -125.5t38 -33.5t54 -7q70 0 139 123t93 303z" />
    <glyph glyph-name="afii10096_afii10095" unicode="&#x44e;&#x44d;" horiz-adv-x="2259" 
d="M1870 614q4 42 4 78q0 105 -40.5 141.5t-107.5 36.5t-120.5 -29.5t-109.5 -70.5l-113 -86q-57 -45 -109 -76h-2q-24 -280 -161 -448t-329 -168q-235 0 -303 174q-24 61 -24 144t18 182h-154l-102 -492h-295l217 1024h295l-86 -410h160q98 290 322 391q82 37 186 37
q262 0 262 -327v-2q36 24 77 66.5t73 70.5l66 55q176 137 337.5 137t253.5 -80.5t92 -254.5q0 -133 -44 -251q-175 -468 -548 -468q-141 0 -209.5 58t-68.5 171t73 149q21 11 55.5 11t65.5 -29q-26 -75 -26 -139q0 -113 112 -113q84 0 157 117t107 279h-254l27 122h246z
M1102 602q-55 13 -55 91t63 106q-4 65 -20.5 92t-63.5 27q-94 0 -180 -204t-86 -372q0 -98 17.5 -125t37.5 -34t53 -7t70.5 33t69.5 90q70 122 94 303z" />
    <glyph glyph-name="afii10081_afii10089" unicode="&#x43f;&#x447;" horiz-adv-x="2068" 
d="M1382 586q0 -84 62 -84q89 0 140 108q15 33 24 72l71 342h295l-147 -696q-8 -37 -8 -73q0 -69 84 -69q114 0 165 181h86q-76 -221 -208 -315q-90 -64 -192.5 -64t-166.5 58q-63 58 -63 187q0 58 16 134l10 51q-104 -115 -234.5 -115t-189.5 86q-60 -197 -154 -299
t-226 -102t-190 66.5t-58 157.5t46 275t46 254q0 105 -74 105t-132 -117q-17 -33 -28 -72l-139 -657h-295l217 1024h295l-22 -106q100 114 239 114q98 0 163 -54t65 -160t-34 -240l-49 -198q-16 -65 -16 -106t17.5 -64.5t66.5 -23.5t84 34q60 60 103 242l43 187l80 375h294
l-79 -381q-7 -29 -7 -57z" />
    <glyph glyph-name="afii10083_afii10073" unicode="&#x441;&#x437;" horiz-adv-x="1794" 
d="M506 1042q246 0 246 -186q0 -78 -32 -114.5t-72 -36.5t-77 24q25 66 25 121q0 84 -58.5 84t-123.5 -106q-93 -150 -128 -373q-10 -67 -10 -147.5t37 -114t117 -33.5q147 0 250 118q66 76 147 271l57 128q96 217 198 291t245 74t231.5 -85.5t88.5 -252.5t-129 -308
q-65 -72 -117 -100t-72 -32q49 -17 99 -70t69 -135q116 36 182.5 100.5t114.5 207.5h86q-79 -268 -274 -354q-53 -23 -101 -36q-4 -229 -109 -359t-278 -130q-95 0 -162 49t-67 150q0 194 321 301q-6 217 -147 217h-64l27 123h59q110 0 181 102t71 250q0 176 -125 176
q-136 0 -233 -172q-35 -62 -64 -132l-51 -118q-203 -446 -571 -446q-146 0 -233 75.5t-87 249.5q0 235 119 454q90 165 247 237q81 38 167 38zM1204 -111q-203 -71 -203 -174q0 -28 17.5 -47.5t45.5 -19.5q51 0 89 70.5t51 170.5z" />
    <glyph glyph-name="afii10085_afii10105" unicode="&#x443;&#x458;" horiz-adv-x="1485" 
d="M281 276q0 -90 61 -90q108 0 164 181l139 657h295l-217 -1016l199 21l213 995h295l-201 -940q94 32 159 95t97 188h86q-66 -246 -242 -331q-55 -26 -119 -42l-32 -158q-72 -348 -371 -348q-163 0 -217 121q-101 -121 -271 -121q-95 0 -162 49t-67 150q0 211 330 278
l31 139q-103 -116 -248 -116q-92 0 -156 58q-63 58 -63 187q0 58 16 134l139 657h295l-147 -696q-6 -26 -6 -52zM1483 1298q0 -68 -49 -114.5t-116 -46.5t-114 47t-47 114t46.5 115.5t114.5 48.5t116.5 -48t48.5 -116zM905 -53l-198 -21l-19 -90q-11 -54 -43 -131
q34 -35 75 -35q72 0 105.5 35t55.5 125zM401 -123q-198 -49 -198 -162q0 -24 17.5 -45.5t51 -21.5t66.5 44.5t53 137.5z" />
    <glyph glyph-name="afii10101_afii10073" unicode="&#x454;&#x437;" horiz-adv-x="1794" 
d="M506 1042q246 0 246 -186q0 -78 -32 -114.5t-72 -36.5t-77 24q25 66 25 121q0 84 -57 84q-91 0 -173 -199q-24 -58 -42 -121h243l-26 -122h-248q-17 -88 -17 -176.5t37 -122t117 -33.5q147 0 250 118q66 76 147 271l57 128q96 217 198 291t245 74t231.5 -85.5
t88.5 -252.5t-129 -308q-65 -72 -117 -100t-72 -32q49 -17 99 -70t69 -135q116 36 182.5 100.5t114.5 207.5h86q-79 -268 -274 -354q-53 -23 -101 -36q-4 -229 -109 -359t-278 -130q-95 0 -162 49t-67 150q0 194 321 301q-6 217 -147 217h-64l27 123h59q110 0 181 102
t71 250q0 176 -125 176q-136 0 -233 -172q-35 -62 -64 -132l-51 -118q-203 -446 -571 -446q-146 0 -233 75.5t-87 249.5q0 235 119 454q90 165 247 237q81 38 167 38zM1204 -111q-203 -71 -203 -174q0 -28 17.5 -47.5t45.5 -19.5q51 0 89 70.5t51 170.5z" />
    <glyph glyph-name="afii10101_afii10087" unicode="&#x454;&#x445;" horiz-adv-x="1546" 
d="M1262 1042q0 97 122 97q60 0 96 -53t36 -114q0 -109 -67.5 -220.5t-225.5 -284.5l18 -100l13 -61q24 -120 108 -120q59 0 110 51t74 130h86q-99 -283 -288 -355q-62 -24 -127 -24q-105 0 -159 66.5t-87 215.5q-130 -128 -305 -205t-342 -77q-256 0 -336 178
q-29 65 -29 139t12 149t39 154q62 186 172 297q137 137 323.5 137t221.5 -120q10 -34 10 -91.5t-33.5 -91.5t-73.5 -34t-73 24q25 63 25 121q0 84 -57 84t-116.5 -92.5t-101.5 -227.5h260l-26 -122h-265q-14 -65 -14 -134q0 -202 207 -202q184 0 367 132q61 44 112 101
l-117 635h289l80 -442q195 208 195 325q0 15 -2 25q-20 -4 -37 -4q-94 0 -94 114z" />
    <glyph glyph-name="afii10083_afii10089" unicode="&#x441;&#x447;" horiz-adv-x="1821" 
d="M506 1042q246 0 246 -186q0 -78 -32 -114.5t-72 -36.5t-77 24q25 66 25 121q0 84 -58.5 84t-123.5 -106q-93 -150 -128 -373q-10 -67 -10 -147q0 -148 140 -148q121 0 256 154t180 364l74 346h295l-80 -381q-6 -32 -6 -57q0 -84 60.5 -84t104 49.5t60.5 130.5l72 342h294
l-147 -696q-8 -37 -8 -73q0 -69 84 -69q110 0 166 181h86q-76 -221 -209 -315q-90 -64 -192.5 -64t-166.5 58q-63 58 -63 187q0 58 16 134l11 51q-105 -115 -249.5 -115t-195.5 125q-154 -295 -390 -402q-84 -38 -175 -38q-146 0 -233 75.5t-87 249.5q0 235 119 454
q90 165 247 237q81 38 167 38z" />
    <glyph glyph-name="afii10101_afii10089" unicode="&#x454;&#x447;" horiz-adv-x="1821" 
d="M506 1042q246 0 246 -186q0 -78 -32 -114.5t-72 -36.5t-77 24q25 66 25 121q0 84 -57 84q-91 0 -173 -199q-24 -58 -42 -121h243l-26 -122h-248q-17 -88 -17 -176.5t37 -122t101 -33.5q128 0 259 155q139 159 183 375l70 334h295l-80 -381q-6 -32 -6 -57q0 -84 60.5 -84
t104 49.5t60.5 130.5l72 342h294l-147 -696q-8 -37 -8 -73q0 -69 84 -69q110 0 166 181h86q-76 -221 -209 -315q-90 -64 -192.5 -64t-166.5 58q-63 58 -63 187q0 58 16 134l11 51q-105 -115 -249.5 -115t-195.5 125q-154 -295 -390 -402q-84 -38 -175 -38q-146 0 -233 75.5
t-87 249.5q0 235 119 454q90 165 247 237q81 38 167 38z" />
    <glyph glyph-name="afii10084_afii10089" unicode="&#x442;&#x447;" horiz-adv-x="2574" 
d="M1888 586q0 -84 62 -84q89 0 140 108q15 33 24 72l71 342h295l-147 -696q-9 -35 -9 -72q0 -70 84 -70q115 0 166 181h86q-76 -221 -208 -315q-90 -64 -192.5 -64t-166.5 58q-63 58 -63 187q0 58 16 134l10 51q-104 -115 -234.5 -115t-189.5 86q-60 -197 -154.5 -299
t-226.5 -102t-189.5 65.5t-57.5 157.5t46 276t46 254q0 105 -74 105t-132 -117q-17 -33 -28 -72l-139 -657h-295l150 707q6 24 6 51q0 90 -60.5 90t-103 -56.5t-64.5 -134.5l-139 -657h-295l217 1024h295l-22 -106q102 116 250 116q181 0 210 -176q113 174 285 174
q97 0 162 -54t65 -158t-34 -240l-48 -200q-16 -65 -16 -106t17.5 -64.5t67 -23.5t84.5 36q65 66 109 260l115 542h295l-80 -381q-6 -32 -6 -57z" />
    <glyph glyph-name="afii10083_afii10092" unicode="&#x441;&#x44a;" horiz-adv-x="1722" 
d="M506 1042q246 0 246 -186q0 -78 -32 -114.5t-72 -36.5t-77 24q25 66 25 121q0 84 -58.5 84t-123.5 -106q-93 -150 -128 -373q-10 -67 -10 -147.5t37 -114t115 -33.5t146 36q122 64 262 236l131 168q54 85 120 163l127 150h-100q-113 0 -113 -29q0 -8 3.5 -9t11.5 -6.5
t8 -48t-34.5 -68t-63.5 -25.5q-51 0 -79 24t-28 65q0 81 65 144.5t173 63.5h368l-61 -98q-80 -127 -127 -256q101 63 206.5 63t176 -64t70.5 -184q0 -227 -158.5 -362t-378 -135t-287.5 146q-24 50 -24 118v27q0 14 4 28q-267 -319 -545 -319q-328 0 -328 325q0 235 119 454
q90 165 247 237q81 38 167 38zM1321 582q-66 0 -121 -35q-55 -149 -61 -202t-6 -79q0 -104 81 -104q86 0 146.5 102.5t60.5 210t-100 107.5z" />
    <glyph glyph-name="afii10110_afii10105" unicode="&#x45e;&#x458;" horiz-adv-x="1485" 
d="M281 276q0 -90 61 -90q108 0 164 181l139 657h295l-217 -1016l49 4q23 2 45 6l105 11l213 995h295l-201 -940q94 32 159 95t97 188h86q-66 -246 -242 -331q-55 -26 -119 -42l-32 -158q-72 -348 -371 -348q-163 0 -217 121q-101 -121 -271 -121q-95 0 -162 49t-67 150
q0 211 330 278l31 139q-103 -116 -248 -116q-92 0 -156 58q-63 58 -63 187q0 58 16 134l139 657h295l-147 -696q-6 -26 -6 -52zM402 1450q128 0 128 -117q0 -60 -49 -92q32 -8 82 -8q223 0 316 240h86q-96 -281 -297 -333q-64 -16 -163 -16t-169 47.5t-70 121t37 115.5
t99 42zM1483 1298q0 -68 -49 -114.5t-116 -46.5t-114 47t-47 114t46.5 115.5t114.5 48.5t116.5 -48t48.5 -116zM905 -53l-45 -4q-24 -2 -47 -6l-106 -11l-19 -90q-11 -54 -43 -131q34 -35 75 -35q72 0 105.5 35t55.5 125zM401 -123q-198 -49 -198 -162q0 -24 17.5 -45.5
t51 -21.5t66.5 44.5t53 137.5z" />
    <glyph glyph-name="afii10085_afii10089" unicode="&#x443;&#x447;" horiz-adv-x="2025" 
d="M1339 586q0 -84 62 -84q121 0 162 176l73 346h295l-147 -696q-8 -37 -8 -73q0 -69 84 -69q114 0 165 181h86q-76 -221 -208 -315q-90 -64 -192.5 -64t-166.5 58q-63 58 -63 187q0 58 16 134l10 51q-104 -115 -233.5 -115t-190.5 84q-75 -324 -364 -403l-31 -148
q-39 -197 -156 -284q-86 -64 -197 -64t-178 49t-67 157q0 187 334 298l25 110q-106 -114 -246 -114q-92 0 -156 58q-63 58 -63 187q0 58 16 134l139 657h295l-147 -696q-6 -26 -6 -52q0 -90 58.5 -90t99.5 48q40 49 63 120l143 670h295l-203 -950q159 56 229 214
q25 58 42 138l122 598h295l-79 -381q-7 -29 -7 -57zM403 -111q-200 -72 -200 -174q0 -41 39 -61q13 -6 38 -6t58 44.5t53 137.5z" />
    <glyph glyph-name="afii10110_afii10089" unicode="&#x45e;&#x447;" horiz-adv-x="2025" 
d="M1339 586q0 -84 61 -84t104.5 49.5t60.5 130.5l71 342h295l-147 -696q-8 -37 -8 -73q0 -69 84 -69q114 0 165 181h86q-76 -221 -208 -315q-90 -64 -192.5 -64t-166.5 58q-63 58 -63 187q0 58 16 134l10 51q-104 -115 -233.5 -115t-190.5 84q-75 -324 -364 -403l-31 -148
q-39 -197 -156 -284q-86 -64 -197 -64t-178 49t-67 157q0 187 334 298l25 110q-106 -114 -246 -114q-92 0 -156 58q-63 58 -63 187q0 58 16 134l139 657h295l-147 -696q-6 -26 -6 -52q0 -90 58.5 -90t99.5 48q40 49 63 120l143 670h295l-203 -950q159 56 229 214
q25 58 42 138l122 598h295l-79 -381q-7 -29 -7 -57zM402 1450q128 0 128 -117q0 -60 -49 -92q32 -8 82 -8q223 0 316 240h86q-96 -281 -297 -333q-64 -16 -163 -16t-169 47.5t-70 121t37 115.5t99 42zM403 -111q-200 -72 -200 -174q0 -41 39 -61q13 -6 38 -6t58 44.5
t53 137.5z" />
    <glyph glyph-name="afii10087_afii10089" unicode="&#x445;&#x447;" horiz-adv-x="2103" 
d="M1417 586q0 -84 60.5 -84t104.5 51q43 51 60 129l72 342h295l-147 -696q-9 -35 -9 -72q0 -70 84 -70q115 0 166 181h86q-76 -221 -208 -315q-90 -64 -192.5 -64t-166.5 58q-63 58 -63 187q0 58 16 134l10 51q-104 -115 -236.5 -115t-187.5 86q-123 -401 -403 -401
q-107 0 -173.5 84t-97.5 272l-282 -344h-148l414 467l-33 229q-17 104 -33.5 137t-45.5 33q-65 0 -143.5 -130.5t-129.5 -368.5h-86q49 214 91 306t71 141q64 103 143 161.5t160 58.5t121.5 -23.5t73 -71t45.5 -148.5l18 -156q171 191 178 295q-17 -4 -35 -4q-96 0 -96 114
q0 54 42 77.5t84 23.5q66 0 97 -56t31 -117.5t-18 -107.5q-33 -88 -142 -212l-125 -140l19 -143q12 -98 35 -129.5t44 -40.5t61 -9q83 0 142 128q40 90 88 325l80 385h295l-80 -381q-6 -32 -6 -57z" />
    <glyph glyph-name="afii10087_afii10092" unicode="&#x445;&#x44a;" horiz-adv-x="2060" 
d="M1403 913q-113 0 -113 -29q0 -8 3.5 -9t11.5 -6.5t8 -48t-34.5 -68t-64.5 -25.5q-51 0 -78.5 24t-27.5 65q0 82 65 145t173 63h368q-81 -130 -96 -156l-34 -64q-38 -73 -58 -134q101 63 213 63q160 0 219 -139q20 -49 20 -139t-43.5 -180.5t-117.5 -154.5
q-154 -132 -377 -132q-128 0 -214.5 58t-95.5 183q-174 -241 -382 -241q-155 0 -222 194q-24 68 -39 162l-282 -344h-148l414 467l-33 229q-17 104 -33.5 137t-45.5 33q-65 0 -143.5 -130.5t-129.5 -368.5h-86q49 214 91 306t71 141q64 103 143 161.5t160 58.5t121.5 -23.5
t73 -71t45.5 -148.5l18 -156q171 191 178 295q-17 -4 -35 -4q-96 0 -96 114q0 54 42 77.5t84 23.5q66 0 97 -56t31 -117.5t-18 -107.5q-33 -88 -142 -212l-125 -140l19 -143q12 -98 35 -129.5t44 -40.5t49.5 -9t60 17t62.5 44q56 48 109.5 126t85 137.5t66.5 111.5
q70 101 154 200l79 91h-100zM1610 582q-68 0 -121 -35q-58 -146 -63 -200.5t-5 -80.5q0 -104 83.5 -104t144.5 102.5t61 210t-100 107.5z" />
    <glyph glyph-name="afii10089_afii10089" unicode="&#x447;&#x447;" horiz-adv-x="2068" 
d="M1126 389q-126 -401 -424 -401q-88 0 -151 60q-62 62 -62 179q0 69 17 140l10 51q-104 -115 -246 -115q-92 0 -156 58q-63 58 -63 188q0 53 17 133l71 342h295l-80 -381q-6 -32 -6 -57q0 -84 62 -84q112 0 163 180l72 342h295l-147 -696q-9 -35 -9 -72q0 -70 84 -70
q131 0 201 327q12 56 20.5 103.5t14.5 73.5l70 334h294l-79 -381q-7 -29 -7 -57q0 -84 61 -84t104.5 49.5t60.5 130.5l71 342h295l-147 -696q-8 -37 -8 -73q0 -69 84 -69q114 0 165 181h86q-76 -221 -208 -315q-90 -64 -192.5 -64t-166.5 58q-63 58 -63 187q0 58 16 134
l10 51q-104 -115 -236.5 -115t-187.5 86z" />
    <glyph glyph-name="afii10090_afii10089" unicode="&#x448;&#x447;" horiz-adv-x="2574" 
d="M1888 586q0 -84 62 -84q89 0 140 108q15 33 24 72l71 342h295l-147 -696q-9 -35 -9 -72q0 -70 84 -70q115 0 166 181h86q-76 -221 -208 -315q-90 -64 -192.5 -64t-166.5 58q-63 58 -63 187q0 58 16 134l10 51q-104 -115 -236.5 -115t-187.5 86q-88 -282 -271 -369
q-66 -32 -147 -32q-182 0 -202 194q-120 -194 -303 -194t-203 194q-120 -194 -303 -194q-92 0 -156 58q-63 58 -63 187q0 58 16 134l139 657h295l-147 -696q-6 -32 -6 -58q0 -84 61 -84q108 0 164 181l139 657h295l-147 -696q-7 -29 -7 -58q0 -84 62 -84q108 0 164 181
l139 657h295l-148 -696q-8 -37 -8 -73q0 -69 84 -69q131 0 201 327q12 56 20.5 103.5t14.5 73.5l69 334h295l-80 -381q-6 -32 -6 -57z" />
    <glyph glyph-name="afii10093_afii10089" unicode="&#x44b;&#x447;" horiz-adv-x="2370" 
d="M2204 186q110 0 166 181h86q-76 -221 -208 -315q-91 -64 -193.5 -64t-166.5 58q-63 58 -63 187q0 58 16 134l10 51q-104 -115 -234 -115t-187 82q-79 -275 -248 -363q-62 -32 -138 -34q-118 8 -178 70q-59 62 -59 153q0 23 3 41l5 38q3 20 9 49l96 449l-230 -133
q49 -76 49 -219q0 -142 -109 -282q-128 -166 -349 -166q-141 0 -217 69t-76 193q0 55 14 117l135 657h283l-152 -721q-6 -18 -6 -57q0 -84 89 -84t155 100q67 101 67 240q0 51 -30 78q-24 -19 -56.5 -19t-63.5 20q-30 21 -30 68.5t37 70.5t80.5 23t81.5 -12q76 34 140 69
l250 147q63 38 136 77h127l-108 -508l-37 -158q-13 -59 -13 -86q0 -86 82 -86q131 0 201 327q12 56 20.5 103.5t14.5 73.5l70 334h294l-79 -381q-7 -29 -7 -57q0 -84 62 -84q89 0 139 108q16 33 25 72l71 342h295l-147 -696q-8 -37 -8 -73q0 -69 84 -69z" />
    <glyph glyph-name="afii10103_afii10089" unicode="&#x456;&#x447;" horiz-adv-x="1563" 
d="M1397 186q110 0 166 181h86q-76 -221 -209 -315q-90 -64 -192.5 -64t-166.5 58q-63 58 -63 187q0 58 16 134l10 51q-104 -115 -236.5 -115t-186.5 86q-130 -401 -418 -401q-158 0 -205 142q-14 44 -14 78q0 77 16 159l139 657h295l-147 -696q-8 -37 -8 -73q0 -69 83 -69
q131 0 201 327q12 56 20.5 103.5t14.5 73.5l70 334h295l-80 -381q-6 -32 -6 -57q0 -84 61 -84q89 0 140 108q15 33 24 72l72 342h294l-147 -696q-8 -37 -8 -73q0 -69 84 -69zM506 1296q0 -68 -48.5 -114.5t-116 -46.5t-114.5 47t-47 114t46.5 115.5t115 48.5t116.5 -48
t48 -116z" />
    <glyph glyph-name="afii10104_afii10089" unicode="&#x457;&#x447;" horiz-adv-x="1563" 
d="M1397 186q110 0 166 181h86q-76 -221 -209 -315q-90 -64 -192.5 -64t-166.5 58q-63 58 -63 187q0 58 16 134l10 51q-104 -115 -236.5 -115t-186.5 86q-130 -401 -418 -401q-158 0 -205 142q-14 44 -14 78q0 77 16 159l139 657h295l-147 -696q-8 -37 -8 -73q0 -69 83 -69
q131 0 201 327q12 56 20.5 103.5t14.5 73.5l70 334h295l-80 -381q-6 -32 -6 -57q0 -84 60.5 -84t104 49.5t60.5 130.5l72 342h294l-147 -696q-8 -37 -8 -73q0 -69 84 -69zM538 1174q-96 0 -128 74q-9 23 -9 62.5t36 76t88.5 36.5t89 -36.5t36.5 -89t-37 -88t-76 -35.5z
M246 1209q-38 -35 -76 -35q-66 0 -101.5 35.5t-35.5 87.5t35 89q36 37 88.5 37t89.5 -36.5t37 -89t-37 -88.5z" />
    <glyph glyph-name="afii10104_afii10104" unicode="&#x457;&#x457;" horiz-adv-x="1112" 
d="M1180 367q-132 -379 -436 -379q-75 0 -134 43.5t-75 138.5q-133 -182 -332 -182q-92 0 -156 58q-63 58 -63 187q0 58 16 134l139 657h295l-147 -696q-8 -37 -8 -73q0 -69 83 -69q60 0 111.5 52t73.5 129l139 657h295l-147 -696q-9 -35 -9 -72q0 -70 84 -70q60 0 111.5 52
t73.5 129h86zM1161 1209q-38 -35 -77 -35q-64 0 -100 35t-36 88t36 89.5t88 36.5t89 -36.5t37 -89t-37 -88.5zM856 1209q-38 -35 -76 -35q-65 0 -101 35t-36 88t36 89.5t88 36.5t89 -36.5t37 -89t-37 -88.5zM551 1209q-38 -35 -77 -35q-64 0 -100 35t-36 88t36 89.5t88 36.5
t89 -36.5t37 -89t-37 -88.5zM246 1209q-38 -35 -76 -35q-66 0 -101.5 35.5t-35.5 87.5t35 89q36 37 88.5 37t89.5 -36.5t37 -89t-37 -88.5z" />
    <glyph glyph-name="afii10108_afii10105" unicode="&#x45b;&#x458;" horiz-adv-x="1479" 
d="M381 776q101 115 242 115q98 0 162.5 -54.5t64.5 -177.5q0 -31 -12 -90l-119 -561l47 4q22 2 45 6l104 11l213 995h295l-198 -940q93 34 158 97t96 186h86q-71 -246 -242 -329q-55 -26 -119 -44l-33 -158q-39 -196 -157 -284q-86 -64 -213 -64q-159 0 -217 119
q-96 -119 -254 -119t-212 112q-18 37 -18 93q0 207 330 274l111 517q7 32 11 52l6 32q3 22 3 32q0 105 -74 105q-55 0 -96.5 -56.5t-64.5 -132.5l-109 -516h-295l217 1024h-110l22 111h113l55 258l303 41l-63 -299h256l-25 -111h-256zM1477 1298q0 -68 -49 -114.5
t-116 -46.5t-114 47t-47 114t46.5 115.5t114.5 48.5t116.5 -48t48.5 -116zM641 -297q29 -33 88 -33q56 0 82 26q44 45 63 134l25 117l-46 -4q-24 -2 -46 -6l-107 -11l-18 -90q-23 -89 -41 -133zM412 -121q-199 -50 -199 -164q0 -24 17.5 -45.5t51 -21.5t66.5 44.5t53 137.5z
" />
    <glyph glyph-name="afii10108_afii10089" unicode="&#x45b;&#x447;" horiz-adv-x="2028" 
d="M1327 586q0 -84 60.5 -84t104.5 51q43 51 60 129l72 342h295l-147 -696q-9 -35 -9 -72q0 -70 84 -70q115 0 166 181h86q-76 -221 -208 -315q-90 -64 -193 -64t-167 58q-63 58 -63 187q0 54 17 134l10 51q-104 -115 -233.5 -115t-190.5 84q-73 -319 -362 -403l-33 -148
q-66 -290 -250 -335q-53 -13 -125.5 -13t-136.5 49t-64 160t99 186t241 115l70 321q26 119 34 161l10 62q7 37 7 58q0 105 -74 105q-55 0 -96.5 -56.5t-64.5 -132.5l-109 -516h-295l217 1024h-110l22 111h113l55 258l303 41l-63 -299h256l-25 -111h-256l-53 -248
q101 115 242 115q98 0 162.5 -54.5t64.5 -177.5q0 -16 -3 -41l-6 -33q-3 -21 -9 -51l-101 -456q159 63 224 212q25 57 40 136l123 598h295l-80 -381q-6 -32 -6 -57zM418 -102q-203 -78 -203 -183q0 -41 39 -61q13 -6 38 -6t58 44.5t47 111.5t21 94z" />
    <glyph glyph-name="afii10105_afii10105" unicode="&#x458;&#x458;" horiz-adv-x="983" 
d="M88 -391q-99 -121 -270 -121q-95 0 -162.5 49.5t-67.5 149.5q0 209 332 278l223 1059h295l-217 -1016l49 4q23 2 45 6l105 11l213 995h295l-201 -940q94 32 159 95t97 188h86q-69 -247 -242 -331q-55 -26 -118 -42l-33 -158q-72 -348 -371 -348q-161 0 -217 121z
M981 1298q0 -68 -48.5 -114.5t-115 -46.5t-115.5 47q-47 47 -47 114t47 116q48 48 115.5 48t115.5 -48t48 -116zM489 1298q0 -68 -48.5 -114.5t-115.5 -46.5t-114 47t-47 114t46.5 115.5t114.5 48.5t116 -48t48 -116zM403 -53l-45 -4q-24 -2 -47 -6l-106 -11l-19 -90
q-13 -65 -43 -131q34 -35 75 -35q72 0 105.5 35t55.5 125zM-100 -123q-87 -23 -143 -60.5t-56 -101.5q0 -24 17.5 -45.5t51 -21.5t66.5 44.5t53 137.5z" />
    <glyph glyph-name="afii10105_afii10089" unicode="&#x458;&#x447;" horiz-adv-x="1522" 
d="M1356 186q110 0 166 181h86q-76 -221 -208 -315q-91 -64 -193.5 -64t-166.5 58q-63 58 -63 187q0 58 16 134l11 51q-105 -115 -235 -115t-189 84q-77 -322 -365 -403l-31 -148q-39 -197 -156 -284q-86 -64 -196.5 -64t-178 49.5t-67.5 149.5q0 166 218 260q60 26 118 45
l219 1032h295l-203 -950q108 38 173 117t98 235l123 598h295l-80 -381q-6 -32 -6 -57q0 -84 60.5 -84t104 49.5t60.5 130.5l72 342h294l-147 -696q-8 -37 -8 -73q0 -69 84 -69zM489 1298q0 -68 -48.5 -114.5t-115.5 -46.5t-114 47t-47 114t46.5 115.5t114.5 48.5t116 -48
t48 -116zM-100 -111q-201 -70 -201 -174q0 -41 39 -61q13 -6 38 -6t58 44.5t53 137.5z" />
    <glyph glyph-name="afii10073_afii10073" unicode="&#x437;&#x437;" horiz-adv-x="1720" 
d="M815 -313q0 194 322 301q-4 112 -40 164.5t-108 52.5h-63l26 123h60q109 0 180.5 102.5t71.5 234.5q0 191 -125 191q-102 0 -172 -103.5t-129.5 -256t-112.5 -240.5t-123 -148q-142 -120 -369 -120q-144 0 -221.5 78.5t-77.5 167t34 137.5t75 69q144 258 252 607l303 40
q8 -192 16 -321l25 -325q4 -48 4 -93.5t-8 -85.5q8 10 19 30l28 48q27 49 61 133l65 160q66 163 116 233t94 104q93 72 236 72t231 -85t88 -240q0 -231 -199 -388q-70 -56 -119 -65q48 -18 98.5 -71.5t69.5 -133.5q122 38 170 84q86 84 127 224h86q-76 -266 -274 -353
q-53 -24 -100 -37q-4 -230 -109.5 -359.5t-278.5 -129.5q-95 0 -162 49t-67 150zM150 150q196 0 196 190q0 53 -8 125l-12 117q-11 112 -19 243q-52 -168 -166 -387q47 -22 47 -65.5t-24.5 -75t-66 -31.5t-54.5 27q0 -143 107 -143zM1130 -111q-202 -71 -202 -174
q0 -28 17.5 -47.5t46.5 -19.5q51 0 88.5 71t49.5 170z" />
    <glyph glyph-name="afii10073_afii10087" unicode="&#x437;&#x445;" horiz-adv-x="1489" 
d="M1300 928q-96 0 -96 114q0 46 32.5 71.5t92 25.5t94.5 -53.5t35 -141t-71 -201.5t-222 -274l31 -163q25 -120 109 -120q59 0 110.5 52t73.5 129h86q-132 -379 -422 -379q-100 0 -152 68t-92 235q-68 -49 -152 -87l-127 -58q-43 -19 -75 -35q-116 -123 -322 -123
q-144 0 -221.5 78.5t-77.5 167t34 137.5t75 69q144 258 252 607l303 40q8 -192 16 -321l25 -325q4 -48 4 -96.5t-10 -94.5q167 70 256 149l-115 625h289l80 -442q194 207 194 325q0 15 -2 25q-17 -4 -35 -4zM150 150q196 0 196 190q0 53 -8 125l-12 117q-11 112 -19 243
q-52 -168 -166 -387q47 -22 47 -65.5t-24.5 -75t-66 -31.5t-54.5 27q0 -143 107 -143z" />
    <glyph glyph-name="afii10073_afii10089" unicode="&#x437;&#x447;" horiz-adv-x="1862" 
d="M1696 186q110 0 166 181h86q-76 -221 -208 -315q-91 -64 -193.5 -64t-166.5 58q-63 58 -63 187q0 58 16 134l10 51q-104 -115 -253 -115t-197 141q-82 -191 -269 -310q-52 -32 -100 -52q-116 -94 -275.5 -94t-237 78.5t-77.5 167t34 137.5t75 69q144 258 252 607l303 40
q8 -192 16 -321l25 -325q4 -48 4 -96.5t-10 -94.5q86 64 164.5 199.5t99.5 242.5l70 332h295l-80 -381q-6 -32 -6 -57q0 -84 61 -84q89 0 139 108q16 33 25 72l72 342h294l-147 -696q-8 -37 -8 -73q0 -69 84 -69zM150 150q196 0 196 190q0 53 -8 125l-12 117
q-11 112 -19 243q-52 -168 -166 -387q47 -22 47 -65.5t-24.5 -75t-66 -31.5t-54.5 27q0 -143 107 -143z" />
    <glyph glyph-name="afii10193_afii10089" unicode="&#x45f;&#x447;" horiz-adv-x="2068" 
d="M1382 586q0 -84 62 -84q89 0 140 108q15 33 24 72l71 342h295l-147 -696q-8 -37 -8 -73q0 -69 84 -69q114 0 165 181h86q-76 -221 -208 -315q-90 -64 -192.5 -64t-166.5 58q-63 58 -63 187q0 58 16 134l10 51q-104 -115 -236.5 -115t-187.5 86q-89 -283 -270 -369
q-66 -32 -147 -32q-183 0 -203 194q-120 -194 -303 -194q-92 0 -156 58q-63 58 -63 187q0 58 16 134l139 657h295l-147 -696q-6 -32 -6 -58q0 -84 61 -84q108 0 164 181l139 657h295l-147 -696q-9 -35 -9 -72q0 -70 84 -70q131 0 201 327q12 56 20.5 103.5t14.5 73.5l70 334
h294l-79 -381q-7 -29 -7 -57zM596 -291q-4 -107 -111 -221h-104q27 27 27 60t-15.5 54.5t-34.5 43.5q-49 59 -49 125q0 120 109 229h104q-26 -26 -26 -56t16 -52l34 -48q50 -68 50 -135z" />
    <glyph glyph-name="afii10095_afii10073" unicode="&#x44d;&#x437;" horiz-adv-x="1714" 
d="M1257 680q0 176 -121 176q-69 0 -164 -81q-43 -36 -88.5 -80t-97.5 -87q-14 -92 -54 -200q-89 -238 -285 -358q-104 -62 -245 -62t-209.5 58t-68.5 171.5t74 148.5q21 11 55 11t66 -29q-27 -74 -27 -139q0 -113 113 -113q90 0 170.5 118t113.5 278h-274l27 122h266
q4 42 4 78q0 178 -164 178q-80 0 -126 -33.5t-85 -99.5h-104q62 151 158.5 228t255.5 77t251 -76.5t97 -240.5l103 116q177 201 366 201q132 0 217.5 -85.5t85.5 -252.5t-129 -308q-65 -72 -117 -100t-72 -32q49 -17 99 -70t69 -135q118 36 167 84q84 82 130 224h86
q-79 -267 -274 -353q-53 -24 -101 -37q-4 -229 -109 -359t-278 -130q-95 0 -162 49t-67 150q0 194 321 301q-6 217 -147 217h-63l26 123h60q109 0 180 102t71 250zM1124 -111q-202 -71 -202 -174q0 -28 17 -47.5t46 -19.5q52 0 89.5 71t49.5 170z" />
    <glyph glyph-name="afii10097_afii10089" unicode="&#x44f;&#x447;" horiz-adv-x="2109" 
d="M1423 586q0 -84 62 -84q89 0 139 108q16 33 25 72l71 342h295l-147 -696q-8 -37 -8 -73q0 -69 84 -69q114 0 165 181h86q-76 -221 -208 -315q-90 -64 -192.5 -64t-166.5 58q-63 58 -63 187q0 58 16 134l10 51q-104 -115 -233.5 -115t-188.5 82q-82 -281 -251 -366
q-61 -31 -138 -31q-235 0 -235 227q0 48 12 104l25 115q-56 -12 -117 -12q-57 -238 -100 -307.5t-92 -98t-114 -28.5q-118 0 -177.5 66.5t-59.5 172.5t74 144q23 12 62 12t68.5 -29.5t29.5 -79t-25 -73t-57 -19.5q6 -65 79 -65t107.5 87t67.5 228q-195 45 -195 238
q0 248 283 326q103 28 256 28h311l-149 -696q-9 -35 -9 -72q0 -70 84 -70q62 0 103 62q76 121 108 315l14 73q6 32 11 54l69 334h295l-79 -381q-7 -29 -7 -57zM684 913h-49q-122 0 -183 -66t-61 -163.5t43 -131.5t105 -34h33q16 0 28 4z" />
    <glyph glyph-name="afii10022_afii10073" unicode="&#x415;&#x437;" horiz-adv-x="1925" 
d="M393 854q-125 91 -125 251t130 297.5t319 137.5q127 0 210 -66.5t83 -174t-45 -168t-104 -60.5t-99 55q36 14 63 68t27 113.5t-36 85.5q-37 26 -80 26q-86 0 -146 -88.5t-60 -200.5q0 -154 112 -232q40 -28 95 -42q-156 -34 -261 -187t-105 -302q0 -86 45 -146.5
t137.5 -60.5t151 29.5t103.5 81.5q60 71 146 269l60 137q97 217 199 291t245.5 74t231.5 -85t88 -252.5t-128 -308.5q-66 -72 -118 -100t-72 -32q49 -17 99 -70t69 -135q117 36 166.5 83.5t78 98.5t52.5 126h86q-79 -268 -275 -354q-52 -23 -100 -36q-4 -229 -109 -359
t-278 -130q-95 0 -162 49t-67 150q0 160 206 255q58 27 115 46q-6 217 -147 217h-64l27 123h60q109 0 180 102t71 250q0 176 -125 176q-136 0 -233 -172q-35 -62 -76 -166q-103 -255 -234 -388q-166 -167 -409 -167q-187 0 -282 103.5t-95 265.5t105 321t274 201zM1335 -111
q-202 -71 -202 -174q0 -28 17 -47.5t46 -19.5q51 0 89 71t50 170z" />
    <glyph glyph-name="afii10022_afii10087" unicode="&#x415;&#x445;" horiz-adv-x="1632" 
d="M1348 1042q0 97 125 97q59 0 94 -53.5t35 -141t-71 -201.5t-222 -274l18 -102l13 -61q24 -120 108 -120q59 0 110 51t74 130h86q-132 -379 -422 -379q-98 0 -149.5 64t-85.5 206q-108 -127 -295 -209t-363 -82q-270 0 -358 192q-31 68 -31 157q0 178 105 337t274 201
q-125 91 -125 251t130 297.5t319 137.5q127 0 210 -66.5t83 -174t-45 -168t-104 -60.5t-99 55q36 14 63 68t27 113.5t-36 85.5q-37 26 -80 26q-86 0 -146 -88.5t-60 -200.5q0 -154 112 -232q40 -28 95 -42q-156 -34 -261 -187t-105 -282.5t58.5 -179t132.5 -49.5
q128 0 254.5 62t217.5 165l-102 561h289l65 -364q195 208 195 325q0 15 -2 25q-20 -4 -35 -4q-96 0 -96 114z" />
    <glyph glyph-name="afii10023_afii10073" unicode="&#x401;&#x437;" horiz-adv-x="1925" 
d="M393 854q-125 91 -125 251t130 297.5t319 137.5q127 0 210 -66.5t83 -174t-45 -168t-104 -60.5t-99 55q36 14 63 68t27 113.5t-36 85.5q-37 26 -80 26q-86 0 -146 -88.5t-60 -200.5q0 -154 112 -232q40 -28 95 -42q-156 -34 -261 -187t-105 -302q0 -86 45 -146.5
t137.5 -60.5t151 29.5t103.5 81.5q60 71 146 269l60 137q97 217 199 291t245.5 74t231.5 -85t88 -252.5t-128 -308.5q-66 -72 -118 -100t-72 -32q49 -17 99 -70t69 -135q117 36 166.5 83.5t78 98.5t52.5 126h86q-79 -268 -275 -354q-52 -23 -100 -36q-4 -229 -109 -359
t-278 -130q-95 0 -162 49t-67 150q0 160 206 255q58 27 115 46q-6 217 -147 217h-64l27 123h60q109 0 180 102t71 250q0 176 -125 176q-136 0 -233 -172q-35 -62 -76 -166q-103 -255 -234 -388q-166 -167 -409 -167q-187 0 -282 103.5t-95 265.5t105 321t274 201zM1335 -111
q-202 -71 -202 -174q0 -28 17 -47.5t46 -19.5q51 0 89 71t50 170zM701 1721q-38 -35 -77 -35q-66 0 -101 35.5t-35 87.5t35 89q36 37 88.5 37t89.5 -36.5t37 -89t-37 -88.5zM1069 1721q-38 -35 -77 -35q-64 0 -100 35t-36 88t36 89.5t88 36.5t89 -36.5t37 -89t-37 -88.5z
" />
    <glyph glyph-name="afii10023_afii10087" unicode="&#x401;&#x445;" horiz-adv-x="1632" 
d="M1348 1042q0 97 125 97q59 0 94 -53.5t35 -141t-71 -201.5t-222 -274l18 -102l13 -61q24 -120 108 -120q59 0 110 51t74 130h86q-132 -379 -422 -379q-98 0 -149.5 64t-85.5 206q-108 -127 -295 -209t-363 -82q-270 0 -358 192q-31 68 -31 157q0 178 105 337t274 201
q-125 91 -125 251t130 297.5t319 137.5q127 0 210 -66.5t83 -174t-45 -168t-104 -60.5t-99 55q36 14 63 68t27 113.5t-36 85.5q-37 26 -80 26q-86 0 -146 -88.5t-60 -200.5q0 -154 112 -232q40 -28 95 -42q-156 -34 -261 -187t-105 -282.5t58.5 -179t132.5 -49.5
q128 0 254.5 62t217.5 165l-102 561h289l65 -364q195 208 195 325q0 15 -2 25q-20 -4 -35 -4q-96 0 -96 114zM701 1721q-38 -35 -77 -35q-66 0 -101 35.5t-35 87.5t35 89q36 37 88.5 37t89.5 -36.5t37 -89t-37 -88.5zM1069 1721q-38 -35 -77 -35q-64 0 -100 35t-36 88
t36 89.5t88 36.5t89 -36.5t37 -89t-37 -88.5z" />
    <glyph glyph-name="afii10035_afii10073" unicode="&#x421;&#x437;" horiz-adv-x="1993" 
d="M1096 1262q0 -189 -144 -189q-72 0 -116 53q37 20 65.5 75t28.5 109.5t-28.5 92t-91 37.5t-116 -42t-100.5 -114q-95 -144 -155 -368t-60 -406.5t53.5 -264t185 -81.5t225 91.5t183.5 293.5l56 128q97 217 199 291t245 74t231 -85t88 -249t-128 -312q-103 -115 -189 -132
q49 -17 98 -70t70 -135q116 36 183 100.5t114 207.5h86q-79 -268 -275 -354q-52 -23 -100 -36q-4 -229 -109 -359t-278 -130q-95 0 -162.5 49.5t-67.5 149.5q0 160 207 255q58 27 115 46q-6 217 -147 217h-64l27 123h59q110 0 181 102t71 250q0 176 -125 176
q-94 0 -165.5 -73.5t-129.5 -228.5q-109 -285 -276 -436t-353 -151q-232 0 -340 116.5t-108 373.5t85 513q99 302 292 452q148 114 338 114q238 0 315 -149q27 -52 27 -125zM1403 -111q-203 -71 -203 -174q0 -28 17.5 -47.5t46.5 -19.5q50 0 88 70.5t51 170.5z" />
    <glyph glyph-name="afii10035_afii10087" unicode="&#x421;&#x445;" horiz-adv-x="1667" 
d="M1479 928q-97 0 -97 114q0 46 32.5 71.5t92 25.5t94.5 -53.5t35 -141t-71 -201.5t-222 -274l31 -163q25 -120 109 -120q59 0 110 51t74 130h86q-132 -379 -422 -379q-98 0 -150 63q-51 64 -85 209q-123 -145 -307 -219t-307 -74q-236 0 -339.5 117t-103.5 373.5t85 512.5
q99 302 292 452q148 114 338 114q238 0 315 -149q27 -52 27 -125q0 -189 -144 -189q-72 0 -116 53q37 20 65.5 75t28.5 109.5t-28.5 92t-91 37.5t-116 -42t-100.5 -114q-95 -144 -155 -368t-60 -406.5t49 -256.5q58 -89 197 -89q184 0 353 136q50 40 91 87l-102 559h288
l66 -364q195 208 195 325q0 17 -3 25q-17 -4 -34 -4z" />
    <glyph glyph-name="afii10053_afii10073" unicode="&#x404;&#x437;" horiz-adv-x="1993" 
d="M406 770q-27 -150 -27 -254t11 -162q34 -190 228 -190q131 0 224.5 91.5t183.5 293.5l56 128q97 217 199 291t245 74t231 -85t88 -249t-128 -312q-103 -115 -189 -132q49 -17 98 -70t70 -135q116 36 183 100.5t114 207.5h86q-79 -268 -275 -354q-52 -23 -100 -36
q-4 -229 -109 -359t-278 -130q-95 0 -162.5 49.5t-67.5 149.5q0 160 207 255q58 27 115 46q-6 217 -147 217h-64l27 123h59q110 0 181 102t71 250q0 176 -125 176q-94 0 -165.5 -73.5t-129.5 -228.5q-109 -285 -276 -436t-353 -151q-232 0 -340 116.5t-108 373.5t85 513
q99 302 292 452q148 114 338 114q238 0 315 -149q27 -52 27 -125q0 -189 -144 -189q-72 0 -116 53q37 20 65.5 75t28.5 109.5t-28.5 92t-90.5 37.5q-112 0 -210.5 -147t-160.5 -371h391l-32 -152h-393zM1403 -111q-203 -71 -203 -174q0 -28 17.5 -47.5t46.5 -19.5
q50 0 88 70.5t51 170.5z" />
    <glyph glyph-name="afii10053_afii10087" unicode="&#x404;&#x445;" horiz-adv-x="1667" 
d="M1479 928q-97 0 -97 114q0 46 32.5 71.5t92 25.5t94.5 -53.5t35 -141t-71 -201.5t-222 -274l31 -163q25 -120 109 -120q59 0 110 51t74 130h86q-132 -379 -422 -379q-98 0 -150 63q-51 64 -85 209q-123 -145 -307 -219t-307 -74q-236 0 -339.5 117t-103.5 373.5t85 512.5
q99 302 292 452q148 114 338 114q238 0 315 -149q27 -52 27 -125q0 -189 -144 -189q-72 0 -116 53q37 20 65.5 75t28.5 109.5t-28.5 92t-90.5 37.5q-112 0 -210.5 -147t-160.5 -371h391l-32 -152h-393q-27 -150 -27 -254t11 -162q34 -190 226.5 -190t361.5 136q50 40 91 87
l-102 559h288l66 -364q195 208 195 325q0 17 -3 25q-17 -4 -34 -4z" />
    <glyph glyph-name="afii10070_afii10087" unicode="&#x435;&#x445;" horiz-adv-x="1561" 
d="M1276 1042q0 97 122 97q60 0 96 -53t36 -114q0 -109 -66.5 -221t-226.5 -284l18 -100q7 -29 13 -61q25 -120 108 -120q60 0 111.5 52t73.5 129h86q-99 -282 -289 -355q-67 -26 -120.5 -26t-95.5 18q-74 30 -116 136q-22 54 -41 132q-196 -200 -473 -264q-88 -20 -168 -20
q-170 0 -270.5 79.5t-100.5 254.5q0 225 119 444q91 167 248 238q81 38 168 38q142 0 193 -53.5t51 -142.5q0 -176 -140.5 -298t-332.5 -134q-3 -15 -3 -29v-27q0 -114 60 -158t130 -44q134 0 265.5 62t231.5 171l-117 635h289l79 -442q195 208 195 325q0 15 -2 25
q-17 -4 -37 -4q-94 0 -94 114zM594 860q0 74 -51 74q-73 0 -145.5 -133.5t-102.5 -288.5q118 4 208.5 106.5t90.5 241.5z" />
    <glyph glyph-name="afii10071_afii10087" unicode="&#x451;&#x445;" horiz-adv-x="1561" 
d="M1276 1042q0 97 122 97q60 0 96 -53t36 -114q0 -109 -66.5 -221t-226.5 -284l18 -100q7 -29 13 -61q25 -120 108 -120q60 0 111.5 52t73.5 129h86q-99 -282 -289 -355q-67 -26 -120.5 -26t-95.5 18q-74 30 -116 136q-22 54 -41 132q-196 -200 -473 -264q-88 -20 -168 -20
q-170 0 -270.5 79.5t-100.5 254.5q0 225 119 444q91 167 248 238q81 38 168 38q142 0 193 -53.5t51 -142.5q0 -176 -140.5 -298t-332.5 -134q-3 -15 -3 -29v-27q0 -114 60 -158t130 -44q134 0 265.5 62t231.5 171l-117 635h289l79 -442q195 208 195 325q0 15 -2 25
q-17 -4 -37 -4q-94 0 -94 114zM594 860q0 74 -51 74q-73 0 -145.5 -133.5t-102.5 -288.5q118 4 208.5 106.5t90.5 241.5zM457 1209q-38 -35 -77 -35q-66 0 -101 35.5t-35 87.5t35 89q36 37 88.5 37t89.5 -36.5t37 -89t-37 -88.5zM825 1209q-38 -35 -77 -35q-64 0 -100 35
t-36 88t36 89.5t88 36.5t89 -36.5t37 -89t-37 -88.5z" />
    <glyph glyph-name="afii10080_afii10087" unicode="&#x43e;&#x445;" horiz-adv-x="1741" 
d="M1552 928q-96 0 -96 114q0 46 32.5 71.5t92 25.5t94.5 -53.5t35 -142t-71 -194.5t-228 -247l37 -196q25 -120 108 -120q60 0 111.5 52t73.5 129h86q-132 -379 -422 -379q-109 0 -165 86t-93 293l-4 14q-185 -132 -185 -229q10 2 27 2q53 0 68.5 -32.5t15.5 -68.5
q0 -112 -115 -112q-69 0 -102 39.5t-33 97.5q0 104 90.5 220t212.5 198l-57 317q-125 -149 -277 -197q-24 -282 -161 -453t-330 -171q-236 0 -304 174q-24 61 -24 135t12.5 150.5t39.5 157.5q61 183 177 297q138 136 332 136q258 0 263 -321q114 11 251 205l-18 98h289
l74 -406q200 181 200 289q0 15 -2 25q-17 -4 -35 -4zM616 600q-55 13 -55 96t64 105q-4 65 -21.5 91t-64.5 26q-93 0 -179 -204t-86 -372q0 -99 18 -125.5t38 -33.5t54 -7q71 0 139.5 122.5t92.5 301.5z" />
    <glyph glyph-name="afii10082_afii10073" unicode="&#x440;&#x437;" horiz-adv-x="1823" 
d="M418 946q102 88 239 88q243 0 250 -305l101 113q177 200 364 200q132 0 217.5 -85.5t85.5 -249t-128 -311.5q-103 -115 -189 -132q49 -17 98 -70t70 -135q116 36 183 100.5t114 207.5h86q-79 -268 -275 -354q-52 -23 -100 -36q-4 -229 -109 -359t-278 -130q-95 0 -162 49
t-67 150q0 160 206 255q58 27 115 46q-6 217 -147 217h-64l27 123h59q110 0 181 102t71 234t-60 176q-22 16 -60.5 16t-80 -22.5t-84.5 -57.5t-87 -78t-91 -84q-18 -240 -125 -416q-81 -130 -217 -184q-68 -26 -152 -26h-6q-130 0 -174 73l-106 -499l-309 -74l342 1612h295z
M627 717q0 170 -103 170q-35 0 -73.5 -25t-67.5 -76l-121 -573q18 -47 87.5 -47t124.5 58q107 114 138 326q15 94 15 167zM1233 -111q-203 -71 -203 -174q0 -28 17.5 -47.5t46.5 -19.5q50 0 88 70.5t51 170.5z" />
    <glyph glyph-name="afii10083_afii10087" unicode="&#x441;&#x445;" horiz-adv-x="1546" 
d="M1262 1042q0 97 122 97q60 0 96 -53t36 -114q0 -109 -67.5 -220.5t-225.5 -284.5l18 -100l13 -61q24 -120 108 -120q59 0 110 51t74 130h86q-99 -283 -288 -355q-62 -24 -127 -24q-105 0 -159 66.5t-87 215.5q-130 -128 -305 -205t-342 -77q-256 0 -336 178
q-29 65 -29 139t12 149t39 154q62 186 172 297q137 137 323.5 137t221.5 -120q10 -34 10 -91.5t-33.5 -91.5t-73.5 -34t-73 24q25 63 25 121q0 84 -56 84q-50 0 -96 -64q-101 -141 -146 -344q-22 -95 -22 -168q0 -202 207 -202q184 0 367 132q61 44 112 101l-117 635h289
l80 -442q195 208 195 325q0 15 -2 25q-20 -4 -37 -4q-94 0 -94 114z" />
    <glyph glyph-name="afii10086_afii10073" unicode="&#x444;&#x437;" horiz-adv-x="2351" 
d="M1894 680q0 176 -120 176q-70 0 -166 -81q-42 -36 -86.5 -80t-94.5 -87h-2q-34 -431 -289 -570q-92 -50 -216.5 -50t-167.5 73l-107 -499l-289 -74l136 612q-105 -112 -236.5 -112t-208 79t-76.5 250q0 230 129 461q61 111 164.5 183.5t233.5 72.5q168 0 168 -112
l102 471l283 41l-111 -488q100 88 240 88q242 0 250 -309h2l103 116q177 201 366 201q132 0 217.5 -85.5t85.5 -252.5t-128 -308q-66 -72 -118 -100t-72 -32q49 -17 99 -70t69 -135q117 36 166.5 83.5t78 98.5t52.5 126h86q-79 -268 -275 -354q-52 -23 -100 -36
q-4 -229 -109 -359t-278 -130q-95 0 -162 49t-67 150q0 160 206 255q58 27 115 46q-6 217 -147 217h-64l27 123h59q111 0 181.5 102.5t70.5 249.5zM784 213q9 -23 37.5 -35t59.5 -12q132 0 210 166t78 385q0 87 -31.5 128.5t-77.5 41.5q-99 0 -155 -101zM645 838
q-12 69 -88.5 69t-146.5 -102q-69 -103 -98 -215q-39 -149 -39 -248q0 -105 40 -137q21 -21 49 -21t61 15q79 36 114 133zM1761 -111q-202 -71 -202 -174q0 -28 17 -47.5t46 -19.5q51 0 89 71t50 170z" />
    <glyph glyph-name=".notdef" horiz-adv-x="788" 
 />
    <glyph glyph-name="NULL" horiz-adv-x="0" 
 />
    <glyph glyph-name="nonmarkingreturn" horiz-adv-x="682" 
 />
    <glyph glyph-name="space" unicode=" " horiz-adv-x="444" 
 />
    <glyph glyph-name="exclam" unicode="!" horiz-adv-x="526" 
d="M201 473l145 961h295l-266 -961h-174zM395 164q0 -67 -47 -115.5t-114.5 -48.5t-115.5 48t-48 115.5t48 115t115.5 47.5t114.5 -47.5t47 -114.5z" />
    <glyph glyph-name="quotedbl" unicode="&#x22;" horiz-adv-x="860" 
d="M127 1149l125 387h215l-186 -387h-154zM449 1149l124 387h215l-186 -387h-153z" />
    <glyph glyph-name="numbersign" unicode="#" horiz-adv-x="1350" 
d="M807 227l-62 -282h-116l51 282h-242l-61 -282h-117l51 282h-219l43 209h213l43 232h-209l43 209h203l107 593h180l-133 -593h215l106 593h180l-133 -593h213l-41 -209h-217l-51 -232h219l-41 -209h-225zM760 668h-223l-52 -232h232z" />
    <glyph glyph-name="dollar" unicode="$" horiz-adv-x="825" 
d="M567 969q49 29 49 106q0 23 -15 49.5t-50 40.5l-74 -329l80 -58q152 -105 152 -251.5t-101.5 -225t-267.5 -82.5l-59 -274h-56l49 276q-94 7 -160 60q-65 53 -65 174q0 79 43.5 127.5t95.5 48.5t74.5 -15.5t22.5 -35.5q-82 -17 -82 -152q0 -45 25.5 -77t60.5 -48l73 402
l-76 59q-87 67 -114 119.5t-27 105.5q0 104 98 182t218 82l39 217h118l-51 -223q80 -14 113 -41q65 -50 65 -126q0 -158 -98 -158q-41 0 -80 47zM358 295q73 10 105 63q31 53 31 128.5t-60 148.5zM446 1176q-60 -14 -83 -60.5t-23 -102t57 -114.5z" />
    <glyph glyph-name="percent" unicode="%" horiz-adv-x="1319" 
d="M248 0l790 1536h148l-791 -1536h-147zM410 766q-109 0 -150 58t-41 162q0 200 90 326t242 126q90 0 129 -59.5t39 -189t-83 -276.5t-226 -147zM442 1288q-75 -114 -75 -272q0 -92 10 -133t47 -41q76 0 124 117.5t48 277.5q0 53 -9 91t-42 38q-51 0 -103 -78zM923 0
q-114 0 -155 57t-41 161q0 202 90 328t242 126q91 0 139.5 -59t48.5 -194.5t-73 -263.5q-87 -155 -251 -155zM1030 596q-49 0 -96 -76q-70 -110 -70 -311q0 -51 10 -92t48 -41q74 0 119.5 109t45.5 260t-57 151z" />
    <glyph glyph-name="ampersand" unicode="&#x26;" horiz-adv-x="1397" 
d="M1034 768l156 -10q55 0 111.5 20.5t82.5 67.5h13q0 -89 -94 -177.5t-218 -107.5q-123 -443 -389 -542q-83 -31 -219.5 -31t-215.5 35t-132 93q-106 114 -106 278t97 294t273 166q-203 109 -203 311q0 148 124 259.5t331 111.5q157 0 267 -68.5t110 -205.5
q0 -189 -143 -189q-72 0 -117 53q34 11 62 68.5t28 85.5q0 166 -135 166q-109 0 -179.5 -74t-70.5 -170.5t62 -188.5q63 -91 208 -157q-184 -77 -270 -185.5t-86 -223.5t70.5 -195t169.5 -80q195 0 305 199q41 74 65 186l-75 8q-35 4 -70 4q-134 0 -193 -92l-14 2
q31 127 133 208t262 81z" />
    <glyph glyph-name="quotesingle" unicode="'" horiz-adv-x="549" 
d="M209 1149l125 387h215l-187 -387h-153z" />
    <glyph glyph-name="parenleft" unicode="(" horiz-adv-x="895" 
d="M432 150q0 -376 150 -603l-68 -59q-231 254 -231 717q0 196 47 403q97 432 345 713q127 143 275 215l27 -82q-225 -111 -387 -510q-99 -240 -138 -523q-20 -138 -20 -271z" />
    <glyph glyph-name="parenright" unicode=")" horiz-adv-x="846" 
d="M485 874q0 378 -149 603l67 59q120 -132 176 -320t56 -392q0 -423 -181 -799q-87 -182 -211.5 -323t-275.5 -214l-26 82q115 57 213 193q202 270 289 703q42 208 42 408z" />
    <glyph glyph-name="asterisk" unicode="*" horiz-adv-x="1055" 
d="M588 1047v-277h-131v277l-219 -127l-62 106l223 129l-223 129l62 107l219 -127v276h131v-276l219 127l61 -107l-223 -129l223 -129l-61 -106z" />
    <glyph glyph-name="plus" unicode="+" horiz-adv-x="1055" 
d="M602 420l-55 -252h-232l56 252h-262l49 229h262l55 250h232l-56 -250h260l-47 -229h-262z" />
    <glyph glyph-name="comma" unicode="," horiz-adv-x="442" 
d="M84 -258q-18 12 -18 37q0 33 53 89t53 87t-34 53q-89 58 -89 135t46.5 125.5t115.5 48.5q100 0 130 -93q9 -29 9 -68q0 -91 -72.5 -211.5t-193.5 -202.5z" />
    <glyph glyph-name="hyphen" unicode="-" horiz-adv-x="594" 
d="M39 455l37 161h409l-34 -161h-412z" />
    <glyph glyph-name="period" unicode="." horiz-adv-x="539" 
d="M341 269q48 -48 48 -116t-48.5 -114.5t-115 -46.5t-115.5 47q-47 47 -47 114t47 116q48 48 115.5 48t115.5 -48z" />
    <glyph glyph-name="slash" unicode="/" horiz-adv-x="637" 
d="M23 -512l434 2048h147l-434 -2048h-147z" />
    <glyph glyph-name="zero" unicode="0" horiz-adv-x="1118" 
d="M772 1536q365 0 365 -521q0 -360 -169 -676q-190 -357 -496 -357q-236 0 -332 141q-79 118 -79 363q0 588 293 876q177 174 418 174zM375 463q0 -309 121 -309q88 0 156 86q135 168 190 539q26 176 26 297q0 204 -18 268q-25 86 -90.5 86t-145.5 -96q-134 -162 -198 -452
q-41 -180 -41 -419z" />
    <glyph glyph-name="one" unicode="1" horiz-adv-x="649" 
d="M43 0l270 1278h-194l24 94q115 0 194 20q166 43 327 140l-326 -1532h-295z" />
    <glyph glyph-name="two" unicode="2" horiz-adv-x="1008" 
d="M557 1534q389 0 389 -330q0 -281 -300 -534l-164 -136q-81 -65 -151.5 -129.5t-113.5 -134.5h10q92 0 184.5 -18.5t176 -18.5t119.5 9q64 17 123 72l63 61q2 -25 2 -47v-43q0 -163 -49.5 -235.5t-179.5 -72.5t-229.5 25.5t-157 37t-105.5 11.5q-63 0 -114 -23l-78 -34
q-5 16 -5 33v34q0 112 49 204q81 152 284 353.5t291 389.5q50 111 50 247q0 76 -40 122t-88 46q-94 0 -128.5 -40t-34.5 -119t42 -124q15 -16 36 -22q-78 -69 -148.5 -69t-112.5 47t-42 118q0 138 104 229t318 91z" />
    <glyph glyph-name="three" unicode="3" horiz-adv-x="1053" 
d="M440 1280q0 -140 78 -162q-77 -69 -156 -69q-100 0 -136 99q-11 33 -11 88.5t33 113t90 98.5q120 86 300.5 86t281 -87t100.5 -201t-69.5 -217t-211.5 -175q135 -45 196.5 -136.5t61.5 -201.5q0 -197 -157 -356q-167 -169 -412 -169q-58 0 -122 9q-161 26 -247 150
q-47 70 -47 193t62 206q63 82 194 82t152 -105q-180 -12 -180 -221q0 -152 98 -175q28 -7 75.5 -7t100.5 28.5t90 76.5q76 99 76 241q0 198 -150 320q-51 42 -122 67q162 47 256 164.5t94 234.5q0 168 -174 168q-57 0 -100.5 -43.5t-43.5 -99.5z" />
    <glyph glyph-name="four" unicode="4" horiz-adv-x="975" 
d="M395 0l121 563h-500q18 56 47 120l129 277q123 271 123 453q0 64 -14 123q152 0 209 -110q18 -37 18 -109.5t-31.5 -155t-78 -157.5t-98 -145.5t-91.5 -143.5h320l166 780l303 41l-176 -821h131l-41 -152h-123l-119 -563h-295z" />
    <glyph glyph-name="five" unicode="5" horiz-adv-x="1059" 
d="M391 -10q-360 0 -360 295q0 147 79 218.5t195.5 71.5t136.5 -104q-80 -11 -132 -57t-52 -133.5t56 -124.5q42 -29 109 -29q122 0 192.5 115t70.5 262.5t-60 222t-154.5 74.5t-155.5 -29q-113 -55 -160 -86l168 817q54 -6 102 -12l93 -11q94 -12 173 -12q164 0 332 66
q4 -32 4 -74q0 -98 -55.5 -164.5t-179.5 -66.5q-80 0 -196 23.5t-146 27.5l-82 -371q132 64 241 64q191 0 283 -121t92 -303q0 -234 -140 -386q-160 -173 -454 -173z" />
    <glyph glyph-name="six" unicode="6" horiz-adv-x="1018" 
d="M461 625q-41 59 -41 111q0 96 85 154t181 58t148.5 -30.5t85.5 -78.5q65 -92 65 -227q0 -265 -165 -443.5t-388 -178.5q-326 0 -382 250q-17 73 -17 155v37q0 137 32 304t75 286q90 242 248 378t378 136q108 0 171.5 -51t63.5 -110.5t-44 -100.5t-138 -45q33 31 33 72.5
t-29 76.5t-73 35q-100 0 -202 -121.5t-172 -401.5q-38 -149 -54.5 -308.5t-16.5 -221.5q0 -126 40 -168t107 -42q118 0 206 134q92 136 92 282q0 214 -107 214t-182 -155z" />
    <glyph glyph-name="seven" unicode="7" horiz-adv-x="950" 
d="M467 80q-30 -80 -179 -80q-113 0 -166.5 55t-53.5 191t52 266q98 240 347 542l246 292q-90 12 -174 12q-295 0 -424 -146q-17 74 -17 122q0 101 65 151.5t214 50.5h672l-195 -298l-260 -414q-143 -239 -162 -281q-65 -151 -65 -264q0 -62 22.5 -107t77.5 -92z" />
    <glyph glyph-name="eight" unicode="8" horiz-adv-x="1022" 
d="M532 784q-183 -125 -236 -334q-15 -61 -15 -110q0 -95 37.5 -149t98.5 -54q108 0 176.5 103.5t68.5 240.5q0 190 -130 303zM352 854q-174 101 -174 279q0 153 130.5 277t320.5 124t291.5 -85t101.5 -200.5t-71 -219.5t-216 -175q130 -40 189 -128t59 -170.5t-19 -147.5
t-54 -126q-77 -130 -206.5 -211t-287.5 -81q-202 0 -317 121.5t-115 281t95.5 284.5t272.5 177zM555 924q145 94 193 274q14 50 14 103.5t-25.5 94t-76.5 40.5q-96 0 -155 -80.5t-59 -167.5q0 -169 109 -264z" />
    <glyph glyph-name="nine" unicode="9" horiz-adv-x="1001" 
d="M590 868q43 -51 43 -102q0 -78 -81 -133t-208 -55t-200.5 108.5t-73.5 249.5q0 254 153.5 427t376.5 173q395 0 395 -481q0 -310 -83 -549.5t-241.5 -377.5t-369.5 -138q-111 0 -176.5 59.5t-65.5 134.5q0 152 177 152q-29 -29 -29 -72t31.5 -77.5t64.5 -34.5t51.5 2
t59.5 19t74 47q88 78 157.5 261t93.5 516q4 78 4 107q0 176 -44 236.5t-139 60.5t-176 -141.5t-81 -303.5q0 -84 25.5 -147.5t89.5 -63.5q125 0 172 123z" />
    <glyph glyph-name="colon" unicode=":" horiz-adv-x="547" 
d="M410 276q0 -68 -49 -114.5t-116 -46.5t-114 47t-47 114t46.5 115.5t114.5 48.5t116.5 -48t48.5 -116zM464 884q48 -48 48 -116.5t-48.5 -115t-115 -46.5t-115.5 47q-47 47 -47 114.5t47 116.5q48 48 115.5 48t115.5 -48z" />
    <glyph glyph-name="semicolon" unicode=";" horiz-adv-x="565" 
d="M354 842q68 0 116 -48.5t48 -116.5t-48.5 -114.5t-115.5 -46.5t-114 47t-47 114t46.5 116t114.5 49zM129 -225q-18 12 -18 37q0 33 53 89t53 86t-27 50q-96 62 -96 139t46.5 125.5t115.5 48.5q100 0 130 -94q9 -28 9 -68q0 -91 -73 -212t-193 -201z" />
    <glyph glyph-name="less" unicode="&#x3c;" horiz-adv-x="735" 
d="M41 487l18 84l629 308l-20 -113l-494 -246l397 -196l-24 -117z" />
    <glyph glyph-name="equal" unicode="=" horiz-adv-x="1055" 
d="M156 647l49 230h753l-47 -230h-755zM66 207l49 229h753l-47 -229h-755z" />
    <glyph glyph-name="greater" unicode="&#x3e;" horiz-adv-x="705" 
d="M31 207l28 117l492 196l-397 246l18 113l504 -308l-23 -110z" />
    <glyph glyph-name="question" unicode="?" horiz-adv-x="903" 
d="M418 1018q-54 -86 -150 -86q-60 0 -107.5 43t-47.5 112q0 141 99 234q118 113 331 113q275 0 316 -152q12 -43 12 -80t-1 -40q0 -207 -208 -364l-111 -90q-132 -111 -172 -233h-135q0 120 96 243q42 52 90 102t90 104q96 127 96 246q0 153 -116 153q-57 0 -108.5 -49
t-51.5 -120.5t41 -113.5q15 -16 37 -22zM424 164q0 -67 -47 -115.5t-114.5 -48.5t-116.5 48q-48 48 -48 115.5t48.5 115t116 47.5t114.5 -47.5t47 -114.5z" />
    <glyph glyph-name="at" unicode="@" horiz-adv-x="1151" 
d="M506 857q37 27 83 27l1 1q45 0 74 -37l8 33l112 -13l-92 -393q-8 -26 -8 -56t29 -30q80 0 142 339q13 74 13 110q0 79 -34 118q-44 54 -132.5 54t-153.5 -27.5t-118 -74.5q-104 -94 -162.5 -247t-58.5 -297t53 -201t180.5 -57t198.5 32.5t125 103.5q47 -19 47 -80
q0 -112 -111 -174q-114 -66 -310.5 -66t-302 94.5t-105.5 319.5q0 335 206 570q130 149 308 206q90 28 162 28t126 -10q126 -23 187 -141q33 -64 33 -167t-30 -199.5t-79 -173t-111.5 -123.5t-127 -47t-91.5 47q-53 -80 -121 -80q-131 0 -131 136.5t60 279t131 195.5z
M485 371q26 0 68 28q0 20 6 43l88 340q-14 17 -48 17t-65 -46q-67 -99 -83 -281q-2 -22 -2 -38q0 -63 36 -63z" />
    <glyph glyph-name="A" unicode="A" horiz-adv-x="1368" 
d="M438 70q-20 -109 -20 -186.5t28 -116.5q-121 0 -170 25q-104 52 -104 192q0 212 178 596q56 120 123 237q-96 -6 -157.5 -29.5t-82.5 -76.5q9 0 18 -20.5t9 -50.5t-33.5 -51.5t-70.5 -21.5q-67 0 -102.5 31.5t-35.5 85.5q0 106 119 180q121 74 299 74q41 0 107 -6
q166 261 352.5 432.5t359.5 171.5q104 0 162 -29l-321 -1507h-295l157 743q-136 62 -274 74q-184 -407 -246 -747zM727 905q143 -28 250 -71l119 557q-176 -96 -369 -486z" />
    <glyph glyph-name="B" unicode="B" horiz-adv-x="1313" 
d="M956 530q0 261 -194 261q-45 0 -94 -7l-168 -784h-295l278 1303l303 40l-96 -454h12q118 0 206.5 106t88.5 226q0 150 -145 203q-52 18 -118.5 18t-128 -13.5t-117.5 -40.5q-125 -61 -199 -173.5t-74 -270.5q0 -81 25 -125q4 -8 4 -14q-162 0 -204 100q-15 36 -15 88
q0 108 61 204.5t164 172.5q229 166 518 166q214 0 325 -94.5t111 -231.5q0 -92 -52 -180t-153 -145q124 -25 183 -115t59 -215q0 -73 -21 -175q-48 -226 -212 -351q-85 -64 -217.5 -64t-180.5 75q-20 30 -20 78.5t26 117.5q69 -74 132 -74q108 0 163 126q45 102 45 242z" />
    <glyph glyph-name="C" unicode="C" horiz-adv-x="1018" 
d="M1096 1262q0 -189 -144 -189q-72 0 -116 53q37 20 65.5 75t28.5 109.5t-28.5 92t-91 37.5t-116 -42t-100.5 -114q-95 -144 -155 -368t-60 -406.5t53.5 -264t183.5 -81.5q256 0 408 205l47 -21q-98 -248 -373 -344q-108 -38 -212 -38h-6q-227 2 -334 118t-107 373t85 513
q99 302 292 452q148 114 338 114q238 0 315 -149q27 -52 27 -125z" />
    <glyph glyph-name="D" unicode="D" horiz-adv-x="1358" 
d="M969 59q-104 -86 -221.5 -86t-243.5 109l-17 -82h-294l278 1303l303 40l-246 -1148q56 -41 117 -41q92 0 165 82q141 159 200 503q28 158 28 316q0 387 -299 387q-234 0 -385 -135t-151 -363q0 -83 23 -125q5 -8 5 -14q-162 0 -204 101q-15 37 -15 98t27.5 128.5
t77.5 127.5q102 123 278 199.5t379 76.5q369 0 494 -298q53 -127 53 -298.5t-47 -345.5q-97 -363 -305 -535z" />
    <glyph glyph-name="E" unicode="E" horiz-adv-x="940" 
d="M393 854q-125 91 -125 251t130 297.5t319 137.5q127 0 210 -66.5t83 -174t-45 -168t-104 -60.5t-99 55q36 14 63 68t27 113.5t-36 85.5q-37 26 -80 26q-86 0 -146 -88.5t-60 -200.5q0 -154 112 -232q40 -28 95 -42q-156 -34 -261 -187t-105 -302q0 -86 45 -146.5
t148 -60.5t213.5 55t166.5 154l47 -21q-81 -178 -246.5 -281.5t-353 -103.5t-282.5 103.5t-95 265.5t105 321t274 201z" />
    <glyph glyph-name="F" unicode="F" horiz-adv-x="940" 
d="M1047 1290q-111 0 -287 39l-86 -407h299l-33 -152h-299l-166 -770h-295l295 1368q-130 -4 -198 -98q-68 -93 -68 -326q0 -81 25 -125q4 -8 4 -14q-165 0 -206 105q-14 38 -14 117t38 175t122 170q185 164 539 164q67 0 154 -12.5t190 -12.5t180 25l-19 -69
q-37 -147 -175 -177z" />
    <glyph glyph-name="G" unicode="G" horiz-adv-x="1184" 
d="M950 1279q0 161 -141 161q-83 0 -166.5 -65t-147 -166t-102.5 -228t-39 -222q0 -174 59 -270t177 -96t176 76l88 389l264 -2l-168 -770q-52 -253 -169 -381.5t-355 -128.5q-136 0 -210.5 83t-74.5 197t67.5 198.5t169 84.5t137.5 -17q77 -34 77 -120q0 -37 -12 -82
q-63 53 -129 53t-102 -49.5t-36 -104t31.5 -98t82.5 -43.5t81 10q92 29 139 242l82 367q-136 -74 -256 -74q-229 0 -340 156q-94 133 -94 369q0 148 49 290q75 213 251.5 355.5t428 142.5t344.5 -149q33 -52 33 -125q0 -189 -144 -189q-95 0 -141 53q34 13 62 69t28 84z" />
    <glyph glyph-name="H" unicode="H" horiz-adv-x="1362" 
d="M801 0l164 770h-301l-164 -770h-295l297 1393q-136 -58 -211.5 -171t-75.5 -278q0 -81 25 -125q4 -8 4 -14q-166 0 -205 105q-14 38 -14 94q0 103 65 198q131 195 396 289q127 45 257 45q42 0 82 -4l-131 -610h301l131 610h295l-325 -1532h-295z" />
    <glyph glyph-name="I" unicode="I" horiz-adv-x="768" 
d="M489 1391q-286 -120 -286 -447q0 -83 23 -125q5 -8 5 -14q-164 0 -205 105q-14 38 -14 94q0 103 64.5 198.5t166.5 169.5q233 164 488 164q42 0 82 -4l-326 -1532h-294z" />
    <glyph glyph-name="J" unicode="J" horiz-adv-x="1098" 
d="M862 1393q-135 -56 -212 -169.5t-77 -279.5q0 -81 25 -125q4 -8 4 -14q-164 0 -204 105q-15 38 -15 94q0 103 64.5 198.5t166.5 169.5q233 164 488 164h82l-307 -1454q-54 -250 -176.5 -378t-362.5 -128q-148 0 -226 80q-77 80 -77 199.5t67 201.5t168.5 82t137.5 -17
q77 -34 77 -120q0 -37 -12 -82q-57 46 -82.5 49.5t-40.5 3.5q-71 0 -107 -47t-36 -96q0 -82 42.5 -117t86.5 -35q83 0 126 49.5t79 202.5z" />
    <glyph glyph-name="K" unicode="K" horiz-adv-x="1231" 
d="M842 641q0 139 -123 139q-28 0 -68 -8l-164 -772h-294l296 1393q-136 -58 -211 -171t-75 -278q0 -83 23 -125q5 -8 5 -14q-164 0 -205 105q-14 38 -14 94q0 103 64.5 198.5t166.5 169.5q233 164 488 164q42 0 82 -4l-133 -627l450 603l15 18h215l-569 -656l71 2
q205 0 242 -132q12 -40 12 -95q0 -83 -50 -265t-50 -237q0 -113 80 -143q-128 -35 -203 -35q-160 0 -160 137q1 72 54.5 262.5t54.5 276.5z" />
    <glyph glyph-name="L" unicode="L" horiz-adv-x="776" 
d="M489 1370q-136 -55 -211 -167t-75 -279q0 -83 23 -125q5 -8 5 -15q-164 0 -205 105q-14 38 -14 94q0 200 231 368q234 165 488 165q32 0 82 -5l-315 -1470q84 -19 177 -69l149 -81q207 -114 362 -114q94 0 172 33q-16 -146 -72.5 -234t-140.5 -88q-132 0 -313 140
l-234 180q-198 145 -367 145h-23q-11 0 -24 -2z" />
    <glyph glyph-name="M" unicode="M" horiz-adv-x="1612" 
d="M360 805q-219 0 -219 186q0 194 209 371q91 78 208.5 126t214.5 48t175 -29l-47 -1079l451 1079h295l-215 -1507h-295l131 920l-385 -920h-281l41 924l-342 -924h-164l520 1407q-153 -51 -239 -168t-86 -293q0 -88 24 -128q4 -7 4 -13z" />
    <glyph glyph-name="N" unicode="N" horiz-adv-x="1368" 
d="M889 0l-174 1071l-228 -1071h-294l294 1391q-136 -57 -210 -169.5t-74 -277.5q0 -83 23 -125q5 -8 5 -14q-164 0 -205 105q-14 38 -14 95.5t18.5 119.5t53.5 121q76 129 208 209.5t300 80.5q48 0 96.5 -3t93.5 -26l162 -1085l223 1110h295l-325 -1532h-248z" />
    <glyph glyph-name="O" unicode="O" horiz-adv-x="1362" 
d="M858 1536q485 0 485 -524q0 -353 -177 -660q-126 -221 -336 -316q-108 -48 -215.5 -48t-174.5 22q-219 74 -219 389q0 211 79 449q126 384 346 484q61 28 126.5 28t110.5 -17q-89 -53 -176 -227q-126 -249 -169 -552q-14 -94 -14 -173q0 -237 119 -237h2q99 0 198 144
t163.5 363.5t64.5 416t-54 280.5t-208 84q-246 0 -418 -145.5t-172 -381.5q0 -60 10.5 -79.5t10.5 -30.5q-100 0 -153.5 39t-53.5 139t68 201q145 212 447 306q150 46 310 46z" />
    <glyph glyph-name="P" unicode="P" horiz-adv-x="1174" 
d="M193 0l278 1303l303 40l-145 -684q150 14 254 172t104 342t-139 247q-48 22 -115 22q-250 0 -390 -131t-140 -367q0 -83 23 -125q5 -8 5 -14q-164 0 -205 105q-14 38 -14 94q0 103 64.5 198.5t166.5 169.5q233 164 479 164t369 -116t123 -287q0 -98 -40.5 -196
t-117.5 -177q-172 -176 -433 -176h-11l-125 -584h-294z" />
    <glyph glyph-name="Q" unicode="Q" horiz-adv-x="1362" 
d="M858 1536q485 0 485 -524q0 -240 -98.5 -502t-292.5 -404q55 -79 94 -109q73 -56 162 -56q21 0 45 4q-41 -107 -93.5 -141.5t-119.5 -34.5q-120 0 -184 79q-38 47 -78 168q-88 -28 -180 -28q-180 0 -278.5 98.5t-98.5 311t79 450.5q126 384 346 484q61 28 126.5 28
t110.5 -17q-89 -53 -176 -227q-126 -249 -169 -552q-14 -94 -14 -173v-46q0 -21 4 -42q72 19 144.5 19t146.5 -56q106 132 179 364.5t73 441.5v11q0 191 -54 275t-208 84q-246 0 -418 -145.5t-172 -381.5q0 -60 10.5 -79.5t10.5 -30.5q-100 0 -153.5 39t-53.5 139t68 201
q145 212 447 306q150 46 310 46zM721 176q-43 70 -117 70q-27 0 -59 -8q28 -84 98 -84q43 0 78 22z" />
    <glyph glyph-name="R" unicode="R" horiz-adv-x="1231" 
d="M975 858q141 -40 141 -201q0 -95 -50 -277t-50 -237q0 -113 80 -143q-128 -35 -203 -35q-160 0 -160 137q1 72 54.5 262.5t54.5 276.5q0 139 -123 139q-26 0 -68 -8l-164 -772h-294l278 1303l303 40l-100 -473h16q122 0 206.5 115.5t84.5 252t-123 186.5q-42 18 -134 18
t-194 -34t-174 -98q-153 -136 -153 -366q0 -83 23 -125q5 -8 5 -14q-164 0 -205 105q-14 38 -14 94q0 103 64.5 198.5t166.5 169.5q233 164 474.5 164t360 -94.5t118.5 -233.5q0 -95 -57.5 -190.5t-163.5 -159.5z" />
    <glyph glyph-name="S" unicode="S" horiz-adv-x="1167" 
d="M852 1126q92 53 92 190q0 40 -32.5 82t-119 42t-137.5 -46.5t-51 -121.5t20 -120q36 -83 126 -162l84 -76q112 -100 152 -166q79 -133 79 -270q0 -255 -176 -394q-159 -127 -400 -127q-298 0 -399 191q-35 67 -35 156q0 161 92 251t206 90t163 -69q19 -26 21 -66
q-157 0 -218 -103q-22 -37 -22 -83q0 -87 51.5 -145t150.5 -58t165.5 71t66.5 180t-31 179.5t-78 131.5t-101 116.5t-101 112.5q-109 132 -109 257q0 158 136.5 262.5t336.5 104.5q247 0 312 -150q18 -40 18 -113.5t-45 -131.5t-112.5 -58t-104.5 43z" />
    <glyph glyph-name="T" unicode="T" horiz-adv-x="985" 
d="M899 1315l-283 -1315h-294l290 1356h-24q-181 0 -274 -84q-111 -100 -111 -330q0 -83 23 -125q5 -8 5 -14q-164 0 -205 105q-14 38 -14 117t38 175t122 170q185 164 539 164q145 0 230.5 -15t148.5 -23q64 -9 170.5 -9t212.5 43q-10 -260 -256 -260q-93 0 -318 45z" />
    <glyph glyph-name="U" unicode="U" horiz-adv-x="1466" 
d="M1270 1532h289l-136 -639q-78 -381 -160 -561q-98 -215 -263 -292q-118 -54 -258 -54t-215.5 21.5t-122.5 62.5q-87 79 -87 237t51 368l185 742q-169 -45 -266 -164t-97 -307q0 -87 24 -128q5 -7 5 -13q-162 0 -204 100q-15 36 -15 88q0 109 65 207q137 203 420 292
q141 44 289 44q45 0 98 -10l-209 -778q-67 -259 -67 -362t31.5 -151.5t120.5 -48.5t129 30q73 55 127 199.5t129 483.5z" />
    <glyph glyph-name="V" unicode="V" horiz-adv-x="1260" 
d="M541 0l-33 1399q-144 -54 -224.5 -169t-80.5 -286q0 -83 23 -125q5 -8 5 -14q-164 0 -205 105q-14 38 -14 94q0 103 64.5 198.5t166.5 169.5q233 164 488 164q42 0 82 -4l18 -1260l431 1254h143l-569 -1526h-295z" />
    <glyph glyph-name="W" unicode="W" horiz-adv-x="1970" 
d="M1249 0l-24 1042l-389 -1042h-295l-33 1399q-144 -54 -224.5 -169t-80.5 -286q0 -83 23 -125q5 -8 5 -14q-164 0 -205 105q-14 38 -14 94q0 103 64.5 198.5t166.5 169.5q233 164 488 164q42 0 82 -4l18 -1260l431 1254h260l18 -1254l430 1254h144l-570 -1526h-295z" />
    <glyph glyph-name="X" unicode="X" horiz-adv-x="1270" 
d="M805 0l-109 512l-297 -512h-125l385 680l-151 719q-144 -54 -224.5 -169t-80.5 -286q0 -83 23 -125q5 -8 5 -14q-164 0 -205 105q-14 38 -14 94q0 103 64.5 198.5t166.5 169.5q233 164 488 164q42 0 82 -4l88 -426l238 420h143l-344 -596l192 -930h-325z" />
    <glyph glyph-name="Y" unicode="Y" horiz-adv-x="1270" 
d="M569 0l136 631l-197 768q-144 -54 -224.5 -169t-80.5 -286q0 -83 23 -125q5 -8 5 -14q-164 0 -205 105q-14 38 -14 94q0 103 64.5 198.5t166.5 169.5q233 164 488 164q42 0 82 -4l178 -733l303 727h136l-398 -895l-135 -631h-328z" />
    <glyph glyph-name="Z" unicode="Z" horiz-adv-x="1110" 
d="M424 133l197 -4q71 0 131 7.5t82 37.5q-11 0 -24 13.5t-13 48.5q0 61 37 90.5t90 29.5t76.5 -38t23.5 -78q0 -88 -74 -164t-188 -76h-739l716 1425l-184 5q-188 0 -188 -46q10 0 22 -14t12 -50q0 -61 -37.5 -89.5t-90.5 -28.5t-75 38.5t-22 79.5q0 86 67 151t185 65h702z
" />
    <glyph glyph-name="bracketleft" unicode="[" horiz-adv-x="819" 
d="M-49 -512l434 2048h395l-26 -127h-248l-381 -1794h248l-27 -127h-395z" />
    <glyph glyph-name="backslash" unicode="\" horiz-adv-x="741" 
d="M520 -512l-434 2048h147l435 -2048h-148z" />
    <glyph glyph-name="bracketright" unicode="]" horiz-adv-x="819" 
d="M-49 -512l26 127h248l381 1794h-248l27 127h395l-434 -2048h-395z" />
    <glyph glyph-name="asciicircum" unicode="^" horiz-adv-x="862" 
d="M637 1149l-123 164l-321 -164h-91l435 387h43l122 -387h-65z" />
    <glyph glyph-name="underscore" unicode="_" horiz-adv-x="909" 
d="M74 0l37 162h716l-34 -162h-719z" />
    <glyph glyph-name="grave" unicode="`" horiz-adv-x="412" 
d="M170 1149l-121 387h215l60 -387h-154z" />
    <glyph glyph-name="a" unicode="a" horiz-adv-x="1077" 
d="M1163 367q-130 -379 -411 -379q-181 0 -201 188q-134 -188 -312.5 -188t-242.5 175q-23 63 -23 143.5t14 161t43 160.5q64 176 183 291t287 115q88 0 127 -29.5t39 -74.5v-15l22 109h295l-147 -696q-9 -35 -9 -66q0 -88 84 -88q109 0 166 193h86zM647 829
q0 19 -17.5 48.5t-74.5 29.5t-111 -61q-130 -147 -163 -422q-5 -42 -5 -89q0 -91 38 -127q22 -22 55 -22q61 0 111 48.5t69 132.5z" />
    <glyph glyph-name="b" unicode="b" horiz-adv-x="909" 
d="M592 1030q242 0 242 -350q0 -236 -118 -436q-92 -156 -251 -222q-84 -34 -209.5 -34t-197.5 69t-72 193q0 55 14 117l219 1026l303 41l-98 -461q92 57 168 57zM285 328q-6 -26 -6 -47q0 -95 108 -95q90 0 170 170q70 159 70 311t-61 201q-21 17 -40 17q-39 0 -76 -9.5
t-53 -27.5z" />
    <glyph glyph-name="c" unicode="c" horiz-adv-x="786" 
d="M506 1042q246 0 246 -186q0 -78 -32 -114.5t-72 -36.5t-77 24q25 66 25 121q0 84 -58.5 84t-123.5 -106q-93 -150 -128 -373q-10 -67 -10 -147q0 -148 141 -148q118 0 198.5 52.5t170.5 154.5h70q-230 -379 -563 -379q-146 0 -233 75.5t-87 249.5q0 235 119 454
q90 165 247 237q81 38 167 38z" />
    <glyph glyph-name="d" unicode="d" horiz-adv-x="1075" 
d="M549 176q-124 -188 -306.5 -188t-246.5 175q-23 63 -23 143.5t14 161t43 160.5q64 176 183 291t287 115q88 0 127 -29.5t39 -74.5v-8l100 471l303 41l-235 -1106q-9 -35 -9 -72q0 -70 84 -70q115 0 166 181h86q-128 -367 -411 -367q-177 0 -201 176zM276 335
q0 -149 102 -149q43 0 95.5 41.5t73.5 128.5v11l100 469q-19 71 -84 71t-119 -61q-130 -147 -163 -422q-5 -42 -5 -89z" />
    <glyph glyph-name="e" unicode="e" horiz-adv-x="786" 
d="M856 367q-230 -379 -563 -379q-146 0 -233 75.5t-87 249.5q0 234 119 453q91 167 248 238q81 38 168 38q142 0 193 -53.5t51 -142.5q0 -175 -141 -297.5t-330 -134.5q-5 -58 -5 -82q0 -105 37 -138.5t104 -33.5q118 0 198.5 52.5t170.5 154.5h70zM594 860q0 74 -51 74
q-75 -2 -145 -132.5t-101 -289.5q118 8 207.5 110t89.5 238z" />
    <glyph glyph-name="f" unicode="f" horiz-adv-x="547" 
d="M686 1229q4 32 4 61t-23.5 46.5t-46.5 17.5q-50 0 -91.5 -38.5t-59.5 -129.5l-35 -162h150l-15 -82h-151l-236 -1106q-70 -348 -366 -348q-95 0 -168.5 62.5t-73.5 145.5t28 132t76 84q70 49 248 104l248 1170q73 348 373 348q95 0 168 -62t73 -159q0 -47 -6 -84h-96z
M-88 -51q-109 -38 -150 -71q-75 -62 -75 -140q0 -40 49 -62q15 -6 40.5 -6t57.5 35t51 125z" />
    <glyph glyph-name="g" unicode="g" horiz-adv-x="1038" 
d="M492 100q-107 -112 -246 -112q-186 0 -250 175q-23 63 -23 143.5t14 161t43 160.5q64 176 183 291t287 115q88 0 127 -29.5t39 -74.5v-12l22 106h295l-203 -950q93 31 153.5 94.5t104.5 198.5h86q-78 -264 -264 -348q-51 -23 -98 -35l-31 -148q-39 -197 -156 -284
q-86 -64 -197 -64t-178 49t-67 157q0 187 334 298zM647 831q0 46 -43 67q-16 9 -41 9q-65 0 -119 -61q-130 -147 -163 -422q-5 -42 -5 -89q0 -91 38 -127q22 -22 54 -22q57 0 106 43.5t69 116.5zM446 -111q-200 -72 -200 -174q0 -41 39 -61q13 -6 38 -6t58 44.5t53 137.5z
" />
    <glyph glyph-name="h" unicode="h" 
d="M780 274q0 -88 75 -88q69 0 106 44t73 137h86q-119 -345 -322 -375q-32 -4 -79 -4t-93 20q-128 54 -128 211q0 84 46 268t46 254q0 105 -74 105t-132 -117q-17 -33 -28 -72l-139 -657h-295l297 1393l303 41l-110 -516q100 114 239 114q98 0 163 -54t65 -160t-34 -240
l-49 -198q-16 -65 -16 -106z" />
    <glyph glyph-name="i" unicode="i" horiz-adv-x="547" 
d="M506 1296q0 -68 -48.5 -114.5t-116 -46.5t-114.5 47t-47 114t46.5 115.5t115 48.5t116.5 -48t48 -116zM633 367q-132 -379 -441 -379q-81 0 -145 58q-63 58 -63 187q0 58 16 134l139 657h295l-147 -696q-8 -37 -8 -73q0 -69 83 -69q60 0 111.5 52t73.5 129h86z" />
    <glyph glyph-name="j" unicode="j" horiz-adv-x="492" 
d="M184 -164q-39 -197 -156 -284q-86 -64 -196.5 -64t-178 49.5t-67.5 149.5q0 166 218 260q60 26 118 45l219 1032h295l-203 -950q95 32 155 95t104 198h86q-80 -263 -264 -347q-51 -24 -99 -36zM489 1298q0 -68 -48.5 -114.5t-115.5 -46.5t-114 47t-47 114t46.5 115.5
t114.5 48.5t116 -48t48 -116zM-100 -111q-201 -70 -201 -174q0 -41 39 -61q13 -6 38 -6t58 44.5t53 137.5z" />
    <glyph glyph-name="k" unicode="k" horiz-adv-x="1061" 
d="M1147 367q-128 -379 -377 -379q-128 0 -193 60.5t-65 172.5q0 47 12 107l17 80q8 43 8 75q0 99 -74 99q-58 0 -151 -76l-107 -506h-295l297 1393l303 41l-153 -721l395 311h203l-410 -285q36 9 68 9q113 0 169 -71t56 -169q0 -36 -8 -78l-23 -102q-10 -42 -10 -66
q0 -76 83 -76t136 108q16 33 33 73h86z" />
    <glyph glyph-name="l" unicode="l" horiz-adv-x="547" 
d="M633 367q-132 -379 -441 -379q-81 0 -145 58q-63 58 -63 187q0 58 16 134l219 1026l303 41l-235 -1106q-8 -37 -8 -73q0 -69 83 -69q60 0 111.5 52t73.5 129h86z" />
    <glyph glyph-name="m" unicode="m" horiz-adv-x="1540" 
d="M1266 -12q-262 0 -262 231q0 84 46 268t46 254q0 105 -74 105t-132 -117q-17 -33 -28 -72l-139 -657h-295l150 707q6 24 6 51q0 90 -60.5 90t-103 -56.5t-64.5 -134.5l-139 -657h-295l217 1024h295l-22 -106q102 116 250 116q181 0 210 -176q113 174 285 174
q97 0 162 -54t65 -158t-34 -240l-48 -200q-16 -65 -16 -106q0 -88 75 -88q69 0 106 44t73 137h86q-76 -226 -192 -317q-80 -62 -168 -62z" />
    <glyph glyph-name="n" unicode="n" 
d="M780 274q0 -88 75 -88q69 0 106 44t73 137h86q-119 -345 -322 -375q-32 -4 -79 -4t-93 20q-128 54 -128 211q0 84 46 268t46 254q0 105 -74 105t-132 -117q-17 -33 -28 -72l-139 -657h-295l217 1024h295l-22 -106q100 114 239 114q98 0 163 -54t65 -160t-34 -240
l-49 -198q-16 -65 -16 -106z" />
    <glyph glyph-name="o" unicode="o" horiz-adv-x="899" 
d="M1151 778q-124 -130 -363 -170q-24 -280 -161 -448t-328 -168q-236 0 -304 174q-24 61 -24 135t12.5 150.5t39.5 157.5q61 183 177 297q138 136 332 136q263 0 263 -327v-2q10 -2 34 -2q55 0 141.5 35t162.5 88zM618 602q-55 14 -55 91t64 106q-4 65 -20.5 92t-64.5 27
q-94 0 -180 -207.5t-86 -368.5q0 -99 18 -125.5t38 -33.5t54 -7q70 0 139 123t93 303z" />
    <glyph glyph-name="p" unicode="p" horiz-adv-x="958" 
d="M229 61l-106 -499l-309 -74l342 1612h295l-33 -154q102 88 239 88q177 0 231 -170q19 -62 19 -142.5t-9.5 -161t-32.5 -161t-60.5 -154.5t-93.5 -131.5t-132.5 -91.5t-191 -34t-158.5 73zM627 717q0 170 -103 170q-35 0 -73.5 -25t-67.5 -76l-121 -573q18 -47 87.5 -47
t124.5 58q107 114 138 326q15 94 15 167z" />
    <glyph glyph-name="q" unicode="q" horiz-adv-x="995" 
d="M489 100q-105 -112 -243 -112q-186 0 -250 175q-23 63 -23 143.5t14 161t43 160.5q64 176 183 291t287 115q88 0 127 -29.5t39 -74.5v-4l20 98h295l-311 -1462l-310 -74zM276 335q0 -149 102 -149q43 0 89.5 37.5t71.5 108.5l108 506q-5 18 -22 43.5t-72 25.5t-109 -61
q-130 -147 -163 -422q-5 -42 -5 -89z" />
    <glyph glyph-name="r" unicode="r" horiz-adv-x="770" 
d="M-78 0l217 1024h295l-26 -127q51 45 112.5 86t133 41t107.5 -47t36 -90q0 -74 -39.5 -120t-95.5 -46t-74 25.5t-22 52t-10.5 42t-27.5 15.5q-42 0 -74 -19.5t-73 -58.5l-164 -778h-295z" />
    <glyph glyph-name="s" unicode="s" horiz-adv-x="782" 
d="M868 367q-127 -148 -313 -256q-116 -123 -322 -123q-144 0 -221.5 78.5t-77.5 167t34 137.5t75 69q144 258 252 607l303 40q8 -192 16 -321l25 -325q4 -48 4 -95t-8 -82q90 52 147 103h86zM150 150q196 0 196 190q0 53 -8 125l-12 117q-11 112 -19 243
q-52 -168 -166 -387q47 -22 47 -65.5t-24.5 -75t-66 -31.5t-54.5 27q0 -143 107 -143z" />
    <glyph glyph-name="t" unicode="t" horiz-adv-x="547" 
d="M633 367q-132 -379 -441 -379q-81 0 -145 58q-63 58 -63 187q0 58 16 134l123 575h-68l17 82h67l62 283l303 41l-70 -324h123l-16 -82h-123l-131 -614q-8 -37 -8 -73q0 -69 83 -69q60 0 111.5 52t73.5 129h86z" />
    <glyph glyph-name="u" unicode="u" 
d="M1120 367q-130 -379 -411 -379q-183 0 -203 194q-120 -194 -303 -194q-92 0 -156 58q-63 58 -63 187q0 58 16 134l139 657h295l-147 -696q-6 -32 -6 -58q0 -84 61 -84q108 0 164 181l139 657h295l-147 -696q-9 -35 -9 -72q0 -70 84 -70q115 0 166 181h86z" />
    <glyph glyph-name="v" unicode="v" horiz-adv-x="848" 
d="M276 254q0 -68 70 -68q95 0 181 128q116 171 161 428q12 72 12 128q-5 -11 -29 -15l-21 -4q-9 -1 -15 -1q-36 0 -55 34.5t-19 75.5t31 73t82 32q81 0 112 -51.5t31 -130t-14 -177t-44 -198.5q-67 -225 -199.5 -372.5t-326.5 -147.5q-116 0 -183.5 59t-67.5 182
q0 51 10 99l147 696h295l-147 -696q-11 -49 -11 -74z" />
    <glyph glyph-name="w" unicode="w" horiz-adv-x="1354" 
d="M281 276q0 -90 61 -90q108 0 164 181l139 657h295l-147 -696q-11 -49 -11 -74q0 -68 70 -68q95 0 181 128q116 171 161 428q12 72 12 128q-5 -11 -29 -15l-21 -4q-9 -1 -15 -1q-36 0 -55 34.5t-19 76t30.5 73t82.5 31.5q81 0 112 -51.5t31 -130t-14 -177t-44 -198.5
q-67 -225 -188 -360q-144 -160 -345.5 -160t-237.5 172q-114 -172 -291 -172q-92 0 -156 58q-63 58 -63 187q0 58 16 134l139 657h295l-147 -696q-6 -26 -6 -52z" />
    <glyph glyph-name="x" unicode="x" horiz-adv-x="1069" 
d="M866 926q-96 0 -96 114q0 54 42 77.5t84 23.5q66 0 97 -56t31 -117.5t-18 -107.5q-33 -88 -142 -212l-125 -140l19 -143q12 -98 35 -129.5t44 -40.5t48 -9q59 0 110 51t74 130h86q-76 -214 -205 -309q-95 -70 -205 -70h-8q-193 0 -250 356l-282 -344h-148l414 467
l-33 229q-17 104 -33.5 137t-45.5 33q-65 0 -143.5 -130.5t-129.5 -368.5h-86q49 214 91 306t71 141q64 103 143 161.5t160 58.5t121.5 -23.5t73 -71t45.5 -148.5l18 -156q171 191 178 295q-17 -4 -35 -4z" />
    <glyph glyph-name="y" unicode="y" horiz-adv-x="995" 
d="M281 276q0 -90 58.5 -90t99.5 48q40 49 63 120l143 670h295l-203 -950q93 31 153.5 94.5t104.5 198.5h86q-78 -264 -264 -348q-51 -23 -98 -35l-31 -148q-39 -197 -156 -284q-86 -64 -197 -64t-178 49t-67 157q0 187 334 298l25 110q-106 -114 -246 -114q-92 0 -156 58
q-63 58 -63 187q0 58 16 134l139 657h295l-147 -696q-6 -26 -6 -52zM403 -111q-200 -72 -200 -174q0 -41 39 -61q13 -6 38 -6t58 44.5t53 137.5z" />
    <glyph glyph-name="z" unicode="z" horiz-adv-x="877" 
d="M702 317q91 0 91 -98q0 -79 -70 -149t-180 -70h-543l522 913h-114q-48 0 -80.5 -5t-32.5 -27q0 -5 3.5 -6t11 -6.5t7.5 -48t-34.5 -68t-64.5 -25.5q-49 0 -77 24t-28 61q0 79 68 145.5t169 66.5h527l-502 -866q13 -1 31 -3l39 -5q46 -5 84 -5q91 0 98 41q-39 4 -39 43
q0 30 28 59t86 29z" />
    <glyph glyph-name="braceleft" unicode="{" horiz-adv-x="721" 
d="M197 -254q0 -164 174 -164l-19 -92h-18q-103 0 -149 14.5t-85 72t-39 133t30 152.5t70 158l80 166q66 140 66 217q0 64 -84 64q-26 0 -65 -6l24 117q35 -7 74 -7q75 0 108 77q19 49 19 151l-14 325q0 142 72 264q87 148 255 148h88l-18 -102q-107 0 -138 -18t-48 -36
q-56 -61 -74.5 -129.5t-20.5 -152.5l13 -350q-7 -165 -82 -228q24 -29 24 -84.5t-28 -123.5l-101 -220q-114 -234 -114 -346z" />
    <glyph glyph-name="bar" unicode="|" horiz-adv-x="1090" 
d="M449 -512v2050h190v-2050h-190z" />
    <glyph glyph-name="braceright" unicode="}" horiz-adv-x="721" 
d="M463 227l14 -325q0 -142 -72 -264q-87 -148 -255 -148h-89l19 102q104 0 136 18q138 78 144 318l-12 351q7 164 82 227q-24 28 -24 85.5t43 156.5t83.5 183.5t78.5 178t38 170.5q0 164 -174 164l19 92h18q101 0 148 -13.5t85.5 -71t38.5 -122t-14 -115.5
q-25 -91 -86 -208l-54 -110q-91 -192 -91 -273q0 -64 84 -64q24 0 65 6l-24 -116q-38 6 -76 6q-73 0 -106 -77q-19 -49 -19 -151z" />
    <glyph glyph-name="asciitilde" unicode="~" horiz-adv-x="883" 
d="M780 1325q82 0 129 47l13 -2q-19 -76 -118 -140q-100 -65 -190 -65q-91 0 -167 26t-116 38t-83 12q-77 0 -135 -53l-13 4q104 201 342 201q82 0 150.5 -23.5t106 -34t81.5 -10.5z" />
    <glyph glyph-name="afii10023" unicode="&#x401;" horiz-adv-x="940" 
d="M393 854q-125 91 -125 251t130 297.5t319 137.5q127 0 210 -66.5t83 -174t-45 -168t-104 -60.5t-99 55q36 14 63 68t27 113.5t-36 85.5q-37 26 -80 26q-86 0 -146 -88.5t-60 -200.5q0 -154 112 -232q40 -28 95 -42q-156 -34 -261 -187t-105 -302q0 -86 45 -146.5
t148 -60.5t213.5 55t166.5 154l47 -21q-81 -178 -246.5 -281.5t-353 -103.5t-282.5 103.5t-95 265.5t105 321t274 201zM624 1686q-96 0 -128 74q-9 23 -9 62.5t36 76t88.5 36.5t89 -36.5t36.5 -89t-37 -88t-76 -35.5zM1069 1721q-38 -35 -77 -35q-64 0 -100 35t-36 88
t36 89.5t88 36.5t89 -36.5t37 -89t-37 -88.5z" />
    <glyph glyph-name="afii10051" unicode="&#x402;" horiz-adv-x="1485" 
d="M569 -182q42 -45 107 -45q107 0 184 125q91 148 158 469q35 167 35 255.5t-33 118t-96.5 29.5t-141.5 -55l-153 -715h-295l291 1356h-25q-181 0 -274 -84q-111 -100 -111 -330q0 -81 25 -125q4 -8 4 -14q-166 0 -205 105q-14 38 -14 117t38 175t121 170q184 164 539 164
q145 0 230.5 -15t149 -23.5t170 -8.5t212.5 43q-4 -136 -68 -198t-172.5 -62t-333.5 45l-100 -463q124 78 287 78t222 -162q21 -55 21 -157t-43 -282q-152 -638 -458 -737q-48 -16 -106 -16q-116 0 -163 78q-23 37 -23 78t21 86z" />
    <glyph glyph-name="afii10052" unicode="&#x403;" horiz-adv-x="877" 
d="M768 1331l-287 -1331h-295l295 1368q-132 -4 -199 -97t-67 -327q0 -81 25 -125q4 -8 4 -14q-166 0 -205 105q-14 38 -14 100t15 128t50 125q76 127 234 200t411 73q71 0 162.5 -12.5t200 -12.5t188.5 25q-8 -22 -14 -48.5t-14.5 -53.5t-21.5 -53t-33 -46t-49.5 -32.5
t-107.5 -12.5t-278 41zM754 1661l186 387h215l-248 -387h-153z" />
    <glyph glyph-name="afii10053" unicode="&#x404;" horiz-adv-x="1018" 
d="M406 770q-27 -150 -27 -254t10.5 -162.5t38.5 -100.5q58 -89 188 -89q256 0 408 205l47 -21q-98 -248 -373 -344q-108 -38 -212 -38h-6q-227 2 -334 118t-107 373t85 513q99 302 292 452q148 114 338 114q238 0 315 -149q27 -52 27 -125q0 -189 -144 -189q-72 0 -116 53
q37 20 65.5 75t28.5 109.5t-28.5 92t-90.5 37.5q-112 0 -210.5 -147t-160.5 -371h391l-32 -152h-393z" />
    <glyph glyph-name="afii10054" unicode="&#x405;" horiz-adv-x="1112" 
d="M797 1126q63 36 85 125q7 26 7 65.5t-33 81.5t-119.5 42t-137 -46.5t-50.5 -121.5t20 -120q35 -81 125 -162l86 -76q111 -100 151 -166q79 -133 79 -270q0 -255 -168.5 -388t-407.5 -133q-298 0 -399 191q-35 67 -35 156q0 160 91.5 250.5t205.5 90.5t163 -69
q19 -26 21 -66q-158 0 -217 -103q-22 -37 -22 -83q0 -88 51 -145.5t150.5 -57.5t166 71t66.5 180t-31 179.5t-78 131.5t-101 116.5t-101 112.5q-109 132 -109 257q0 158 136.5 262.5t336.5 104.5q247 0 313 -150q17 -40 17 -113.5t-45 -131.5t-112.5 -58t-104.5 43z" />
    <glyph glyph-name="afii10055" unicode="&#x406;" horiz-adv-x="766" 
d="M205 0l297 1391q-135 -56 -211 -168.5t-76 -278.5q0 -81 25 -125q4 -8 4 -14q-166 0 -205 105q-14 38 -14 94q0 103 65 198q131 195 396 289q127 45 257 45q42 0 82 -4l-325 -1532h-295z" />
    <glyph glyph-name="afii10056" unicode="&#x407;" horiz-adv-x="766" 
d="M205 0l297 1391q-135 -56 -211 -168.5t-76 -278.5q0 -81 25 -125q4 -8 4 -14q-166 0 -205 105q-14 38 -14 94q0 103 65 198q131 195 396 289q127 45 257 45q42 0 82 -4l-325 -1532h-295zM979 1721q-38 -35 -77 -35q-64 0 -100 35t-36 88t36 89.5t88 36.5t89 -36.5t37 -89
t-37 -88.5zM610 1721q-38 -35 -76 -35q-65 0 -101 35t-36 88t36 89.5t88 36.5t89 -36.5t37 -89t-37 -88.5z" />
    <glyph glyph-name="afii10057" unicode="&#x408;" horiz-adv-x="926" 
d="M274 -80q-61 53 -127.5 53t-102.5 -47t-36 -96q0 -81 43 -116.5t87 -35.5q83 0 126.5 50.5t77.5 201.5l322 1463q-136 -56 -212.5 -169.5t-76.5 -279.5q0 -83 23 -125q5 -8 5 -14q-164 0 -205 105q-14 38 -14 94q0 103 64.5 198.5t166.5 169.5q233 164 488 164h82
l-307 -1454q-54 -250 -176.5 -378t-362.5 -128q-147 0 -225 79.5t-78 199.5t67 202t169 82t138 -17q77 -34 77 -120q0 -39 -13 -82z" />
    <glyph glyph-name="afii10058" unicode="&#x409;" horiz-adv-x="1673" 
d="M1317 520q0 252 -195 252q-54 0 -100 -22l-160 -750h-295l295 1391q-177 -96 -386 -523q-144 -292 -218 -568.5t-74 -384t29 -148.5q-121 0 -170 25q-104 52 -104 192q0 214 161 562.5t356 595.5q311 394 566 394q104 0 162 -29l-140 -651q106 37 203 37q179 0 267 -104
t88 -281.5t-103 -343.5q-52 -84 -135.5 -141.5t-209 -57.5t-176.5 81q-24 38 -24 87t23 103q58 -74 125.5 -74t105.5 34q109 96 109 324z" />
    <glyph glyph-name="afii10059" unicode="&#x40a;" horiz-adv-x="1907" 
d="M1550 520q0 252 -194 252q-55 0 -101 -22l-159 -750h-295l164 770h-301l-164 -770h-295l297 1393q-136 -58 -211.5 -171t-75.5 -278q0 -81 25 -125q4 -8 4 -14q-166 0 -205 105q-14 38 -14 94q0 103 65 198q131 195 396 289q127 45 257 45q42 0 82 -4l-131 -610h301
l131 610h295l-143 -676q123 37 212 37q169 0 257 -103t88 -276q0 -78 -24.5 -172t-78 -178.5t-136.5 -141.5t-176 -57q-158 0 -208 81q-24 40 -24 87.5t22 102.5q58 -74 126 -74t106.5 34t73 109.5t34.5 214.5z" />
    <glyph glyph-name="afii10060" unicode="&#x40b;" horiz-adv-x="1526" 
d="M1053 627q0 143 -114 143q-79 0 -157 -55l-153 -715h-295l291 1356h-25q-181 0 -274 -84q-111 -100 -111 -330q0 -81 25 -125q4 -8 4 -14q-166 0 -205 105q-14 38 -14 117t38 175t121 170q184 164 539 164q145 0 230.5 -15t149 -23.5t170 -8.5t212.5 43q-4 -136 -68 -198
t-172.5 -62t-333.5 45l-100 -463q122 78 287 78t223 -162q20 -55 20 -148.5t-40.5 -255.5t-40.5 -220q0 -113 79 -144q-128 -35 -215 -35q-159 0 -159 137q0 77 59 322q5 23 10 50l9 58q10 62 10 95z" />
    <glyph glyph-name="afii10061" unicode="&#x40c;" horiz-adv-x="1300" 
d="M918 -35q-173 0 -173 132q1 81 54.5 269.5t54.5 274.5q0 139 -123 139q-27 0 -67 -8l-164 -772h-295l297 1393q-136 -58 -211.5 -171t-75.5 -278q0 -81 25 -125q4 -8 4 -14q-166 0 -205 105q-14 38 -14 94q0 103 65 198q131 195 396 289q127 45 257 45q42 0 82 -4
l-131 -612q64 184 181 351t205.5 216t157.5 49t101 -26q56 -45 56 -98q0 -87 -39.5 -122t-93.5 -35q-88 0 -121 82q-194 -115 -353 -467q25 2 46 2h40q205 0 242 -132q12 -40 12 -95q0 -83 -50 -265t-50 -237q0 -113 80 -143q-128 -35 -190 -35zM864 1661l186 387h215
l-248 -387h-153z" />
    <glyph glyph-name="uni00AD" unicode="&#xad;" horiz-adv-x="594" 
d="M39 455l37 161h409l-34 -161h-412z" />
    <glyph glyph-name="afii10062" unicode="&#x40e;" horiz-adv-x="1319" 
d="M690 164q71 28 123 151l-293 1084q-144 -54 -224.5 -169t-80.5 -286q0 -81 25 -125q4 -8 4 -14q-166 0 -205 105q-14 38 -14 94q0 103 65 198q131 195 396 289q127 45 257 45q42 0 82 -4l179 -768l323 762h135l-512 -1211q-60 -138 -111 -198q-108 -127 -238.5 -127
t-167.5 90q-11 27 -11 77.5t37 89t97 38.5q117 0 134 -121zM897 1964q127 0 127 -117q0 -59 -49 -92q32 -8 76 -8q97 0 175 51q97 61 146 189h86q-96 -279 -301 -333q-63 -16 -131 -16q-128 0 -197 47.5t-69 121.5t36.5 115.5t100.5 41.5z" />
    <glyph glyph-name="afii10145" unicode="&#x40f;" horiz-adv-x="1362" 
d="M410 -424l92 424h-297l297 1393q-136 -58 -211.5 -171t-75.5 -278q0 -81 25 -125q4 -8 4 -14q-166 0 -205 105q-14 38 -14 94q0 103 65 198q131 195 396 289q127 45 257 45q42 0 82 -4l-295 -1380h301l295 1380h295l-325 -1532h-299l-90 -424h-297z" />
    <glyph glyph-name="afii10017" unicode="&#x410;" horiz-adv-x="1319" 
d="M399 70q-20 -109 -20 -187.5t29 -115.5q-122 0 -171 25q-104 52 -104 192q0 212 179 596q55 120 122 237q-96 -6 -157.5 -29.5t-81.5 -76.5q8 0 17 -20.5t9 -50.5t-33.5 -51.5t-84 -21.5t-87 30t-36.5 85q0 107 118 182q120 74 299 74q41 0 107 -6q265 419 530 556
q93 48 187 48t157 -29l-321 -1507h-295l158 743q-138 62 -275 74q-184 -407 -246 -747zM688 905q138 -26 250 -71l119 557q-176 -96 -369 -486z" />
    <glyph glyph-name="afii10018" unicode="&#x411;" horiz-adv-x="1319" 
d="M936 520q0 252 -195 252q-50 0 -98 -20l-162 -752h-295l295 1368q-129 -4 -197.5 -98t-68.5 -326q0 -81 25 -125q4 -8 4 -14q-166 0 -205 105q-14 38 -14 117t38 175t121 170q184 164 539 164q31 0 77 -4l100 -8q148 -13 240 -13t169 25l-15 -74q-19 -98 -83 -146
q-36 -26 -97 -26q-136 0 -346 41l-102 -475q123 37 210 37q170 0 257.5 -104t87.5 -281.5t-103 -343.5q-52 -84 -135.5 -141.5t-209.5 -57.5t-176 81q-24 40 -24 87.5t23 102.5q58 -74 125.5 -74t106.5 34q108 96 108 324z" />
    <glyph glyph-name="afii10019" unicode="&#x412;" horiz-adv-x="1313" 
d="M956 530q0 261 -194 261q-45 0 -94 -7l-168 -784h-295l278 1303l303 40l-96 -454h12q118 0 206.5 106t88.5 226q0 150 -145 203q-52 18 -118.5 18t-128 -13.5t-117.5 -40.5q-125 -61 -199 -173.5t-74 -270.5q0 -81 25 -125q4 -8 4 -14q-162 0 -204 100q-15 36 -15 88
q0 108 61 204.5t164 172.5q229 166 518 166q214 0 325 -94.5t111 -231.5q0 -92 -52 -180t-153 -145q124 -25 183 -115t59 -215q0 -73 -21 -175q-48 -226 -212 -351q-85 -64 -217.5 -64t-180.5 75q-20 30 -20 78.5t26 117.5q69 -74 132 -74q108 0 163 126q45 102 45 242z" />
    <glyph glyph-name="afii10020" unicode="&#x413;" horiz-adv-x="877" 
d="M768 1331l-287 -1331h-295l295 1368q-132 -4 -199 -97t-67 -327q0 -81 25 -125q4 -8 4 -14q-166 0 -205 105q-14 38 -14 100t15 128t50 125q76 127 234 200t411 73q71 0 162.5 -12.5t200 -12.5t188.5 25q-8 -22 -14 -48.5t-14.5 -53.5t-21.5 -53t-33 -46t-49.5 -32.5
t-107.5 -12.5t-278 41z" />
    <glyph glyph-name="afii10021" unicode="&#x414;" horiz-adv-x="1370" 
d="M489 102q-100 -157 -299 -157q-96 0 -168.5 62.5t-72.5 170.5t78.5 181t187.5 73q44 0 76 -16l192 887l303 40l-223 -1050q-14 -63 -26 -96q48 -43 130.5 -43t154.5 82q138 156 201 503q28 158 28 289q0 226 -83 326q-76 88 -204 88q-248 0 -398.5 -135t-150.5 -363
q0 -81 25 -125q4 -8 4 -14q-103 0 -161 43t-58 147v5q0 136 105 260q162 193 456 256q97 20 223 20t230 -48q294 -136 294 -542q0 -178 -47 -352q-97 -365 -304 -535q-104 -86 -216 -86q-155 0 -277 129zM274 338q-35 20 -62 20q-57 0 -104 -48.5t-47 -114.5q0 -31 24 -49.5
t57 -18.5t68.5 34t53.5 126z" />
    <glyph glyph-name="afii10022" unicode="&#x415;" horiz-adv-x="940" 
d="M393 854q-125 91 -125 251t130 297.5t319 137.5q127 0 210 -66.5t83 -174t-45 -168t-104 -60.5t-99 55q36 14 63 68t27 113.5t-36 85.5q-37 26 -80 26q-86 0 -146 -88.5t-60 -200.5q0 -154 112 -232q40 -28 95 -42q-156 -34 -261 -187t-105 -302q0 -86 45 -146.5
t148 -60.5t213.5 55t166.5 154l47 -21q-81 -178 -246.5 -281.5t-353 -103.5t-282.5 103.5t-95 265.5t105 321t274 201z" />
    <glyph glyph-name="afii10024" unicode="&#x416;" horiz-adv-x="1591" 
d="M1155 608q0 140 -123 140q-39 0 -74 -7l-157 -741h-295l158 745q-13 3 -25 3h-37q-77 0 -129 -53t-70 -119q-26 -95 -46 -228l-15 -102q-25 -162 -74.5 -221.5t-154.5 -59.5t-207 35q138 73 179 354q21 146 43 211q45 132 120 199q88 88 276 88h6q4 65 4 140t-9 152
q-14 125 -91 193q-43 -82 -127 -82t-111 75q-8 23 -8 58q0 70 57.5 109t135 39t127.5 -36.5t81 -95.5q69 -131 69 -362q0 -98 -15 -198q21 0 41 -4l135 628l307 64l-147 -692q24 4 47 4q47 219 146 403t216 247q80 42 132 42q86 0 130 -35.5t44 -88.5q0 -87 -39.5 -122
t-93.5 -35q-88 0 -121 82q-138 -80 -234 -329l-59 -156h29q202 0 242 -132q12 -40 12 -96q0 -75 -50 -256l-35 -125q-16 -60 -16 -108t21.5 -84.5t58.5 -50.5q-128 -35 -203 -35q-159 0 -159 137q0 67 37 193.5t53.5 193t17.5 119.5z" />
    <glyph glyph-name="afii10025" unicode="&#x417;" horiz-adv-x="1075" 
d="M184 227q0 -139 178 -139q56 0 110 37t91 97q74 122 74 292q0 199 -135 242q-44 14 -101 14h-86l33 152h74q129 2 207 104t78 195q0 178 -160 178q-192 0 -314 -236l-47 21q45 171 169.5 260.5t302 89.5t267 -88.5t89.5 -235.5q0 -186 -178 -297q-57 -35 -129 -59
q264 -78 264 -321.5t-167 -406.5t-442 -163q-172 0 -277 69.5t-105 211.5q0 84 48 134t106.5 50t84 -14.5t41.5 -38.5q-76 -45 -76 -148z" />
    <glyph glyph-name="afii10026" unicode="&#x418;" horiz-adv-x="1444" 
d="M883 0l223 1053l-606 -1053h-295l297 1393q-136 -58 -211.5 -171t-75.5 -278q0 -81 25 -125q4 -8 4 -14q-166 0 -205 105q-14 38 -14 94q0 103 65 198q131 195 396 289q127 45 257 45q42 0 82 -4l-231 -1090l614 1090h295l-325 -1532h-295z" />
    <glyph glyph-name="afii10027" unicode="&#x419;" horiz-adv-x="1444" 
d="M883 0l223 1053l-606 -1053h-295l297 1393q-136 -58 -211.5 -171t-75.5 -278q0 -81 25 -125q4 -8 4 -14q-166 0 -205 105q-14 38 -14 94q0 103 65 198q131 195 396 289q127 45 257 45q42 0 82 -4l-231 -1090l614 1090h295l-325 -1532h-295zM885 1964q127 0 127 -117
q0 -59 -49 -92q32 -8 76 -8q97 0 175 51q97 61 146 189h86q-96 -279 -301 -333q-63 -16 -131 -16q-128 0 -197 47.5t-69 121.5t36.5 115.5t100.5 41.5z" />
    <glyph glyph-name="afii10028" unicode="&#x41a;" horiz-adv-x="1300" 
d="M918 -35q-173 0 -173 132q1 81 54.5 269.5t54.5 274.5q0 139 -123 139q-27 0 -67 -8l-164 -772h-295l297 1393q-136 -58 -211.5 -171t-75.5 -278q0 -81 25 -125q4 -8 4 -14q-166 0 -205 105q-14 38 -14 94q0 103 65 198q131 195 396 289q127 45 257 45q42 0 82 -4
l-131 -612q64 184 181 351t205.5 216t157.5 49t101 -26q56 -45 56 -98q0 -87 -39.5 -122t-93.5 -35q-88 0 -121 82q-194 -115 -353 -467q25 2 46 2h40q205 0 242 -132q12 -40 12 -95q0 -83 -50 -265t-50 -237q0 -113 80 -143q-128 -35 -190 -35z" />
    <glyph glyph-name="afii10029" unicode="&#x41b;" horiz-adv-x="1124" 
d="M184 -120q0 -72 29 -113q-121 0 -170 25q-104 52 -104 192q0 214 161 562.5t356 595.5q311 394 566 394q104 0 162 -29l-322 -1507h-295l295 1391q-177 -96 -386 -523q-144 -292 -218 -568.5t-74 -419.5z" />
    <glyph glyph-name="afii10030" unicode="&#x41c;" horiz-adv-x="1667" 
d="M360 805q-219 0 -219 186q0 194 209 371q91 78 208.5 126t214.5 48t175 -29l-47 -1079l451 1079h295l-215 -1507h-295l131 920l-385 -920h-281l41 924l-342 -924h-164l520 1407q-153 -51 -239 -168t-86 -293q0 -88 24 -128q4 -7 4 -13z" />
    <glyph glyph-name="afii10031" unicode="&#x41d;" horiz-adv-x="1362" 
d="M801 0l164 770h-301l-164 -770h-295l297 1393q-136 -58 -211.5 -171t-75.5 -278q0 -81 25 -125q4 -8 4 -14q-166 0 -205 105q-14 38 -14 94q0 103 65 198q131 195 396 289q127 45 257 45q42 0 82 -4l-131 -610h301l131 610h295l-325 -1532h-295z" />
    <glyph glyph-name="afii10032" unicode="&#x41e;" horiz-adv-x="1362" 
d="M858 1536q485 0 485 -524q0 -353 -177 -660q-126 -221 -336 -316q-108 -48 -215.5 -48t-174.5 22q-219 74 -219 389q0 211 79 449q126 384 346 484q61 28 126.5 28t110.5 -17q-89 -53 -176 -227q-126 -249 -169 -552q-14 -94 -14 -173q0 -237 119 -237h2q99 0 198 144
t163.5 363.5t64.5 416t-54 280.5t-208 84q-246 0 -418 -145.5t-172 -381.5q0 -60 10.5 -79.5t10.5 -30.5q-100 0 -153.5 39t-53.5 139t68 201q145 212 447 306q150 46 310 46z" />
    <glyph glyph-name="afii10033" unicode="&#x41f;" horiz-adv-x="1409" 
d="M1614 1528q-6 -255 -246 -260l-272 -1268h-295l278 1292l-293 47l-286 -1339h-295l289 1348q-279 -49 -279 -406q0 -81 25 -125q4 -8 4 -14q-166 0 -205 105q-14 38 -14 117t38 175t121 170q184 164 539 164q119 0 253 -17t216 -24.5t199 -7.5t223 43z" />
    <glyph glyph-name="afii10034" unicode="&#x420;" horiz-adv-x="1174" 
d="M193 0l278 1303l303 40l-145 -684q150 14 254 172t104 342t-139 247q-48 22 -115 22q-250 0 -390 -131t-140 -367q0 -83 23 -125q5 -8 5 -14q-164 0 -205 105q-14 38 -14 94q0 103 64.5 198.5t166.5 169.5q233 164 479 164t369 -116t123 -287q0 -98 -40.5 -196
t-117.5 -177q-172 -176 -433 -176h-11l-125 -584h-294z" />
    <glyph glyph-name="afii10035" unicode="&#x421;" horiz-adv-x="1018" 
d="M1096 1262q0 -189 -144 -189q-72 0 -116 53q37 20 65.5 75t28.5 109.5t-28.5 92t-91 37.5t-116 -42t-100.5 -114q-95 -144 -155 -368t-60 -406.5t53.5 -264t183.5 -81.5q256 0 408 205l47 -21q-98 -248 -373 -344q-108 -38 -212 -38h-6q-227 2 -334 118t-107 373t85 513
q99 302 292 452q148 114 338 114q238 0 315 -149q27 -52 27 -125z" />
    <glyph glyph-name="afii10036" unicode="&#x422;" horiz-adv-x="985" 
d="M899 1315l-283 -1315h-294l290 1356h-24q-181 0 -274 -84q-111 -100 -111 -330q0 -83 23 -125q5 -8 5 -14q-164 0 -205 105q-14 38 -14 117t38 175t122 170q185 164 539 164q145 0 230.5 -15t148.5 -23q64 -9 170.5 -9t212.5 43q-10 -260 -256 -260q-93 0 -318 45z" />
    <glyph glyph-name="afii10037" unicode="&#x423;" horiz-adv-x="1319" 
d="M690 164q71 28 123 151l-293 1084q-144 -54 -224.5 -169t-80.5 -286q0 -81 25 -125q4 -8 4 -14q-166 0 -205 105q-14 38 -14 94q0 103 65 198q131 195 396 289q127 45 257 45q42 0 82 -4l179 -768l323 762h135l-512 -1211q-60 -138 -111 -198q-108 -127 -239 -127
q-130 0 -167 90q-11 27 -11 77.5t37 89t97 38.5q117 0 134 -121z" />
    <glyph glyph-name="afii10038" unicode="&#x424;" horiz-adv-x="1610" 
d="M485 0l45 211q-248 4 -369.5 130.5t-121.5 295t57 277.5q160 301 660 352l65 307q-297 -21 -362 -119q-23 -34 -23 -79t17 -91q-21 -2 -39 -2q-110 0 -152 68q-15 26 -15 51v28q1 51 48.5 95.5t124.5 73.5q153 59 353.5 59t352.5 -31l-77 -358q244 -25 371.5 -145.5
t127.5 -295.5q0 -255 -186.5 -435.5t-487.5 -180.5h-49l-45 -211h-295zM858 307q96 0 174 48t132 125q114 160 114 362q0 275 -250 323l-182 -858h12zM733 1165q-205 -35 -308 -164t-103 -374q0 -126 62.5 -219t166.5 -101z" />
    <glyph glyph-name="afii10039" unicode="&#x425;" horiz-adv-x="1270" 
d="M805 0l-109 512l-297 -512h-125l385 680l-151 719q-144 -54 -224.5 -169t-80.5 -286q0 -83 23 -125q5 -8 5 -14q-164 0 -205 105q-14 38 -14 94q0 103 64.5 198.5t166.5 169.5q233 164 488 164q42 0 82 -4l88 -426l238 420h143l-344 -596l192 -930h-325z" />
    <glyph glyph-name="afii10040" unicode="&#x426;" horiz-adv-x="1417" 
d="M551 150q110 0 266 -64l309 1446h295l-336 -1567q120 -49 214.5 -49t158.5 35q-13 -147 -71 -221t-181.5 -74t-249.5 89q-53 38 -107 83q-206 172 -460 172q-126 0 -186 -12v2q0 2 2 4l297 1397q-135 -56 -211 -168.5t-76 -278.5q0 -81 25 -125q4 -8 4 -14
q-166 0 -205 105q-14 38 -14 94q0 103 65 198q131 195 396 289q127 45 257 45q42 0 82 -4l-293 -1382h19z" />
    <glyph glyph-name="afii10041" unicode="&#x427;" horiz-adv-x="1423" 
d="M1008 682q-135 -80 -303 -80q-201 0 -267 160q-22 56 -22 150.5t22 195.5l64 285q-136 -58 -211.5 -171t-75.5 -278q0 -81 25 -125q4 -8 4 -14q-166 0 -205 105q-14 38 -14 94q0 103 65 198q131 195 396 289q127 45 257 45q42 0 82 -4l-92 -424q-28 -140 -28 -190
q0 -86 43 -121t104 -35q107 0 186 65l150 705h295l-326 -1532h-295z" />
    <glyph glyph-name="afii10042" unicode="&#x428;" horiz-adv-x="1855" 
d="M205 0l297 1393q-136 -58 -211.5 -171t-75.5 -278q0 -81 25 -125q4 -8 4 -14q-166 0 -205 105q-14 38 -14 94q0 103 65 198q131 195 396 289q127 45 257 45q42 0 82 -4l-295 -1380h240l295 1380h295l-295 -1380h260l295 1380h295l-326 -1532h-1384z" />
    <glyph glyph-name="afii10043" unicode="&#x429;" horiz-adv-x="1913" 
d="M600 152q59 0 166 -21l299 1401h295l-311 -1462l123 -30q63 -15 124 -32l324 1524h295l-338 -1587q141 -29 230 -29t147 35q-15 -147 -72 -221t-178 -74q-122 0 -377 89l-228 83q-455 172 -710 172q-138 0 -186 -12v4q0 6 2 8l297 1393q-136 -57 -211.5 -169.5
t-75.5 -277.5q0 -88 23 -128q5 -7 6 -13q-162 0 -204 100q-15 36 -15 88q0 110 65 207q134 203 396 292q129 44 255 44q44 0 84 -4l-295 -1382z" />
    <glyph glyph-name="afii10044" unicode="&#x42a;" horiz-adv-x="1462" 
d="M1106 520q0 252 -195 252q-54 0 -100 -22l-162 -750h-295l291 1354l-53 2q-86 0 -167.5 -14t-124.5 -62q-80 -89 -82 -222v-7q0 -137 77 -252q-35 -7 -85.5 -7t-103.5 35q-81 54 -81 174q0 206 187 369.5t531 163.5q138 0 234 -16l-143 -662q106 37 202 37
q180 0 267.5 -104t87.5 -281.5t-103 -343.5q-52 -84 -135.5 -141.5t-209.5 -57.5t-176 81q-24 40 -24 87.5t23 102.5q58 -74 125.5 -74t106.5 34q108 96 108 324z" />
    <glyph glyph-name="afii10045" unicode="&#x42b;" horiz-adv-x="1862" 
d="M954 520q0 252 -194 252q-55 0 -101 -22l-159 -750h-295l297 1393q-136 -58 -211.5 -171t-75.5 -278q0 -81 25 -125q4 -8 4 -14q-166 0 -205 105q-14 38 -14 94q0 103 65 198q131 195 396 289q127 45 257 45q42 0 82 -4l-143 -676q123 37 212 37q169 0 257 -103t88 -276
q0 -78 -24.5 -172t-78 -178.5t-136.5 -141.5t-176 -57q-158 0 -208 81q-24 40 -24 87.5t22 102.5q58 -74 126 -74t106.5 34t73 109.5t34.5 214.5zM1300 0l326 1532h295l-326 -1532h-295z" />
    <glyph glyph-name="afii10046" unicode="&#x42c;" horiz-adv-x="1311" 
d="M954 520q0 252 -194 252q-55 0 -101 -22l-159 -750h-295l297 1393q-136 -58 -211.5 -171t-75.5 -278q0 -81 25 -125q4 -8 4 -14q-166 0 -205 105q-14 38 -14 94q0 103 65 198q131 195 396 289q127 45 257 45q42 0 82 -4l-143 -676q123 37 212 37q169 0 257 -103t88 -276
q0 -78 -24.5 -172t-78 -178.5t-136.5 -141.5t-176 -57q-158 0 -208 81q-24 40 -24 87.5t22 102.5q58 -74 126 -74t106.5 34t73 109.5t34.5 214.5z" />
    <glyph glyph-name="afii10047" unicode="&#x42d;" horiz-adv-x="1114" 
d="M-23 242q0 188 144 188q73 0 117 -53q-30 -21 -52 -74.5t-22 -109t31 -93t91.5 -37.5t107.5 28t90 77q85 97 151.5 259t97.5 343h-434l33 152h420q4 48 4 111q0 153 -54 240t-202 87t-258 -132q-35 -42 -70 -93l-47 20q77 193 233 293q135 88 269 88t218 -27t140 -87
q111 -119 111 -378q0 -372 -166 -684q-95 -178 -246.5 -285.5t-353.5 -107.5q-248 0 -326 149q-27 52 -27 126z" />
    <glyph glyph-name="afii10048" unicode="&#x42e;" horiz-adv-x="1937" 
d="M850 770h-186l-164 -770h-295l297 1393q-136 -58 -211.5 -171t-75.5 -278q0 -81 25 -125q4 -8 4 -14q-166 0 -205 105q-14 38 -14 94q0 103 65 198q131 195 396 289q127 45 257 45q42 0 82 -4l-131 -610h207q114 291 299 384q66 33 135 33t115 -16q-89 -53 -174 -221
q-118 -234 -162 -540q-14 -92 -14 -171q0 -237 119 -237q77 0 154 84q158 174 236 508q38 163 38 280.5t-15 183.5q-45 211 -268 211q-103 0 -176.5 -35.5t-110.5 -95.5q-8 23 -8 44q0 69 92 135.5t252 66.5q262 0 384 -131t122 -393q0 -351 -177 -660q-127 -221 -337 -316
q-108 -48 -215.5 -48t-174.5 22.5t-115.5 71.5t-75.5 127t-27 221.5t53 339.5z" />
    <glyph glyph-name="afii10049" unicode="&#x42f;" horiz-adv-x="1290" 
d="M387 758q-160 88 -160 292.5t181.5 345t498.5 140.5q218 0 364 -91t146 -241.5t-124 -183.5q-40 -10 -91 -10l15 44q12 31 12 102q0 144 -80 211t-220 67q-244 0 -365.5 -109.5t-121.5 -259t70 -221.5t158 -72h2l114 531l304 40l-287 -1343h-295l145 684
q-83 -5 -124 -24.5t-73 -50t-52.5 -84t-35.5 -117t-27 -129t-22 -111.5q-21 -99 -62 -151t-145 -52t-206 35q74 39 107 89t53 138l47 226q30 148 94 216t180 89z" />
    <glyph glyph-name="afii10065" unicode="&#x430;" horiz-adv-x="1077" 
d="M1163 367q-130 -379 -411 -379q-181 0 -201 188q-134 -188 -312.5 -188t-242.5 175q-23 63 -23 143.5t14 161t43 160.5q64 176 183 291t287 115q88 0 127 -29.5t39 -74.5v-15l22 109h295l-147 -696q-9 -35 -9 -66q0 -88 84 -88q109 0 166 193h86zM647 829
q0 19 -17.5 48.5t-74.5 29.5t-111 -61q-130 -147 -163 -422q-5 -42 -5 -89q0 -91 38 -127q22 -22 55 -22q61 0 111 48.5t69 132.5z" />
    <glyph glyph-name="afii10066" unicode="&#x431;" horiz-adv-x="881" 
d="M604 1192q-26 0 -26 -25q0 -12 34 -51q183 -214 183 -457t-130 -442q-63 -97 -155 -161t-189 -64q-178 0 -263 85t-85 261q0 246 144 431q160 200 415 200q11 0 19 -1t16 -1q-41 49 -85 91t-81 82q-84 92 -84 172.5t53.5 117t168.5 36.5h402q71 0 93 38q13 20 23 61h90
q-49 -233 -117 -305q-39 -40 -94 -54t-135 -14h-197zM297 207q25 -31 76.5 -31t88 32.5t64.5 83.5q50 93 74.5 222t24.5 203t-20 100.5t-63.5 26.5t-83 -31t-70.5 -79q-55 -88 -85.5 -211.5t-30.5 -204t25 -111.5z" />
    <glyph glyph-name="afii10067" unicode="&#x432;" horiz-adv-x="920" 
d="M788 612q11 -35 11 -118.5t-33 -177t-96 -165.5q-138 -159 -359 -159q-169 0 -254.5 100t-85.5 265.5t83 439.5q90 298 225 502q158 239 333 239q96 0 157.5 -64.5t61.5 -223.5t-111 -378l-56 -106q44 -22 77 -61q135 0 297 83q45 23 78 46l19 -56q-120 -126 -347 -166z
M276 354q0 -178 125 -178q95 0 153 89t58 181.5t-18 128.5q-32 -12 -77 -12t-74 26.5t-29 66.5q0 68 37.5 96.5t105.5 33.5q94 170 131 358q12 64 12 124.5t-16 85t-50 24.5q-63 0 -132 -130q-114 -216 -195 -642q-31 -163 -31 -252z" />
    <glyph glyph-name="afii10068" unicode="&#x433;" horiz-adv-x="768" 
d="M838 367q-243 -379 -547 -379q-334 0 -334 231q0 130 113 225q48 41 104 74t104 68q113 80 113 175t-94 95q-132 0 -221 -213h-99q68 192 172.5 295.5t284.5 103.5t244 -125q22 -44 22 -106.5t-18 -111.5t-48 -87q-49 -62 -150 -126l-79 -50q-87 -53 -112 -92.5
t-25 -75.5q0 -108 141.5 -108t264.5 109q45 40 94 98h70z" />
    <glyph glyph-name="afii10069" unicode="&#x434;" horiz-adv-x="1038" 
d="M492 100q-107 -112 -246 -112q-186 0 -250 175q-23 63 -23 143.5t14 161t43 160.5q64 176 183 291t287 115q88 0 127 -29.5t39 -74.5v-12l22 106h295l-203 -950q93 31 153.5 94.5t104.5 198.5h86q-78 -264 -264 -348q-51 -23 -98 -35l-31 -148q-39 -197 -156 -284
q-86 -64 -197 -64t-178 49t-67 157q0 187 334 298zM647 831q0 46 -43 67q-16 9 -41 9q-65 0 -119 -61q-130 -147 -163 -422q-5 -42 -5 -89q0 -91 38 -127q22 -22 54 -22q57 0 106 43.5t69 116.5zM446 -111q-200 -72 -200 -174q0 -41 39 -61q13 -6 38 -6t58 44.5t53 137.5z
" />
    <glyph glyph-name="afii10070" unicode="&#x435;" horiz-adv-x="786" 
d="M856 367q-230 -379 -563 -379q-146 0 -233 75.5t-87 249.5q0 234 119 453q91 167 248 238q81 38 168 38q142 0 193 -53.5t51 -142.5q0 -175 -141 -297.5t-330 -134.5q-5 -58 -5 -82q0 -105 37 -138.5t104 -33.5q118 0 198.5 52.5t170.5 154.5h70zM594 860q0 74 -51 74
q-75 -2 -145 -132.5t-101 -289.5q118 8 207.5 110t89.5 238z" />
    <glyph glyph-name="afii10072" unicode="&#x436;" horiz-adv-x="1806" 
d="M1620 850q0 84 -47 84q-78 0 -152 -199q-69 -198 -69 -381q0 -112 42 -163.5t112 -51.5t158 55t159 173h69q-71 -157 -206 -268t-280 -111t-224.5 88.5t-79.5 236.5q0 102 16 179h-117l-102 -492h-274l104 492h-115q-67 -338 -274 -460q-75 -44 -158 -44q-142 0 -200 62
t-58 155q0 126 75 161q22 11 56.5 11t63.5 -29q-27 -74 -27 -138t24.5 -89t58 -25t63.5 42q93 130 132 345q19 101 19 193q0 215 -125 215q-59 0 -94 -40t-64 -114h-106q87 305 340 305q141 0 220 -88t79 -237q0 -51 -6 -103h123l86 410h274l-86 -410h115q86 294 269 392
q67 36 140 36q125 0 173.5 -54t48.5 -132t-31 -114.5t-71.5 -36.5t-74.5 24q21 67 21 121z" />
    <glyph glyph-name="afii10073" unicode="&#x437;" horiz-adv-x="1020" 
d="M115 -313q0 194 321 301q-6 217 -147 217h-64l27 123h59q110 0 181 102t71 250q0 176 -125 176q-110 0 -196 -113t-156 -376h-86q58 229 96 321q76 183 179 268.5t262 85.5t247 -85t88 -253t-128 -308q-65 -72 -117 -100t-72 -32q49 -17 98 -70t70 -135
q116 36 182.5 100.5t114.5 207.5h86q-79 -268 -274 -354q-53 -23 -101 -36q-4 -229 -109 -359t-278 -130q-95 0 -162 49t-67 150zM430 -111q-203 -71 -203 -174q0 -28 17.5 -47.5t45.5 -19.5q51 0 89 70.5t51 170.5z" />
    <glyph glyph-name="afii10074" unicode="&#x438;" 
d="M1120 367q-130 -379 -411 -379q-183 0 -203 194q-120 -194 -303 -194q-92 0 -156 58q-63 58 -63 187q0 58 16 134l139 657h295l-147 -696q-6 -32 -6 -58q0 -84 61 -84q108 0 164 181l139 657h295l-147 -696q-9 -35 -9 -72q0 -70 84 -70q115 0 166 181h86z" />
    <glyph glyph-name="afii10075" unicode="&#x439;" 
d="M1120 367q-130 -379 -411 -379q-183 0 -203 194q-120 -194 -303 -194q-92 0 -156 58q-63 58 -63 187q0 58 16 134l139 657h295l-147 -696q-6 -32 -6 -58q0 -84 61 -84q108 0 164 181l139 657h295l-147 -696q-9 -35 -9 -72q0 -70 84 -70q115 0 166 181h86zM402 1450
q128 0 128 -117q0 -60 -49 -92q32 -8 82 -8q223 0 316 240h86q-96 -281 -297 -333q-64 -16 -163 -16t-169 47.5t-70 121t37 115.5t99 42z" />
    <glyph glyph-name="afii10076" unicode="&#x43a;" horiz-adv-x="1026" 
d="M518 645q46 8 86 8q111 0 153 -49.5t42 -140.5q0 -24 -4 -48l-9 -49q-12 -71 -12 -104q0 -76 82 -76q62 0 95.5 43t74.5 138h86q-129 -379 -373 -379q-125 0 -186 61.5t-61 165.5q0 51 12 105.5t12 89.5q0 98 -78 98q-36 0 -72 -28l-59 -48l-90 -432h-295l219 1024h295
l-88 -406l128 132l98 107q97 104 154 145q57 40 130.5 40t108 -38.5t34.5 -98t-33 -95.5t-96 -36t-88 34q-24 34 -24 51v20q-58 -35 -104 -85l-76 -84q-29 -32 -62 -65z" />
    <glyph glyph-name="afii10077" unicode="&#x43b;" horiz-adv-x="1143" 
d="M1229 367q-129 -379 -381 -379q-117 0 -179.5 62.5t-62.5 146t45 286.5l90 406q-103 0 -156.5 -86t-90.5 -258t-61 -266.5t-59 -158.5q-71 -132 -227 -132q-112 0 -168.5 68t-56.5 172.5t74 142.5q23 12 62 12t68.5 -29.5t29.5 -79t-25 -73t-57 -19.5q1 -21 16.5 -43
t64 -22t79.5 33q55 57 88 215l30 151q88 428 266 488q58 20 127 20h302l-145 -666q-13 -59 -13 -86q0 -86 82 -86q62 0 99 47.5t73 133.5h86z" />
    <glyph glyph-name="afii10078" unicode="&#x43c;" horiz-adv-x="1583" 
d="M1669 367q-129 -379 -381 -379q-118 0 -180 62q-61 63 -61 151t43 276l32 146l-303 -623h-287l-36 625l-27 -129q-25 -123 -48 -217.5t-57 -158.5q-71 -132 -217 -132q-108 0 -167 72q-58 71 -58 153t33.5 123t87.5 41t83.5 -29.5t29.5 -79t-25 -73t-57 -19.5
q-2 -23 14 -50.5t68.5 -27.5t86 36t55 94.5t36 133.5t31.5 154l108 508h287l43 -786l381 786h303q-119 -554 -138.5 -639.5t-19.5 -112.5q0 -86 82 -86q62 0 99 48q37 47 73 133h86z" />
    <glyph glyph-name="afii10079" unicode="&#x43d;" horiz-adv-x="1038" 
d="M502 205q0 70 47 287h-227l-105 -492h-295l217 1024h295l-88 -410h229l93 410h274l-108 -508l-36 -158q-14 -59 -14 -86q0 -86 82 -86q62 0 99 48q37 47 73 133h86q-129 -379 -381 -379q-118 0 -179 62q-62 63 -62 155z" />
    <glyph glyph-name="afii10080" unicode="&#x43e;" horiz-adv-x="899" 
d="M1151 778q-124 -130 -363 -170q-24 -280 -161 -448t-328 -168q-236 0 -304 174q-24 61 -24 135t12.5 150.5t39.5 157.5q61 183 177 297q138 136 332 136q263 0 263 -327v-2q10 -2 34 -2q55 0 141.5 35t162.5 88zM618 602q-55 14 -55 91t64 106q-4 65 -20.5 92t-64.5 27
q-94 0 -180 -207.5t-86 -368.5q0 -99 18 -125.5t38 -33.5t54 -7q70 0 139 123t93 303z" />
    <glyph glyph-name="afii10081" unicode="&#x43f;" 
d="M780 274q0 -88 75 -88q69 0 106 44t73 137h86q-119 -345 -322 -375q-32 -4 -79 -4t-93 20q-128 54 -128 211q0 84 46 268t46 254q0 105 -74 105t-132 -117q-17 -33 -28 -72l-139 -657h-295l217 1024h295l-22 -106q100 114 239 114q98 0 163 -54t65 -160t-34 -240
l-49 -198q-16 -65 -16 -106z" />
    <glyph glyph-name="afii10082" unicode="&#x440;" horiz-adv-x="989" 
d="M229 61l-106 -499l-309 -74l342 1612h295l-33 -154q102 88 239 88q177 0 231 -170q19 -62 19 -142.5t-9.5 -161t-32.5 -161t-60.5 -154.5t-93.5 -131.5t-132.5 -91.5t-191 -34t-158.5 73zM627 717q0 170 -103 170q-35 0 -73.5 -25t-67.5 -76l-121 -573q18 -47 87.5 -47
t124.5 58q107 114 138 326q15 94 15 167z" />
    <glyph glyph-name="afii10083" unicode="&#x441;" horiz-adv-x="786" 
d="M506 1042q246 0 246 -186q0 -78 -32 -114.5t-72 -36.5t-77 24q25 66 25 121q0 84 -58.5 84t-123.5 -106q-93 -150 -128 -373q-10 -67 -10 -147q0 -148 141 -148q118 0 198.5 52.5t170.5 154.5h70q-230 -379 -563 -379q-146 0 -233 75.5t-87 249.5q0 235 119 454
q90 165 247 237q81 38 167 38z" />
    <glyph glyph-name="afii10084" unicode="&#x442;" horiz-adv-x="1540" 
d="M1266 -12q-262 0 -262 231q0 84 46 268t46 254q0 105 -74 105t-132 -117q-17 -33 -28 -72l-139 -657h-295l150 707q6 24 6 51q0 90 -60.5 90t-103 -56.5t-64.5 -134.5l-139 -657h-295l217 1024h295l-22 -106q102 116 250 116q181 0 210 -176q113 174 285 174
q97 0 162 -54t65 -158t-34 -240l-48 -200q-16 -65 -16 -106q0 -88 75 -88q69 0 106 44t73 137h86q-76 -226 -192 -317q-80 -62 -168 -62z" />
    <glyph glyph-name="afii10085" unicode="&#x443;" horiz-adv-x="995" 
d="M281 276q0 -90 58.5 -90t99.5 48q40 49 63 120l143 670h295l-203 -950q93 31 153.5 94.5t104.5 198.5h86q-78 -264 -264 -348q-51 -23 -98 -35l-31 -148q-39 -197 -156 -284q-86 -64 -197 -64t-178 49t-67 157q0 187 334 298l25 110q-106 -114 -246 -114q-92 0 -156 58
q-63 58 -63 187q0 58 16 134l139 657h295l-147 -696q-6 -26 -6 -52zM403 -111q-200 -72 -200 -174q0 -41 39 -61q13 -6 38 -6t58 44.5t53 137.5z" />
    <glyph glyph-name="afii10086" unicode="&#x444;" horiz-adv-x="1511" 
d="M784 213q17 -47 70.5 -47t93 23t71.5 63q59 74 94.5 203.5t35.5 261.5q0 170 -102 170q-83 0 -142 -101zM645 838q-12 69 -88.5 69t-146.5 -102q-69 -103 -98 -215q-39 -149 -39 -248q0 -105 40 -137q21 -21 49 -21t61 15q79 36 114 133zM356 -512l136 612
q-105 -112 -236.5 -112t-208 79t-76.5 250q0 230 129 461q61 111 164.5 183.5t233.5 72.5q168 0 168 -112l102 471l283 41l-111 -488q100 88 240 88q250 0 250 -314t-120 -510q-135 -222 -392 -222q-123 0 -166 73l-107 -499z" />
    <glyph glyph-name="afii10087" unicode="&#x445;" horiz-adv-x="1069" 
d="M866 926q-96 0 -96 114q0 54 42 77.5t84 23.5q66 0 97 -56t31 -117.5t-18 -107.5q-33 -88 -142 -212l-125 -140l19 -143q12 -98 35 -129.5t44 -40.5t48 -9q59 0 110 51t74 130h86q-76 -214 -205 -309q-95 -70 -205 -70h-8q-193 0 -250 356l-282 -344h-148l414 467
l-33 229q-17 104 -33.5 137t-45.5 33q-65 0 -143.5 -130.5t-129.5 -368.5h-86q49 214 91 306t71 141q64 103 143 161.5t160 58.5t121.5 -23.5t73 -71t45.5 -148.5l18 -156q171 191 178 295q-17 -4 -35 -4z" />
    <glyph glyph-name="afii10088" unicode="&#x446;" horiz-adv-x="1096" 
d="M281 270q0 -84 61 -84q108 0 164 181l139 657h295l-147 -696q-9 -35 -9 -72q0 -70 84 -70h105q-36 -360 -166 -486q-58 -57 -117 -71t-108 -14h-233q-71 0 -94 -37q-13 -20 -22 -61h-90q49 231 119 303q38 41 92.5 55t134.5 14h160q43 0 78 2.5t62 19.5q56 35 81 161
q-72 -74 -136 -82q-21 -2 -46 -2q-72 0 -122 48.5t-60 145.5q-120 -194 -303 -194q-92 0 -156 58q-63 58 -63 187q0 58 16 134l139 657h295l-147 -696q-6 -32 -6 -58z" />
    <glyph glyph-name="afii10089" unicode="&#x447;" 
d="M348 586q0 -84 60.5 -84t104.5 51q43 51 60 129l72 342h295l-147 -696q-9 -35 -9 -72q0 -70 84 -70q115 0 166 181h86q-76 -221 -208 -315q-90 -64 -193 -64t-167 58q-63 58 -63 187q0 54 17 134l10 51q-104 -115 -246 -115q-92 0 -156 58q-63 58 -63 188q0 53 17 133
l71 342h295l-80 -381q-6 -32 -6 -57z" />
    <glyph glyph-name="afii10090" unicode="&#x448;" horiz-adv-x="1540" 
d="M786 270q0 -84 62 -84q108 0 164 181l139 657h295l-148 -696q-8 -37 -8 -73q0 -69 84 -69q115 0 166 181h86q-132 -379 -412 -379q-182 0 -202 194q-120 -194 -303 -194t-203 194q-120 -194 -303 -194q-92 0 -156 58q-63 58 -63 187q0 58 16 134l139 657h295l-147 -696
q-6 -32 -6 -58q0 -84 61 -84q108 0 164 181l139 657h295l-147 -696q-7 -29 -7 -58z" />
    <glyph glyph-name="afii10091" unicode="&#x449;" horiz-adv-x="1602" 
d="M786 270q0 -84 62 -84q108 0 164 181l139 657h295l-148 -696q-8 -37 -8 -73q0 -69 84 -69h105q-36 -362 -167 -486q-58 -57 -116.5 -71t-108.5 -14h-232q-71 0 -94 -37q-13 -20 -22 -61h-90q49 230 119 303q38 41 92.5 55t134.5 14h160q43 0 78 2.5t62 19.5q56 35 81 161
q-72 -74 -136 -82q-21 -2 -46 -2q-72 0 -122 48.5t-60 145.5q-120 -194 -303 -194t-203 194q-120 -194 -303 -194q-92 0 -156 58q-63 58 -63 187q0 58 16 134l139 657h295l-147 -696q-6 -32 -6 -58q0 -84 61 -84q108 0 164 181l139 657h295l-147 -696q-7 -29 -7 -58z" />
    <glyph glyph-name="afii10092" unicode="&#x44a;" horiz-adv-x="918" 
d="M260 913q-113 0 -113 -29q0 -8 3.5 -9t11.5 -6.5t8 -48t-34.5 -68t-63.5 -25.5q-51 0 -79 24t-28 65q0 81 65 144.5t173 63.5h368l-61 -98q-80 -127 -127 -256q101 63 206.5 63t176 -64t70.5 -184q0 -227 -158.5 -362t-378 -135t-287.5 146q-24 50 -24 112.5t16 120.5
t43.5 116t64.5 115q65 101 162 216l86 99h-100zM467 582q-66 0 -121 -35q-55 -149 -61 -202t-6 -79q0 -104 81 -104q86 0 146.5 102.5t60.5 210t-100 107.5z" />
    <glyph glyph-name="afii10093" unicode="&#x44b;" horiz-adv-x="1341" 
d="M1427 367q-129 -379 -378 -379q-118 0 -180 63t-62 147q0 83 48 299l65 291l-230 -133q49 -76 49 -219q0 -142 -109 -282q-128 -166 -349 -166q-141 0 -217 69t-76 193q0 55 14 117l135 657h283l-152 -721q-6 -18 -6 -57q0 -84 89 -84t155 100q67 101 67 240q0 51 -30 78
q-24 -19 -56.5 -19t-63.5 20q-30 21 -30 68.5t37 70.5t80.5 23t81.5 -12q76 34 140 69l250 147q63 38 136 77h127l-108 -508l-37 -158q-13 -59 -13 -86q0 -86 82 -86q62 0 99 48q37 47 73 133h86z" />
    <glyph glyph-name="afii10094" unicode="&#x44c;" horiz-adv-x="918" 
d="M367 692q98 41 181 41q146 0 217 -72t71 -191.5t-71.5 -239.5t-220.5 -192q-103 -50 -247 -50t-226.5 70t-82.5 192q0 55 14 117l139 657h295zM285 303q-6 -18 -6 -57q0 -84 88 -84q76 0 138 94.5t62 173.5q0 152 -110 152q-65 0 -121 -37z" />
    <glyph glyph-name="afii10095" unicode="&#x44d;" horiz-adv-x="877" 
d="M487 614q5 52 5 78q0 105 -40.5 141.5t-115.5 36.5t-118.5 -33.5t-80.5 -99.5h-104q62 151 158.5 228t257.5 77t253.5 -80.5t92.5 -254.5q0 -222 -136 -445q-167 -274 -473 -274q-125 0 -193.5 58t-68.5 171.5t74 148.5q21 11 55 11t66 -29q-27 -74 -27 -139
q0 -113 113 -113q84 0 157 117t107 279h-254l27 122h245z" />
    <glyph glyph-name="afii10096" unicode="&#x44e;" horiz-adv-x="1382" 
d="M1634 778q-123 -130 -362 -170q-24 -280 -161 -448t-329 -168q-235 0 -303 174q-24 61 -24 144t18 182h-154l-102 -492h-295l217 1024h295l-86 -410h160q98 290 322 391q82 37 186 37q262 0 262 -327v-2q10 -2 34 -2q55 0 141.5 35t162.5 88zM1102 602q-55 13 -55 91
t63 106q-4 65 -20.5 92t-63.5 27q-94 0 -180 -204t-86 -372q0 -98 17.5 -125t37.5 -34t53 -7t70.5 33t69.5 90q70 122 94 303z" />
    <glyph glyph-name="afii10097" unicode="&#x44f;" horiz-adv-x="1079" 
d="M328 432q-195 45 -195 238q0 248 283 326q103 28 256 28h311q-119 -554 -138.5 -639.5t-19.5 -112.5q0 -86 82 -86q62 0 99 47.5t73 133.5h86q-129 -379 -381 -379q-118 0 -179.5 62.5t-61.5 143.5t37 240q-56 -12 -115 -12q-57 -238 -100 -307.5t-92 -98t-114 -28.5
q-118 0 -177.5 66.5t-59.5 172.5t74 144q23 12 62 12t68.5 -29.5t29.5 -79t-25 -73t-57 -19.5q6 -65 79 -65t107.5 87t67.5 228zM684 913h-49q-122 0 -183 -66t-61 -163.5t43 -131.5t105 -34h32q15 0 27 4z" />
    <glyph glyph-name="afii61352" unicode="&#x2116;" horiz-adv-x="2040" 
d="M901 0l-174 1071l-227 -1071h-295l295 1391q-136 -57 -210.5 -169.5t-74.5 -277.5q0 -81 25 -125q4 -8 4 -14q-166 0 -205 105q-14 38 -14 95.5t18.5 119.5t53.5 121q76 129 207.5 209.5t299.5 80.5q48 0 97 -3t94 -26l161 -1085l224 1110h295l-326 -1532h-248zM1670 702
q-76 0 -132.5 46t-56.5 155q0 53 17 131q39 174 165 268q67 50 164 50q172 0 172 -200t-92 -325t-237 -125zM1382 455l37 161h533l-35 -161h-535zM1730 815q62 0 109 107.5t47 248.5q0 52 -10 77.5t-36 25.5t-47 -17.5t-39 -46.5q-35 -55 -60 -140t-25 -146t14.5 -85
t46.5 -24z" />
    <glyph glyph-name="afii10071" unicode="&#x451;" horiz-adv-x="786" 
d="M856 367q-230 -379 -563 -379q-146 0 -233 75.5t-87 249.5q0 234 119 453q91 167 248 238q81 38 168 38q142 0 193 -53.5t51 -142.5q0 -175 -141 -297.5t-330 -134.5q-5 -58 -5 -82q0 -105 37 -138.5t104 -33.5q118 0 198.5 52.5t170.5 154.5h70zM594 860q0 74 -51 74
q-75 -2 -145 -132.5t-101 -289.5q118 8 207.5 110t89.5 238zM825 1209q-38 -35 -77 -35q-64 0 -100 35t-36 88t36 89.5t88 36.5t89 -36.5t37 -89t-37 -88.5zM457 1209q-38 -35 -77 -35q-66 0 -101 35.5t-35 87.5t35 89q36 37 88.5 37t89.5 -36.5t37 -89t-37 -88.5z" />
    <glyph glyph-name="afii10099" unicode="&#x452;" horiz-adv-x="1006" 
d="M381 776q101 115 242 115q98 0 162.5 -54.5t64.5 -177.5q0 -42 -14 -110l-105 -475q96 31 164 95q67 64 111 198h86q-80 -262 -278 -347q-55 -24 -105 -36l-33 -148q-65 -287 -244 -334q-51 -14 -124 -14t-140.5 49.5t-67.5 160t111 194.5q87 67 225 106l105 484
q7 31 11 52l6 31q3 22 3 35q0 105 -74 105q-55 0 -99.5 -55.5t-61.5 -133.5l-109 -516h-295l217 1024h-110l22 111h113l55 258l303 41l-63 -299h256l-25 -111h-256zM416 -104q-145 -56 -186 -121q-17 -27 -17 -49q0 -35 19 -56.5t51 -21.5t65 44.5t46.5 110.5t21.5 93z" />
    <glyph glyph-name="afii10100" unicode="&#x453;" horiz-adv-x="768" 
d="M838 367q-243 -379 -547 -379q-334 0 -334 231q0 130 113 225q48 41 104 74t104 68q113 80 113 175t-94 95q-132 0 -221 -213h-99q68 192 172.5 295.5t284.5 103.5t244 -125q22 -44 22 -106.5t-18 -111.5t-48 -87q-49 -62 -150 -126l-79 -50q-87 -53 -112 -92.5
t-25 -75.5q0 -108 141.5 -108t264.5 109q45 40 94 98h70zM400 1149l186 387h215l-248 -387h-153z" />
    <glyph glyph-name="afii10101" unicode="&#x454;" horiz-adv-x="786" 
d="M506 1042q246 0 246 -186q0 -78 -32 -114.5t-72 -36.5t-77 24q25 66 25 121q0 84 -57 84q-91 0 -173 -199q-24 -58 -42 -121h243l-26 -122h-248q-17 -88 -17 -176.5t37 -122t104 -33.5q118 0 198.5 52.5t170.5 154.5h70q-230 -379 -563 -379q-146 0 -233 75.5t-87 249.5
q0 235 119 454q90 165 247 237q81 38 167 38z" />
    <glyph glyph-name="afii10102" unicode="&#x455;" horiz-adv-x="782" 
d="M868 367q-127 -148 -313 -256q-116 -123 -322 -123q-144 0 -221.5 78.5t-77.5 167t34 137.5t75 69q144 258 252 607l303 40q8 -192 16 -321l25 -325q4 -48 4 -95t-8 -82q90 52 147 103h86zM150 150q196 0 196 190q0 53 -8 125l-12 117q-11 112 -19 243
q-52 -168 -166 -387q47 -22 47 -65.5t-24.5 -75t-66 -31.5t-54.5 27q0 -143 107 -143z" />
    <glyph glyph-name="afii10103" unicode="&#x456;" horiz-adv-x="547" 
d="M506 1296q0 -68 -48.5 -114.5t-116 -46.5t-114.5 47t-47 114t46.5 115.5t115 48.5t116.5 -48t48 -116zM633 367q-132 -379 -441 -379q-81 0 -145 58q-63 58 -63 187q0 58 16 134l139 657h295l-147 -696q-8 -37 -8 -73q0 -69 83 -69q60 0 111.5 52t73.5 129h86z" />
    <glyph glyph-name="afii10104" unicode="&#x457;" horiz-adv-x="547" 
d="M633 367q-132 -379 -441 -379q-81 0 -145 58q-63 58 -63 187q0 58 16 134l139 657h295l-147 -696q-8 -37 -8 -73q0 -69 83 -69q60 0 111.5 52t73.5 129h86zM246 1209q-38 -35 -76 -35q-66 0 -101.5 35.5t-35.5 87.5t35 89q36 37 88.5 37t89.5 -36.5t37 -89t-37 -88.5z
M538 1174q-96 0 -128 74q-9 23 -9 62.5t36 76t88.5 36.5t89 -36.5t36.5 -89t-37 -88t-76 -35.5z" />
    <glyph glyph-name="afii10105" unicode="&#x458;" horiz-adv-x="492" 
d="M184 -164q-39 -197 -156 -284q-86 -64 -196.5 -64t-178 49.5t-67.5 149.5q0 166 218 260q60 26 118 45l219 1032h295l-203 -950q95 32 155 95t104 198h86q-80 -263 -264 -347q-51 -24 -99 -36zM489 1298q0 -68 -48.5 -114.5t-115.5 -46.5t-114 47t-47 114t46.5 115.5
t114.5 48.5t116 -48t48 -116zM-100 -111q-201 -70 -201 -174q0 -41 39 -61q13 -6 38 -6t58 44.5t53 137.5z" />
    <glyph glyph-name="afii10106" unicode="&#x459;" horiz-adv-x="1526" 
d="M975 692q98 41 213.5 41t185.5 -71t70 -216.5t-121 -286.5q-154 -171 -410 -171q-139 0 -220 69.5t-81 192.5q0 57 15 117l114 522q-103 0 -156.5 -86t-90.5 -258t-61 -266.5t-59 -158.5q-71 -132 -227 -132q-112 0 -168.5 68t-56.5 172.5t74 142.5q23 12 62 12
t68.5 -29.5t29.5 -79t-25 -73t-57 -19.5q1 -21 16.5 -43t64 -22t79.5 33q55 57 88 215l30 151q88 428 266 488q58 20 127 20h302zM893 303q-6 -18 -6 -57q0 -84 88 -84q75 0 138 94t63 174q0 152 -111 152q-65 0 -121 -37z" />
    <glyph glyph-name="afii10107" unicode="&#x45a;" horiz-adv-x="1421" 
d="M870 692q98 41 213.5 41t185.5 -71t70 -192q0 -176 -137 -329q-49 -54 -150 -103.5t-241.5 -49.5t-221.5 69.5t-81 192.5q0 55 14 117l27 125h-227l-105 -492h-295l217 1024h295l-88 -410h232l90 410h274zM788 303q-6 -18 -6 -57q0 -84 88 -84q75 0 138 94t63 174
q0 152 -110 152q-65 0 -121 -37z" />
    <glyph glyph-name="afii10108" unicode="&#x45b;" 
d="M780 278q0 -92 75 -92q69 0 106 44t73 137h86q-119 -345 -322 -375q-32 -4 -79 -4t-93 20q-128 54 -128 211q0 60 22 157l31 143q10 47 10 81q0 105 -74 105q-55 0 -99.5 -55.5t-61.5 -133.5l-109 -516h-295l217 1024h-110l22 111h113l55 258l303 41l-63 -299h256
l-25 -111h-256l-53 -248q101 115 242 115q98 0 162.5 -54.5t64.5 -177.5q0 -63 -35 -200t-35 -181z" />
    <glyph glyph-name="afii10109" unicode="&#x45c;" horiz-adv-x="1026" 
d="M518 645q46 8 86 8q111 0 153 -49.5t42 -140.5q0 -24 -4 -48l-9 -49q-12 -71 -12 -104q0 -76 82 -76q62 0 95.5 43t74.5 138h86q-129 -379 -373 -379q-125 0 -186 61.5t-61 165.5q0 51 12 105.5t12 89.5q0 98 -78 98q-36 0 -72 -28l-59 -48l-90 -432h-295l219 1024h295
l-88 -406l128 132l98 107q97 104 154 145q57 40 130.5 40t108 -38.5t34.5 -98t-33 -95.5t-96 -36t-88 34q-24 34 -24 51v20q-58 -35 -104 -85l-76 -84q-29 -32 -62 -65zM475 1149l186 387h215l-248 -387h-153z" />
    <glyph glyph-name="section" unicode="&#xa7;" horiz-adv-x="1110" 
d="M799 272q0 -176 -117.5 -279.5t-327.5 -103.5q-256 0 -321 165q-17 44 -17 104q0 111 56 182q57 70 129.5 70t109 -33.5t64.5 -69.5q-134 -12 -157 -89q-9 -27 -9 -86.5t38 -99.5t122 -40q172 0 172 198q-3 158 -118 276l-134 124q-117 104 -117 213.5t61.5 184
t151.5 108.5q-11 47 -11 110.5t40 133.5q74 129 238 174q87 23 167.5 23t151.5 -31q104 -44 104 -161t-78 -157q-25 -12 -64 -12t-69 32q35 21 54.5 60.5t19.5 71.5q0 58 -29.5 89t-78.5 31q-89 0 -144 -66t-55 -153q0 -117 127 -221q36 -30 75 -59q93 -69 148 -147
t55 -197.5t-63 -217t-174 -120.5v-7zM428 995q-39 -24 -39 -69t25 -82.5t63.5 -74.5t86.5 -77q185 -154 222 -317q39 49 39 133q0 136 -138 248l-147 117q-66 51 -112 122z" />
    <glyph glyph-name="afii10110" unicode="&#x45e;" horiz-adv-x="995" 
d="M281 276q0 -90 61 -90q87 0 136 101q15 31 24 67l143 670h295l-203 -950q93 31 153.5 94.5t104.5 198.5h86q-78 -264 -264 -348q-51 -23 -98 -35l-31 -148q-39 -197 -156 -284q-86 -64 -197 -64t-178 49t-67 157q0 187 334 298l25 110q-106 -114 -246 -114q-92 0 -156 58
q-63 58 -63 187q0 58 16 134l139 657h295l-147 -696q-6 -26 -6 -52zM402 1450q128 0 128 -117q0 -60 -49 -92q32 -8 82 -8q223 0 316 240h86q-96 -281 -297 -333q-64 -16 -163 -16t-169 47.5t-70 121t37 115.5t99 42zM403 -111q-200 -72 -200 -174q0 -41 39 -61q13 -6 38 -6
t58 44.5t53 137.5z" />
    <glyph glyph-name="afii10193" unicode="&#x45f;" 
d="M1120 367q-130 -379 -411 -379q-183 0 -203 194q-120 -194 -303 -194q-92 0 -156 58q-63 58 -63 187q0 58 16 134l139 657h295l-147 -696q-6 -32 -6 -58q0 -84 61 -84q108 0 164 181l139 657h295l-147 -696q-9 -35 -9 -72q0 -70 84 -70q115 0 166 181h86zM596 -291
q-4 -107 -111 -221h-104q27 27 27 60t-15.5 54.5t-34.5 43.5q-49 59 -49 125q0 120 109 229h104q-26 -26 -26 -56t16 -52l34 -48q50 -68 50 -135z" />
    <glyph glyph-name="A.salt" horiz-adv-x="1208" 
d="M645 0l158 750h-324q-151 -368 -201 -692q-16 -101 -16 -157.5t4.5 -77t10 -30.5t10 -14t4.5 -10q-140 5 -184 31q-91 53 -91 198q0 146 100 404q161 412 426 752q184 236 370 334q95 50 186 50q92 0 164 -29l-2 -2h2l-322 -1507h-295zM940 1397q-210 -98 -416 -541h301z
" />
    <glyph glyph-name="AE" unicode="&#xc6;" horiz-adv-x="1565" 
d="M958 743q-148 66 -276 74q-180 -394 -244 -744q-20 -109 -20 -169t4.5 -80.5t9.5 -30.5t9.5 -14t4.5 -10q-139 5 -183 31q-91 53 -91 198q0 204 178 584q56 118 123 235q-92 -6 -154.5 -28.5t-85.5 -77.5q9 0 18 -20.5t9 -48.5t-29.5 -51.5t-85 -23.5t-91.5 30t-36 88
q0 105 121 176t279 71q53 0 121 -6q258 421 530 563q94 49 184 49q42 0 85 -6l88 -14q124 -21 196 -21q123 0 240 39l-23 -74q-46 -151 -197 -151q-78 0 -136 21l-117 44l-111 -518h317l-41 -151h-309l-104 -490h458l-43 -217h-755zM723 903q131 -24 254 -69l119 557
q-184 -102 -373 -488z" />
    <glyph glyph-name="Aacute" unicode="&#xc1;" horiz-adv-x="1368" 
d="M438 70q-20 -109 -20 -186.5t28 -116.5q-121 0 -170 25q-104 52 -104 192q0 212 178 596q56 120 123 237q-96 -6 -157.5 -29.5t-82.5 -76.5q9 0 18 -20.5t9 -50.5t-33.5 -51.5t-70.5 -21.5q-67 0 -102.5 31.5t-35.5 85.5q0 106 119 180q121 74 299 74q41 0 107 -6
q166 261 352.5 432.5t359.5 171.5q104 0 162 -29l-321 -1507h-295l157 743q-136 62 -274 74q-184 -407 -246 -747zM727 905q143 -28 250 -71l119 557q-176 -96 -369 -486zM996 1661l186 387h215l-248 -387h-153z" />
    <glyph glyph-name="Acircumflex" unicode="&#xc2;" horiz-adv-x="1368" 
d="M438 70q-20 -109 -20 -186.5t28 -116.5q-121 0 -170 25q-104 52 -104 192q0 212 178 596q56 120 123 237q-96 -6 -157.5 -29.5t-82.5 -76.5q9 0 18 -20.5t9 -50.5t-33.5 -51.5t-70.5 -21.5q-67 0 -102.5 31.5t-35.5 85.5q0 106 119 180q121 74 299 74q41 0 107 -6
q166 261 352.5 432.5t359.5 171.5q104 0 162 -29l-321 -1507h-295l157 743q-136 62 -274 74q-184 -407 -246 -747zM727 905q143 -28 250 -71l119 557q-176 -96 -369 -486zM1369 1661l-123 164l-322 -164h-90l434 387h43l123 -387h-65z" />
    <glyph glyph-name="Adieresis" unicode="&#xc4;" horiz-adv-x="1368" 
d="M438 70q-20 -109 -20 -186.5t28 -116.5q-121 0 -170 25q-104 52 -104 192q0 212 178 596q56 120 123 237q-96 -6 -157.5 -29.5t-82.5 -76.5q9 0 18 -20.5t9 -50.5t-33.5 -51.5t-70.5 -21.5q-67 0 -102.5 31.5t-35.5 85.5q0 106 119 180q121 74 299 74q41 0 107 -6
q166 261 352.5 432.5t359.5 171.5q104 0 162 -29l-321 -1507h-295l157 743q-136 62 -274 74q-184 -407 -246 -747zM727 905q143 -28 250 -71l119 557q-176 -96 -369 -486zM1094 1721q-38 -35 -76 -35q-66 0 -101.5 35.5t-35.5 87.5t35 89q36 37 88.5 37t89.5 -36.5t37 -89
t-37 -88.5zM1462 1721q-38 -35 -76 -35q-65 0 -101 35t-36 88t36 89.5t88 36.5t89 -36.5t37 -89t-37 -88.5z" />
    </font>
</defs>
</svg>
